M48
; DRILL file KiCad 10.0.3 date 2026-09-08T17:46:18
; FORMAT={-:-/ absolute / metric / decimal}
; #@! TF.CreationDate,2026-09-08T17:46:18+02:00
; #@! TF.GenerationSoftware,Kicad,Pcbnew,10.0.3
; #@! TF.FileFunction,MixedPlating,1,2
FMAT,2
METRIC
; #@! TA.AperFunction,Plated,PTH,ViaDrill
T1C0.300
; #@! TA.AperFunction,Plated,PTH,ComponentDrill
T2C0.600
; #@! TA.AperFunction,Plated,PTH,ComponentDrill
T3C1.000
; #@! TA.AperFunction,NonPlated,NPTH,ComponentDrill
T4C0.650
; #@! TA.AperFunction,NonPlated,NPTH,ComponentDrill
T5C2.200
%
G90
G05
T1
X135.95Y-88.65
X136.05Y-96.65
X137.55Y-88.65
X137.55Y-90.95
X137.55Y-96.65
X138.25Y-82.75
X140.65Y-83.75
X140.75Y-76.55
X140.75Y-82.75
X141.25Y-82.05
X141.45Y-83.45
X141.75Y-134.55
X143.15Y-79.75
X143.15Y-94.45
X144.25Y-83.75
X145.85Y-144.45
X147.55Y-146.75
X148.025Y-81.725
X148.025Y-83.7
X148.025Y-85.675
X148.55Y-89.45
X148.55Y-90.95
X148.85Y-136.05
X148.85Y-142.65
X148.95Y-93.75
X149.35Y-130.85
X149.95Y-88.45
X150.0Y-81.725
X150.0Y-83.7
X150.0Y-85.675
X150.05Y-129.15
X150.25Y-135.95
X150.75Y-90.95
X150.75Y-130.85
X151.65Y-132.05
X151.975Y-81.725
X151.975Y-83.7
X151.975Y-85.675
X152.35Y-132.55
X152.45Y-146.75
X153.15Y-136.55
X153.25Y-88.45
X153.25Y-141.25
X154.05Y-88.75
X154.25Y-137.25
X154.65Y-139.85
X155.35Y-89.45
X156.45Y-90.15
X156.45Y-91.05
X156.65Y-138.75
X156.85Y-84.85
X157.25Y-138.15
X158.75Y-88.35
X159.65Y-89.95
X160.05Y-85.05
X171.65Y-136.45
X187.65Y-111.75
T3
X175.0Y-119.0
X175.0Y-121.54
T4
X147.11Y-149.0
X152.89Y-149.0
T5
X128.787Y-83.787
X128.787Y-126.213
X171.213Y-83.787
X171.213Y-126.213
T2
X145.68Y-147.92G85X145.68Y-149.02
G05
X145.68Y-152.35G85X145.68Y-152.95
G05
X154.32Y-147.92G85X154.32Y-149.02
G05
X154.32Y-152.35G85X154.32Y-152.95
G05
M30
