G04 #@! TF.GenerationSoftware,KiCad,Pcbnew,10.0.3*
G04 #@! TF.CreationDate,2026-09-09T15:17:56+02:00*
G04 #@! TF.ProjectId,Halo,48616c6f-2e6b-4696-9361-645f70636258,rev?*
G04 #@! TF.SameCoordinates,Original*
G04 #@! TF.FileFunction,Copper,L1,Top*
G04 #@! TF.FilePolarity,Positive*
%FSLAX46Y46*%
G04 Gerber Fmt 4.6, Leading zero omitted, Abs format (unit mm)*
G04 Created by KiCad (PCBNEW 10.0.3) date 2026-09-09 15:17:56*
%MOMM*%
%LPD*%
G01*
G04 APERTURE LIST*
G04 Aperture macros list*
%AMRoundRect*
0 Rectangle with rounded corners*
0 $1 Rounding radius*
0 $2 $3 $4 $5 $6 $7 $8 $9 X,Y pos of 4 corners*
0 Add a 4 corners polygon primitive as box body*
4,1,4,$2,$3,$4,$5,$6,$7,$8,$9,$2,$3,0*
0 Add four circle primitives for the rounded corners*
1,1,$1+$1,$2,$3*
1,1,$1+$1,$4,$5*
1,1,$1+$1,$6,$7*
1,1,$1+$1,$8,$9*
0 Add four rect primitives between the rounded corners*
20,1,$1+$1,$2,$3,$4,$5,0*
20,1,$1+$1,$4,$5,$6,$7,0*
20,1,$1+$1,$6,$7,$8,$9,0*
20,1,$1+$1,$8,$9,$2,$3,0*%
G04 Aperture macros list end*
G04 #@! TA.AperFunction,SMDPad,CuDef*
%ADD10RoundRect,0.150000X-0.150000X-0.575000X0.150000X-0.575000X0.150000X0.575000X-0.150000X0.575000X0*%
G04 #@! TD*
G04 #@! TA.AperFunction,SMDPad,CuDef*
%ADD11RoundRect,0.075000X-0.075000X-0.650000X0.075000X-0.650000X0.075000X0.650000X-0.075000X0.650000X0*%
G04 #@! TD*
G04 #@! TA.AperFunction,ComponentPad*
%ADD12O,1.000000X2.100000*%
G04 #@! TD*
G04 #@! TA.AperFunction,ComponentPad*
%ADD13O,1.000000X1.600000*%
G04 #@! TD*
G04 #@! TA.AperFunction,SMDPad,CuDef*
%ADD14RoundRect,0.312500X-0.312500X-0.562500X0.312500X-0.562500X0.312500X0.562500X-0.312500X0.562500X0*%
G04 #@! TD*
G04 #@! TA.AperFunction,SMDPad,CuDef*
%ADD15RoundRect,0.250000X-0.262500X-0.450000X0.262500X-0.450000X0.262500X0.450000X-0.262500X0.450000X0*%
G04 #@! TD*
G04 #@! TA.AperFunction,SMDPad,CuDef*
%ADD16RoundRect,0.150000X-0.512500X-0.150000X0.512500X-0.150000X0.512500X0.150000X-0.512500X0.150000X0*%
G04 #@! TD*
G04 #@! TA.AperFunction,SMDPad,CuDef*
%ADD17RoundRect,0.250000X-1.500000X-0.550000X1.500000X-0.550000X1.500000X0.550000X-1.500000X0.550000X0*%
G04 #@! TD*
G04 #@! TA.AperFunction,SMDPad,CuDef*
%ADD18RoundRect,0.375000X-0.625000X-0.375000X0.625000X-0.375000X0.625000X0.375000X-0.625000X0.375000X0*%
G04 #@! TD*
G04 #@! TA.AperFunction,SMDPad,CuDef*
%ADD19RoundRect,0.500000X-0.500000X-1.400000X0.500000X-1.400000X0.500000X1.400000X-0.500000X1.400000X0*%
G04 #@! TD*
G04 #@! TA.AperFunction,SMDPad,CuDef*
%ADD20RoundRect,0.250000X0.475000X-0.250000X0.475000X0.250000X-0.475000X0.250000X-0.475000X-0.250000X0*%
G04 #@! TD*
G04 #@! TA.AperFunction,ComponentPad*
%ADD21R,1.700000X1.700000*%
G04 #@! TD*
G04 #@! TA.AperFunction,ComponentPad*
%ADD22C,1.700000*%
G04 #@! TD*
G04 #@! TA.AperFunction,SMDPad,CuDef*
%ADD23C,1.500000*%
G04 #@! TD*
G04 #@! TA.AperFunction,SMDPad,CuDef*
%ADD24R,0.800000X0.400000*%
G04 #@! TD*
G04 #@! TA.AperFunction,SMDPad,CuDef*
%ADD25R,0.400000X0.800000*%
G04 #@! TD*
G04 #@! TA.AperFunction,SMDPad,CuDef*
%ADD26R,1.450000X1.450000*%
G04 #@! TD*
G04 #@! TA.AperFunction,SMDPad,CuDef*
%ADD27R,0.700000X0.700000*%
G04 #@! TD*
G04 #@! TA.AperFunction,SMDPad,CuDef*
%ADD28RoundRect,0.250000X0.450000X-0.262500X0.450000X0.262500X-0.450000X0.262500X-0.450000X-0.262500X0*%
G04 #@! TD*
G04 #@! TA.AperFunction,SMDPad,CuDef*
%ADD29R,1.700000X1.000000*%
G04 #@! TD*
G04 #@! TA.AperFunction,SMDPad,CuDef*
%ADD30RoundRect,0.250000X-0.250000X-0.475000X0.250000X-0.475000X0.250000X0.475000X-0.250000X0.475000X0*%
G04 #@! TD*
G04 #@! TA.AperFunction,SMDPad,CuDef*
%ADD31RoundRect,0.175000X-0.150661X-0.196345X0.196345X-0.150661X0.150661X0.196345X-0.196345X0.150661X0*%
G04 #@! TD*
G04 #@! TA.AperFunction,SMDPad,CuDef*
%ADD32RoundRect,0.175000X-0.094709X-0.228649X0.228649X-0.094709X0.094709X0.228649X-0.228649X0.094709X0*%
G04 #@! TD*
G04 #@! TA.AperFunction,SMDPad,CuDef*
%ADD33RoundRect,0.175000X-0.032304X-0.245370X0.245370X-0.032304X0.032304X0.245370X-0.245370X0.032304X0*%
G04 #@! TD*
G04 #@! TA.AperFunction,SMDPad,CuDef*
%ADD34RoundRect,0.175000X0.032304X-0.245370X0.245370X0.032304X-0.032304X0.245370X-0.245370X-0.032304X0*%
G04 #@! TD*
G04 #@! TA.AperFunction,SMDPad,CuDef*
%ADD35RoundRect,0.175000X0.094709X-0.228649X0.228649X0.094709X-0.094709X0.228649X-0.228649X-0.094709X0*%
G04 #@! TD*
G04 #@! TA.AperFunction,SMDPad,CuDef*
%ADD36RoundRect,0.175000X0.150661X-0.196345X0.196345X0.150661X-0.150661X0.196345X-0.196345X-0.150661X0*%
G04 #@! TD*
G04 #@! TA.AperFunction,SMDPad,CuDef*
%ADD37RoundRect,0.175000X0.196345X-0.150661X0.150661X0.196345X-0.196345X0.150661X-0.150661X-0.196345X0*%
G04 #@! TD*
G04 #@! TA.AperFunction,SMDPad,CuDef*
%ADD38RoundRect,0.175000X0.228649X-0.094709X0.094709X0.228649X-0.228649X0.094709X-0.094709X-0.228649X0*%
G04 #@! TD*
G04 #@! TA.AperFunction,SMDPad,CuDef*
%ADD39RoundRect,0.175000X0.245370X-0.032304X0.032304X0.245370X-0.245370X0.032304X-0.032304X-0.245370X0*%
G04 #@! TD*
G04 #@! TA.AperFunction,SMDPad,CuDef*
%ADD40RoundRect,0.175000X0.245370X0.032304X-0.032304X0.245370X-0.245370X-0.032304X0.032304X-0.245370X0*%
G04 #@! TD*
G04 #@! TA.AperFunction,SMDPad,CuDef*
%ADD41RoundRect,0.175000X0.228649X0.094709X-0.094709X0.228649X-0.228649X-0.094709X0.094709X-0.228649X0*%
G04 #@! TD*
G04 #@! TA.AperFunction,SMDPad,CuDef*
%ADD42RoundRect,0.175000X0.196345X0.150661X-0.150661X0.196345X-0.196345X-0.150661X0.150661X-0.196345X0*%
G04 #@! TD*
G04 #@! TA.AperFunction,SMDPad,CuDef*
%ADD43RoundRect,0.175000X0.150661X0.196345X-0.196345X0.150661X-0.150661X-0.196345X0.196345X-0.150661X0*%
G04 #@! TD*
G04 #@! TA.AperFunction,SMDPad,CuDef*
%ADD44RoundRect,0.175000X0.094709X0.228649X-0.228649X0.094709X-0.094709X-0.228649X0.228649X-0.094709X0*%
G04 #@! TD*
G04 #@! TA.AperFunction,SMDPad,CuDef*
%ADD45RoundRect,0.175000X0.032304X0.245370X-0.245370X0.032304X-0.032304X-0.245370X0.245370X-0.032304X0*%
G04 #@! TD*
G04 #@! TA.AperFunction,SMDPad,CuDef*
%ADD46RoundRect,0.175000X-0.032304X0.245370X-0.245370X-0.032304X0.032304X-0.245370X0.245370X0.032304X0*%
G04 #@! TD*
G04 #@! TA.AperFunction,SMDPad,CuDef*
%ADD47RoundRect,0.175000X-0.094709X0.228649X-0.228649X-0.094709X0.094709X-0.228649X0.228649X0.094709X0*%
G04 #@! TD*
G04 #@! TA.AperFunction,SMDPad,CuDef*
%ADD48RoundRect,0.175000X-0.150661X0.196345X-0.196345X-0.150661X0.150661X-0.196345X0.196345X0.150661X0*%
G04 #@! TD*
G04 #@! TA.AperFunction,SMDPad,CuDef*
%ADD49RoundRect,0.175000X-0.196345X0.150661X-0.150661X-0.196345X0.196345X-0.150661X0.150661X0.196345X0*%
G04 #@! TD*
G04 #@! TA.AperFunction,SMDPad,CuDef*
%ADD50RoundRect,0.175000X-0.228649X0.094709X-0.094709X-0.228649X0.228649X-0.094709X0.094709X0.228649X0*%
G04 #@! TD*
G04 #@! TA.AperFunction,SMDPad,CuDef*
%ADD51RoundRect,0.175000X-0.245370X0.032304X-0.032304X-0.245370X0.245370X-0.032304X0.032304X0.245370X0*%
G04 #@! TD*
G04 #@! TA.AperFunction,SMDPad,CuDef*
%ADD52RoundRect,0.175000X-0.245370X-0.032304X0.032304X-0.245370X0.245370X0.032304X-0.032304X0.245370X0*%
G04 #@! TD*
G04 #@! TA.AperFunction,SMDPad,CuDef*
%ADD53RoundRect,0.175000X-0.228649X-0.094709X0.094709X-0.228649X0.228649X0.094709X-0.094709X0.228649X0*%
G04 #@! TD*
G04 #@! TA.AperFunction,SMDPad,CuDef*
%ADD54RoundRect,0.175000X-0.196345X-0.150661X0.150661X-0.196345X0.196345X0.150661X-0.150661X0.196345X0*%
G04 #@! TD*
G04 #@! TA.AperFunction,SMDPad,CuDef*
%ADD55RoundRect,0.225000X0.292773X-0.165557X0.195375X0.273777X-0.292773X0.165557X-0.195375X-0.273777X0*%
G04 #@! TD*
G04 #@! TA.AperFunction,SMDPad,CuDef*
%ADD56RoundRect,0.225000X0.325646X-0.084140X0.117859X0.315015X-0.325646X0.084140X-0.117859X-0.315015X0*%
G04 #@! TD*
G04 #@! TA.AperFunction,SMDPad,CuDef*
%ADD57RoundRect,0.225000X0.336327X0.003010X0.032312X0.334785X-0.336327X-0.003010X-0.032312X-0.334785X0*%
G04 #@! TD*
G04 #@! TA.AperFunction,SMDPad,CuDef*
%ADD58RoundRect,0.225000X0.324088X0.089955X-0.055438X0.331740X-0.324088X-0.089955X0.055438X-0.331740X0*%
G04 #@! TD*
G04 #@! TA.AperFunction,SMDPad,CuDef*
%ADD59RoundRect,0.225000X0.289763X0.170770X-0.139410X0.306088X-0.289763X-0.170770X0.139410X-0.306088X0*%
G04 #@! TD*
G04 #@! TA.AperFunction,SMDPad,CuDef*
%ADD60RoundRect,0.225000X0.235691X0.239948X-0.213881X0.259576X-0.235691X-0.239948X0.213881X-0.259576X0*%
G04 #@! TD*
G04 #@! TA.AperFunction,SMDPad,CuDef*
%ADD61RoundRect,0.225000X0.165557X0.292773X-0.273777X0.195375X-0.165557X-0.292773X0.273777X-0.195375X0*%
G04 #@! TD*
G04 #@! TA.AperFunction,SMDPad,CuDef*
%ADD62RoundRect,0.225000X0.084140X0.325646X-0.315015X0.117859X-0.084140X-0.325646X0.315015X-0.117859X0*%
G04 #@! TD*
G04 #@! TA.AperFunction,SMDPad,CuDef*
%ADD63RoundRect,0.225000X-0.003010X0.336327X-0.334785X0.032312X0.003010X-0.336327X0.334785X-0.032312X0*%
G04 #@! TD*
G04 #@! TA.AperFunction,SMDPad,CuDef*
%ADD64RoundRect,0.225000X-0.089955X0.324088X-0.331740X-0.055438X0.089955X-0.324088X0.331740X0.055438X0*%
G04 #@! TD*
G04 #@! TA.AperFunction,SMDPad,CuDef*
%ADD65RoundRect,0.225000X-0.170770X0.289763X-0.306088X-0.139410X0.170770X-0.289763X0.306088X0.139410X0*%
G04 #@! TD*
G04 #@! TA.AperFunction,SMDPad,CuDef*
%ADD66RoundRect,0.225000X-0.239948X0.235691X-0.259576X-0.213881X0.239948X-0.235691X0.259576X0.213881X0*%
G04 #@! TD*
G04 #@! TA.AperFunction,SMDPad,CuDef*
%ADD67RoundRect,0.225000X-0.259576X0.213881X-0.239948X-0.235691X0.259576X-0.213881X0.239948X0.235691X0*%
G04 #@! TD*
G04 #@! TA.AperFunction,SMDPad,CuDef*
%ADD68RoundRect,0.225000X-0.306088X0.139410X-0.170770X-0.289763X0.306088X-0.139410X0.170770X0.289763X0*%
G04 #@! TD*
G04 #@! TA.AperFunction,SMDPad,CuDef*
%ADD69RoundRect,0.225000X-0.331740X0.055438X-0.089955X-0.324088X0.331740X-0.055438X0.089955X0.324088X0*%
G04 #@! TD*
G04 #@! TA.AperFunction,SMDPad,CuDef*
%ADD70RoundRect,0.225000X-0.334785X-0.032312X-0.003010X-0.336327X0.334785X0.032312X0.003010X0.336327X0*%
G04 #@! TD*
G04 #@! TA.AperFunction,SMDPad,CuDef*
%ADD71RoundRect,0.225000X-0.315015X-0.117859X0.084140X-0.325646X0.315015X0.117859X-0.084140X0.325646X0*%
G04 #@! TD*
G04 #@! TA.AperFunction,SMDPad,CuDef*
%ADD72RoundRect,0.225000X-0.273777X-0.195375X0.165557X-0.292773X0.273777X0.195375X-0.165557X0.292773X0*%
G04 #@! TD*
G04 #@! TA.AperFunction,SMDPad,CuDef*
%ADD73RoundRect,0.225000X-0.213881X-0.259576X0.235691X-0.239948X0.213881X0.259576X-0.235691X0.239948X0*%
G04 #@! TD*
G04 #@! TA.AperFunction,SMDPad,CuDef*
%ADD74RoundRect,0.225000X-0.139410X-0.306088X0.289763X-0.170770X0.139410X0.306088X-0.289763X0.170770X0*%
G04 #@! TD*
G04 #@! TA.AperFunction,SMDPad,CuDef*
%ADD75RoundRect,0.225000X-0.055438X-0.331740X0.324088X-0.089955X0.055438X0.331740X-0.324088X0.089955X0*%
G04 #@! TD*
G04 #@! TA.AperFunction,SMDPad,CuDef*
%ADD76RoundRect,0.225000X0.032312X-0.334785X0.336327X-0.003010X-0.032312X0.334785X-0.336327X0.003010X0*%
G04 #@! TD*
G04 #@! TA.AperFunction,SMDPad,CuDef*
%ADD77RoundRect,0.225000X0.117859X-0.315015X0.325646X0.084140X-0.117859X0.315015X-0.325646X-0.084140X0*%
G04 #@! TD*
G04 #@! TA.AperFunction,SMDPad,CuDef*
%ADD78RoundRect,0.225000X0.195375X-0.273777X0.292773X0.165557X-0.195375X0.273777X-0.292773X-0.165557X0*%
G04 #@! TD*
G04 #@! TA.AperFunction,ViaPad*
%ADD79C,0.600000*%
G04 #@! TD*
G04 #@! TA.AperFunction,Conductor*
%ADD80C,0.800000*%
G04 #@! TD*
G04 #@! TA.AperFunction,Conductor*
%ADD81C,0.600000*%
G04 #@! TD*
G04 #@! TA.AperFunction,Conductor*
%ADD82C,0.400000*%
G04 #@! TD*
G04 #@! TA.AperFunction,Conductor*
%ADD83C,0.300000*%
G04 #@! TD*
G04 #@! TA.AperFunction,Conductor*
%ADD84C,0.200000*%
G04 #@! TD*
G04 #@! TA.AperFunction,Conductor*
%ADD85C,0.500000*%
G04 #@! TD*
G04 #@! TA.AperFunction,Conductor*
%ADD86C,0.350000*%
G04 #@! TD*
G04 #@! TA.AperFunction,Conductor*
%ADD87C,0.250000*%
G04 #@! TD*
G04 APERTURE END LIST*
D10*
X146750000Y-147555000D03*
X147550000Y-147555000D03*
D11*
X148750000Y-147555000D03*
X149750000Y-147555000D03*
X150250000Y-147555000D03*
X151250000Y-147555000D03*
D10*
X152450000Y-147555000D03*
X153250000Y-147555000D03*
X153250000Y-147555000D03*
X152450000Y-147555000D03*
D11*
X151750000Y-147555000D03*
X150750000Y-147555000D03*
X149250000Y-147555000D03*
X148250000Y-147555000D03*
D10*
X147550000Y-147555000D03*
X146750000Y-147555000D03*
D12*
X145680000Y-148470000D03*
D13*
X145680000Y-152650000D03*
D12*
X154320000Y-148470000D03*
D13*
X154320000Y-152650000D03*
D14*
X140600000Y-135000000D03*
X143400000Y-135000000D03*
D15*
X163087500Y-125000000D03*
X164912500Y-125000000D03*
X163087500Y-128500000D03*
X164912500Y-128500000D03*
D16*
X148862500Y-131050000D03*
X148862500Y-132000000D03*
X148862500Y-132950000D03*
X151137500Y-132950000D03*
X151137500Y-132000000D03*
X151137500Y-131050000D03*
D17*
X154200000Y-133000000D03*
X159800000Y-133000000D03*
D18*
X134850000Y-122700000D03*
X134850000Y-125000000D03*
D19*
X141150000Y-125000000D03*
D18*
X134850000Y-127300000D03*
D20*
X132000000Y-119950000D03*
X132000000Y-118050000D03*
X135000000Y-119950000D03*
X135000000Y-118050000D03*
X141000000Y-119950000D03*
X141000000Y-118050000D03*
D21*
X175000000Y-119000000D03*
D22*
X175000000Y-121540000D03*
D23*
X170000000Y-113000000D03*
X170000000Y-116000000D03*
X170000000Y-119000000D03*
X130000000Y-97000000D03*
D24*
X144100000Y-79700000D03*
X144100000Y-80500000D03*
X144100000Y-81300000D03*
X144100000Y-82100000D03*
X144100000Y-82900000D03*
X144100000Y-83700000D03*
X144100000Y-84500000D03*
X144100000Y-85300000D03*
X144100000Y-86100000D03*
X144100000Y-86900000D03*
X144100000Y-87700000D03*
D25*
X145200000Y-88600000D03*
X146000000Y-88600000D03*
X146800000Y-88600000D03*
X147600000Y-88600000D03*
X148400000Y-88600000D03*
X149200000Y-88600000D03*
X150000000Y-88600000D03*
X150800000Y-88600000D03*
X151600000Y-88600000D03*
X152400000Y-88600000D03*
X153200000Y-88600000D03*
X154000000Y-88600000D03*
X154800000Y-88600000D03*
D24*
X155900000Y-87700000D03*
X155900000Y-86900000D03*
X155900000Y-86100000D03*
X155900000Y-85300000D03*
X155900000Y-84500000D03*
X155900000Y-83700000D03*
X155900000Y-82900000D03*
X155900000Y-82100000D03*
X155900000Y-81300000D03*
X155900000Y-80500000D03*
X155900000Y-79700000D03*
D25*
X154800000Y-78800000D03*
X154000000Y-78800000D03*
X153200000Y-78800000D03*
X152400000Y-78800000D03*
X151600000Y-78800000D03*
X150800000Y-78800000D03*
X150000000Y-78800000D03*
X149200000Y-78800000D03*
X148400000Y-78800000D03*
X147600000Y-78800000D03*
X146800000Y-78800000D03*
X146000000Y-78800000D03*
X145200000Y-78800000D03*
D26*
X148025000Y-81725000D03*
X150000000Y-81725000D03*
X151975000Y-81725000D03*
X148025000Y-83700000D03*
X150000000Y-83700000D03*
X151975000Y-83700000D03*
X148025000Y-85675000D03*
X150000000Y-85675000D03*
X151975000Y-85675000D03*
D27*
X155950000Y-78750000D03*
X155950000Y-88650000D03*
X144050000Y-88650000D03*
X144050000Y-78750000D03*
D28*
X139500000Y-83112500D03*
X139500000Y-81287500D03*
D20*
X139500000Y-86750000D03*
X139500000Y-84850000D03*
D29*
X132850000Y-89100000D03*
X139150000Y-89100000D03*
X132850000Y-92900000D03*
X139150000Y-92900000D03*
D28*
X136000000Y-84912500D03*
X136000000Y-83087500D03*
X160500000Y-83112500D03*
X160500000Y-81287500D03*
X160500000Y-86712500D03*
X160500000Y-84887500D03*
D29*
X132850000Y-97100000D03*
X139150000Y-97100000D03*
X132850000Y-100900000D03*
X139150000Y-100900000D03*
X160850000Y-89100000D03*
X167150000Y-89100000D03*
X160850000Y-92900000D03*
X167150000Y-92900000D03*
D20*
X139500000Y-75950000D03*
X139500000Y-74050000D03*
X139500000Y-79550000D03*
X139500000Y-77650000D03*
D30*
X132050000Y-75600000D03*
X133950000Y-75600000D03*
D15*
X132087500Y-79500000D03*
X133912500Y-79500000D03*
D16*
X158362500Y-137550000D03*
X158362500Y-138500000D03*
X158362500Y-139450000D03*
X160637500Y-139450000D03*
X160637500Y-137550000D03*
D20*
X164000000Y-135950000D03*
X164000000Y-134050000D03*
D15*
X152087500Y-138500000D03*
X153912500Y-138500000D03*
D31*
X155938961Y-143100763D03*
X155795383Y-142010174D03*
X153981039Y-142249037D03*
X154124617Y-143339626D03*
D32*
X165597826Y-140265378D03*
X165176874Y-139249111D03*
X163486174Y-139949422D03*
X163907126Y-140965689D03*
D33*
X174193637Y-135026728D03*
X173524000Y-134154039D03*
X172072163Y-135268072D03*
X172741800Y-136140761D03*
D34*
X181140761Y-127741800D03*
X180268072Y-127072163D03*
X179154039Y-128524000D03*
X180026728Y-129193637D03*
D35*
X185965689Y-118907126D03*
X184949422Y-118486174D03*
X184249111Y-120176874D03*
X185265378Y-120597826D03*
D36*
X188339626Y-109124617D03*
X187249037Y-108981039D03*
X187010174Y-110795383D03*
X188100763Y-110938961D03*
D37*
X188100763Y-99061039D03*
X187010174Y-99204617D03*
X187249037Y-101018961D03*
X188339626Y-100875383D03*
D38*
X185265378Y-89402174D03*
X184249111Y-89823126D03*
X184949422Y-91513826D03*
X185965689Y-91092874D03*
D39*
X180026728Y-80806363D03*
X179154039Y-81476000D03*
X180268072Y-82927837D03*
X181140761Y-82258200D03*
D40*
X172741800Y-73859239D03*
X172072163Y-74731928D03*
X173524000Y-75845961D03*
X174193637Y-74973272D03*
D41*
X163907126Y-69034311D03*
X163486174Y-70050578D03*
X165176874Y-70750889D03*
X165597826Y-69734622D03*
D42*
X154124617Y-66660374D03*
X153981039Y-67750963D03*
X155795383Y-67989826D03*
X155938961Y-66899237D03*
D43*
X144061039Y-66899237D03*
X144204617Y-67989826D03*
X146018961Y-67750963D03*
X145875383Y-66660374D03*
D44*
X134402174Y-69734622D03*
X134823126Y-70750889D03*
X136513826Y-70050578D03*
X136092874Y-69034311D03*
D45*
X125806363Y-74973272D03*
X126476000Y-75845961D03*
X127927837Y-74731928D03*
X127258200Y-73859239D03*
D46*
X118859239Y-82258200D03*
X119731928Y-82927837D03*
X120845961Y-81476000D03*
X119973272Y-80806363D03*
D47*
X114034311Y-91092874D03*
X115050578Y-91513826D03*
X115750889Y-89823126D03*
X114734622Y-89402174D03*
D48*
X111660374Y-100875383D03*
X112750963Y-101018961D03*
X112989826Y-99204617D03*
X111899237Y-99061039D03*
D49*
X111899237Y-110938961D03*
X112989826Y-110795383D03*
X112750963Y-108981039D03*
X111660374Y-109124617D03*
D50*
X114734622Y-120597826D03*
X115750889Y-120176874D03*
X115050578Y-118486174D03*
X114034311Y-118907126D03*
D51*
X119973272Y-129193637D03*
X120845961Y-128524000D03*
X119731928Y-127072163D03*
X118859239Y-127741800D03*
D52*
X127258200Y-136140761D03*
X127927837Y-135268072D03*
X126476000Y-134154039D03*
X125806363Y-135026728D03*
D53*
X136092874Y-140965689D03*
X136513826Y-139949422D03*
X134823126Y-139249111D03*
X134402174Y-140265378D03*
D54*
X145875383Y-143339626D03*
X146018961Y-142249037D03*
X144204617Y-142010174D03*
X144061039Y-143100763D03*
D55*
X158825341Y-144808429D03*
X158489859Y-143295171D03*
D56*
X168827755Y-141167833D03*
X168112045Y-139792967D03*
D57*
X177547182Y-135062490D03*
X176500018Y-133919710D03*
D58*
X184389328Y-126908407D03*
X183082072Y-126075593D03*
D59*
X188887831Y-117261247D03*
X187409569Y-116795153D03*
D60*
X190736162Y-106778605D03*
X189187638Y-106710995D03*
D61*
X189808429Y-96174659D03*
X188295171Y-96510141D03*
D62*
X186167833Y-86172245D03*
X184792967Y-86887955D03*
D63*
X180062490Y-77452818D03*
X178919710Y-78499982D03*
D64*
X171908407Y-70610672D03*
X171075593Y-71917928D03*
D65*
X162261247Y-66112169D03*
X161795153Y-67590431D03*
D66*
X151778605Y-64263838D03*
X151710995Y-65812362D03*
D67*
X148221395Y-64263838D03*
X148289005Y-65812362D03*
D68*
X137738753Y-66112169D03*
X138204847Y-67590431D03*
D69*
X128091593Y-70610672D03*
X128924407Y-71917928D03*
D70*
X119937510Y-77452818D03*
X121080290Y-78499982D03*
D71*
X113832167Y-86172245D03*
X115207033Y-86887955D03*
D72*
X110191571Y-96174659D03*
X111704829Y-96510141D03*
D73*
X109263838Y-106778605D03*
X110812362Y-106710995D03*
D74*
X111112169Y-117261247D03*
X112590431Y-116795153D03*
D75*
X115610672Y-126908407D03*
X116917928Y-126075593D03*
D76*
X122452818Y-135062490D03*
X123499982Y-133919710D03*
D77*
X131172245Y-141167833D03*
X131887955Y-139792967D03*
D78*
X141174659Y-144808429D03*
X141510141Y-143295171D03*
D79*
X148025000Y-81725000D03*
X150000000Y-81725000D03*
X151975000Y-81725000D03*
X148025000Y-83700000D03*
X150000000Y-83700000D03*
X151975000Y-83700000D03*
X148025000Y-85675000D03*
X150000000Y-85675000D03*
X151975000Y-85675000D03*
X150750000Y-130850000D03*
X149350000Y-130850000D03*
X148850000Y-142650000D03*
X154250000Y-137250000D03*
X153250000Y-141250000D03*
X154650000Y-139850000D03*
X148850000Y-136050000D03*
X150250000Y-135950000D03*
X152350000Y-132550000D03*
X151650000Y-132050000D03*
X147550000Y-146750000D03*
X152450000Y-146750000D03*
X145850000Y-144450000D03*
X156450000Y-90150000D03*
X158750000Y-88350000D03*
X148550000Y-89450000D03*
X148550000Y-90950000D03*
X150050000Y-129150000D03*
X157250000Y-138150000D03*
X140750000Y-82750000D03*
X138250000Y-82750000D03*
X153250000Y-88450000D03*
X156850000Y-84850000D03*
X135950000Y-88650000D03*
X137550000Y-88650000D03*
X141450000Y-83450000D03*
X141250000Y-82050000D03*
X154050000Y-88750000D03*
X160050000Y-85050000D03*
X148950000Y-93750000D03*
X137550000Y-96650000D03*
X136050000Y-96650000D03*
X149950000Y-88450000D03*
X143150000Y-79750000D03*
X144250000Y-83750000D03*
X150750000Y-90950000D03*
X156450000Y-91050000D03*
X159650000Y-89950000D03*
X156650000Y-138750000D03*
X153150000Y-136550000D03*
X143150000Y-94450000D03*
X155350000Y-89450000D03*
X140650000Y-83750000D03*
X137550000Y-90950000D03*
X140750000Y-76550000D03*
X141750000Y-134550000D03*
X171650000Y-136450000D03*
X187650000Y-111750000D03*
D80*
X152832100Y-145501100D02*
G75*
G03*
X183658931Y-82296779I-2832100J40501100D01*
G01*
X183658900Y-82296800D02*
G75*
G03*
X113508999Y-87202100I-33658915J-22703144D01*
G01*
X113509000Y-87202100D02*
G75*
G03*
X147167900Y-145501100I36491040J-17797890D01*
G01*
D81*
X143400000Y-135000000D02*
X147500000Y-141000000D01*
X147500000Y-141000000D02*
X147167900Y-145501100D01*
D82*
X154124600Y-143339600D02*
X154342700Y-145367100D01*
D83*
X155939000Y-143100800D02*
X163486100Y-139949400D01*
D82*
X163907100Y-140965700D02*
X164642500Y-142867600D01*
D83*
X165597800Y-140265400D02*
X172072200Y-135268100D01*
D82*
X172741800Y-136140800D02*
X173944400Y-137787500D01*
D83*
X174193700Y-135026800D02*
X179154100Y-128524000D01*
D82*
X180026800Y-129193700D02*
X181614600Y-130473100D01*
D83*
X181140800Y-127741800D02*
X184249100Y-120176800D01*
D82*
X185265400Y-120597800D02*
X187130300Y-121422600D01*
D83*
X185965700Y-118907100D02*
X187010200Y-110795400D01*
D82*
X188100800Y-110939000D02*
X190115600Y-111253000D01*
D83*
X188339600Y-109124600D02*
X187249000Y-101019000D01*
D82*
X188339600Y-100875400D02*
X190367100Y-100657300D01*
D83*
X188100800Y-99061000D02*
X184949400Y-91513900D01*
D82*
X185965700Y-91092900D02*
X187867600Y-90357500D01*
D83*
X185265400Y-89402200D02*
X180268100Y-82927800D01*
D82*
X181140800Y-82258200D02*
X182787500Y-81055600D01*
D83*
X180026800Y-80806300D02*
X173524000Y-75845900D01*
D82*
X174193700Y-74973200D02*
X175473100Y-73385400D01*
D83*
X172741800Y-73859200D02*
X165176800Y-70750900D01*
D82*
X165597800Y-69734600D02*
X166422600Y-67869700D01*
D83*
X163907100Y-69034300D02*
X155795400Y-67989800D01*
D82*
X155939000Y-66899200D02*
X156253000Y-64884400D01*
D83*
X154124600Y-66660400D02*
X146019000Y-67751000D01*
D82*
X145875400Y-66660400D02*
X145657300Y-64632900D01*
D83*
X144061000Y-66899200D02*
X136513900Y-70050600D01*
D82*
X136092900Y-69034300D02*
X135357500Y-67132400D01*
D83*
X134402200Y-69734600D02*
X127927800Y-74731900D01*
D82*
X127258200Y-73859200D02*
X126055600Y-72212500D01*
D83*
X125806300Y-74973200D02*
X120845900Y-81476000D01*
D82*
X119973200Y-80806300D02*
X118385400Y-79526900D01*
D83*
X118859200Y-82258200D02*
X115750900Y-89823200D01*
D82*
X114734600Y-89402200D02*
X112869700Y-88577400D01*
D83*
X114034300Y-91092900D02*
X112989800Y-99204600D01*
D82*
X111899200Y-99061000D02*
X109884400Y-98747000D01*
D83*
X111660400Y-100875400D02*
X112751000Y-108981000D01*
D82*
X111660400Y-109124600D02*
X109632900Y-109342700D01*
D83*
X111899200Y-110939000D02*
X115050600Y-118486100D01*
D82*
X114034300Y-118907100D02*
X112132400Y-119642500D01*
D83*
X114734600Y-120597800D02*
X119731900Y-127072200D01*
D82*
X118859200Y-127741800D02*
X117212500Y-128944400D01*
D83*
X119973200Y-129193700D02*
X126476000Y-134154100D01*
D82*
X125806300Y-135026800D02*
X124526900Y-136614600D01*
D83*
X127258200Y-136140800D02*
X134823200Y-139249100D01*
D82*
X134402200Y-140265400D02*
X133577400Y-142130300D01*
D83*
X136092900Y-140965700D02*
X144204600Y-142010200D01*
D82*
X144061000Y-143100800D02*
X143747000Y-145115600D01*
D83*
X155950000Y-78750000D02*
X154800000Y-78800000D01*
X144050000Y-78750000D02*
X145200000Y-78800000D01*
X144050000Y-88650000D02*
X144100000Y-87700000D01*
X155950000Y-88650000D02*
X157050000Y-89750000D01*
X153912500Y-138500000D02*
X153981000Y-142249000D01*
D84*
X150250000Y-146850000D02*
X150250000Y-146750000D01*
X150250000Y-146750000D02*
X149950000Y-146450000D01*
X149950000Y-146450000D02*
X149550000Y-146450000D01*
X149550000Y-146450000D02*
X149250000Y-146750000D01*
X149250000Y-146750000D02*
X149250000Y-146850000D01*
X149550000Y-146350000D02*
X149550000Y-133250000D01*
X149550000Y-133250000D02*
X149450000Y-133150000D01*
X149550000Y-133150000D02*
X150550000Y-133150000D01*
X150550000Y-132750000D02*
X150150000Y-132350000D01*
X150150000Y-132350000D02*
X150150000Y-132250000D01*
X150150000Y-132250000D02*
X150050000Y-132150000D01*
X150050000Y-132150000D02*
X150050000Y-130050000D01*
X150050000Y-130050000D02*
X152450000Y-127650000D01*
X152450000Y-127650000D02*
X152450000Y-127550000D01*
X152450000Y-127550000D02*
X157050000Y-122950000D01*
X157050000Y-122950000D02*
X157050000Y-110350000D01*
X157050000Y-110350000D02*
X157150000Y-110250000D01*
X157150000Y-110250000D02*
X157150000Y-90350000D01*
X157150000Y-90350000D02*
X157550000Y-89950000D01*
X157550000Y-89950000D02*
X157550000Y-88250000D01*
X157550000Y-88250000D02*
X156450000Y-87150000D01*
X156450000Y-87150000D02*
X156350000Y-87150000D01*
X156350000Y-87150000D02*
X156250000Y-87050000D01*
X149750000Y-148250000D02*
X149750000Y-148350000D01*
X149750000Y-148350000D02*
X150050000Y-148650000D01*
X150050000Y-148650000D02*
X150450000Y-148650000D01*
X150450000Y-148650000D02*
X150750000Y-148350000D01*
X150750000Y-148350000D02*
X150750000Y-148250000D01*
X150750000Y-146850000D02*
X150750000Y-141450000D01*
X150750000Y-141450000D02*
X152850000Y-139350000D01*
X152850000Y-139350000D02*
X152850000Y-139250000D01*
X152850000Y-139250000D02*
X152950000Y-139150000D01*
X152950000Y-139150000D02*
X152950000Y-137650000D01*
X152950000Y-137650000D02*
X154950000Y-135650000D01*
X154950000Y-135650000D02*
X154950000Y-135150000D01*
X154950000Y-135150000D02*
X156250000Y-133850000D01*
X156250000Y-133850000D02*
X156250000Y-133750000D01*
X156250000Y-133750000D02*
X156350000Y-133650000D01*
X156350000Y-133650000D02*
X156350000Y-132250000D01*
X156350000Y-132250000D02*
X155950000Y-131850000D01*
X155950000Y-131850000D02*
X152350000Y-131850000D01*
X152350000Y-131850000D02*
X151750000Y-131250000D01*
X156050000Y-131850000D02*
X156050000Y-124650000D01*
X156050000Y-124650000D02*
X157450000Y-123250000D01*
X157450000Y-123250000D02*
X157450000Y-123150000D01*
X157450000Y-123150000D02*
X157550000Y-123050000D01*
X157550000Y-123050000D02*
X157550000Y-120050000D01*
X157550000Y-120050000D02*
X157850000Y-119750000D01*
X157850000Y-119750000D02*
X157850000Y-107050000D01*
X157850000Y-107050000D02*
X157950000Y-106950000D01*
X157950000Y-106950000D02*
X157950000Y-90150000D01*
X157950000Y-90150000D02*
X158050000Y-90050000D01*
X158050000Y-90050000D02*
X158050000Y-87950000D01*
X158050000Y-87950000D02*
X156450000Y-86350000D01*
X156450000Y-86350000D02*
X156350000Y-86350000D01*
X156350000Y-86350000D02*
X156250000Y-86250000D01*
X148750000Y-146850000D02*
X148750000Y-142750000D01*
X148750000Y-142750000D02*
X148850000Y-142650000D01*
X154250000Y-137250000D02*
X154250000Y-137050000D01*
X154250000Y-137050000D02*
X155350000Y-135950000D01*
X155350000Y-135950000D02*
X155350000Y-135850000D01*
X155350000Y-135850000D02*
X155450000Y-135750000D01*
X155450000Y-135750000D02*
X155450000Y-135350000D01*
X155450000Y-135350000D02*
X156650000Y-134150000D01*
X156650000Y-134150000D02*
X156650000Y-134050000D01*
X156650000Y-134050000D02*
X156750000Y-133950000D01*
X156750000Y-133950000D02*
X156750000Y-133850000D01*
X156750000Y-133850000D02*
X156850000Y-133750000D01*
X156850000Y-133750000D02*
X156850000Y-131550000D01*
X156850000Y-131550000D02*
X162750000Y-125650000D01*
X151750000Y-146850000D02*
X151750000Y-142750000D01*
X151750000Y-142750000D02*
X153250000Y-141250000D01*
X154650000Y-139850000D02*
X157550000Y-136950000D01*
X157550000Y-136950000D02*
X157650000Y-136950000D01*
X157650000Y-136950000D02*
X157750000Y-136850000D01*
X157750000Y-136850000D02*
X158850000Y-136850000D01*
X158850000Y-136850000D02*
X161850000Y-133850000D01*
X161850000Y-133850000D02*
X161850000Y-133750000D01*
X161850000Y-133750000D02*
X161950000Y-133650000D01*
X161950000Y-133650000D02*
X161950000Y-129950000D01*
X161950000Y-129950000D02*
X162750000Y-129150000D01*
D85*
X164150000Y-140650000D02*
X164150000Y-140550000D01*
X164150000Y-140550000D02*
X164350000Y-140350000D01*
X164350000Y-140350000D02*
X164350000Y-140250000D01*
X164350000Y-140250000D02*
X164450000Y-140150000D01*
X164450000Y-140150000D02*
X164450000Y-139750000D01*
X164450000Y-139750000D02*
X164350000Y-139650000D01*
X164350000Y-139650000D02*
X164350000Y-139450000D01*
X164350000Y-139450000D02*
X164250000Y-139350000D01*
X164250000Y-139350000D02*
X164250000Y-136350000D01*
X163350000Y-136350000D02*
X163150000Y-136350000D01*
X163150000Y-136350000D02*
X162650000Y-136850000D01*
X162650000Y-136850000D02*
X161750000Y-136850000D01*
X161750000Y-136850000D02*
X161250000Y-137350000D01*
X142850000Y-134250000D02*
X142650000Y-134250000D01*
X142650000Y-134250000D02*
X142150000Y-133750000D01*
X142150000Y-133750000D02*
X141650000Y-133750000D01*
X141650000Y-133750000D02*
X135750000Y-127850000D01*
X134050000Y-126650000D02*
X134050000Y-126450000D01*
X134050000Y-126450000D02*
X133450000Y-125850000D01*
X133450000Y-125850000D02*
X133450000Y-125750000D01*
X133450000Y-125750000D02*
X133350000Y-125650000D01*
X133350000Y-125650000D02*
X133350000Y-121150000D01*
X133350000Y-121150000D02*
X132950000Y-120750000D01*
X132950000Y-120750000D02*
X132950000Y-120650000D01*
X132950000Y-120650000D02*
X132650000Y-120350000D01*
X133550000Y-121050000D02*
X133650000Y-121050000D01*
X133650000Y-121050000D02*
X134350000Y-120350000D01*
X185150000Y-120250000D02*
X185150000Y-119750000D01*
X185150000Y-119750000D02*
X184850000Y-119450000D01*
X184850000Y-119450000D02*
X184750000Y-119450000D01*
X184750000Y-119450000D02*
X184650000Y-119350000D01*
X184650000Y-119350000D02*
X184450000Y-119350000D01*
X184450000Y-119350000D02*
X184350000Y-119250000D01*
X184350000Y-119250000D02*
X175750000Y-119250000D01*
X174250000Y-118250000D02*
X174250000Y-118050000D01*
X174250000Y-118050000D02*
X173750000Y-117550000D01*
X173750000Y-117550000D02*
X173750000Y-117050000D01*
X173750000Y-117050000D02*
X170350000Y-113650000D01*
X146250000Y-138650000D02*
X148850000Y-136050000D01*
X150250000Y-135950000D02*
X152550000Y-133650000D01*
X152550000Y-132550000D02*
X152350000Y-132550000D01*
X147550000Y-146850000D02*
X147550000Y-146750000D01*
X152450000Y-146750000D02*
X152450000Y-146850000D01*
X145850000Y-144450000D02*
X145650000Y-144450000D01*
X145650000Y-144450000D02*
X145050000Y-143850000D01*
X145050000Y-143850000D02*
X145050000Y-143750000D01*
X145050000Y-143750000D02*
X144950000Y-143650000D01*
X144950000Y-143650000D02*
X144950000Y-142550000D01*
X144950000Y-142550000D02*
X145050000Y-142450000D01*
X145050000Y-142450000D02*
X145050000Y-141950000D01*
X145050000Y-141950000D02*
X145150000Y-141850000D01*
X145150000Y-141850000D02*
X145150000Y-141450000D01*
X145150000Y-141450000D02*
X144550000Y-140850000D01*
X144550000Y-140850000D02*
X144550000Y-139450000D01*
X144550000Y-139450000D02*
X140950000Y-135850000D01*
D86*
X135750000Y-124450000D02*
X140250000Y-124450000D01*
X140450000Y-123150000D02*
X140450000Y-120350000D01*
X140350000Y-119550000D02*
X140350000Y-119350000D01*
X140350000Y-119350000D02*
X139850000Y-118850000D01*
X139850000Y-118850000D02*
X139850000Y-111150000D01*
X139850000Y-111150000D02*
X136850000Y-108150000D01*
X136850000Y-108150000D02*
X136850000Y-95450000D01*
X136850000Y-95450000D02*
X136750000Y-95350000D01*
X136750000Y-95350000D02*
X136750000Y-85550000D01*
X136750000Y-85550000D02*
X136550000Y-85350000D01*
X136650000Y-84550000D02*
X136850000Y-84550000D01*
X136850000Y-84550000D02*
X137350000Y-84050000D01*
X137350000Y-84050000D02*
X138250000Y-84050000D01*
X138250000Y-84050000D02*
X138850000Y-83450000D01*
X138950000Y-82650000D02*
X138950000Y-82450000D01*
X138950000Y-82450000D02*
X138450000Y-81950000D01*
X138450000Y-81950000D02*
X138450000Y-81850000D01*
X138450000Y-81850000D02*
X138350000Y-81750000D01*
X138350000Y-81750000D02*
X138350000Y-80450000D01*
X138350000Y-80450000D02*
X138850000Y-79950000D01*
X138850000Y-79150000D02*
X138850000Y-78950000D01*
X138850000Y-78950000D02*
X138350000Y-78450000D01*
X138350000Y-78450000D02*
X138350000Y-76850000D01*
X138350000Y-76850000D02*
X138850000Y-76350000D01*
X140150000Y-79950000D02*
X140350000Y-79950000D01*
X140350000Y-79950000D02*
X140850000Y-80450000D01*
X140850000Y-80450000D02*
X142850000Y-80450000D01*
X142850000Y-80450000D02*
X143550000Y-81150000D01*
X143550000Y-81150000D02*
X143750000Y-81150000D01*
X138250000Y-76750000D02*
X132950000Y-76750000D01*
X132950000Y-76750000D02*
X132450000Y-76250000D01*
X136850000Y-90150000D02*
X156450000Y-90150000D01*
X158750000Y-88350000D02*
X159950000Y-87150000D01*
X159950000Y-86250000D02*
X159950000Y-86050000D01*
X159950000Y-86050000D02*
X159450000Y-85550000D01*
X159450000Y-85550000D02*
X159450000Y-85450000D01*
X159450000Y-85450000D02*
X159350000Y-85350000D01*
X159350000Y-85350000D02*
X159350000Y-84150000D01*
X159350000Y-84150000D02*
X159950000Y-83550000D01*
X158950000Y-88550000D02*
X158950000Y-92950000D01*
X158950000Y-92950000D02*
X164850000Y-98850000D01*
X164850000Y-98850000D02*
X164850000Y-110550000D01*
X164850000Y-110550000D02*
X169650000Y-115350000D01*
D87*
X148550000Y-88950000D02*
X148550000Y-89450000D01*
X148550000Y-90950000D02*
X148550000Y-92350000D01*
X148550000Y-92350000D02*
X149950000Y-93750000D01*
X149950000Y-93750000D02*
X149950000Y-129050000D01*
X149950000Y-129050000D02*
X150050000Y-129150000D01*
X157250000Y-138150000D02*
X157550000Y-138150000D01*
X157550000Y-138150000D02*
X157650000Y-138250000D01*
X157650000Y-138250000D02*
X157750000Y-138250000D01*
X143750000Y-82750000D02*
X140750000Y-82750000D01*
X138250000Y-82750000D02*
X136650000Y-82750000D01*
X156850000Y-84850000D02*
X159950000Y-81750000D01*
X130350000Y-96350000D02*
X130350000Y-91250000D01*
X130350000Y-91250000D02*
X132050000Y-89550000D01*
X133650000Y-88650000D02*
X135950000Y-88650000D01*
X137550000Y-88650000D02*
X138350000Y-88650000D01*
X138850000Y-88650000D02*
X138850000Y-87150000D01*
X140150000Y-86350000D02*
X140850000Y-86350000D01*
X140850000Y-86350000D02*
X140950000Y-86250000D01*
X140950000Y-86250000D02*
X141650000Y-86250000D01*
X141650000Y-86250000D02*
X141750000Y-86150000D01*
X141750000Y-86150000D02*
X142950000Y-86150000D01*
X142950000Y-86150000D02*
X143550000Y-85550000D01*
X143550000Y-85550000D02*
X143650000Y-85550000D01*
X143650000Y-85550000D02*
X143750000Y-85450000D01*
X141450000Y-86150000D02*
X141450000Y-83450000D01*
X141250000Y-82050000D02*
X140550000Y-82050000D01*
X140550000Y-82050000D02*
X140150000Y-81650000D01*
X148950000Y-93750000D02*
X142850000Y-93750000D01*
X142850000Y-93750000D02*
X139950000Y-96650000D01*
X138350000Y-96650000D02*
X137550000Y-96650000D01*
X136050000Y-96650000D02*
X133650000Y-96650000D01*
X143150000Y-79750000D02*
X143150000Y-79450000D01*
X143150000Y-79450000D02*
X141850000Y-78150000D01*
X141850000Y-78150000D02*
X141850000Y-76650000D01*
X141850000Y-76650000D02*
X140350000Y-75150000D01*
X140350000Y-75150000D02*
X140250000Y-75150000D01*
X140250000Y-75150000D02*
X140150000Y-75050000D01*
X140150000Y-75050000D02*
X134350000Y-75050000D01*
X133550000Y-74950000D02*
X133350000Y-74950000D01*
X133350000Y-74950000D02*
X132850000Y-74450000D01*
X132850000Y-74450000D02*
X131550000Y-74450000D01*
X131550000Y-74450000D02*
X131250000Y-74750000D01*
X131250000Y-74750000D02*
X131250000Y-74850000D01*
X131250000Y-74850000D02*
X131150000Y-74950000D01*
X131150000Y-74950000D02*
X131150000Y-78250000D01*
X131150000Y-78250000D02*
X131750000Y-78850000D01*
X150750000Y-90950000D02*
X156350000Y-90950000D01*
X156350000Y-90950000D02*
X156450000Y-91050000D01*
X159650000Y-89950000D02*
X160050000Y-89550000D01*
X161650000Y-88650000D02*
X166350000Y-88650000D01*
X160050000Y-139650000D02*
X159850000Y-139650000D01*
X159850000Y-139650000D02*
X159350000Y-140150000D01*
X159350000Y-140150000D02*
X157650000Y-140150000D01*
X157650000Y-140150000D02*
X157350000Y-139850000D01*
X157350000Y-139850000D02*
X157350000Y-139450000D01*
X157350000Y-139450000D02*
X156650000Y-138750000D01*
X153150000Y-136550000D02*
X153150000Y-136750000D01*
X153150000Y-136750000D02*
X152450000Y-137450000D01*
X152450000Y-137450000D02*
X152450000Y-137850000D01*
D83*
X149550000Y-67850000D02*
X150550000Y-67850000D01*
X149550000Y-65250000D02*
X150550000Y-65250000D01*
M02*
