%TF.GenerationSoftware,KiCad,Pcbnew,10.0.3*%
%TF.CreationDate,2026-09-08T17:46:18+02:00*%
%TF.ProjectId,Halo,48616c6f-2e6b-4696-9361-645f70636258,rev?*%
%TF.SameCoordinates,Original*%
%TF.FileFunction,Drillmap*%
%TF.FilePolarity,Positive*%
%FSLAX45Y45*%
G04 Gerber Fmt 4.5, Leading zero omitted, Abs format (unit mm)*
G04 Created by KiCad (PCBNEW 10.0.3) date 2026-09-08 17:46:18*
%MOMM*%
%LPD*%
G01*
G04 APERTURE LIST*
%ADD10C,0.100000*%
%ADD11C,0.200000*%
%ADD12C,0.220000*%
G04 APERTURE END LIST*
D10*
X14300000Y-14691960D02*
G75*
G02*
X15700000Y-14691960I700000J4191958D01*
G01*
X15700000Y-14691960D02*
X15700000Y-15550000D01*
X15700000Y-15550000D02*
X14300000Y-15550000D01*
X14300000Y-15550000D02*
X14300000Y-14691960D01*
D11*
D10*
X13580000Y-8850000D02*
X13610000Y-8880000D01*
X13610000Y-8850000D02*
X13580000Y-8880000D01*
X13590000Y-9650000D02*
X13620000Y-9680000D01*
X13620000Y-9650000D02*
X13590000Y-9680000D01*
X13740000Y-8850000D02*
X13770000Y-8880000D01*
X13770000Y-8850000D02*
X13740000Y-8880000D01*
X13740000Y-9080000D02*
X13770000Y-9110000D01*
X13770000Y-9080000D02*
X13740000Y-9110000D01*
X13740000Y-9650000D02*
X13770000Y-9680000D01*
X13770000Y-9650000D02*
X13740000Y-9680000D01*
X13810000Y-8260000D02*
X13840000Y-8290000D01*
X13840000Y-8260000D02*
X13810000Y-8290000D01*
X14050000Y-8360000D02*
X14080000Y-8390000D01*
X14080000Y-8360000D02*
X14050000Y-8390000D01*
X14060000Y-7640000D02*
X14090000Y-7670000D01*
X14090000Y-7640000D02*
X14060000Y-7670000D01*
X14060000Y-8260000D02*
X14090000Y-8290000D01*
X14090000Y-8260000D02*
X14060000Y-8290000D01*
X14110000Y-8190000D02*
X14140000Y-8220000D01*
X14140000Y-8190000D02*
X14110000Y-8220000D01*
X14130000Y-8330000D02*
X14160000Y-8360000D01*
X14160000Y-8330000D02*
X14130000Y-8360000D01*
X14160000Y-13440000D02*
X14190000Y-13470000D01*
X14190000Y-13440000D02*
X14160000Y-13470000D01*
X14300000Y-7960000D02*
X14330000Y-7990000D01*
X14330000Y-7960000D02*
X14300000Y-7990000D01*
X14300000Y-9430000D02*
X14330000Y-9460000D01*
X14330000Y-9430000D02*
X14300000Y-9460000D01*
X14410000Y-8360000D02*
X14440000Y-8390000D01*
X14440000Y-8360000D02*
X14410000Y-8390000D01*
X14570000Y-14430000D02*
X14600000Y-14460000D01*
X14600000Y-14430000D02*
X14570000Y-14460000D01*
X14740000Y-14660000D02*
X14770000Y-14690000D01*
X14770000Y-14660000D02*
X14740000Y-14690000D01*
X14787500Y-8157500D02*
X14817500Y-8187500D01*
X14817500Y-8157500D02*
X14787500Y-8187500D01*
X14787500Y-8355000D02*
X14817500Y-8385000D01*
X14817500Y-8355000D02*
X14787500Y-8385000D01*
X14787500Y-8552500D02*
X14817500Y-8582500D01*
X14817500Y-8552500D02*
X14787500Y-8582500D01*
X14840000Y-8930000D02*
X14870000Y-8960000D01*
X14870000Y-8930000D02*
X14840000Y-8960000D01*
X14840000Y-9080000D02*
X14870000Y-9110000D01*
X14870000Y-9080000D02*
X14840000Y-9110000D01*
X14870000Y-13590000D02*
X14900000Y-13620000D01*
X14900000Y-13590000D02*
X14870000Y-13620000D01*
X14870000Y-14250000D02*
X14900000Y-14280000D01*
X14900000Y-14250000D02*
X14870000Y-14280000D01*
X14880000Y-9360000D02*
X14910000Y-9390000D01*
X14910000Y-9360000D02*
X14880000Y-9390000D01*
X14920000Y-13070000D02*
X14950000Y-13100000D01*
X14950000Y-13070000D02*
X14920000Y-13100000D01*
X14980000Y-8830000D02*
X15010000Y-8860000D01*
X15010000Y-8830000D02*
X14980000Y-8860000D01*
X14985000Y-8157500D02*
X15015000Y-8187500D01*
X15015000Y-8157500D02*
X14985000Y-8187500D01*
X14985000Y-8355000D02*
X15015000Y-8385000D01*
X15015000Y-8355000D02*
X14985000Y-8385000D01*
X14985000Y-8552500D02*
X15015000Y-8582500D01*
X15015000Y-8552500D02*
X14985000Y-8582500D01*
X14990000Y-12900000D02*
X15020000Y-12930000D01*
X15020000Y-12900000D02*
X14990000Y-12930000D01*
X15010000Y-13580000D02*
X15040000Y-13610000D01*
X15040000Y-13580000D02*
X15010000Y-13610000D01*
X15060000Y-9080000D02*
X15090000Y-9110000D01*
X15090000Y-9080000D02*
X15060000Y-9110000D01*
X15060000Y-13070000D02*
X15090000Y-13100000D01*
X15090000Y-13070000D02*
X15060000Y-13100000D01*
X15150000Y-13190000D02*
X15180000Y-13220000D01*
X15180000Y-13190000D02*
X15150000Y-13220000D01*
X15182500Y-8157500D02*
X15212500Y-8187500D01*
X15212500Y-8157500D02*
X15182500Y-8187500D01*
X15182500Y-8355000D02*
X15212500Y-8385000D01*
X15212500Y-8355000D02*
X15182500Y-8385000D01*
X15182500Y-8552500D02*
X15212500Y-8582500D01*
X15212500Y-8552500D02*
X15182500Y-8582500D01*
X15220000Y-13240000D02*
X15250000Y-13270000D01*
X15250000Y-13240000D02*
X15220000Y-13270000D01*
X15230000Y-14660000D02*
X15260000Y-14690000D01*
X15260000Y-14660000D02*
X15230000Y-14690000D01*
X15300000Y-13640000D02*
X15330000Y-13670000D01*
X15330000Y-13640000D02*
X15300000Y-13670000D01*
X15310000Y-8830000D02*
X15340000Y-8860000D01*
X15340000Y-8830000D02*
X15310000Y-8860000D01*
X15310000Y-14110000D02*
X15340000Y-14140000D01*
X15340000Y-14110000D02*
X15310000Y-14140000D01*
X15390000Y-8860000D02*
X15420000Y-8890000D01*
X15420000Y-8860000D02*
X15390000Y-8890000D01*
X15410000Y-13710000D02*
X15440000Y-13740000D01*
X15440000Y-13710000D02*
X15410000Y-13740000D01*
X15450000Y-13970000D02*
X15480000Y-14000000D01*
X15480000Y-13970000D02*
X15450000Y-14000000D01*
X15520000Y-8930000D02*
X15550000Y-8960000D01*
X15550000Y-8930000D02*
X15520000Y-8960000D01*
X15630000Y-9000000D02*
X15660000Y-9030000D01*
X15660000Y-9000000D02*
X15630000Y-9030000D01*
X15630000Y-9090000D02*
X15660000Y-9120000D01*
X15660000Y-9090000D02*
X15630000Y-9120000D01*
X15650000Y-13860000D02*
X15680000Y-13890000D01*
X15680000Y-13860000D02*
X15650000Y-13890000D01*
X15670000Y-8470000D02*
X15700000Y-8500000D01*
X15700000Y-8470000D02*
X15670000Y-8500000D01*
X15710000Y-13800000D02*
X15740000Y-13830000D01*
X15740000Y-13800000D02*
X15710000Y-13830000D01*
X15860000Y-8820000D02*
X15890000Y-8850000D01*
X15890000Y-8820000D02*
X15860000Y-8850000D01*
X15950000Y-8980000D02*
X15980000Y-9010000D01*
X15980000Y-8980000D02*
X15950000Y-9010000D01*
X15990000Y-8490000D02*
X16020000Y-8520000D01*
X16020000Y-8490000D02*
X15990000Y-8520000D01*
X17150000Y-13630000D02*
X17180000Y-13660000D01*
X17180000Y-13630000D02*
X17150000Y-13660000D01*
X18750000Y-11160000D02*
X18780000Y-11190000D01*
X18780000Y-11160000D02*
X18750000Y-11190000D01*
X14598000Y-14847000D02*
G75*
G02*
X14538000Y-14847000I-30000J0D01*
G01*
X14538000Y-14847000D02*
G75*
G02*
X14598000Y-14847000I30000J0D01*
G01*
X14538000Y-14792000D02*
X14538000Y-14902000D01*
X14598000Y-14902000D02*
G75*
G02*
X14538000Y-14902000I-30000J0D01*
G01*
X14598000Y-14902000D02*
X14598000Y-14792000D01*
X14598000Y-14792000D02*
G75*
G03*
X14538000Y-14792000I-30000J0D01*
G01*
X14598000Y-15265000D02*
G75*
G02*
X14538000Y-15265000I-30000J0D01*
G01*
X14538000Y-15265000D02*
G75*
G02*
X14598000Y-15265000I30000J0D01*
G01*
X14538000Y-15235000D02*
X14538000Y-15295000D01*
X14598000Y-15295000D02*
G75*
G02*
X14538000Y-15295000I-30000J0D01*
G01*
X14598000Y-15295000D02*
X14598000Y-15235000D01*
X14598000Y-15235000D02*
G75*
G03*
X14538000Y-15235000I-30000J0D01*
G01*
X15462000Y-14847000D02*
G75*
G02*
X15402000Y-14847000I-30000J0D01*
G01*
X15402000Y-14847000D02*
G75*
G02*
X15462000Y-14847000I30000J0D01*
G01*
X15402000Y-14792000D02*
X15402000Y-14902000D01*
X15462000Y-14902000D02*
G75*
G02*
X15402000Y-14902000I-30000J0D01*
G01*
X15462000Y-14902000D02*
X15462000Y-14792000D01*
X15462000Y-14792000D02*
G75*
G03*
X15402000Y-14792000I-30000J0D01*
G01*
X15462000Y-15265000D02*
G75*
G02*
X15402000Y-15265000I-30000J0D01*
G01*
X15402000Y-15265000D02*
G75*
G02*
X15462000Y-15265000I30000J0D01*
G01*
X15402000Y-15235000D02*
X15402000Y-15295000D01*
X15462000Y-15295000D02*
G75*
G02*
X15402000Y-15295000I-30000J0D01*
G01*
X15462000Y-15295000D02*
X15462000Y-15235000D01*
X15462000Y-15235000D02*
G75*
G03*
X15402000Y-15235000I-30000J0D01*
G01*
X17500000Y-11850000D02*
X17500000Y-11950000D01*
X17450000Y-11900000D02*
X17550000Y-11900000D01*
X17500000Y-12104000D02*
X17500000Y-12204000D01*
X17450000Y-12154000D02*
X17550000Y-12154000D01*
X14733981Y-14922981D02*
X14733981Y-14877019D01*
X14688019Y-14877019D01*
X14688019Y-14922981D01*
X14733981Y-14922981D01*
X15311981Y-14922981D02*
X15311981Y-14877019D01*
X15266019Y-14877019D01*
X15266019Y-14922981D01*
X15311981Y-14922981D01*
D12*
X12878680Y-8488680D02*
X12988680Y-8378680D01*
X12878680Y-8268680D01*
X12768680Y-8378680D01*
X12878680Y-8488680D01*
X12878680Y-12731320D02*
X12988680Y-12621320D01*
X12878680Y-12511320D01*
X12768680Y-12621320D01*
X12878680Y-12731320D01*
X17121320Y-8488680D02*
X17231320Y-8378680D01*
X17121320Y-8268680D01*
X17011320Y-8378680D01*
X17121320Y-8488680D01*
X17121320Y-12731320D02*
X17231320Y-12621320D01*
X17121320Y-12511320D01*
X17011320Y-12621320D01*
X17121320Y-12731320D01*
D11*
X11005775Y-15866484D02*
X11005775Y-15666484D01*
X11005775Y-15666484D02*
X11053394Y-15666484D01*
X11053394Y-15666484D02*
X11081966Y-15676008D01*
X11081966Y-15676008D02*
X11101013Y-15695055D01*
X11101013Y-15695055D02*
X11110537Y-15714103D01*
X11110537Y-15714103D02*
X11120061Y-15752198D01*
X11120061Y-15752198D02*
X11120061Y-15780769D01*
X11120061Y-15780769D02*
X11110537Y-15818865D01*
X11110537Y-15818865D02*
X11101013Y-15837912D01*
X11101013Y-15837912D02*
X11081966Y-15856960D01*
X11081966Y-15856960D02*
X11053394Y-15866484D01*
X11053394Y-15866484D02*
X11005775Y-15866484D01*
X11205775Y-15866484D02*
X11205775Y-15733150D01*
X11205775Y-15771246D02*
X11215299Y-15752198D01*
X11215299Y-15752198D02*
X11224823Y-15742674D01*
X11224823Y-15742674D02*
X11243870Y-15733150D01*
X11243870Y-15733150D02*
X11262918Y-15733150D01*
X11329585Y-15866484D02*
X11329585Y-15733150D01*
X11329585Y-15666484D02*
X11320061Y-15676008D01*
X11320061Y-15676008D02*
X11329585Y-15685531D01*
X11329585Y-15685531D02*
X11339108Y-15676008D01*
X11339108Y-15676008D02*
X11329585Y-15666484D01*
X11329585Y-15666484D02*
X11329585Y-15685531D01*
X11453394Y-15866484D02*
X11434346Y-15856960D01*
X11434346Y-15856960D02*
X11424823Y-15837912D01*
X11424823Y-15837912D02*
X11424823Y-15666484D01*
X11558156Y-15866484D02*
X11539108Y-15856960D01*
X11539108Y-15856960D02*
X11529585Y-15837912D01*
X11529585Y-15837912D02*
X11529585Y-15666484D01*
X11786727Y-15866484D02*
X11786727Y-15666484D01*
X11786727Y-15666484D02*
X11853394Y-15809341D01*
X11853394Y-15809341D02*
X11920061Y-15666484D01*
X11920061Y-15666484D02*
X11920061Y-15866484D01*
X12101013Y-15866484D02*
X12101013Y-15761722D01*
X12101013Y-15761722D02*
X12091489Y-15742674D01*
X12091489Y-15742674D02*
X12072442Y-15733150D01*
X12072442Y-15733150D02*
X12034346Y-15733150D01*
X12034346Y-15733150D02*
X12015299Y-15742674D01*
X12101013Y-15856960D02*
X12081966Y-15866484D01*
X12081966Y-15866484D02*
X12034346Y-15866484D01*
X12034346Y-15866484D02*
X12015299Y-15856960D01*
X12015299Y-15856960D02*
X12005775Y-15837912D01*
X12005775Y-15837912D02*
X12005775Y-15818865D01*
X12005775Y-15818865D02*
X12015299Y-15799817D01*
X12015299Y-15799817D02*
X12034346Y-15790293D01*
X12034346Y-15790293D02*
X12081966Y-15790293D01*
X12081966Y-15790293D02*
X12101013Y-15780769D01*
X12196251Y-15733150D02*
X12196251Y-15933150D01*
X12196251Y-15742674D02*
X12215299Y-15733150D01*
X12215299Y-15733150D02*
X12253394Y-15733150D01*
X12253394Y-15733150D02*
X12272442Y-15742674D01*
X12272442Y-15742674D02*
X12281966Y-15752198D01*
X12281966Y-15752198D02*
X12291489Y-15771246D01*
X12291489Y-15771246D02*
X12291489Y-15828388D01*
X12291489Y-15828388D02*
X12281966Y-15847436D01*
X12281966Y-15847436D02*
X12272442Y-15856960D01*
X12272442Y-15856960D02*
X12253394Y-15866484D01*
X12253394Y-15866484D02*
X12215299Y-15866484D01*
X12215299Y-15866484D02*
X12196251Y-15856960D01*
X12377204Y-15847436D02*
X12386727Y-15856960D01*
X12386727Y-15856960D02*
X12377204Y-15866484D01*
X12377204Y-15866484D02*
X12367680Y-15856960D01*
X12367680Y-15856960D02*
X12377204Y-15847436D01*
X12377204Y-15847436D02*
X12377204Y-15866484D01*
X12377204Y-15742674D02*
X12386727Y-15752198D01*
X12386727Y-15752198D02*
X12377204Y-15761722D01*
X12377204Y-15761722D02*
X12367680Y-15752198D01*
X12367680Y-15752198D02*
X12377204Y-15742674D01*
X12377204Y-15742674D02*
X12377204Y-15761722D01*
D10*
X10714998Y-16180000D02*
X10744998Y-16210000D01*
X10744998Y-16180000D02*
X10714998Y-16210000D01*
D11*
X11043870Y-16086484D02*
X11062918Y-16086484D01*
X11062918Y-16086484D02*
X11081966Y-16096008D01*
X11081966Y-16096008D02*
X11091489Y-16105531D01*
X11091489Y-16105531D02*
X11101013Y-16124579D01*
X11101013Y-16124579D02*
X11110537Y-16162674D01*
X11110537Y-16162674D02*
X11110537Y-16210293D01*
X11110537Y-16210293D02*
X11101013Y-16248388D01*
X11101013Y-16248388D02*
X11091489Y-16267436D01*
X11091489Y-16267436D02*
X11081966Y-16276960D01*
X11081966Y-16276960D02*
X11062918Y-16286484D01*
X11062918Y-16286484D02*
X11043870Y-16286484D01*
X11043870Y-16286484D02*
X11024823Y-16276960D01*
X11024823Y-16276960D02*
X11015299Y-16267436D01*
X11015299Y-16267436D02*
X11005775Y-16248388D01*
X11005775Y-16248388D02*
X10996251Y-16210293D01*
X10996251Y-16210293D02*
X10996251Y-16162674D01*
X10996251Y-16162674D02*
X11005775Y-16124579D01*
X11005775Y-16124579D02*
X11015299Y-16105531D01*
X11015299Y-16105531D02*
X11024823Y-16096008D01*
X11024823Y-16096008D02*
X11043870Y-16086484D01*
X11196251Y-16267436D02*
X11205775Y-16276960D01*
X11205775Y-16276960D02*
X11196251Y-16286484D01*
X11196251Y-16286484D02*
X11186727Y-16276960D01*
X11186727Y-16276960D02*
X11196251Y-16267436D01*
X11196251Y-16267436D02*
X11196251Y-16286484D01*
X11272442Y-16086484D02*
X11396251Y-16086484D01*
X11396251Y-16086484D02*
X11329585Y-16162674D01*
X11329585Y-16162674D02*
X11358156Y-16162674D01*
X11358156Y-16162674D02*
X11377204Y-16172198D01*
X11377204Y-16172198D02*
X11386727Y-16181722D01*
X11386727Y-16181722D02*
X11396251Y-16200769D01*
X11396251Y-16200769D02*
X11396251Y-16248388D01*
X11396251Y-16248388D02*
X11386727Y-16267436D01*
X11386727Y-16267436D02*
X11377204Y-16276960D01*
X11377204Y-16276960D02*
X11358156Y-16286484D01*
X11358156Y-16286484D02*
X11301013Y-16286484D01*
X11301013Y-16286484D02*
X11281966Y-16276960D01*
X11281966Y-16276960D02*
X11272442Y-16267436D01*
X11520061Y-16086484D02*
X11539108Y-16086484D01*
X11539108Y-16086484D02*
X11558156Y-16096008D01*
X11558156Y-16096008D02*
X11567680Y-16105531D01*
X11567680Y-16105531D02*
X11577204Y-16124579D01*
X11577204Y-16124579D02*
X11586727Y-16162674D01*
X11586727Y-16162674D02*
X11586727Y-16210293D01*
X11586727Y-16210293D02*
X11577204Y-16248388D01*
X11577204Y-16248388D02*
X11567680Y-16267436D01*
X11567680Y-16267436D02*
X11558156Y-16276960D01*
X11558156Y-16276960D02*
X11539108Y-16286484D01*
X11539108Y-16286484D02*
X11520061Y-16286484D01*
X11520061Y-16286484D02*
X11501013Y-16276960D01*
X11501013Y-16276960D02*
X11491489Y-16267436D01*
X11491489Y-16267436D02*
X11481966Y-16248388D01*
X11481966Y-16248388D02*
X11472442Y-16210293D01*
X11472442Y-16210293D02*
X11472442Y-16162674D01*
X11472442Y-16162674D02*
X11481966Y-16124579D01*
X11481966Y-16124579D02*
X11491489Y-16105531D01*
X11491489Y-16105531D02*
X11501013Y-16096008D01*
X11501013Y-16096008D02*
X11520061Y-16086484D01*
X11710537Y-16086484D02*
X11729585Y-16086484D01*
X11729585Y-16086484D02*
X11748632Y-16096008D01*
X11748632Y-16096008D02*
X11758156Y-16105531D01*
X11758156Y-16105531D02*
X11767680Y-16124579D01*
X11767680Y-16124579D02*
X11777204Y-16162674D01*
X11777204Y-16162674D02*
X11777204Y-16210293D01*
X11777204Y-16210293D02*
X11767680Y-16248388D01*
X11767680Y-16248388D02*
X11758156Y-16267436D01*
X11758156Y-16267436D02*
X11748632Y-16276960D01*
X11748632Y-16276960D02*
X11729585Y-16286484D01*
X11729585Y-16286484D02*
X11710537Y-16286484D01*
X11710537Y-16286484D02*
X11691489Y-16276960D01*
X11691489Y-16276960D02*
X11681966Y-16267436D01*
X11681966Y-16267436D02*
X11672442Y-16248388D01*
X11672442Y-16248388D02*
X11662918Y-16210293D01*
X11662918Y-16210293D02*
X11662918Y-16162674D01*
X11662918Y-16162674D02*
X11672442Y-16124579D01*
X11672442Y-16124579D02*
X11681966Y-16105531D01*
X11681966Y-16105531D02*
X11691489Y-16096008D01*
X11691489Y-16096008D02*
X11710537Y-16086484D01*
X11862918Y-16286484D02*
X11862918Y-16153150D01*
X11862918Y-16172198D02*
X11872442Y-16162674D01*
X11872442Y-16162674D02*
X11891489Y-16153150D01*
X11891489Y-16153150D02*
X11920061Y-16153150D01*
X11920061Y-16153150D02*
X11939108Y-16162674D01*
X11939108Y-16162674D02*
X11948632Y-16181722D01*
X11948632Y-16181722D02*
X11948632Y-16286484D01*
X11948632Y-16181722D02*
X11958156Y-16162674D01*
X11958156Y-16162674D02*
X11977204Y-16153150D01*
X11977204Y-16153150D02*
X12005775Y-16153150D01*
X12005775Y-16153150D02*
X12024823Y-16162674D01*
X12024823Y-16162674D02*
X12034347Y-16181722D01*
X12034347Y-16181722D02*
X12034347Y-16286484D01*
X12129585Y-16286484D02*
X12129585Y-16153150D01*
X12129585Y-16172198D02*
X12139108Y-16162674D01*
X12139108Y-16162674D02*
X12158156Y-16153150D01*
X12158156Y-16153150D02*
X12186728Y-16153150D01*
X12186728Y-16153150D02*
X12205775Y-16162674D01*
X12205775Y-16162674D02*
X12215299Y-16181722D01*
X12215299Y-16181722D02*
X12215299Y-16286484D01*
X12215299Y-16181722D02*
X12224823Y-16162674D01*
X12224823Y-16162674D02*
X12243870Y-16153150D01*
X12243870Y-16153150D02*
X12272442Y-16153150D01*
X12272442Y-16153150D02*
X12291489Y-16162674D01*
X12291489Y-16162674D02*
X12301013Y-16181722D01*
X12301013Y-16181722D02*
X12301013Y-16286484D01*
X12691489Y-16076960D02*
X12520061Y-16334103D01*
X12948632Y-16086484D02*
X12967680Y-16086484D01*
X12967680Y-16086484D02*
X12986728Y-16096008D01*
X12986728Y-16096008D02*
X12996251Y-16105531D01*
X12996251Y-16105531D02*
X13005775Y-16124579D01*
X13005775Y-16124579D02*
X13015299Y-16162674D01*
X13015299Y-16162674D02*
X13015299Y-16210293D01*
X13015299Y-16210293D02*
X13005775Y-16248388D01*
X13005775Y-16248388D02*
X12996251Y-16267436D01*
X12996251Y-16267436D02*
X12986728Y-16276960D01*
X12986728Y-16276960D02*
X12967680Y-16286484D01*
X12967680Y-16286484D02*
X12948632Y-16286484D01*
X12948632Y-16286484D02*
X12929585Y-16276960D01*
X12929585Y-16276960D02*
X12920061Y-16267436D01*
X12920061Y-16267436D02*
X12910537Y-16248388D01*
X12910537Y-16248388D02*
X12901013Y-16210293D01*
X12901013Y-16210293D02*
X12901013Y-16162674D01*
X12901013Y-16162674D02*
X12910537Y-16124579D01*
X12910537Y-16124579D02*
X12920061Y-16105531D01*
X12920061Y-16105531D02*
X12929585Y-16096008D01*
X12929585Y-16096008D02*
X12948632Y-16086484D01*
X13101013Y-16267436D02*
X13110537Y-16276960D01*
X13110537Y-16276960D02*
X13101013Y-16286484D01*
X13101013Y-16286484D02*
X13091490Y-16276960D01*
X13091490Y-16276960D02*
X13101013Y-16267436D01*
X13101013Y-16267436D02*
X13101013Y-16286484D01*
X13234347Y-16086484D02*
X13253394Y-16086484D01*
X13253394Y-16086484D02*
X13272442Y-16096008D01*
X13272442Y-16096008D02*
X13281966Y-16105531D01*
X13281966Y-16105531D02*
X13291490Y-16124579D01*
X13291490Y-16124579D02*
X13301013Y-16162674D01*
X13301013Y-16162674D02*
X13301013Y-16210293D01*
X13301013Y-16210293D02*
X13291490Y-16248388D01*
X13291490Y-16248388D02*
X13281966Y-16267436D01*
X13281966Y-16267436D02*
X13272442Y-16276960D01*
X13272442Y-16276960D02*
X13253394Y-16286484D01*
X13253394Y-16286484D02*
X13234347Y-16286484D01*
X13234347Y-16286484D02*
X13215299Y-16276960D01*
X13215299Y-16276960D02*
X13205775Y-16267436D01*
X13205775Y-16267436D02*
X13196251Y-16248388D01*
X13196251Y-16248388D02*
X13186728Y-16210293D01*
X13186728Y-16210293D02*
X13186728Y-16162674D01*
X13186728Y-16162674D02*
X13196251Y-16124579D01*
X13196251Y-16124579D02*
X13205775Y-16105531D01*
X13205775Y-16105531D02*
X13215299Y-16096008D01*
X13215299Y-16096008D02*
X13234347Y-16086484D01*
X13491490Y-16286484D02*
X13377204Y-16286484D01*
X13434347Y-16286484D02*
X13434347Y-16086484D01*
X13434347Y-16086484D02*
X13415299Y-16115055D01*
X13415299Y-16115055D02*
X13396251Y-16134103D01*
X13396251Y-16134103D02*
X13377204Y-16143627D01*
X13681966Y-16286484D02*
X13567680Y-16286484D01*
X13624823Y-16286484D02*
X13624823Y-16086484D01*
X13624823Y-16086484D02*
X13605775Y-16115055D01*
X13605775Y-16115055D02*
X13586728Y-16134103D01*
X13586728Y-16134103D02*
X13567680Y-16143627D01*
X13796251Y-16172198D02*
X13777204Y-16162674D01*
X13777204Y-16162674D02*
X13767680Y-16153150D01*
X13767680Y-16153150D02*
X13758156Y-16134103D01*
X13758156Y-16134103D02*
X13758156Y-16124579D01*
X13758156Y-16124579D02*
X13767680Y-16105531D01*
X13767680Y-16105531D02*
X13777204Y-16096008D01*
X13777204Y-16096008D02*
X13796251Y-16086484D01*
X13796251Y-16086484D02*
X13834347Y-16086484D01*
X13834347Y-16086484D02*
X13853394Y-16096008D01*
X13853394Y-16096008D02*
X13862918Y-16105531D01*
X13862918Y-16105531D02*
X13872442Y-16124579D01*
X13872442Y-16124579D02*
X13872442Y-16134103D01*
X13872442Y-16134103D02*
X13862918Y-16153150D01*
X13862918Y-16153150D02*
X13853394Y-16162674D01*
X13853394Y-16162674D02*
X13834347Y-16172198D01*
X13834347Y-16172198D02*
X13796251Y-16172198D01*
X13796251Y-16172198D02*
X13777204Y-16181722D01*
X13777204Y-16181722D02*
X13767680Y-16191246D01*
X13767680Y-16191246D02*
X13758156Y-16210293D01*
X13758156Y-16210293D02*
X13758156Y-16248388D01*
X13758156Y-16248388D02*
X13767680Y-16267436D01*
X13767680Y-16267436D02*
X13777204Y-16276960D01*
X13777204Y-16276960D02*
X13796251Y-16286484D01*
X13796251Y-16286484D02*
X13834347Y-16286484D01*
X13834347Y-16286484D02*
X13853394Y-16276960D01*
X13853394Y-16276960D02*
X13862918Y-16267436D01*
X13862918Y-16267436D02*
X13872442Y-16248388D01*
X13872442Y-16248388D02*
X13872442Y-16210293D01*
X13872442Y-16210293D02*
X13862918Y-16191246D01*
X13862918Y-16191246D02*
X13853394Y-16181722D01*
X13853394Y-16181722D02*
X13834347Y-16172198D01*
X13948632Y-16086484D02*
X13948632Y-16124579D01*
X14024823Y-16086484D02*
X14024823Y-16124579D01*
X14320061Y-16362674D02*
X14310537Y-16353150D01*
X14310537Y-16353150D02*
X14291490Y-16324579D01*
X14291490Y-16324579D02*
X14281966Y-16305531D01*
X14281966Y-16305531D02*
X14272442Y-16276960D01*
X14272442Y-16276960D02*
X14262918Y-16229341D01*
X14262918Y-16229341D02*
X14262918Y-16191246D01*
X14262918Y-16191246D02*
X14272442Y-16143627D01*
X14272442Y-16143627D02*
X14281966Y-16115055D01*
X14281966Y-16115055D02*
X14291490Y-16096008D01*
X14291490Y-16096008D02*
X14310537Y-16067436D01*
X14310537Y-16067436D02*
X14320061Y-16057912D01*
X14491490Y-16086484D02*
X14396252Y-16086484D01*
X14396252Y-16086484D02*
X14386728Y-16181722D01*
X14386728Y-16181722D02*
X14396252Y-16172198D01*
X14396252Y-16172198D02*
X14415299Y-16162674D01*
X14415299Y-16162674D02*
X14462918Y-16162674D01*
X14462918Y-16162674D02*
X14481966Y-16172198D01*
X14481966Y-16172198D02*
X14491490Y-16181722D01*
X14491490Y-16181722D02*
X14501013Y-16200769D01*
X14501013Y-16200769D02*
X14501013Y-16248388D01*
X14501013Y-16248388D02*
X14491490Y-16267436D01*
X14491490Y-16267436D02*
X14481966Y-16276960D01*
X14481966Y-16276960D02*
X14462918Y-16286484D01*
X14462918Y-16286484D02*
X14415299Y-16286484D01*
X14415299Y-16286484D02*
X14396252Y-16276960D01*
X14396252Y-16276960D02*
X14386728Y-16267436D01*
X14567680Y-16086484D02*
X14701013Y-16086484D01*
X14701013Y-16086484D02*
X14615299Y-16286484D01*
X14929585Y-16286484D02*
X14929585Y-16086484D01*
X15015299Y-16286484D02*
X15015299Y-16181722D01*
X15015299Y-16181722D02*
X15005775Y-16162674D01*
X15005775Y-16162674D02*
X14986728Y-16153150D01*
X14986728Y-16153150D02*
X14958156Y-16153150D01*
X14958156Y-16153150D02*
X14939109Y-16162674D01*
X14939109Y-16162674D02*
X14929585Y-16172198D01*
X15139109Y-16286484D02*
X15120061Y-16276960D01*
X15120061Y-16276960D02*
X15110537Y-16267436D01*
X15110537Y-16267436D02*
X15101014Y-16248388D01*
X15101014Y-16248388D02*
X15101014Y-16191246D01*
X15101014Y-16191246D02*
X15110537Y-16172198D01*
X15110537Y-16172198D02*
X15120061Y-16162674D01*
X15120061Y-16162674D02*
X15139109Y-16153150D01*
X15139109Y-16153150D02*
X15167680Y-16153150D01*
X15167680Y-16153150D02*
X15186728Y-16162674D01*
X15186728Y-16162674D02*
X15196252Y-16172198D01*
X15196252Y-16172198D02*
X15205775Y-16191246D01*
X15205775Y-16191246D02*
X15205775Y-16248388D01*
X15205775Y-16248388D02*
X15196252Y-16267436D01*
X15196252Y-16267436D02*
X15186728Y-16276960D01*
X15186728Y-16276960D02*
X15167680Y-16286484D01*
X15167680Y-16286484D02*
X15139109Y-16286484D01*
X15320061Y-16286484D02*
X15301014Y-16276960D01*
X15301014Y-16276960D02*
X15291490Y-16257912D01*
X15291490Y-16257912D02*
X15291490Y-16086484D01*
X15472442Y-16276960D02*
X15453395Y-16286484D01*
X15453395Y-16286484D02*
X15415299Y-16286484D01*
X15415299Y-16286484D02*
X15396252Y-16276960D01*
X15396252Y-16276960D02*
X15386728Y-16257912D01*
X15386728Y-16257912D02*
X15386728Y-16181722D01*
X15386728Y-16181722D02*
X15396252Y-16162674D01*
X15396252Y-16162674D02*
X15415299Y-16153150D01*
X15415299Y-16153150D02*
X15453395Y-16153150D01*
X15453395Y-16153150D02*
X15472442Y-16162674D01*
X15472442Y-16162674D02*
X15481966Y-16181722D01*
X15481966Y-16181722D02*
X15481966Y-16200769D01*
X15481966Y-16200769D02*
X15386728Y-16219817D01*
X15558156Y-16276960D02*
X15577204Y-16286484D01*
X15577204Y-16286484D02*
X15615299Y-16286484D01*
X15615299Y-16286484D02*
X15634347Y-16276960D01*
X15634347Y-16276960D02*
X15643871Y-16257912D01*
X15643871Y-16257912D02*
X15643871Y-16248388D01*
X15643871Y-16248388D02*
X15634347Y-16229341D01*
X15634347Y-16229341D02*
X15615299Y-16219817D01*
X15615299Y-16219817D02*
X15586728Y-16219817D01*
X15586728Y-16219817D02*
X15567680Y-16210293D01*
X15567680Y-16210293D02*
X15558156Y-16191246D01*
X15558156Y-16191246D02*
X15558156Y-16181722D01*
X15558156Y-16181722D02*
X15567680Y-16162674D01*
X15567680Y-16162674D02*
X15586728Y-16153150D01*
X15586728Y-16153150D02*
X15615299Y-16153150D01*
X15615299Y-16153150D02*
X15634347Y-16162674D01*
X15710537Y-16362674D02*
X15720061Y-16353150D01*
X15720061Y-16353150D02*
X15739109Y-16324579D01*
X15739109Y-16324579D02*
X15748633Y-16305531D01*
X15748633Y-16305531D02*
X15758156Y-16276960D01*
X15758156Y-16276960D02*
X15767680Y-16229341D01*
X15767680Y-16229341D02*
X15767680Y-16191246D01*
X15767680Y-16191246D02*
X15758156Y-16143627D01*
X15758156Y-16143627D02*
X15748633Y-16115055D01*
X15748633Y-16115055D02*
X15739109Y-16096008D01*
X15739109Y-16096008D02*
X15720061Y-16067436D01*
X15720061Y-16067436D02*
X15710537Y-16057912D01*
D10*
X10744998Y-16459000D02*
G75*
G02*
X10684998Y-16459000I-30000J0D01*
G01*
X10684998Y-16459000D02*
G75*
G02*
X10744998Y-16459000I30000J0D01*
G01*
D11*
X11043870Y-16350484D02*
X11062918Y-16350484D01*
X11062918Y-16350484D02*
X11081966Y-16360008D01*
X11081966Y-16360008D02*
X11091489Y-16369531D01*
X11091489Y-16369531D02*
X11101013Y-16388579D01*
X11101013Y-16388579D02*
X11110537Y-16426674D01*
X11110537Y-16426674D02*
X11110537Y-16474293D01*
X11110537Y-16474293D02*
X11101013Y-16512388D01*
X11101013Y-16512388D02*
X11091489Y-16531436D01*
X11091489Y-16531436D02*
X11081966Y-16540960D01*
X11081966Y-16540960D02*
X11062918Y-16550484D01*
X11062918Y-16550484D02*
X11043870Y-16550484D01*
X11043870Y-16550484D02*
X11024823Y-16540960D01*
X11024823Y-16540960D02*
X11015299Y-16531436D01*
X11015299Y-16531436D02*
X11005775Y-16512388D01*
X11005775Y-16512388D02*
X10996251Y-16474293D01*
X10996251Y-16474293D02*
X10996251Y-16426674D01*
X10996251Y-16426674D02*
X11005775Y-16388579D01*
X11005775Y-16388579D02*
X11015299Y-16369531D01*
X11015299Y-16369531D02*
X11024823Y-16360008D01*
X11024823Y-16360008D02*
X11043870Y-16350484D01*
X11196251Y-16531436D02*
X11205775Y-16540960D01*
X11205775Y-16540960D02*
X11196251Y-16550484D01*
X11196251Y-16550484D02*
X11186727Y-16540960D01*
X11186727Y-16540960D02*
X11196251Y-16531436D01*
X11196251Y-16531436D02*
X11196251Y-16550484D01*
X11377204Y-16350484D02*
X11339108Y-16350484D01*
X11339108Y-16350484D02*
X11320061Y-16360008D01*
X11320061Y-16360008D02*
X11310537Y-16369531D01*
X11310537Y-16369531D02*
X11291489Y-16398103D01*
X11291489Y-16398103D02*
X11281966Y-16436198D01*
X11281966Y-16436198D02*
X11281966Y-16512388D01*
X11281966Y-16512388D02*
X11291489Y-16531436D01*
X11291489Y-16531436D02*
X11301013Y-16540960D01*
X11301013Y-16540960D02*
X11320061Y-16550484D01*
X11320061Y-16550484D02*
X11358156Y-16550484D01*
X11358156Y-16550484D02*
X11377204Y-16540960D01*
X11377204Y-16540960D02*
X11386727Y-16531436D01*
X11386727Y-16531436D02*
X11396251Y-16512388D01*
X11396251Y-16512388D02*
X11396251Y-16464769D01*
X11396251Y-16464769D02*
X11386727Y-16445722D01*
X11386727Y-16445722D02*
X11377204Y-16436198D01*
X11377204Y-16436198D02*
X11358156Y-16426674D01*
X11358156Y-16426674D02*
X11320061Y-16426674D01*
X11320061Y-16426674D02*
X11301013Y-16436198D01*
X11301013Y-16436198D02*
X11291489Y-16445722D01*
X11291489Y-16445722D02*
X11281966Y-16464769D01*
X11520061Y-16350484D02*
X11539108Y-16350484D01*
X11539108Y-16350484D02*
X11558156Y-16360008D01*
X11558156Y-16360008D02*
X11567680Y-16369531D01*
X11567680Y-16369531D02*
X11577204Y-16388579D01*
X11577204Y-16388579D02*
X11586727Y-16426674D01*
X11586727Y-16426674D02*
X11586727Y-16474293D01*
X11586727Y-16474293D02*
X11577204Y-16512388D01*
X11577204Y-16512388D02*
X11567680Y-16531436D01*
X11567680Y-16531436D02*
X11558156Y-16540960D01*
X11558156Y-16540960D02*
X11539108Y-16550484D01*
X11539108Y-16550484D02*
X11520061Y-16550484D01*
X11520061Y-16550484D02*
X11501013Y-16540960D01*
X11501013Y-16540960D02*
X11491489Y-16531436D01*
X11491489Y-16531436D02*
X11481966Y-16512388D01*
X11481966Y-16512388D02*
X11472442Y-16474293D01*
X11472442Y-16474293D02*
X11472442Y-16426674D01*
X11472442Y-16426674D02*
X11481966Y-16388579D01*
X11481966Y-16388579D02*
X11491489Y-16369531D01*
X11491489Y-16369531D02*
X11501013Y-16360008D01*
X11501013Y-16360008D02*
X11520061Y-16350484D01*
X11710537Y-16350484D02*
X11729585Y-16350484D01*
X11729585Y-16350484D02*
X11748632Y-16360008D01*
X11748632Y-16360008D02*
X11758156Y-16369531D01*
X11758156Y-16369531D02*
X11767680Y-16388579D01*
X11767680Y-16388579D02*
X11777204Y-16426674D01*
X11777204Y-16426674D02*
X11777204Y-16474293D01*
X11777204Y-16474293D02*
X11767680Y-16512388D01*
X11767680Y-16512388D02*
X11758156Y-16531436D01*
X11758156Y-16531436D02*
X11748632Y-16540960D01*
X11748632Y-16540960D02*
X11729585Y-16550484D01*
X11729585Y-16550484D02*
X11710537Y-16550484D01*
X11710537Y-16550484D02*
X11691489Y-16540960D01*
X11691489Y-16540960D02*
X11681966Y-16531436D01*
X11681966Y-16531436D02*
X11672442Y-16512388D01*
X11672442Y-16512388D02*
X11662918Y-16474293D01*
X11662918Y-16474293D02*
X11662918Y-16426674D01*
X11662918Y-16426674D02*
X11672442Y-16388579D01*
X11672442Y-16388579D02*
X11681966Y-16369531D01*
X11681966Y-16369531D02*
X11691489Y-16360008D01*
X11691489Y-16360008D02*
X11710537Y-16350484D01*
X11862918Y-16550484D02*
X11862918Y-16417150D01*
X11862918Y-16436198D02*
X11872442Y-16426674D01*
X11872442Y-16426674D02*
X11891489Y-16417150D01*
X11891489Y-16417150D02*
X11920061Y-16417150D01*
X11920061Y-16417150D02*
X11939108Y-16426674D01*
X11939108Y-16426674D02*
X11948632Y-16445722D01*
X11948632Y-16445722D02*
X11948632Y-16550484D01*
X11948632Y-16445722D02*
X11958156Y-16426674D01*
X11958156Y-16426674D02*
X11977204Y-16417150D01*
X11977204Y-16417150D02*
X12005775Y-16417150D01*
X12005775Y-16417150D02*
X12024823Y-16426674D01*
X12024823Y-16426674D02*
X12034347Y-16445722D01*
X12034347Y-16445722D02*
X12034347Y-16550484D01*
X12129585Y-16550484D02*
X12129585Y-16417150D01*
X12129585Y-16436198D02*
X12139108Y-16426674D01*
X12139108Y-16426674D02*
X12158156Y-16417150D01*
X12158156Y-16417150D02*
X12186728Y-16417150D01*
X12186728Y-16417150D02*
X12205775Y-16426674D01*
X12205775Y-16426674D02*
X12215299Y-16445722D01*
X12215299Y-16445722D02*
X12215299Y-16550484D01*
X12215299Y-16445722D02*
X12224823Y-16426674D01*
X12224823Y-16426674D02*
X12243870Y-16417150D01*
X12243870Y-16417150D02*
X12272442Y-16417150D01*
X12272442Y-16417150D02*
X12291489Y-16426674D01*
X12291489Y-16426674D02*
X12301013Y-16445722D01*
X12301013Y-16445722D02*
X12301013Y-16550484D01*
X12691489Y-16340960D02*
X12520061Y-16598103D01*
X12948632Y-16350484D02*
X12967680Y-16350484D01*
X12967680Y-16350484D02*
X12986728Y-16360008D01*
X12986728Y-16360008D02*
X12996251Y-16369531D01*
X12996251Y-16369531D02*
X13005775Y-16388579D01*
X13005775Y-16388579D02*
X13015299Y-16426674D01*
X13015299Y-16426674D02*
X13015299Y-16474293D01*
X13015299Y-16474293D02*
X13005775Y-16512388D01*
X13005775Y-16512388D02*
X12996251Y-16531436D01*
X12996251Y-16531436D02*
X12986728Y-16540960D01*
X12986728Y-16540960D02*
X12967680Y-16550484D01*
X12967680Y-16550484D02*
X12948632Y-16550484D01*
X12948632Y-16550484D02*
X12929585Y-16540960D01*
X12929585Y-16540960D02*
X12920061Y-16531436D01*
X12920061Y-16531436D02*
X12910537Y-16512388D01*
X12910537Y-16512388D02*
X12901013Y-16474293D01*
X12901013Y-16474293D02*
X12901013Y-16426674D01*
X12901013Y-16426674D02*
X12910537Y-16388579D01*
X12910537Y-16388579D02*
X12920061Y-16369531D01*
X12920061Y-16369531D02*
X12929585Y-16360008D01*
X12929585Y-16360008D02*
X12948632Y-16350484D01*
X13101013Y-16531436D02*
X13110537Y-16540960D01*
X13110537Y-16540960D02*
X13101013Y-16550484D01*
X13101013Y-16550484D02*
X13091490Y-16540960D01*
X13091490Y-16540960D02*
X13101013Y-16531436D01*
X13101013Y-16531436D02*
X13101013Y-16550484D01*
X13234347Y-16350484D02*
X13253394Y-16350484D01*
X13253394Y-16350484D02*
X13272442Y-16360008D01*
X13272442Y-16360008D02*
X13281966Y-16369531D01*
X13281966Y-16369531D02*
X13291490Y-16388579D01*
X13291490Y-16388579D02*
X13301013Y-16426674D01*
X13301013Y-16426674D02*
X13301013Y-16474293D01*
X13301013Y-16474293D02*
X13291490Y-16512388D01*
X13291490Y-16512388D02*
X13281966Y-16531436D01*
X13281966Y-16531436D02*
X13272442Y-16540960D01*
X13272442Y-16540960D02*
X13253394Y-16550484D01*
X13253394Y-16550484D02*
X13234347Y-16550484D01*
X13234347Y-16550484D02*
X13215299Y-16540960D01*
X13215299Y-16540960D02*
X13205775Y-16531436D01*
X13205775Y-16531436D02*
X13196251Y-16512388D01*
X13196251Y-16512388D02*
X13186728Y-16474293D01*
X13186728Y-16474293D02*
X13186728Y-16426674D01*
X13186728Y-16426674D02*
X13196251Y-16388579D01*
X13196251Y-16388579D02*
X13205775Y-16369531D01*
X13205775Y-16369531D02*
X13215299Y-16360008D01*
X13215299Y-16360008D02*
X13234347Y-16350484D01*
X13377204Y-16369531D02*
X13386728Y-16360008D01*
X13386728Y-16360008D02*
X13405775Y-16350484D01*
X13405775Y-16350484D02*
X13453394Y-16350484D01*
X13453394Y-16350484D02*
X13472442Y-16360008D01*
X13472442Y-16360008D02*
X13481966Y-16369531D01*
X13481966Y-16369531D02*
X13491490Y-16388579D01*
X13491490Y-16388579D02*
X13491490Y-16407627D01*
X13491490Y-16407627D02*
X13481966Y-16436198D01*
X13481966Y-16436198D02*
X13367680Y-16550484D01*
X13367680Y-16550484D02*
X13491490Y-16550484D01*
X13558156Y-16350484D02*
X13681966Y-16350484D01*
X13681966Y-16350484D02*
X13615299Y-16426674D01*
X13615299Y-16426674D02*
X13643871Y-16426674D01*
X13643871Y-16426674D02*
X13662918Y-16436198D01*
X13662918Y-16436198D02*
X13672442Y-16445722D01*
X13672442Y-16445722D02*
X13681966Y-16464769D01*
X13681966Y-16464769D02*
X13681966Y-16512388D01*
X13681966Y-16512388D02*
X13672442Y-16531436D01*
X13672442Y-16531436D02*
X13662918Y-16540960D01*
X13662918Y-16540960D02*
X13643871Y-16550484D01*
X13643871Y-16550484D02*
X13586728Y-16550484D01*
X13586728Y-16550484D02*
X13567680Y-16540960D01*
X13567680Y-16540960D02*
X13558156Y-16531436D01*
X13853394Y-16350484D02*
X13815299Y-16350484D01*
X13815299Y-16350484D02*
X13796251Y-16360008D01*
X13796251Y-16360008D02*
X13786728Y-16369531D01*
X13786728Y-16369531D02*
X13767680Y-16398103D01*
X13767680Y-16398103D02*
X13758156Y-16436198D01*
X13758156Y-16436198D02*
X13758156Y-16512388D01*
X13758156Y-16512388D02*
X13767680Y-16531436D01*
X13767680Y-16531436D02*
X13777204Y-16540960D01*
X13777204Y-16540960D02*
X13796251Y-16550484D01*
X13796251Y-16550484D02*
X13834347Y-16550484D01*
X13834347Y-16550484D02*
X13853394Y-16540960D01*
X13853394Y-16540960D02*
X13862918Y-16531436D01*
X13862918Y-16531436D02*
X13872442Y-16512388D01*
X13872442Y-16512388D02*
X13872442Y-16464769D01*
X13872442Y-16464769D02*
X13862918Y-16445722D01*
X13862918Y-16445722D02*
X13853394Y-16436198D01*
X13853394Y-16436198D02*
X13834347Y-16426674D01*
X13834347Y-16426674D02*
X13796251Y-16426674D01*
X13796251Y-16426674D02*
X13777204Y-16436198D01*
X13777204Y-16436198D02*
X13767680Y-16445722D01*
X13767680Y-16445722D02*
X13758156Y-16464769D01*
X13948632Y-16350484D02*
X13948632Y-16388579D01*
X14024823Y-16350484D02*
X14024823Y-16388579D01*
X14320061Y-16626674D02*
X14310537Y-16617150D01*
X14310537Y-16617150D02*
X14291490Y-16588579D01*
X14291490Y-16588579D02*
X14281966Y-16569531D01*
X14281966Y-16569531D02*
X14272442Y-16540960D01*
X14272442Y-16540960D02*
X14262918Y-16493341D01*
X14262918Y-16493341D02*
X14262918Y-16455246D01*
X14262918Y-16455246D02*
X14272442Y-16407627D01*
X14272442Y-16407627D02*
X14281966Y-16379055D01*
X14281966Y-16379055D02*
X14291490Y-16360008D01*
X14291490Y-16360008D02*
X14310537Y-16331436D01*
X14310537Y-16331436D02*
X14320061Y-16321912D01*
X14434347Y-16350484D02*
X14453394Y-16350484D01*
X14453394Y-16350484D02*
X14472442Y-16360008D01*
X14472442Y-16360008D02*
X14481966Y-16369531D01*
X14481966Y-16369531D02*
X14491490Y-16388579D01*
X14491490Y-16388579D02*
X14501013Y-16426674D01*
X14501013Y-16426674D02*
X14501013Y-16474293D01*
X14501013Y-16474293D02*
X14491490Y-16512388D01*
X14491490Y-16512388D02*
X14481966Y-16531436D01*
X14481966Y-16531436D02*
X14472442Y-16540960D01*
X14472442Y-16540960D02*
X14453394Y-16550484D01*
X14453394Y-16550484D02*
X14434347Y-16550484D01*
X14434347Y-16550484D02*
X14415299Y-16540960D01*
X14415299Y-16540960D02*
X14405775Y-16531436D01*
X14405775Y-16531436D02*
X14396252Y-16512388D01*
X14396252Y-16512388D02*
X14386728Y-16474293D01*
X14386728Y-16474293D02*
X14386728Y-16426674D01*
X14386728Y-16426674D02*
X14396252Y-16388579D01*
X14396252Y-16388579D02*
X14405775Y-16369531D01*
X14405775Y-16369531D02*
X14415299Y-16360008D01*
X14415299Y-16360008D02*
X14434347Y-16350484D01*
X14739109Y-16550484D02*
X14739109Y-16350484D01*
X14824823Y-16550484D02*
X14824823Y-16445722D01*
X14824823Y-16445722D02*
X14815299Y-16426674D01*
X14815299Y-16426674D02*
X14796252Y-16417150D01*
X14796252Y-16417150D02*
X14767680Y-16417150D01*
X14767680Y-16417150D02*
X14748633Y-16426674D01*
X14748633Y-16426674D02*
X14739109Y-16436198D01*
X14948633Y-16550484D02*
X14929585Y-16540960D01*
X14929585Y-16540960D02*
X14920061Y-16531436D01*
X14920061Y-16531436D02*
X14910537Y-16512388D01*
X14910537Y-16512388D02*
X14910537Y-16455246D01*
X14910537Y-16455246D02*
X14920061Y-16436198D01*
X14920061Y-16436198D02*
X14929585Y-16426674D01*
X14929585Y-16426674D02*
X14948633Y-16417150D01*
X14948633Y-16417150D02*
X14977204Y-16417150D01*
X14977204Y-16417150D02*
X14996252Y-16426674D01*
X14996252Y-16426674D02*
X15005775Y-16436198D01*
X15005775Y-16436198D02*
X15015299Y-16455246D01*
X15015299Y-16455246D02*
X15015299Y-16512388D01*
X15015299Y-16512388D02*
X15005775Y-16531436D01*
X15005775Y-16531436D02*
X14996252Y-16540960D01*
X14996252Y-16540960D02*
X14977204Y-16550484D01*
X14977204Y-16550484D02*
X14948633Y-16550484D01*
X15129585Y-16550484D02*
X15110537Y-16540960D01*
X15110537Y-16540960D02*
X15101014Y-16521912D01*
X15101014Y-16521912D02*
X15101014Y-16350484D01*
X15281966Y-16540960D02*
X15262918Y-16550484D01*
X15262918Y-16550484D02*
X15224823Y-16550484D01*
X15224823Y-16550484D02*
X15205775Y-16540960D01*
X15205775Y-16540960D02*
X15196252Y-16521912D01*
X15196252Y-16521912D02*
X15196252Y-16445722D01*
X15196252Y-16445722D02*
X15205775Y-16426674D01*
X15205775Y-16426674D02*
X15224823Y-16417150D01*
X15224823Y-16417150D02*
X15262918Y-16417150D01*
X15262918Y-16417150D02*
X15281966Y-16426674D01*
X15281966Y-16426674D02*
X15291490Y-16445722D01*
X15291490Y-16445722D02*
X15291490Y-16464769D01*
X15291490Y-16464769D02*
X15196252Y-16483817D01*
X15367680Y-16540960D02*
X15386728Y-16550484D01*
X15386728Y-16550484D02*
X15424823Y-16550484D01*
X15424823Y-16550484D02*
X15443871Y-16540960D01*
X15443871Y-16540960D02*
X15453395Y-16521912D01*
X15453395Y-16521912D02*
X15453395Y-16512388D01*
X15453395Y-16512388D02*
X15443871Y-16493341D01*
X15443871Y-16493341D02*
X15424823Y-16483817D01*
X15424823Y-16483817D02*
X15396252Y-16483817D01*
X15396252Y-16483817D02*
X15377204Y-16474293D01*
X15377204Y-16474293D02*
X15367680Y-16455246D01*
X15367680Y-16455246D02*
X15367680Y-16445722D01*
X15367680Y-16445722D02*
X15377204Y-16426674D01*
X15377204Y-16426674D02*
X15396252Y-16417150D01*
X15396252Y-16417150D02*
X15424823Y-16417150D01*
X15424823Y-16417150D02*
X15443871Y-16426674D01*
X15691490Y-16474293D02*
X15843871Y-16474293D01*
X15767680Y-16550484D02*
X15767680Y-16398103D01*
X16177204Y-16417150D02*
X16177204Y-16550484D01*
X16129585Y-16340960D02*
X16081966Y-16483817D01*
X16081966Y-16483817D02*
X16205776Y-16483817D01*
X16424823Y-16540960D02*
X16443871Y-16550484D01*
X16443871Y-16550484D02*
X16481966Y-16550484D01*
X16481966Y-16550484D02*
X16501014Y-16540960D01*
X16501014Y-16540960D02*
X16510538Y-16521912D01*
X16510538Y-16521912D02*
X16510538Y-16512388D01*
X16510538Y-16512388D02*
X16501014Y-16493341D01*
X16501014Y-16493341D02*
X16481966Y-16483817D01*
X16481966Y-16483817D02*
X16453395Y-16483817D01*
X16453395Y-16483817D02*
X16434347Y-16474293D01*
X16434347Y-16474293D02*
X16424823Y-16455246D01*
X16424823Y-16455246D02*
X16424823Y-16445722D01*
X16424823Y-16445722D02*
X16434347Y-16426674D01*
X16434347Y-16426674D02*
X16453395Y-16417150D01*
X16453395Y-16417150D02*
X16481966Y-16417150D01*
X16481966Y-16417150D02*
X16501014Y-16426674D01*
X16624823Y-16550484D02*
X16605776Y-16540960D01*
X16605776Y-16540960D02*
X16596252Y-16521912D01*
X16596252Y-16521912D02*
X16596252Y-16350484D01*
X16729585Y-16550484D02*
X16710538Y-16540960D01*
X16710538Y-16540960D02*
X16701014Y-16531436D01*
X16701014Y-16531436D02*
X16691490Y-16512388D01*
X16691490Y-16512388D02*
X16691490Y-16455246D01*
X16691490Y-16455246D02*
X16701014Y-16436198D01*
X16701014Y-16436198D02*
X16710538Y-16426674D01*
X16710538Y-16426674D02*
X16729585Y-16417150D01*
X16729585Y-16417150D02*
X16758157Y-16417150D01*
X16758157Y-16417150D02*
X16777204Y-16426674D01*
X16777204Y-16426674D02*
X16786728Y-16436198D01*
X16786728Y-16436198D02*
X16796252Y-16455246D01*
X16796252Y-16455246D02*
X16796252Y-16512388D01*
X16796252Y-16512388D02*
X16786728Y-16531436D01*
X16786728Y-16531436D02*
X16777204Y-16540960D01*
X16777204Y-16540960D02*
X16758157Y-16550484D01*
X16758157Y-16550484D02*
X16729585Y-16550484D01*
X16853395Y-16417150D02*
X16929585Y-16417150D01*
X16881966Y-16350484D02*
X16881966Y-16521912D01*
X16881966Y-16521912D02*
X16891490Y-16540960D01*
X16891490Y-16540960D02*
X16910538Y-16550484D01*
X16910538Y-16550484D02*
X16929585Y-16550484D01*
X16986728Y-16540960D02*
X17005776Y-16550484D01*
X17005776Y-16550484D02*
X17043871Y-16550484D01*
X17043871Y-16550484D02*
X17062919Y-16540960D01*
X17062919Y-16540960D02*
X17072442Y-16521912D01*
X17072442Y-16521912D02*
X17072442Y-16512388D01*
X17072442Y-16512388D02*
X17062919Y-16493341D01*
X17062919Y-16493341D02*
X17043871Y-16483817D01*
X17043871Y-16483817D02*
X17015300Y-16483817D01*
X17015300Y-16483817D02*
X16996252Y-16474293D01*
X16996252Y-16474293D02*
X16986728Y-16455246D01*
X16986728Y-16455246D02*
X16986728Y-16445722D01*
X16986728Y-16445722D02*
X16996252Y-16426674D01*
X16996252Y-16426674D02*
X17015300Y-16417150D01*
X17015300Y-16417150D02*
X17043871Y-16417150D01*
X17043871Y-16417150D02*
X17062919Y-16426674D01*
X17139109Y-16626674D02*
X17148633Y-16617150D01*
X17148633Y-16617150D02*
X17167681Y-16588579D01*
X17167681Y-16588579D02*
X17177204Y-16569531D01*
X17177204Y-16569531D02*
X17186728Y-16540960D01*
X17186728Y-16540960D02*
X17196252Y-16493341D01*
X17196252Y-16493341D02*
X17196252Y-16455246D01*
X17196252Y-16455246D02*
X17186728Y-16407627D01*
X17186728Y-16407627D02*
X17177204Y-16379055D01*
X17177204Y-16379055D02*
X17167681Y-16360008D01*
X17167681Y-16360008D02*
X17148633Y-16331436D01*
X17148633Y-16331436D02*
X17139109Y-16321912D01*
D10*
X10694998Y-16673000D02*
X10694998Y-16773000D01*
X10644998Y-16723000D02*
X10744998Y-16723000D01*
D11*
X11110537Y-16814484D02*
X10996251Y-16814484D01*
X11053394Y-16814484D02*
X11053394Y-16614484D01*
X11053394Y-16614484D02*
X11034347Y-16643055D01*
X11034347Y-16643055D02*
X11015299Y-16662103D01*
X11015299Y-16662103D02*
X10996251Y-16671627D01*
X11196251Y-16795436D02*
X11205775Y-16804960D01*
X11205775Y-16804960D02*
X11196251Y-16814484D01*
X11196251Y-16814484D02*
X11186727Y-16804960D01*
X11186727Y-16804960D02*
X11196251Y-16795436D01*
X11196251Y-16795436D02*
X11196251Y-16814484D01*
X11329585Y-16614484D02*
X11348632Y-16614484D01*
X11348632Y-16614484D02*
X11367680Y-16624008D01*
X11367680Y-16624008D02*
X11377204Y-16633531D01*
X11377204Y-16633531D02*
X11386727Y-16652579D01*
X11386727Y-16652579D02*
X11396251Y-16690674D01*
X11396251Y-16690674D02*
X11396251Y-16738293D01*
X11396251Y-16738293D02*
X11386727Y-16776388D01*
X11386727Y-16776388D02*
X11377204Y-16795436D01*
X11377204Y-16795436D02*
X11367680Y-16804960D01*
X11367680Y-16804960D02*
X11348632Y-16814484D01*
X11348632Y-16814484D02*
X11329585Y-16814484D01*
X11329585Y-16814484D02*
X11310537Y-16804960D01*
X11310537Y-16804960D02*
X11301013Y-16795436D01*
X11301013Y-16795436D02*
X11291489Y-16776388D01*
X11291489Y-16776388D02*
X11281966Y-16738293D01*
X11281966Y-16738293D02*
X11281966Y-16690674D01*
X11281966Y-16690674D02*
X11291489Y-16652579D01*
X11291489Y-16652579D02*
X11301013Y-16633531D01*
X11301013Y-16633531D02*
X11310537Y-16624008D01*
X11310537Y-16624008D02*
X11329585Y-16614484D01*
X11520061Y-16614484D02*
X11539108Y-16614484D01*
X11539108Y-16614484D02*
X11558156Y-16624008D01*
X11558156Y-16624008D02*
X11567680Y-16633531D01*
X11567680Y-16633531D02*
X11577204Y-16652579D01*
X11577204Y-16652579D02*
X11586727Y-16690674D01*
X11586727Y-16690674D02*
X11586727Y-16738293D01*
X11586727Y-16738293D02*
X11577204Y-16776388D01*
X11577204Y-16776388D02*
X11567680Y-16795436D01*
X11567680Y-16795436D02*
X11558156Y-16804960D01*
X11558156Y-16804960D02*
X11539108Y-16814484D01*
X11539108Y-16814484D02*
X11520061Y-16814484D01*
X11520061Y-16814484D02*
X11501013Y-16804960D01*
X11501013Y-16804960D02*
X11491489Y-16795436D01*
X11491489Y-16795436D02*
X11481966Y-16776388D01*
X11481966Y-16776388D02*
X11472442Y-16738293D01*
X11472442Y-16738293D02*
X11472442Y-16690674D01*
X11472442Y-16690674D02*
X11481966Y-16652579D01*
X11481966Y-16652579D02*
X11491489Y-16633531D01*
X11491489Y-16633531D02*
X11501013Y-16624008D01*
X11501013Y-16624008D02*
X11520061Y-16614484D01*
X11710537Y-16614484D02*
X11729585Y-16614484D01*
X11729585Y-16614484D02*
X11748632Y-16624008D01*
X11748632Y-16624008D02*
X11758156Y-16633531D01*
X11758156Y-16633531D02*
X11767680Y-16652579D01*
X11767680Y-16652579D02*
X11777204Y-16690674D01*
X11777204Y-16690674D02*
X11777204Y-16738293D01*
X11777204Y-16738293D02*
X11767680Y-16776388D01*
X11767680Y-16776388D02*
X11758156Y-16795436D01*
X11758156Y-16795436D02*
X11748632Y-16804960D01*
X11748632Y-16804960D02*
X11729585Y-16814484D01*
X11729585Y-16814484D02*
X11710537Y-16814484D01*
X11710537Y-16814484D02*
X11691489Y-16804960D01*
X11691489Y-16804960D02*
X11681966Y-16795436D01*
X11681966Y-16795436D02*
X11672442Y-16776388D01*
X11672442Y-16776388D02*
X11662918Y-16738293D01*
X11662918Y-16738293D02*
X11662918Y-16690674D01*
X11662918Y-16690674D02*
X11672442Y-16652579D01*
X11672442Y-16652579D02*
X11681966Y-16633531D01*
X11681966Y-16633531D02*
X11691489Y-16624008D01*
X11691489Y-16624008D02*
X11710537Y-16614484D01*
X11862918Y-16814484D02*
X11862918Y-16681150D01*
X11862918Y-16700198D02*
X11872442Y-16690674D01*
X11872442Y-16690674D02*
X11891489Y-16681150D01*
X11891489Y-16681150D02*
X11920061Y-16681150D01*
X11920061Y-16681150D02*
X11939108Y-16690674D01*
X11939108Y-16690674D02*
X11948632Y-16709722D01*
X11948632Y-16709722D02*
X11948632Y-16814484D01*
X11948632Y-16709722D02*
X11958156Y-16690674D01*
X11958156Y-16690674D02*
X11977204Y-16681150D01*
X11977204Y-16681150D02*
X12005775Y-16681150D01*
X12005775Y-16681150D02*
X12024823Y-16690674D01*
X12024823Y-16690674D02*
X12034347Y-16709722D01*
X12034347Y-16709722D02*
X12034347Y-16814484D01*
X12129585Y-16814484D02*
X12129585Y-16681150D01*
X12129585Y-16700198D02*
X12139108Y-16690674D01*
X12139108Y-16690674D02*
X12158156Y-16681150D01*
X12158156Y-16681150D02*
X12186728Y-16681150D01*
X12186728Y-16681150D02*
X12205775Y-16690674D01*
X12205775Y-16690674D02*
X12215299Y-16709722D01*
X12215299Y-16709722D02*
X12215299Y-16814484D01*
X12215299Y-16709722D02*
X12224823Y-16690674D01*
X12224823Y-16690674D02*
X12243870Y-16681150D01*
X12243870Y-16681150D02*
X12272442Y-16681150D01*
X12272442Y-16681150D02*
X12291489Y-16690674D01*
X12291489Y-16690674D02*
X12301013Y-16709722D01*
X12301013Y-16709722D02*
X12301013Y-16814484D01*
X12691489Y-16604960D02*
X12520061Y-16862103D01*
X12948632Y-16614484D02*
X12967680Y-16614484D01*
X12967680Y-16614484D02*
X12986728Y-16624008D01*
X12986728Y-16624008D02*
X12996251Y-16633531D01*
X12996251Y-16633531D02*
X13005775Y-16652579D01*
X13005775Y-16652579D02*
X13015299Y-16690674D01*
X13015299Y-16690674D02*
X13015299Y-16738293D01*
X13015299Y-16738293D02*
X13005775Y-16776388D01*
X13005775Y-16776388D02*
X12996251Y-16795436D01*
X12996251Y-16795436D02*
X12986728Y-16804960D01*
X12986728Y-16804960D02*
X12967680Y-16814484D01*
X12967680Y-16814484D02*
X12948632Y-16814484D01*
X12948632Y-16814484D02*
X12929585Y-16804960D01*
X12929585Y-16804960D02*
X12920061Y-16795436D01*
X12920061Y-16795436D02*
X12910537Y-16776388D01*
X12910537Y-16776388D02*
X12901013Y-16738293D01*
X12901013Y-16738293D02*
X12901013Y-16690674D01*
X12901013Y-16690674D02*
X12910537Y-16652579D01*
X12910537Y-16652579D02*
X12920061Y-16633531D01*
X12920061Y-16633531D02*
X12929585Y-16624008D01*
X12929585Y-16624008D02*
X12948632Y-16614484D01*
X13101013Y-16795436D02*
X13110537Y-16804960D01*
X13110537Y-16804960D02*
X13101013Y-16814484D01*
X13101013Y-16814484D02*
X13091490Y-16804960D01*
X13091490Y-16804960D02*
X13101013Y-16795436D01*
X13101013Y-16795436D02*
X13101013Y-16814484D01*
X13234347Y-16614484D02*
X13253394Y-16614484D01*
X13253394Y-16614484D02*
X13272442Y-16624008D01*
X13272442Y-16624008D02*
X13281966Y-16633531D01*
X13281966Y-16633531D02*
X13291490Y-16652579D01*
X13291490Y-16652579D02*
X13301013Y-16690674D01*
X13301013Y-16690674D02*
X13301013Y-16738293D01*
X13301013Y-16738293D02*
X13291490Y-16776388D01*
X13291490Y-16776388D02*
X13281966Y-16795436D01*
X13281966Y-16795436D02*
X13272442Y-16804960D01*
X13272442Y-16804960D02*
X13253394Y-16814484D01*
X13253394Y-16814484D02*
X13234347Y-16814484D01*
X13234347Y-16814484D02*
X13215299Y-16804960D01*
X13215299Y-16804960D02*
X13205775Y-16795436D01*
X13205775Y-16795436D02*
X13196251Y-16776388D01*
X13196251Y-16776388D02*
X13186728Y-16738293D01*
X13186728Y-16738293D02*
X13186728Y-16690674D01*
X13186728Y-16690674D02*
X13196251Y-16652579D01*
X13196251Y-16652579D02*
X13205775Y-16633531D01*
X13205775Y-16633531D02*
X13215299Y-16624008D01*
X13215299Y-16624008D02*
X13234347Y-16614484D01*
X13367680Y-16614484D02*
X13491490Y-16614484D01*
X13491490Y-16614484D02*
X13424823Y-16690674D01*
X13424823Y-16690674D02*
X13453394Y-16690674D01*
X13453394Y-16690674D02*
X13472442Y-16700198D01*
X13472442Y-16700198D02*
X13481966Y-16709722D01*
X13481966Y-16709722D02*
X13491490Y-16728769D01*
X13491490Y-16728769D02*
X13491490Y-16776388D01*
X13491490Y-16776388D02*
X13481966Y-16795436D01*
X13481966Y-16795436D02*
X13472442Y-16804960D01*
X13472442Y-16804960D02*
X13453394Y-16814484D01*
X13453394Y-16814484D02*
X13396251Y-16814484D01*
X13396251Y-16814484D02*
X13377204Y-16804960D01*
X13377204Y-16804960D02*
X13367680Y-16795436D01*
X13586728Y-16814484D02*
X13624823Y-16814484D01*
X13624823Y-16814484D02*
X13643871Y-16804960D01*
X13643871Y-16804960D02*
X13653394Y-16795436D01*
X13653394Y-16795436D02*
X13672442Y-16766865D01*
X13672442Y-16766865D02*
X13681966Y-16728769D01*
X13681966Y-16728769D02*
X13681966Y-16652579D01*
X13681966Y-16652579D02*
X13672442Y-16633531D01*
X13672442Y-16633531D02*
X13662918Y-16624008D01*
X13662918Y-16624008D02*
X13643871Y-16614484D01*
X13643871Y-16614484D02*
X13605775Y-16614484D01*
X13605775Y-16614484D02*
X13586728Y-16624008D01*
X13586728Y-16624008D02*
X13577204Y-16633531D01*
X13577204Y-16633531D02*
X13567680Y-16652579D01*
X13567680Y-16652579D02*
X13567680Y-16700198D01*
X13567680Y-16700198D02*
X13577204Y-16719246D01*
X13577204Y-16719246D02*
X13586728Y-16728769D01*
X13586728Y-16728769D02*
X13605775Y-16738293D01*
X13605775Y-16738293D02*
X13643871Y-16738293D01*
X13643871Y-16738293D02*
X13662918Y-16728769D01*
X13662918Y-16728769D02*
X13672442Y-16719246D01*
X13672442Y-16719246D02*
X13681966Y-16700198D01*
X13853394Y-16681150D02*
X13853394Y-16814484D01*
X13805775Y-16604960D02*
X13758156Y-16747817D01*
X13758156Y-16747817D02*
X13881966Y-16747817D01*
X13948632Y-16614484D02*
X13948632Y-16652579D01*
X14024823Y-16614484D02*
X14024823Y-16652579D01*
X14320061Y-16890674D02*
X14310537Y-16881150D01*
X14310537Y-16881150D02*
X14291490Y-16852579D01*
X14291490Y-16852579D02*
X14281966Y-16833531D01*
X14281966Y-16833531D02*
X14272442Y-16804960D01*
X14272442Y-16804960D02*
X14262918Y-16757341D01*
X14262918Y-16757341D02*
X14262918Y-16719246D01*
X14262918Y-16719246D02*
X14272442Y-16671627D01*
X14272442Y-16671627D02*
X14281966Y-16643055D01*
X14281966Y-16643055D02*
X14291490Y-16624008D01*
X14291490Y-16624008D02*
X14310537Y-16595436D01*
X14310537Y-16595436D02*
X14320061Y-16585912D01*
X14386728Y-16633531D02*
X14396252Y-16624008D01*
X14396252Y-16624008D02*
X14415299Y-16614484D01*
X14415299Y-16614484D02*
X14462918Y-16614484D01*
X14462918Y-16614484D02*
X14481966Y-16624008D01*
X14481966Y-16624008D02*
X14491490Y-16633531D01*
X14491490Y-16633531D02*
X14501013Y-16652579D01*
X14501013Y-16652579D02*
X14501013Y-16671627D01*
X14501013Y-16671627D02*
X14491490Y-16700198D01*
X14491490Y-16700198D02*
X14377204Y-16814484D01*
X14377204Y-16814484D02*
X14501013Y-16814484D01*
X14739109Y-16814484D02*
X14739109Y-16614484D01*
X14824823Y-16814484D02*
X14824823Y-16709722D01*
X14824823Y-16709722D02*
X14815299Y-16690674D01*
X14815299Y-16690674D02*
X14796252Y-16681150D01*
X14796252Y-16681150D02*
X14767680Y-16681150D01*
X14767680Y-16681150D02*
X14748633Y-16690674D01*
X14748633Y-16690674D02*
X14739109Y-16700198D01*
X14948633Y-16814484D02*
X14929585Y-16804960D01*
X14929585Y-16804960D02*
X14920061Y-16795436D01*
X14920061Y-16795436D02*
X14910537Y-16776388D01*
X14910537Y-16776388D02*
X14910537Y-16719246D01*
X14910537Y-16719246D02*
X14920061Y-16700198D01*
X14920061Y-16700198D02*
X14929585Y-16690674D01*
X14929585Y-16690674D02*
X14948633Y-16681150D01*
X14948633Y-16681150D02*
X14977204Y-16681150D01*
X14977204Y-16681150D02*
X14996252Y-16690674D01*
X14996252Y-16690674D02*
X15005775Y-16700198D01*
X15005775Y-16700198D02*
X15015299Y-16719246D01*
X15015299Y-16719246D02*
X15015299Y-16776388D01*
X15015299Y-16776388D02*
X15005775Y-16795436D01*
X15005775Y-16795436D02*
X14996252Y-16804960D01*
X14996252Y-16804960D02*
X14977204Y-16814484D01*
X14977204Y-16814484D02*
X14948633Y-16814484D01*
X15129585Y-16814484D02*
X15110537Y-16804960D01*
X15110537Y-16804960D02*
X15101014Y-16785912D01*
X15101014Y-16785912D02*
X15101014Y-16614484D01*
X15281966Y-16804960D02*
X15262918Y-16814484D01*
X15262918Y-16814484D02*
X15224823Y-16814484D01*
X15224823Y-16814484D02*
X15205775Y-16804960D01*
X15205775Y-16804960D02*
X15196252Y-16785912D01*
X15196252Y-16785912D02*
X15196252Y-16709722D01*
X15196252Y-16709722D02*
X15205775Y-16690674D01*
X15205775Y-16690674D02*
X15224823Y-16681150D01*
X15224823Y-16681150D02*
X15262918Y-16681150D01*
X15262918Y-16681150D02*
X15281966Y-16690674D01*
X15281966Y-16690674D02*
X15291490Y-16709722D01*
X15291490Y-16709722D02*
X15291490Y-16728769D01*
X15291490Y-16728769D02*
X15196252Y-16747817D01*
X15367680Y-16804960D02*
X15386728Y-16814484D01*
X15386728Y-16814484D02*
X15424823Y-16814484D01*
X15424823Y-16814484D02*
X15443871Y-16804960D01*
X15443871Y-16804960D02*
X15453395Y-16785912D01*
X15453395Y-16785912D02*
X15453395Y-16776388D01*
X15453395Y-16776388D02*
X15443871Y-16757341D01*
X15443871Y-16757341D02*
X15424823Y-16747817D01*
X15424823Y-16747817D02*
X15396252Y-16747817D01*
X15396252Y-16747817D02*
X15377204Y-16738293D01*
X15377204Y-16738293D02*
X15367680Y-16719246D01*
X15367680Y-16719246D02*
X15367680Y-16709722D01*
X15367680Y-16709722D02*
X15377204Y-16690674D01*
X15377204Y-16690674D02*
X15396252Y-16681150D01*
X15396252Y-16681150D02*
X15424823Y-16681150D01*
X15424823Y-16681150D02*
X15443871Y-16690674D01*
X15520061Y-16890674D02*
X15529585Y-16881150D01*
X15529585Y-16881150D02*
X15548633Y-16852579D01*
X15548633Y-16852579D02*
X15558156Y-16833531D01*
X15558156Y-16833531D02*
X15567680Y-16804960D01*
X15567680Y-16804960D02*
X15577204Y-16757341D01*
X15577204Y-16757341D02*
X15577204Y-16719246D01*
X15577204Y-16719246D02*
X15567680Y-16671627D01*
X15567680Y-16671627D02*
X15558156Y-16643055D01*
X15558156Y-16643055D02*
X15548633Y-16624008D01*
X15548633Y-16624008D02*
X15529585Y-16595436D01*
X15529585Y-16595436D02*
X15520061Y-16585912D01*
D10*
X10735480Y-17009981D02*
X10735480Y-16964019D01*
X10689517Y-16964019D01*
X10689517Y-17009981D01*
X10735480Y-17009981D01*
D11*
X11043870Y-16878484D02*
X11062918Y-16878484D01*
X11062918Y-16878484D02*
X11081966Y-16888008D01*
X11081966Y-16888008D02*
X11091489Y-16897531D01*
X11091489Y-16897531D02*
X11101013Y-16916579D01*
X11101013Y-16916579D02*
X11110537Y-16954674D01*
X11110537Y-16954674D02*
X11110537Y-17002293D01*
X11110537Y-17002293D02*
X11101013Y-17040389D01*
X11101013Y-17040389D02*
X11091489Y-17059436D01*
X11091489Y-17059436D02*
X11081966Y-17068960D01*
X11081966Y-17068960D02*
X11062918Y-17078484D01*
X11062918Y-17078484D02*
X11043870Y-17078484D01*
X11043870Y-17078484D02*
X11024823Y-17068960D01*
X11024823Y-17068960D02*
X11015299Y-17059436D01*
X11015299Y-17059436D02*
X11005775Y-17040389D01*
X11005775Y-17040389D02*
X10996251Y-17002293D01*
X10996251Y-17002293D02*
X10996251Y-16954674D01*
X10996251Y-16954674D02*
X11005775Y-16916579D01*
X11005775Y-16916579D02*
X11015299Y-16897531D01*
X11015299Y-16897531D02*
X11024823Y-16888008D01*
X11024823Y-16888008D02*
X11043870Y-16878484D01*
X11196251Y-17059436D02*
X11205775Y-17068960D01*
X11205775Y-17068960D02*
X11196251Y-17078484D01*
X11196251Y-17078484D02*
X11186727Y-17068960D01*
X11186727Y-17068960D02*
X11196251Y-17059436D01*
X11196251Y-17059436D02*
X11196251Y-17078484D01*
X11377204Y-16878484D02*
X11339108Y-16878484D01*
X11339108Y-16878484D02*
X11320061Y-16888008D01*
X11320061Y-16888008D02*
X11310537Y-16897531D01*
X11310537Y-16897531D02*
X11291489Y-16926103D01*
X11291489Y-16926103D02*
X11281966Y-16964198D01*
X11281966Y-16964198D02*
X11281966Y-17040389D01*
X11281966Y-17040389D02*
X11291489Y-17059436D01*
X11291489Y-17059436D02*
X11301013Y-17068960D01*
X11301013Y-17068960D02*
X11320061Y-17078484D01*
X11320061Y-17078484D02*
X11358156Y-17078484D01*
X11358156Y-17078484D02*
X11377204Y-17068960D01*
X11377204Y-17068960D02*
X11386727Y-17059436D01*
X11386727Y-17059436D02*
X11396251Y-17040389D01*
X11396251Y-17040389D02*
X11396251Y-16992770D01*
X11396251Y-16992770D02*
X11386727Y-16973722D01*
X11386727Y-16973722D02*
X11377204Y-16964198D01*
X11377204Y-16964198D02*
X11358156Y-16954674D01*
X11358156Y-16954674D02*
X11320061Y-16954674D01*
X11320061Y-16954674D02*
X11301013Y-16964198D01*
X11301013Y-16964198D02*
X11291489Y-16973722D01*
X11291489Y-16973722D02*
X11281966Y-16992770D01*
X11577204Y-16878484D02*
X11481966Y-16878484D01*
X11481966Y-16878484D02*
X11472442Y-16973722D01*
X11472442Y-16973722D02*
X11481966Y-16964198D01*
X11481966Y-16964198D02*
X11501013Y-16954674D01*
X11501013Y-16954674D02*
X11548632Y-16954674D01*
X11548632Y-16954674D02*
X11567680Y-16964198D01*
X11567680Y-16964198D02*
X11577204Y-16973722D01*
X11577204Y-16973722D02*
X11586727Y-16992770D01*
X11586727Y-16992770D02*
X11586727Y-17040389D01*
X11586727Y-17040389D02*
X11577204Y-17059436D01*
X11577204Y-17059436D02*
X11567680Y-17068960D01*
X11567680Y-17068960D02*
X11548632Y-17078484D01*
X11548632Y-17078484D02*
X11501013Y-17078484D01*
X11501013Y-17078484D02*
X11481966Y-17068960D01*
X11481966Y-17068960D02*
X11472442Y-17059436D01*
X11710537Y-16878484D02*
X11729585Y-16878484D01*
X11729585Y-16878484D02*
X11748632Y-16888008D01*
X11748632Y-16888008D02*
X11758156Y-16897531D01*
X11758156Y-16897531D02*
X11767680Y-16916579D01*
X11767680Y-16916579D02*
X11777204Y-16954674D01*
X11777204Y-16954674D02*
X11777204Y-17002293D01*
X11777204Y-17002293D02*
X11767680Y-17040389D01*
X11767680Y-17040389D02*
X11758156Y-17059436D01*
X11758156Y-17059436D02*
X11748632Y-17068960D01*
X11748632Y-17068960D02*
X11729585Y-17078484D01*
X11729585Y-17078484D02*
X11710537Y-17078484D01*
X11710537Y-17078484D02*
X11691489Y-17068960D01*
X11691489Y-17068960D02*
X11681966Y-17059436D01*
X11681966Y-17059436D02*
X11672442Y-17040389D01*
X11672442Y-17040389D02*
X11662918Y-17002293D01*
X11662918Y-17002293D02*
X11662918Y-16954674D01*
X11662918Y-16954674D02*
X11672442Y-16916579D01*
X11672442Y-16916579D02*
X11681966Y-16897531D01*
X11681966Y-16897531D02*
X11691489Y-16888008D01*
X11691489Y-16888008D02*
X11710537Y-16878484D01*
X11862918Y-17078484D02*
X11862918Y-16945150D01*
X11862918Y-16964198D02*
X11872442Y-16954674D01*
X11872442Y-16954674D02*
X11891489Y-16945150D01*
X11891489Y-16945150D02*
X11920061Y-16945150D01*
X11920061Y-16945150D02*
X11939108Y-16954674D01*
X11939108Y-16954674D02*
X11948632Y-16973722D01*
X11948632Y-16973722D02*
X11948632Y-17078484D01*
X11948632Y-16973722D02*
X11958156Y-16954674D01*
X11958156Y-16954674D02*
X11977204Y-16945150D01*
X11977204Y-16945150D02*
X12005775Y-16945150D01*
X12005775Y-16945150D02*
X12024823Y-16954674D01*
X12024823Y-16954674D02*
X12034347Y-16973722D01*
X12034347Y-16973722D02*
X12034347Y-17078484D01*
X12129585Y-17078484D02*
X12129585Y-16945150D01*
X12129585Y-16964198D02*
X12139108Y-16954674D01*
X12139108Y-16954674D02*
X12158156Y-16945150D01*
X12158156Y-16945150D02*
X12186728Y-16945150D01*
X12186728Y-16945150D02*
X12205775Y-16954674D01*
X12205775Y-16954674D02*
X12215299Y-16973722D01*
X12215299Y-16973722D02*
X12215299Y-17078484D01*
X12215299Y-16973722D02*
X12224823Y-16954674D01*
X12224823Y-16954674D02*
X12243870Y-16945150D01*
X12243870Y-16945150D02*
X12272442Y-16945150D01*
X12272442Y-16945150D02*
X12291489Y-16954674D01*
X12291489Y-16954674D02*
X12301013Y-16973722D01*
X12301013Y-16973722D02*
X12301013Y-17078484D01*
X12691489Y-16868960D02*
X12520061Y-17126103D01*
X12948632Y-16878484D02*
X12967680Y-16878484D01*
X12967680Y-16878484D02*
X12986728Y-16888008D01*
X12986728Y-16888008D02*
X12996251Y-16897531D01*
X12996251Y-16897531D02*
X13005775Y-16916579D01*
X13005775Y-16916579D02*
X13015299Y-16954674D01*
X13015299Y-16954674D02*
X13015299Y-17002293D01*
X13015299Y-17002293D02*
X13005775Y-17040389D01*
X13005775Y-17040389D02*
X12996251Y-17059436D01*
X12996251Y-17059436D02*
X12986728Y-17068960D01*
X12986728Y-17068960D02*
X12967680Y-17078484D01*
X12967680Y-17078484D02*
X12948632Y-17078484D01*
X12948632Y-17078484D02*
X12929585Y-17068960D01*
X12929585Y-17068960D02*
X12920061Y-17059436D01*
X12920061Y-17059436D02*
X12910537Y-17040389D01*
X12910537Y-17040389D02*
X12901013Y-17002293D01*
X12901013Y-17002293D02*
X12901013Y-16954674D01*
X12901013Y-16954674D02*
X12910537Y-16916579D01*
X12910537Y-16916579D02*
X12920061Y-16897531D01*
X12920061Y-16897531D02*
X12929585Y-16888008D01*
X12929585Y-16888008D02*
X12948632Y-16878484D01*
X13101013Y-17059436D02*
X13110537Y-17068960D01*
X13110537Y-17068960D02*
X13101013Y-17078484D01*
X13101013Y-17078484D02*
X13091490Y-17068960D01*
X13091490Y-17068960D02*
X13101013Y-17059436D01*
X13101013Y-17059436D02*
X13101013Y-17078484D01*
X13234347Y-16878484D02*
X13253394Y-16878484D01*
X13253394Y-16878484D02*
X13272442Y-16888008D01*
X13272442Y-16888008D02*
X13281966Y-16897531D01*
X13281966Y-16897531D02*
X13291490Y-16916579D01*
X13291490Y-16916579D02*
X13301013Y-16954674D01*
X13301013Y-16954674D02*
X13301013Y-17002293D01*
X13301013Y-17002293D02*
X13291490Y-17040389D01*
X13291490Y-17040389D02*
X13281966Y-17059436D01*
X13281966Y-17059436D02*
X13272442Y-17068960D01*
X13272442Y-17068960D02*
X13253394Y-17078484D01*
X13253394Y-17078484D02*
X13234347Y-17078484D01*
X13234347Y-17078484D02*
X13215299Y-17068960D01*
X13215299Y-17068960D02*
X13205775Y-17059436D01*
X13205775Y-17059436D02*
X13196251Y-17040389D01*
X13196251Y-17040389D02*
X13186728Y-17002293D01*
X13186728Y-17002293D02*
X13186728Y-16954674D01*
X13186728Y-16954674D02*
X13196251Y-16916579D01*
X13196251Y-16916579D02*
X13205775Y-16897531D01*
X13205775Y-16897531D02*
X13215299Y-16888008D01*
X13215299Y-16888008D02*
X13234347Y-16878484D01*
X13377204Y-16897531D02*
X13386728Y-16888008D01*
X13386728Y-16888008D02*
X13405775Y-16878484D01*
X13405775Y-16878484D02*
X13453394Y-16878484D01*
X13453394Y-16878484D02*
X13472442Y-16888008D01*
X13472442Y-16888008D02*
X13481966Y-16897531D01*
X13481966Y-16897531D02*
X13491490Y-16916579D01*
X13491490Y-16916579D02*
X13491490Y-16935627D01*
X13491490Y-16935627D02*
X13481966Y-16964198D01*
X13481966Y-16964198D02*
X13367680Y-17078484D01*
X13367680Y-17078484D02*
X13491490Y-17078484D01*
X13672442Y-16878484D02*
X13577204Y-16878484D01*
X13577204Y-16878484D02*
X13567680Y-16973722D01*
X13567680Y-16973722D02*
X13577204Y-16964198D01*
X13577204Y-16964198D02*
X13596251Y-16954674D01*
X13596251Y-16954674D02*
X13643871Y-16954674D01*
X13643871Y-16954674D02*
X13662918Y-16964198D01*
X13662918Y-16964198D02*
X13672442Y-16973722D01*
X13672442Y-16973722D02*
X13681966Y-16992770D01*
X13681966Y-16992770D02*
X13681966Y-17040389D01*
X13681966Y-17040389D02*
X13672442Y-17059436D01*
X13672442Y-17059436D02*
X13662918Y-17068960D01*
X13662918Y-17068960D02*
X13643871Y-17078484D01*
X13643871Y-17078484D02*
X13596251Y-17078484D01*
X13596251Y-17078484D02*
X13577204Y-17068960D01*
X13577204Y-17068960D02*
X13567680Y-17059436D01*
X13853394Y-16878484D02*
X13815299Y-16878484D01*
X13815299Y-16878484D02*
X13796251Y-16888008D01*
X13796251Y-16888008D02*
X13786728Y-16897531D01*
X13786728Y-16897531D02*
X13767680Y-16926103D01*
X13767680Y-16926103D02*
X13758156Y-16964198D01*
X13758156Y-16964198D02*
X13758156Y-17040389D01*
X13758156Y-17040389D02*
X13767680Y-17059436D01*
X13767680Y-17059436D02*
X13777204Y-17068960D01*
X13777204Y-17068960D02*
X13796251Y-17078484D01*
X13796251Y-17078484D02*
X13834347Y-17078484D01*
X13834347Y-17078484D02*
X13853394Y-17068960D01*
X13853394Y-17068960D02*
X13862918Y-17059436D01*
X13862918Y-17059436D02*
X13872442Y-17040389D01*
X13872442Y-17040389D02*
X13872442Y-16992770D01*
X13872442Y-16992770D02*
X13862918Y-16973722D01*
X13862918Y-16973722D02*
X13853394Y-16964198D01*
X13853394Y-16964198D02*
X13834347Y-16954674D01*
X13834347Y-16954674D02*
X13796251Y-16954674D01*
X13796251Y-16954674D02*
X13777204Y-16964198D01*
X13777204Y-16964198D02*
X13767680Y-16973722D01*
X13767680Y-16973722D02*
X13758156Y-16992770D01*
X13948632Y-16878484D02*
X13948632Y-16916579D01*
X14024823Y-16878484D02*
X14024823Y-16916579D01*
X14320061Y-17154674D02*
X14310537Y-17145150D01*
X14310537Y-17145150D02*
X14291490Y-17116579D01*
X14291490Y-17116579D02*
X14281966Y-17097531D01*
X14281966Y-17097531D02*
X14272442Y-17068960D01*
X14272442Y-17068960D02*
X14262918Y-17021341D01*
X14262918Y-17021341D02*
X14262918Y-16983246D01*
X14262918Y-16983246D02*
X14272442Y-16935627D01*
X14272442Y-16935627D02*
X14281966Y-16907055D01*
X14281966Y-16907055D02*
X14291490Y-16888008D01*
X14291490Y-16888008D02*
X14310537Y-16859436D01*
X14310537Y-16859436D02*
X14320061Y-16849912D01*
X14386728Y-16897531D02*
X14396252Y-16888008D01*
X14396252Y-16888008D02*
X14415299Y-16878484D01*
X14415299Y-16878484D02*
X14462918Y-16878484D01*
X14462918Y-16878484D02*
X14481966Y-16888008D01*
X14481966Y-16888008D02*
X14491490Y-16897531D01*
X14491490Y-16897531D02*
X14501013Y-16916579D01*
X14501013Y-16916579D02*
X14501013Y-16935627D01*
X14501013Y-16935627D02*
X14491490Y-16964198D01*
X14491490Y-16964198D02*
X14377204Y-17078484D01*
X14377204Y-17078484D02*
X14501013Y-17078484D01*
X14739109Y-17078484D02*
X14739109Y-16878484D01*
X14824823Y-17078484D02*
X14824823Y-16973722D01*
X14824823Y-16973722D02*
X14815299Y-16954674D01*
X14815299Y-16954674D02*
X14796252Y-16945150D01*
X14796252Y-16945150D02*
X14767680Y-16945150D01*
X14767680Y-16945150D02*
X14748633Y-16954674D01*
X14748633Y-16954674D02*
X14739109Y-16964198D01*
X14948633Y-17078484D02*
X14929585Y-17068960D01*
X14929585Y-17068960D02*
X14920061Y-17059436D01*
X14920061Y-17059436D02*
X14910537Y-17040389D01*
X14910537Y-17040389D02*
X14910537Y-16983246D01*
X14910537Y-16983246D02*
X14920061Y-16964198D01*
X14920061Y-16964198D02*
X14929585Y-16954674D01*
X14929585Y-16954674D02*
X14948633Y-16945150D01*
X14948633Y-16945150D02*
X14977204Y-16945150D01*
X14977204Y-16945150D02*
X14996252Y-16954674D01*
X14996252Y-16954674D02*
X15005775Y-16964198D01*
X15005775Y-16964198D02*
X15015299Y-16983246D01*
X15015299Y-16983246D02*
X15015299Y-17040389D01*
X15015299Y-17040389D02*
X15005775Y-17059436D01*
X15005775Y-17059436D02*
X14996252Y-17068960D01*
X14996252Y-17068960D02*
X14977204Y-17078484D01*
X14977204Y-17078484D02*
X14948633Y-17078484D01*
X15129585Y-17078484D02*
X15110537Y-17068960D01*
X15110537Y-17068960D02*
X15101014Y-17049912D01*
X15101014Y-17049912D02*
X15101014Y-16878484D01*
X15281966Y-17068960D02*
X15262918Y-17078484D01*
X15262918Y-17078484D02*
X15224823Y-17078484D01*
X15224823Y-17078484D02*
X15205775Y-17068960D01*
X15205775Y-17068960D02*
X15196252Y-17049912D01*
X15196252Y-17049912D02*
X15196252Y-16973722D01*
X15196252Y-16973722D02*
X15205775Y-16954674D01*
X15205775Y-16954674D02*
X15224823Y-16945150D01*
X15224823Y-16945150D02*
X15262918Y-16945150D01*
X15262918Y-16945150D02*
X15281966Y-16954674D01*
X15281966Y-16954674D02*
X15291490Y-16973722D01*
X15291490Y-16973722D02*
X15291490Y-16992770D01*
X15291490Y-16992770D02*
X15196252Y-17011817D01*
X15367680Y-17068960D02*
X15386728Y-17078484D01*
X15386728Y-17078484D02*
X15424823Y-17078484D01*
X15424823Y-17078484D02*
X15443871Y-17068960D01*
X15443871Y-17068960D02*
X15453395Y-17049912D01*
X15453395Y-17049912D02*
X15453395Y-17040389D01*
X15453395Y-17040389D02*
X15443871Y-17021341D01*
X15443871Y-17021341D02*
X15424823Y-17011817D01*
X15424823Y-17011817D02*
X15396252Y-17011817D01*
X15396252Y-17011817D02*
X15377204Y-17002293D01*
X15377204Y-17002293D02*
X15367680Y-16983246D01*
X15367680Y-16983246D02*
X15367680Y-16973722D01*
X15367680Y-16973722D02*
X15377204Y-16954674D01*
X15377204Y-16954674D02*
X15396252Y-16945150D01*
X15396252Y-16945150D02*
X15424823Y-16945150D01*
X15424823Y-16945150D02*
X15443871Y-16954674D01*
X15520061Y-17154674D02*
X15529585Y-17145150D01*
X15529585Y-17145150D02*
X15548633Y-17116579D01*
X15548633Y-17116579D02*
X15558156Y-17097531D01*
X15558156Y-17097531D02*
X15567680Y-17068960D01*
X15567680Y-17068960D02*
X15577204Y-17021341D01*
X15577204Y-17021341D02*
X15577204Y-16983246D01*
X15577204Y-16983246D02*
X15567680Y-16935627D01*
X15567680Y-16935627D02*
X15558156Y-16907055D01*
X15558156Y-16907055D02*
X15548633Y-16888008D01*
X15548633Y-16888008D02*
X15529585Y-16859436D01*
X15529585Y-16859436D02*
X15520061Y-16849912D01*
X15881966Y-17154674D02*
X15872442Y-17145150D01*
X15872442Y-17145150D02*
X15853395Y-17116579D01*
X15853395Y-17116579D02*
X15843871Y-17097531D01*
X15843871Y-17097531D02*
X15834347Y-17068960D01*
X15834347Y-17068960D02*
X15824823Y-17021341D01*
X15824823Y-17021341D02*
X15824823Y-16983246D01*
X15824823Y-16983246D02*
X15834347Y-16935627D01*
X15834347Y-16935627D02*
X15843871Y-16907055D01*
X15843871Y-16907055D02*
X15853395Y-16888008D01*
X15853395Y-16888008D02*
X15872442Y-16859436D01*
X15872442Y-16859436D02*
X15881966Y-16849912D01*
X15958156Y-16945150D02*
X15958156Y-17078484D01*
X15958156Y-16964198D02*
X15967680Y-16954674D01*
X15967680Y-16954674D02*
X15986728Y-16945150D01*
X15986728Y-16945150D02*
X16015299Y-16945150D01*
X16015299Y-16945150D02*
X16034347Y-16954674D01*
X16034347Y-16954674D02*
X16043871Y-16973722D01*
X16043871Y-16973722D02*
X16043871Y-17078484D01*
X16167680Y-17078484D02*
X16148633Y-17068960D01*
X16148633Y-17068960D02*
X16139109Y-17059436D01*
X16139109Y-17059436D02*
X16129585Y-17040389D01*
X16129585Y-17040389D02*
X16129585Y-16983246D01*
X16129585Y-16983246D02*
X16139109Y-16964198D01*
X16139109Y-16964198D02*
X16148633Y-16954674D01*
X16148633Y-16954674D02*
X16167680Y-16945150D01*
X16167680Y-16945150D02*
X16196252Y-16945150D01*
X16196252Y-16945150D02*
X16215299Y-16954674D01*
X16215299Y-16954674D02*
X16224823Y-16964198D01*
X16224823Y-16964198D02*
X16234347Y-16983246D01*
X16234347Y-16983246D02*
X16234347Y-17040389D01*
X16234347Y-17040389D02*
X16224823Y-17059436D01*
X16224823Y-17059436D02*
X16215299Y-17068960D01*
X16215299Y-17068960D02*
X16196252Y-17078484D01*
X16196252Y-17078484D02*
X16167680Y-17078484D01*
X16291490Y-16945150D02*
X16367680Y-16945150D01*
X16320061Y-16878484D02*
X16320061Y-17049912D01*
X16320061Y-17049912D02*
X16329585Y-17068960D01*
X16329585Y-17068960D02*
X16348633Y-17078484D01*
X16348633Y-17078484D02*
X16367680Y-17078484D01*
X16586728Y-16945150D02*
X16586728Y-17145150D01*
X16586728Y-16954674D02*
X16605776Y-16945150D01*
X16605776Y-16945150D02*
X16643871Y-16945150D01*
X16643871Y-16945150D02*
X16662918Y-16954674D01*
X16662918Y-16954674D02*
X16672442Y-16964198D01*
X16672442Y-16964198D02*
X16681966Y-16983246D01*
X16681966Y-16983246D02*
X16681966Y-17040389D01*
X16681966Y-17040389D02*
X16672442Y-17059436D01*
X16672442Y-17059436D02*
X16662918Y-17068960D01*
X16662918Y-17068960D02*
X16643871Y-17078484D01*
X16643871Y-17078484D02*
X16605776Y-17078484D01*
X16605776Y-17078484D02*
X16586728Y-17068960D01*
X16796252Y-17078484D02*
X16777204Y-17068960D01*
X16777204Y-17068960D02*
X16767680Y-17049912D01*
X16767680Y-17049912D02*
X16767680Y-16878484D01*
X16958157Y-17078484D02*
X16958157Y-16973722D01*
X16958157Y-16973722D02*
X16948633Y-16954674D01*
X16948633Y-16954674D02*
X16929585Y-16945150D01*
X16929585Y-16945150D02*
X16891490Y-16945150D01*
X16891490Y-16945150D02*
X16872442Y-16954674D01*
X16958157Y-17068960D02*
X16939109Y-17078484D01*
X16939109Y-17078484D02*
X16891490Y-17078484D01*
X16891490Y-17078484D02*
X16872442Y-17068960D01*
X16872442Y-17068960D02*
X16862919Y-17049912D01*
X16862919Y-17049912D02*
X16862919Y-17030865D01*
X16862919Y-17030865D02*
X16872442Y-17011817D01*
X16872442Y-17011817D02*
X16891490Y-17002293D01*
X16891490Y-17002293D02*
X16939109Y-17002293D01*
X16939109Y-17002293D02*
X16958157Y-16992770D01*
X17024823Y-16945150D02*
X17101014Y-16945150D01*
X17053395Y-16878484D02*
X17053395Y-17049912D01*
X17053395Y-17049912D02*
X17062919Y-17068960D01*
X17062919Y-17068960D02*
X17081966Y-17078484D01*
X17081966Y-17078484D02*
X17101014Y-17078484D01*
X17243871Y-17068960D02*
X17224823Y-17078484D01*
X17224823Y-17078484D02*
X17186728Y-17078484D01*
X17186728Y-17078484D02*
X17167680Y-17068960D01*
X17167680Y-17068960D02*
X17158157Y-17049912D01*
X17158157Y-17049912D02*
X17158157Y-16973722D01*
X17158157Y-16973722D02*
X17167680Y-16954674D01*
X17167680Y-16954674D02*
X17186728Y-16945150D01*
X17186728Y-16945150D02*
X17224823Y-16945150D01*
X17224823Y-16945150D02*
X17243871Y-16954674D01*
X17243871Y-16954674D02*
X17253395Y-16973722D01*
X17253395Y-16973722D02*
X17253395Y-16992770D01*
X17253395Y-16992770D02*
X17158157Y-17011817D01*
X17424823Y-17078484D02*
X17424823Y-16878484D01*
X17424823Y-17068960D02*
X17405776Y-17078484D01*
X17405776Y-17078484D02*
X17367680Y-17078484D01*
X17367680Y-17078484D02*
X17348633Y-17068960D01*
X17348633Y-17068960D02*
X17339109Y-17059436D01*
X17339109Y-17059436D02*
X17329585Y-17040389D01*
X17329585Y-17040389D02*
X17329585Y-16983246D01*
X17329585Y-16983246D02*
X17339109Y-16964198D01*
X17339109Y-16964198D02*
X17348633Y-16954674D01*
X17348633Y-16954674D02*
X17367680Y-16945150D01*
X17367680Y-16945150D02*
X17405776Y-16945150D01*
X17405776Y-16945150D02*
X17424823Y-16954674D01*
X17501014Y-17154674D02*
X17510538Y-17145150D01*
X17510538Y-17145150D02*
X17529585Y-17116579D01*
X17529585Y-17116579D02*
X17539109Y-17097531D01*
X17539109Y-17097531D02*
X17548633Y-17068960D01*
X17548633Y-17068960D02*
X17558157Y-17021341D01*
X17558157Y-17021341D02*
X17558157Y-16983246D01*
X17558157Y-16983246D02*
X17548633Y-16935627D01*
X17548633Y-16935627D02*
X17539109Y-16907055D01*
X17539109Y-16907055D02*
X17529585Y-16888008D01*
X17529585Y-16888008D02*
X17510538Y-16859436D01*
X17510538Y-16859436D02*
X17501014Y-16849912D01*
X10644998Y-17351000D02*
X10744998Y-17251000D01*
X10644998Y-17151000D01*
X10544998Y-17251000D01*
X10644998Y-17351000D01*
X10996251Y-17161531D02*
X11005775Y-17152008D01*
X11005775Y-17152008D02*
X11024823Y-17142484D01*
X11024823Y-17142484D02*
X11072442Y-17142484D01*
X11072442Y-17142484D02*
X11091489Y-17152008D01*
X11091489Y-17152008D02*
X11101013Y-17161531D01*
X11101013Y-17161531D02*
X11110537Y-17180579D01*
X11110537Y-17180579D02*
X11110537Y-17199627D01*
X11110537Y-17199627D02*
X11101013Y-17228198D01*
X11101013Y-17228198D02*
X10986728Y-17342484D01*
X10986728Y-17342484D02*
X11110537Y-17342484D01*
X11196251Y-17323436D02*
X11205775Y-17332960D01*
X11205775Y-17332960D02*
X11196251Y-17342484D01*
X11196251Y-17342484D02*
X11186727Y-17332960D01*
X11186727Y-17332960D02*
X11196251Y-17323436D01*
X11196251Y-17323436D02*
X11196251Y-17342484D01*
X11281966Y-17161531D02*
X11291489Y-17152008D01*
X11291489Y-17152008D02*
X11310537Y-17142484D01*
X11310537Y-17142484D02*
X11358156Y-17142484D01*
X11358156Y-17142484D02*
X11377204Y-17152008D01*
X11377204Y-17152008D02*
X11386727Y-17161531D01*
X11386727Y-17161531D02*
X11396251Y-17180579D01*
X11396251Y-17180579D02*
X11396251Y-17199627D01*
X11396251Y-17199627D02*
X11386727Y-17228198D01*
X11386727Y-17228198D02*
X11272442Y-17342484D01*
X11272442Y-17342484D02*
X11396251Y-17342484D01*
X11520061Y-17142484D02*
X11539108Y-17142484D01*
X11539108Y-17142484D02*
X11558156Y-17152008D01*
X11558156Y-17152008D02*
X11567680Y-17161531D01*
X11567680Y-17161531D02*
X11577204Y-17180579D01*
X11577204Y-17180579D02*
X11586727Y-17218674D01*
X11586727Y-17218674D02*
X11586727Y-17266293D01*
X11586727Y-17266293D02*
X11577204Y-17304389D01*
X11577204Y-17304389D02*
X11567680Y-17323436D01*
X11567680Y-17323436D02*
X11558156Y-17332960D01*
X11558156Y-17332960D02*
X11539108Y-17342484D01*
X11539108Y-17342484D02*
X11520061Y-17342484D01*
X11520061Y-17342484D02*
X11501013Y-17332960D01*
X11501013Y-17332960D02*
X11491489Y-17323436D01*
X11491489Y-17323436D02*
X11481966Y-17304389D01*
X11481966Y-17304389D02*
X11472442Y-17266293D01*
X11472442Y-17266293D02*
X11472442Y-17218674D01*
X11472442Y-17218674D02*
X11481966Y-17180579D01*
X11481966Y-17180579D02*
X11491489Y-17161531D01*
X11491489Y-17161531D02*
X11501013Y-17152008D01*
X11501013Y-17152008D02*
X11520061Y-17142484D01*
X11710537Y-17142484D02*
X11729585Y-17142484D01*
X11729585Y-17142484D02*
X11748632Y-17152008D01*
X11748632Y-17152008D02*
X11758156Y-17161531D01*
X11758156Y-17161531D02*
X11767680Y-17180579D01*
X11767680Y-17180579D02*
X11777204Y-17218674D01*
X11777204Y-17218674D02*
X11777204Y-17266293D01*
X11777204Y-17266293D02*
X11767680Y-17304389D01*
X11767680Y-17304389D02*
X11758156Y-17323436D01*
X11758156Y-17323436D02*
X11748632Y-17332960D01*
X11748632Y-17332960D02*
X11729585Y-17342484D01*
X11729585Y-17342484D02*
X11710537Y-17342484D01*
X11710537Y-17342484D02*
X11691489Y-17332960D01*
X11691489Y-17332960D02*
X11681966Y-17323436D01*
X11681966Y-17323436D02*
X11672442Y-17304389D01*
X11672442Y-17304389D02*
X11662918Y-17266293D01*
X11662918Y-17266293D02*
X11662918Y-17218674D01*
X11662918Y-17218674D02*
X11672442Y-17180579D01*
X11672442Y-17180579D02*
X11681966Y-17161531D01*
X11681966Y-17161531D02*
X11691489Y-17152008D01*
X11691489Y-17152008D02*
X11710537Y-17142484D01*
X11862918Y-17342484D02*
X11862918Y-17209150D01*
X11862918Y-17228198D02*
X11872442Y-17218674D01*
X11872442Y-17218674D02*
X11891489Y-17209150D01*
X11891489Y-17209150D02*
X11920061Y-17209150D01*
X11920061Y-17209150D02*
X11939108Y-17218674D01*
X11939108Y-17218674D02*
X11948632Y-17237722D01*
X11948632Y-17237722D02*
X11948632Y-17342484D01*
X11948632Y-17237722D02*
X11958156Y-17218674D01*
X11958156Y-17218674D02*
X11977204Y-17209150D01*
X11977204Y-17209150D02*
X12005775Y-17209150D01*
X12005775Y-17209150D02*
X12024823Y-17218674D01*
X12024823Y-17218674D02*
X12034347Y-17237722D01*
X12034347Y-17237722D02*
X12034347Y-17342484D01*
X12129585Y-17342484D02*
X12129585Y-17209150D01*
X12129585Y-17228198D02*
X12139108Y-17218674D01*
X12139108Y-17218674D02*
X12158156Y-17209150D01*
X12158156Y-17209150D02*
X12186728Y-17209150D01*
X12186728Y-17209150D02*
X12205775Y-17218674D01*
X12205775Y-17218674D02*
X12215299Y-17237722D01*
X12215299Y-17237722D02*
X12215299Y-17342484D01*
X12215299Y-17237722D02*
X12224823Y-17218674D01*
X12224823Y-17218674D02*
X12243870Y-17209150D01*
X12243870Y-17209150D02*
X12272442Y-17209150D01*
X12272442Y-17209150D02*
X12291489Y-17218674D01*
X12291489Y-17218674D02*
X12301013Y-17237722D01*
X12301013Y-17237722D02*
X12301013Y-17342484D01*
X12691489Y-17132960D02*
X12520061Y-17390103D01*
X12948632Y-17142484D02*
X12967680Y-17142484D01*
X12967680Y-17142484D02*
X12986728Y-17152008D01*
X12986728Y-17152008D02*
X12996251Y-17161531D01*
X12996251Y-17161531D02*
X13005775Y-17180579D01*
X13005775Y-17180579D02*
X13015299Y-17218674D01*
X13015299Y-17218674D02*
X13015299Y-17266293D01*
X13015299Y-17266293D02*
X13005775Y-17304389D01*
X13005775Y-17304389D02*
X12996251Y-17323436D01*
X12996251Y-17323436D02*
X12986728Y-17332960D01*
X12986728Y-17332960D02*
X12967680Y-17342484D01*
X12967680Y-17342484D02*
X12948632Y-17342484D01*
X12948632Y-17342484D02*
X12929585Y-17332960D01*
X12929585Y-17332960D02*
X12920061Y-17323436D01*
X12920061Y-17323436D02*
X12910537Y-17304389D01*
X12910537Y-17304389D02*
X12901013Y-17266293D01*
X12901013Y-17266293D02*
X12901013Y-17218674D01*
X12901013Y-17218674D02*
X12910537Y-17180579D01*
X12910537Y-17180579D02*
X12920061Y-17161531D01*
X12920061Y-17161531D02*
X12929585Y-17152008D01*
X12929585Y-17152008D02*
X12948632Y-17142484D01*
X13101013Y-17323436D02*
X13110537Y-17332960D01*
X13110537Y-17332960D02*
X13101013Y-17342484D01*
X13101013Y-17342484D02*
X13091490Y-17332960D01*
X13091490Y-17332960D02*
X13101013Y-17323436D01*
X13101013Y-17323436D02*
X13101013Y-17342484D01*
X13234347Y-17142484D02*
X13253394Y-17142484D01*
X13253394Y-17142484D02*
X13272442Y-17152008D01*
X13272442Y-17152008D02*
X13281966Y-17161531D01*
X13281966Y-17161531D02*
X13291490Y-17180579D01*
X13291490Y-17180579D02*
X13301013Y-17218674D01*
X13301013Y-17218674D02*
X13301013Y-17266293D01*
X13301013Y-17266293D02*
X13291490Y-17304389D01*
X13291490Y-17304389D02*
X13281966Y-17323436D01*
X13281966Y-17323436D02*
X13272442Y-17332960D01*
X13272442Y-17332960D02*
X13253394Y-17342484D01*
X13253394Y-17342484D02*
X13234347Y-17342484D01*
X13234347Y-17342484D02*
X13215299Y-17332960D01*
X13215299Y-17332960D02*
X13205775Y-17323436D01*
X13205775Y-17323436D02*
X13196251Y-17304389D01*
X13196251Y-17304389D02*
X13186728Y-17266293D01*
X13186728Y-17266293D02*
X13186728Y-17218674D01*
X13186728Y-17218674D02*
X13196251Y-17180579D01*
X13196251Y-17180579D02*
X13205775Y-17161531D01*
X13205775Y-17161531D02*
X13215299Y-17152008D01*
X13215299Y-17152008D02*
X13234347Y-17142484D01*
X13415299Y-17228198D02*
X13396251Y-17218674D01*
X13396251Y-17218674D02*
X13386728Y-17209150D01*
X13386728Y-17209150D02*
X13377204Y-17190103D01*
X13377204Y-17190103D02*
X13377204Y-17180579D01*
X13377204Y-17180579D02*
X13386728Y-17161531D01*
X13386728Y-17161531D02*
X13396251Y-17152008D01*
X13396251Y-17152008D02*
X13415299Y-17142484D01*
X13415299Y-17142484D02*
X13453394Y-17142484D01*
X13453394Y-17142484D02*
X13472442Y-17152008D01*
X13472442Y-17152008D02*
X13481966Y-17161531D01*
X13481966Y-17161531D02*
X13491490Y-17180579D01*
X13491490Y-17180579D02*
X13491490Y-17190103D01*
X13491490Y-17190103D02*
X13481966Y-17209150D01*
X13481966Y-17209150D02*
X13472442Y-17218674D01*
X13472442Y-17218674D02*
X13453394Y-17228198D01*
X13453394Y-17228198D02*
X13415299Y-17228198D01*
X13415299Y-17228198D02*
X13396251Y-17237722D01*
X13396251Y-17237722D02*
X13386728Y-17247246D01*
X13386728Y-17247246D02*
X13377204Y-17266293D01*
X13377204Y-17266293D02*
X13377204Y-17304389D01*
X13377204Y-17304389D02*
X13386728Y-17323436D01*
X13386728Y-17323436D02*
X13396251Y-17332960D01*
X13396251Y-17332960D02*
X13415299Y-17342484D01*
X13415299Y-17342484D02*
X13453394Y-17342484D01*
X13453394Y-17342484D02*
X13472442Y-17332960D01*
X13472442Y-17332960D02*
X13481966Y-17323436D01*
X13481966Y-17323436D02*
X13491490Y-17304389D01*
X13491490Y-17304389D02*
X13491490Y-17266293D01*
X13491490Y-17266293D02*
X13481966Y-17247246D01*
X13481966Y-17247246D02*
X13472442Y-17237722D01*
X13472442Y-17237722D02*
X13453394Y-17228198D01*
X13662918Y-17142484D02*
X13624823Y-17142484D01*
X13624823Y-17142484D02*
X13605775Y-17152008D01*
X13605775Y-17152008D02*
X13596251Y-17161531D01*
X13596251Y-17161531D02*
X13577204Y-17190103D01*
X13577204Y-17190103D02*
X13567680Y-17228198D01*
X13567680Y-17228198D02*
X13567680Y-17304389D01*
X13567680Y-17304389D02*
X13577204Y-17323436D01*
X13577204Y-17323436D02*
X13586728Y-17332960D01*
X13586728Y-17332960D02*
X13605775Y-17342484D01*
X13605775Y-17342484D02*
X13643871Y-17342484D01*
X13643871Y-17342484D02*
X13662918Y-17332960D01*
X13662918Y-17332960D02*
X13672442Y-17323436D01*
X13672442Y-17323436D02*
X13681966Y-17304389D01*
X13681966Y-17304389D02*
X13681966Y-17256770D01*
X13681966Y-17256770D02*
X13672442Y-17237722D01*
X13672442Y-17237722D02*
X13662918Y-17228198D01*
X13662918Y-17228198D02*
X13643871Y-17218674D01*
X13643871Y-17218674D02*
X13605775Y-17218674D01*
X13605775Y-17218674D02*
X13586728Y-17228198D01*
X13586728Y-17228198D02*
X13577204Y-17237722D01*
X13577204Y-17237722D02*
X13567680Y-17256770D01*
X13853394Y-17142484D02*
X13815299Y-17142484D01*
X13815299Y-17142484D02*
X13796251Y-17152008D01*
X13796251Y-17152008D02*
X13786728Y-17161531D01*
X13786728Y-17161531D02*
X13767680Y-17190103D01*
X13767680Y-17190103D02*
X13758156Y-17228198D01*
X13758156Y-17228198D02*
X13758156Y-17304389D01*
X13758156Y-17304389D02*
X13767680Y-17323436D01*
X13767680Y-17323436D02*
X13777204Y-17332960D01*
X13777204Y-17332960D02*
X13796251Y-17342484D01*
X13796251Y-17342484D02*
X13834347Y-17342484D01*
X13834347Y-17342484D02*
X13853394Y-17332960D01*
X13853394Y-17332960D02*
X13862918Y-17323436D01*
X13862918Y-17323436D02*
X13872442Y-17304389D01*
X13872442Y-17304389D02*
X13872442Y-17256770D01*
X13872442Y-17256770D02*
X13862918Y-17237722D01*
X13862918Y-17237722D02*
X13853394Y-17228198D01*
X13853394Y-17228198D02*
X13834347Y-17218674D01*
X13834347Y-17218674D02*
X13796251Y-17218674D01*
X13796251Y-17218674D02*
X13777204Y-17228198D01*
X13777204Y-17228198D02*
X13767680Y-17237722D01*
X13767680Y-17237722D02*
X13758156Y-17256770D01*
X13948632Y-17142484D02*
X13948632Y-17180579D01*
X14024823Y-17142484D02*
X14024823Y-17180579D01*
X14320061Y-17418674D02*
X14310537Y-17409150D01*
X14310537Y-17409150D02*
X14291490Y-17380579D01*
X14291490Y-17380579D02*
X14281966Y-17361531D01*
X14281966Y-17361531D02*
X14272442Y-17332960D01*
X14272442Y-17332960D02*
X14262918Y-17285341D01*
X14262918Y-17285341D02*
X14262918Y-17247246D01*
X14262918Y-17247246D02*
X14272442Y-17199627D01*
X14272442Y-17199627D02*
X14281966Y-17171055D01*
X14281966Y-17171055D02*
X14291490Y-17152008D01*
X14291490Y-17152008D02*
X14310537Y-17123436D01*
X14310537Y-17123436D02*
X14320061Y-17113912D01*
X14481966Y-17209150D02*
X14481966Y-17342484D01*
X14434347Y-17132960D02*
X14386728Y-17275817D01*
X14386728Y-17275817D02*
X14510537Y-17275817D01*
X14739109Y-17342484D02*
X14739109Y-17142484D01*
X14824823Y-17342484D02*
X14824823Y-17237722D01*
X14824823Y-17237722D02*
X14815299Y-17218674D01*
X14815299Y-17218674D02*
X14796252Y-17209150D01*
X14796252Y-17209150D02*
X14767680Y-17209150D01*
X14767680Y-17209150D02*
X14748633Y-17218674D01*
X14748633Y-17218674D02*
X14739109Y-17228198D01*
X14948633Y-17342484D02*
X14929585Y-17332960D01*
X14929585Y-17332960D02*
X14920061Y-17323436D01*
X14920061Y-17323436D02*
X14910537Y-17304389D01*
X14910537Y-17304389D02*
X14910537Y-17247246D01*
X14910537Y-17247246D02*
X14920061Y-17228198D01*
X14920061Y-17228198D02*
X14929585Y-17218674D01*
X14929585Y-17218674D02*
X14948633Y-17209150D01*
X14948633Y-17209150D02*
X14977204Y-17209150D01*
X14977204Y-17209150D02*
X14996252Y-17218674D01*
X14996252Y-17218674D02*
X15005775Y-17228198D01*
X15005775Y-17228198D02*
X15015299Y-17247246D01*
X15015299Y-17247246D02*
X15015299Y-17304389D01*
X15015299Y-17304389D02*
X15005775Y-17323436D01*
X15005775Y-17323436D02*
X14996252Y-17332960D01*
X14996252Y-17332960D02*
X14977204Y-17342484D01*
X14977204Y-17342484D02*
X14948633Y-17342484D01*
X15129585Y-17342484D02*
X15110537Y-17332960D01*
X15110537Y-17332960D02*
X15101014Y-17313912D01*
X15101014Y-17313912D02*
X15101014Y-17142484D01*
X15281966Y-17332960D02*
X15262918Y-17342484D01*
X15262918Y-17342484D02*
X15224823Y-17342484D01*
X15224823Y-17342484D02*
X15205775Y-17332960D01*
X15205775Y-17332960D02*
X15196252Y-17313912D01*
X15196252Y-17313912D02*
X15196252Y-17237722D01*
X15196252Y-17237722D02*
X15205775Y-17218674D01*
X15205775Y-17218674D02*
X15224823Y-17209150D01*
X15224823Y-17209150D02*
X15262918Y-17209150D01*
X15262918Y-17209150D02*
X15281966Y-17218674D01*
X15281966Y-17218674D02*
X15291490Y-17237722D01*
X15291490Y-17237722D02*
X15291490Y-17256770D01*
X15291490Y-17256770D02*
X15196252Y-17275817D01*
X15367680Y-17332960D02*
X15386728Y-17342484D01*
X15386728Y-17342484D02*
X15424823Y-17342484D01*
X15424823Y-17342484D02*
X15443871Y-17332960D01*
X15443871Y-17332960D02*
X15453395Y-17313912D01*
X15453395Y-17313912D02*
X15453395Y-17304389D01*
X15453395Y-17304389D02*
X15443871Y-17285341D01*
X15443871Y-17285341D02*
X15424823Y-17275817D01*
X15424823Y-17275817D02*
X15396252Y-17275817D01*
X15396252Y-17275817D02*
X15377204Y-17266293D01*
X15377204Y-17266293D02*
X15367680Y-17247246D01*
X15367680Y-17247246D02*
X15367680Y-17237722D01*
X15367680Y-17237722D02*
X15377204Y-17218674D01*
X15377204Y-17218674D02*
X15396252Y-17209150D01*
X15396252Y-17209150D02*
X15424823Y-17209150D01*
X15424823Y-17209150D02*
X15443871Y-17218674D01*
X15520061Y-17418674D02*
X15529585Y-17409150D01*
X15529585Y-17409150D02*
X15548633Y-17380579D01*
X15548633Y-17380579D02*
X15558156Y-17361531D01*
X15558156Y-17361531D02*
X15567680Y-17332960D01*
X15567680Y-17332960D02*
X15577204Y-17285341D01*
X15577204Y-17285341D02*
X15577204Y-17247246D01*
X15577204Y-17247246D02*
X15567680Y-17199627D01*
X15567680Y-17199627D02*
X15558156Y-17171055D01*
X15558156Y-17171055D02*
X15548633Y-17152008D01*
X15548633Y-17152008D02*
X15529585Y-17123436D01*
X15529585Y-17123436D02*
X15520061Y-17113912D01*
X15881966Y-17418674D02*
X15872442Y-17409150D01*
X15872442Y-17409150D02*
X15853395Y-17380579D01*
X15853395Y-17380579D02*
X15843871Y-17361531D01*
X15843871Y-17361531D02*
X15834347Y-17332960D01*
X15834347Y-17332960D02*
X15824823Y-17285341D01*
X15824823Y-17285341D02*
X15824823Y-17247246D01*
X15824823Y-17247246D02*
X15834347Y-17199627D01*
X15834347Y-17199627D02*
X15843871Y-17171055D01*
X15843871Y-17171055D02*
X15853395Y-17152008D01*
X15853395Y-17152008D02*
X15872442Y-17123436D01*
X15872442Y-17123436D02*
X15881966Y-17113912D01*
X15958156Y-17209150D02*
X15958156Y-17342484D01*
X15958156Y-17228198D02*
X15967680Y-17218674D01*
X15967680Y-17218674D02*
X15986728Y-17209150D01*
X15986728Y-17209150D02*
X16015299Y-17209150D01*
X16015299Y-17209150D02*
X16034347Y-17218674D01*
X16034347Y-17218674D02*
X16043871Y-17237722D01*
X16043871Y-17237722D02*
X16043871Y-17342484D01*
X16167680Y-17342484D02*
X16148633Y-17332960D01*
X16148633Y-17332960D02*
X16139109Y-17323436D01*
X16139109Y-17323436D02*
X16129585Y-17304389D01*
X16129585Y-17304389D02*
X16129585Y-17247246D01*
X16129585Y-17247246D02*
X16139109Y-17228198D01*
X16139109Y-17228198D02*
X16148633Y-17218674D01*
X16148633Y-17218674D02*
X16167680Y-17209150D01*
X16167680Y-17209150D02*
X16196252Y-17209150D01*
X16196252Y-17209150D02*
X16215299Y-17218674D01*
X16215299Y-17218674D02*
X16224823Y-17228198D01*
X16224823Y-17228198D02*
X16234347Y-17247246D01*
X16234347Y-17247246D02*
X16234347Y-17304389D01*
X16234347Y-17304389D02*
X16224823Y-17323436D01*
X16224823Y-17323436D02*
X16215299Y-17332960D01*
X16215299Y-17332960D02*
X16196252Y-17342484D01*
X16196252Y-17342484D02*
X16167680Y-17342484D01*
X16291490Y-17209150D02*
X16367680Y-17209150D01*
X16320061Y-17142484D02*
X16320061Y-17313912D01*
X16320061Y-17313912D02*
X16329585Y-17332960D01*
X16329585Y-17332960D02*
X16348633Y-17342484D01*
X16348633Y-17342484D02*
X16367680Y-17342484D01*
X16586728Y-17209150D02*
X16586728Y-17409150D01*
X16586728Y-17218674D02*
X16605776Y-17209150D01*
X16605776Y-17209150D02*
X16643871Y-17209150D01*
X16643871Y-17209150D02*
X16662918Y-17218674D01*
X16662918Y-17218674D02*
X16672442Y-17228198D01*
X16672442Y-17228198D02*
X16681966Y-17247246D01*
X16681966Y-17247246D02*
X16681966Y-17304389D01*
X16681966Y-17304389D02*
X16672442Y-17323436D01*
X16672442Y-17323436D02*
X16662918Y-17332960D01*
X16662918Y-17332960D02*
X16643871Y-17342484D01*
X16643871Y-17342484D02*
X16605776Y-17342484D01*
X16605776Y-17342484D02*
X16586728Y-17332960D01*
X16796252Y-17342484D02*
X16777204Y-17332960D01*
X16777204Y-17332960D02*
X16767680Y-17313912D01*
X16767680Y-17313912D02*
X16767680Y-17142484D01*
X16958157Y-17342484D02*
X16958157Y-17237722D01*
X16958157Y-17237722D02*
X16948633Y-17218674D01*
X16948633Y-17218674D02*
X16929585Y-17209150D01*
X16929585Y-17209150D02*
X16891490Y-17209150D01*
X16891490Y-17209150D02*
X16872442Y-17218674D01*
X16958157Y-17332960D02*
X16939109Y-17342484D01*
X16939109Y-17342484D02*
X16891490Y-17342484D01*
X16891490Y-17342484D02*
X16872442Y-17332960D01*
X16872442Y-17332960D02*
X16862919Y-17313912D01*
X16862919Y-17313912D02*
X16862919Y-17294865D01*
X16862919Y-17294865D02*
X16872442Y-17275817D01*
X16872442Y-17275817D02*
X16891490Y-17266293D01*
X16891490Y-17266293D02*
X16939109Y-17266293D01*
X16939109Y-17266293D02*
X16958157Y-17256770D01*
X17024823Y-17209150D02*
X17101014Y-17209150D01*
X17053395Y-17142484D02*
X17053395Y-17313912D01*
X17053395Y-17313912D02*
X17062919Y-17332960D01*
X17062919Y-17332960D02*
X17081966Y-17342484D01*
X17081966Y-17342484D02*
X17101014Y-17342484D01*
X17243871Y-17332960D02*
X17224823Y-17342484D01*
X17224823Y-17342484D02*
X17186728Y-17342484D01*
X17186728Y-17342484D02*
X17167680Y-17332960D01*
X17167680Y-17332960D02*
X17158157Y-17313912D01*
X17158157Y-17313912D02*
X17158157Y-17237722D01*
X17158157Y-17237722D02*
X17167680Y-17218674D01*
X17167680Y-17218674D02*
X17186728Y-17209150D01*
X17186728Y-17209150D02*
X17224823Y-17209150D01*
X17224823Y-17209150D02*
X17243871Y-17218674D01*
X17243871Y-17218674D02*
X17253395Y-17237722D01*
X17253395Y-17237722D02*
X17253395Y-17256770D01*
X17253395Y-17256770D02*
X17158157Y-17275817D01*
X17424823Y-17342484D02*
X17424823Y-17142484D01*
X17424823Y-17332960D02*
X17405776Y-17342484D01*
X17405776Y-17342484D02*
X17367680Y-17342484D01*
X17367680Y-17342484D02*
X17348633Y-17332960D01*
X17348633Y-17332960D02*
X17339109Y-17323436D01*
X17339109Y-17323436D02*
X17329585Y-17304389D01*
X17329585Y-17304389D02*
X17329585Y-17247246D01*
X17329585Y-17247246D02*
X17339109Y-17228198D01*
X17339109Y-17228198D02*
X17348633Y-17218674D01*
X17348633Y-17218674D02*
X17367680Y-17209150D01*
X17367680Y-17209150D02*
X17405776Y-17209150D01*
X17405776Y-17209150D02*
X17424823Y-17218674D01*
X17501014Y-17418674D02*
X17510538Y-17409150D01*
X17510538Y-17409150D02*
X17529585Y-17380579D01*
X17529585Y-17380579D02*
X17539109Y-17361531D01*
X17539109Y-17361531D02*
X17548633Y-17332960D01*
X17548633Y-17332960D02*
X17558157Y-17285341D01*
X17558157Y-17285341D02*
X17558157Y-17247246D01*
X17558157Y-17247246D02*
X17548633Y-17199627D01*
X17548633Y-17199627D02*
X17539109Y-17171055D01*
X17539109Y-17171055D02*
X17529585Y-17152008D01*
X17529585Y-17152008D02*
X17510538Y-17123436D01*
X17510538Y-17123436D02*
X17501014Y-17113912D01*
M02*
