G04 #@! TF.GenerationSoftware,KiCad,Pcbnew,10.0.3*
G04 #@! TF.CreationDate,2026-09-09T15:17:56+02:00*
G04 #@! TF.ProjectId,Halo,48616c6f-2e6b-4696-9361-645f70636258,rev?*
G04 #@! TF.SameCoordinates,Original*
G04 #@! TF.FileFunction,Legend,Top*
G04 #@! TF.FilePolarity,Positive*
%FSLAX46Y46*%
G04 Gerber Fmt 4.6, Leading zero omitted, Abs format (unit mm)*
G04 Created by KiCad (PCBNEW 10.0.3) date 2026-09-09 15:17:56*
%MOMM*%
%LPD*%
G01*
G04 APERTURE LIST*
G04 Aperture macros list*
%AMRoundRect*
0 Rectangle with rounded corners*
0 $1 Rounding radius*
0 $2 $3 $4 $5 $6 $7 $8 $9 X,Y pos of 4 corners*
0 Add a 4 corners polygon primitive as box body*
4,1,4,$2,$3,$4,$5,$6,$7,$8,$9,$2,$3,0*
0 Add four circle primitives for the rounded corners*
1,1,$1+$1,$2,$3*
1,1,$1+$1,$4,$5*
1,1,$1+$1,$6,$7*
1,1,$1+$1,$8,$9*
0 Add four rect primitives between the rounded corners*
20,1,$1+$1,$2,$3,$4,$5,0*
20,1,$1+$1,$4,$5,$6,$7,0*
20,1,$1+$1,$6,$7,$8,$9,0*
20,1,$1+$1,$8,$9,$2,$3,0*%
G04 Aperture macros list end*
%ADD10C,0.250000*%
%ADD11C,0.150000*%
%ADD12C,0.120000*%
%ADD13C,0.650000*%
%ADD14RoundRect,0.150000X-0.150000X-0.575000X0.150000X-0.575000X0.150000X0.575000X-0.150000X0.575000X0*%
%ADD15RoundRect,0.075000X-0.075000X-0.650000X0.075000X-0.650000X0.075000X0.650000X-0.075000X0.650000X0*%
%ADD16O,1.000000X2.100000*%
%ADD17O,1.000000X1.600000*%
%ADD18RoundRect,0.312500X-0.312500X-0.562500X0.312500X-0.562500X0.312500X0.562500X-0.312500X0.562500X0*%
%ADD19RoundRect,0.250000X-0.262500X-0.450000X0.262500X-0.450000X0.262500X0.450000X-0.262500X0.450000X0*%
%ADD20RoundRect,0.150000X-0.512500X-0.150000X0.512500X-0.150000X0.512500X0.150000X-0.512500X0.150000X0*%
%ADD21RoundRect,0.250000X-1.500000X-0.550000X1.500000X-0.550000X1.500000X0.550000X-1.500000X0.550000X0*%
%ADD22RoundRect,0.375000X-0.625000X-0.375000X0.625000X-0.375000X0.625000X0.375000X-0.625000X0.375000X0*%
%ADD23RoundRect,0.500000X-0.500000X-1.400000X0.500000X-1.400000X0.500000X1.400000X-0.500000X1.400000X0*%
%ADD24RoundRect,0.250000X0.475000X-0.250000X0.475000X0.250000X-0.475000X0.250000X-0.475000X-0.250000X0*%
%ADD25R,1.700000X1.700000*%
%ADD26C,1.700000*%
%ADD27C,1.500000*%
%ADD28R,0.800000X0.400000*%
%ADD29R,0.400000X0.800000*%
%ADD30R,1.450000X1.450000*%
%ADD31R,0.700000X0.700000*%
%ADD32RoundRect,0.250000X0.450000X-0.262500X0.450000X0.262500X-0.450000X0.262500X-0.450000X-0.262500X0*%
%ADD33R,1.700000X1.000000*%
%ADD34RoundRect,0.250000X-0.250000X-0.475000X0.250000X-0.475000X0.250000X0.475000X-0.250000X0.475000X0*%
%ADD35RoundRect,0.175000X-0.150661X-0.196345X0.196345X-0.150661X0.150661X0.196345X-0.196345X0.150661X0*%
%ADD36RoundRect,0.175000X-0.094709X-0.228649X0.228649X-0.094709X0.094709X0.228649X-0.228649X0.094709X0*%
%ADD37RoundRect,0.175000X-0.032304X-0.245370X0.245370X-0.032304X0.032304X0.245370X-0.245370X0.032304X0*%
%ADD38RoundRect,0.175000X0.032304X-0.245370X0.245370X0.032304X-0.032304X0.245370X-0.245370X-0.032304X0*%
%ADD39RoundRect,0.175000X0.094709X-0.228649X0.228649X0.094709X-0.094709X0.228649X-0.228649X-0.094709X0*%
%ADD40RoundRect,0.175000X0.150661X-0.196345X0.196345X0.150661X-0.150661X0.196345X-0.196345X-0.150661X0*%
%ADD41RoundRect,0.175000X0.196345X-0.150661X0.150661X0.196345X-0.196345X0.150661X-0.150661X-0.196345X0*%
%ADD42RoundRect,0.175000X0.228649X-0.094709X0.094709X0.228649X-0.228649X0.094709X-0.094709X-0.228649X0*%
%ADD43RoundRect,0.175000X0.245370X-0.032304X0.032304X0.245370X-0.245370X0.032304X-0.032304X-0.245370X0*%
%ADD44RoundRect,0.175000X0.245370X0.032304X-0.032304X0.245370X-0.245370X-0.032304X0.032304X-0.245370X0*%
%ADD45RoundRect,0.175000X0.228649X0.094709X-0.094709X0.228649X-0.228649X-0.094709X0.094709X-0.228649X0*%
%ADD46RoundRect,0.175000X0.196345X0.150661X-0.150661X0.196345X-0.196345X-0.150661X0.150661X-0.196345X0*%
%ADD47RoundRect,0.175000X0.150661X0.196345X-0.196345X0.150661X-0.150661X-0.196345X0.196345X-0.150661X0*%
%ADD48RoundRect,0.175000X0.094709X0.228649X-0.228649X0.094709X-0.094709X-0.228649X0.228649X-0.094709X0*%
%ADD49RoundRect,0.175000X0.032304X0.245370X-0.245370X0.032304X-0.032304X-0.245370X0.245370X-0.032304X0*%
%ADD50RoundRect,0.175000X-0.032304X0.245370X-0.245370X-0.032304X0.032304X-0.245370X0.245370X0.032304X0*%
%ADD51RoundRect,0.175000X-0.094709X0.228649X-0.228649X-0.094709X0.094709X-0.228649X0.228649X0.094709X0*%
%ADD52RoundRect,0.175000X-0.150661X0.196345X-0.196345X-0.150661X0.150661X-0.196345X0.196345X0.150661X0*%
%ADD53RoundRect,0.175000X-0.196345X0.150661X-0.150661X-0.196345X0.196345X-0.150661X0.150661X0.196345X0*%
%ADD54RoundRect,0.175000X-0.228649X0.094709X-0.094709X-0.228649X0.228649X-0.094709X0.094709X0.228649X0*%
%ADD55RoundRect,0.175000X-0.245370X0.032304X-0.032304X-0.245370X0.245370X-0.032304X0.032304X0.245370X0*%
%ADD56RoundRect,0.175000X-0.245370X-0.032304X0.032304X-0.245370X0.245370X0.032304X-0.032304X0.245370X0*%
%ADD57RoundRect,0.175000X-0.228649X-0.094709X0.094709X-0.228649X0.228649X0.094709X-0.094709X0.228649X0*%
%ADD58RoundRect,0.175000X-0.196345X-0.150661X0.150661X-0.196345X0.196345X0.150661X-0.150661X0.196345X0*%
%ADD59RoundRect,0.225000X0.292773X-0.165557X0.195375X0.273777X-0.292773X0.165557X-0.195375X-0.273777X0*%
%ADD60RoundRect,0.225000X0.325646X-0.084140X0.117859X0.315015X-0.325646X0.084140X-0.117859X-0.315015X0*%
%ADD61RoundRect,0.225000X0.336327X0.003010X0.032312X0.334785X-0.336327X-0.003010X-0.032312X-0.334785X0*%
%ADD62RoundRect,0.225000X0.324088X0.089955X-0.055438X0.331740X-0.324088X-0.089955X0.055438X-0.331740X0*%
%ADD63RoundRect,0.225000X0.289763X0.170770X-0.139410X0.306088X-0.289763X-0.170770X0.139410X-0.306088X0*%
%ADD64RoundRect,0.225000X0.235691X0.239948X-0.213881X0.259576X-0.235691X-0.239948X0.213881X-0.259576X0*%
%ADD65RoundRect,0.225000X0.165557X0.292773X-0.273777X0.195375X-0.165557X-0.292773X0.273777X-0.195375X0*%
%ADD66RoundRect,0.225000X0.084140X0.325646X-0.315015X0.117859X-0.084140X-0.325646X0.315015X-0.117859X0*%
%ADD67RoundRect,0.225000X-0.003010X0.336327X-0.334785X0.032312X0.003010X-0.336327X0.334785X-0.032312X0*%
%ADD68RoundRect,0.225000X-0.089955X0.324088X-0.331740X-0.055438X0.089955X-0.324088X0.331740X0.055438X0*%
%ADD69RoundRect,0.225000X-0.170770X0.289763X-0.306088X-0.139410X0.170770X-0.289763X0.306088X0.139410X0*%
%ADD70RoundRect,0.225000X-0.239948X0.235691X-0.259576X-0.213881X0.239948X-0.235691X0.259576X0.213881X0*%
%ADD71RoundRect,0.225000X-0.259576X0.213881X-0.239948X-0.235691X0.259576X-0.213881X0.239948X0.235691X0*%
%ADD72RoundRect,0.225000X-0.306088X0.139410X-0.170770X-0.289763X0.306088X-0.139410X0.170770X0.289763X0*%
%ADD73RoundRect,0.225000X-0.331740X0.055438X-0.089955X-0.324088X0.331740X-0.055438X0.089955X0.324088X0*%
%ADD74RoundRect,0.225000X-0.334785X-0.032312X-0.003010X-0.336327X0.334785X0.032312X0.003010X0.336327X0*%
%ADD75RoundRect,0.225000X-0.315015X-0.117859X0.084140X-0.325646X0.315015X0.117859X-0.084140X0.325646X0*%
%ADD76RoundRect,0.225000X-0.273777X-0.195375X0.165557X-0.292773X0.273777X0.195375X-0.165557X0.292773X0*%
%ADD77RoundRect,0.225000X-0.213881X-0.259576X0.235691X-0.239948X0.213881X0.259576X-0.235691X0.239948X0*%
%ADD78RoundRect,0.225000X-0.139410X-0.306088X0.289763X-0.170770X0.139410X0.306088X-0.289763X0.170770X0*%
%ADD79RoundRect,0.225000X-0.055438X-0.331740X0.324088X-0.089955X0.055438X0.331740X-0.324088X0.089955X0*%
%ADD80RoundRect,0.225000X0.032312X-0.334785X0.336327X-0.003010X-0.032312X0.334785X-0.336327X0.003010X0*%
%ADD81RoundRect,0.225000X0.117859X-0.315015X0.325646X0.084140X-0.117859X0.315015X-0.325646X-0.084140X0*%
%ADD82RoundRect,0.225000X0.195375X-0.273777X0.292773X0.165557X-0.195375X0.273777X-0.292773X-0.165557X0*%
%ADD83C,2.200000*%
G04 APERTURE END LIST*
D10*
X145249999Y-109680928D02*
X145249999Y-108180928D01*
X145249999Y-108895214D02*
X146107142Y-108895214D01*
X146107142Y-109680928D02*
X146107142Y-108180928D01*
X146750000Y-109252357D02*
X147464286Y-109252357D01*
X146607143Y-109680928D02*
X147107143Y-108180928D01*
X147107143Y-108180928D02*
X147607143Y-109680928D01*
X148821428Y-109680928D02*
X148107142Y-109680928D01*
X148107142Y-109680928D02*
X148107142Y-108180928D01*
X149607143Y-108180928D02*
X149892857Y-108180928D01*
X149892857Y-108180928D02*
X150035714Y-108252357D01*
X150035714Y-108252357D02*
X150178571Y-108395214D01*
X150178571Y-108395214D02*
X150250000Y-108680928D01*
X150250000Y-108680928D02*
X150250000Y-109180928D01*
X150250000Y-109180928D02*
X150178571Y-109466642D01*
X150178571Y-109466642D02*
X150035714Y-109609500D01*
X150035714Y-109609500D02*
X149892857Y-109680928D01*
X149892857Y-109680928D02*
X149607143Y-109680928D01*
X149607143Y-109680928D02*
X149464286Y-109609500D01*
X149464286Y-109609500D02*
X149321428Y-109466642D01*
X149321428Y-109466642D02*
X149250000Y-109180928D01*
X149250000Y-109180928D02*
X149250000Y-108680928D01*
X149250000Y-108680928D02*
X149321428Y-108395214D01*
X149321428Y-108395214D02*
X149464286Y-108252357D01*
X149464286Y-108252357D02*
X149607143Y-108180928D01*
X150892857Y-109109500D02*
X152035715Y-109109500D01*
X152535715Y-108180928D02*
X153035715Y-109680928D01*
X153035715Y-109680928D02*
X153535715Y-108180928D01*
X154821429Y-109680928D02*
X153964286Y-109680928D01*
X154392857Y-109680928D02*
X154392857Y-108180928D01*
X154392857Y-108180928D02*
X154250000Y-108395214D01*
X154250000Y-108395214D02*
X154107143Y-108538071D01*
X154107143Y-108538071D02*
X153964286Y-108609500D01*
D11*
X149666666Y-145409819D02*
X149666666Y-146124104D01*
X149666666Y-146124104D02*
X149619047Y-146266961D01*
X149619047Y-146266961D02*
X149523809Y-146362200D01*
X149523809Y-146362200D02*
X149380952Y-146409819D01*
X149380952Y-146409819D02*
X149285714Y-146409819D01*
X150666666Y-146409819D02*
X150095238Y-146409819D01*
X150380952Y-146409819D02*
X150380952Y-145409819D01*
X150380952Y-145409819D02*
X150285714Y-145552676D01*
X150285714Y-145552676D02*
X150190476Y-145647914D01*
X150190476Y-145647914D02*
X150095238Y-145695533D01*
X141666666Y-132981009D02*
X141333333Y-132981009D01*
X141333333Y-133504819D02*
X141333333Y-132504819D01*
X141333333Y-132504819D02*
X141809523Y-132504819D01*
X142714285Y-133504819D02*
X142142857Y-133504819D01*
X142428571Y-133504819D02*
X142428571Y-132504819D01*
X142428571Y-132504819D02*
X142333333Y-132647676D01*
X142333333Y-132647676D02*
X142238095Y-132742914D01*
X142238095Y-132742914D02*
X142142857Y-132790533D01*
X163833333Y-123804819D02*
X163500000Y-123328628D01*
X163261905Y-123804819D02*
X163261905Y-122804819D01*
X163261905Y-122804819D02*
X163642857Y-122804819D01*
X163642857Y-122804819D02*
X163738095Y-122852438D01*
X163738095Y-122852438D02*
X163785714Y-122900057D01*
X163785714Y-122900057D02*
X163833333Y-122995295D01*
X163833333Y-122995295D02*
X163833333Y-123138152D01*
X163833333Y-123138152D02*
X163785714Y-123233390D01*
X163785714Y-123233390D02*
X163738095Y-123281009D01*
X163738095Y-123281009D02*
X163642857Y-123328628D01*
X163642857Y-123328628D02*
X163261905Y-123328628D01*
X164738095Y-122804819D02*
X164261905Y-122804819D01*
X164261905Y-122804819D02*
X164214286Y-123281009D01*
X164214286Y-123281009D02*
X164261905Y-123233390D01*
X164261905Y-123233390D02*
X164357143Y-123185771D01*
X164357143Y-123185771D02*
X164595238Y-123185771D01*
X164595238Y-123185771D02*
X164690476Y-123233390D01*
X164690476Y-123233390D02*
X164738095Y-123281009D01*
X164738095Y-123281009D02*
X164785714Y-123376247D01*
X164785714Y-123376247D02*
X164785714Y-123614342D01*
X164785714Y-123614342D02*
X164738095Y-123709580D01*
X164738095Y-123709580D02*
X164690476Y-123757200D01*
X164690476Y-123757200D02*
X164595238Y-123804819D01*
X164595238Y-123804819D02*
X164357143Y-123804819D01*
X164357143Y-123804819D02*
X164261905Y-123757200D01*
X164261905Y-123757200D02*
X164214286Y-123709580D01*
X163833333Y-127304819D02*
X163500000Y-126828628D01*
X163261905Y-127304819D02*
X163261905Y-126304819D01*
X163261905Y-126304819D02*
X163642857Y-126304819D01*
X163642857Y-126304819D02*
X163738095Y-126352438D01*
X163738095Y-126352438D02*
X163785714Y-126400057D01*
X163785714Y-126400057D02*
X163833333Y-126495295D01*
X163833333Y-126495295D02*
X163833333Y-126638152D01*
X163833333Y-126638152D02*
X163785714Y-126733390D01*
X163785714Y-126733390D02*
X163738095Y-126781009D01*
X163738095Y-126781009D02*
X163642857Y-126828628D01*
X163642857Y-126828628D02*
X163261905Y-126828628D01*
X164690476Y-126304819D02*
X164500000Y-126304819D01*
X164500000Y-126304819D02*
X164404762Y-126352438D01*
X164404762Y-126352438D02*
X164357143Y-126400057D01*
X164357143Y-126400057D02*
X164261905Y-126542914D01*
X164261905Y-126542914D02*
X164214286Y-126733390D01*
X164214286Y-126733390D02*
X164214286Y-127114342D01*
X164214286Y-127114342D02*
X164261905Y-127209580D01*
X164261905Y-127209580D02*
X164309524Y-127257200D01*
X164309524Y-127257200D02*
X164404762Y-127304819D01*
X164404762Y-127304819D02*
X164595238Y-127304819D01*
X164595238Y-127304819D02*
X164690476Y-127257200D01*
X164690476Y-127257200D02*
X164738095Y-127209580D01*
X164738095Y-127209580D02*
X164785714Y-127114342D01*
X164785714Y-127114342D02*
X164785714Y-126876247D01*
X164785714Y-126876247D02*
X164738095Y-126781009D01*
X164738095Y-126781009D02*
X164690476Y-126733390D01*
X164690476Y-126733390D02*
X164595238Y-126685771D01*
X164595238Y-126685771D02*
X164404762Y-126685771D01*
X164404762Y-126685771D02*
X164309524Y-126733390D01*
X164309524Y-126733390D02*
X164261905Y-126781009D01*
X164261905Y-126781009D02*
X164214286Y-126876247D01*
X149261905Y-129854819D02*
X149261905Y-128854819D01*
X149261905Y-128854819D02*
X149500000Y-128854819D01*
X149500000Y-128854819D02*
X149642857Y-128902438D01*
X149642857Y-128902438D02*
X149738095Y-128997676D01*
X149738095Y-128997676D02*
X149785714Y-129092914D01*
X149785714Y-129092914D02*
X149833333Y-129283390D01*
X149833333Y-129283390D02*
X149833333Y-129426247D01*
X149833333Y-129426247D02*
X149785714Y-129616723D01*
X149785714Y-129616723D02*
X149738095Y-129711961D01*
X149738095Y-129711961D02*
X149642857Y-129807200D01*
X149642857Y-129807200D02*
X149500000Y-129854819D01*
X149500000Y-129854819D02*
X149261905Y-129854819D01*
X150785714Y-129854819D02*
X150214286Y-129854819D01*
X150500000Y-129854819D02*
X150500000Y-128854819D01*
X150500000Y-128854819D02*
X150404762Y-128997676D01*
X150404762Y-128997676D02*
X150309524Y-129092914D01*
X150309524Y-129092914D02*
X150214286Y-129140533D01*
X156833333Y-129009580D02*
X156785714Y-129057200D01*
X156785714Y-129057200D02*
X156642857Y-129104819D01*
X156642857Y-129104819D02*
X156547619Y-129104819D01*
X156547619Y-129104819D02*
X156404762Y-129057200D01*
X156404762Y-129057200D02*
X156309524Y-128961961D01*
X156309524Y-128961961D02*
X156261905Y-128866723D01*
X156261905Y-128866723D02*
X156214286Y-128676247D01*
X156214286Y-128676247D02*
X156214286Y-128533390D01*
X156214286Y-128533390D02*
X156261905Y-128342914D01*
X156261905Y-128342914D02*
X156309524Y-128247676D01*
X156309524Y-128247676D02*
X156404762Y-128152438D01*
X156404762Y-128152438D02*
X156547619Y-128104819D01*
X156547619Y-128104819D02*
X156642857Y-128104819D01*
X156642857Y-128104819D02*
X156785714Y-128152438D01*
X156785714Y-128152438D02*
X156833333Y-128200057D01*
X157166667Y-128104819D02*
X157833333Y-128104819D01*
X157833333Y-128104819D02*
X157404762Y-129104819D01*
X137238095Y-119954819D02*
X137238095Y-120764342D01*
X137238095Y-120764342D02*
X137285714Y-120859580D01*
X137285714Y-120859580D02*
X137333333Y-120907200D01*
X137333333Y-120907200D02*
X137428571Y-120954819D01*
X137428571Y-120954819D02*
X137619047Y-120954819D01*
X137619047Y-120954819D02*
X137714285Y-120907200D01*
X137714285Y-120907200D02*
X137761904Y-120859580D01*
X137761904Y-120859580D02*
X137809523Y-120764342D01*
X137809523Y-120764342D02*
X137809523Y-119954819D01*
X138238095Y-120050057D02*
X138285714Y-120002438D01*
X138285714Y-120002438D02*
X138380952Y-119954819D01*
X138380952Y-119954819D02*
X138619047Y-119954819D01*
X138619047Y-119954819D02*
X138714285Y-120002438D01*
X138714285Y-120002438D02*
X138761904Y-120050057D01*
X138761904Y-120050057D02*
X138809523Y-120145295D01*
X138809523Y-120145295D02*
X138809523Y-120240533D01*
X138809523Y-120240533D02*
X138761904Y-120383390D01*
X138761904Y-120383390D02*
X138190476Y-120954819D01*
X138190476Y-120954819D02*
X138809523Y-120954819D01*
X130679580Y-119166666D02*
X130727200Y-119214285D01*
X130727200Y-119214285D02*
X130774819Y-119357142D01*
X130774819Y-119357142D02*
X130774819Y-119452380D01*
X130774819Y-119452380D02*
X130727200Y-119595237D01*
X130727200Y-119595237D02*
X130631961Y-119690475D01*
X130631961Y-119690475D02*
X130536723Y-119738094D01*
X130536723Y-119738094D02*
X130346247Y-119785713D01*
X130346247Y-119785713D02*
X130203390Y-119785713D01*
X130203390Y-119785713D02*
X130012914Y-119738094D01*
X130012914Y-119738094D02*
X129917676Y-119690475D01*
X129917676Y-119690475D02*
X129822438Y-119595237D01*
X129822438Y-119595237D02*
X129774819Y-119452380D01*
X129774819Y-119452380D02*
X129774819Y-119357142D01*
X129774819Y-119357142D02*
X129822438Y-119214285D01*
X129822438Y-119214285D02*
X129870057Y-119166666D01*
X130774819Y-118214285D02*
X130774819Y-118785713D01*
X130774819Y-118499999D02*
X129774819Y-118499999D01*
X129774819Y-118499999D02*
X129917676Y-118595237D01*
X129917676Y-118595237D02*
X130012914Y-118690475D01*
X130012914Y-118690475D02*
X130060533Y-118785713D01*
X133679580Y-119166666D02*
X133727200Y-119214285D01*
X133727200Y-119214285D02*
X133774819Y-119357142D01*
X133774819Y-119357142D02*
X133774819Y-119452380D01*
X133774819Y-119452380D02*
X133727200Y-119595237D01*
X133727200Y-119595237D02*
X133631961Y-119690475D01*
X133631961Y-119690475D02*
X133536723Y-119738094D01*
X133536723Y-119738094D02*
X133346247Y-119785713D01*
X133346247Y-119785713D02*
X133203390Y-119785713D01*
X133203390Y-119785713D02*
X133012914Y-119738094D01*
X133012914Y-119738094D02*
X132917676Y-119690475D01*
X132917676Y-119690475D02*
X132822438Y-119595237D01*
X132822438Y-119595237D02*
X132774819Y-119452380D01*
X132774819Y-119452380D02*
X132774819Y-119357142D01*
X132774819Y-119357142D02*
X132822438Y-119214285D01*
X132822438Y-119214285D02*
X132870057Y-119166666D01*
X132774819Y-118833332D02*
X132774819Y-118214285D01*
X132774819Y-118214285D02*
X133155771Y-118547618D01*
X133155771Y-118547618D02*
X133155771Y-118404761D01*
X133155771Y-118404761D02*
X133203390Y-118309523D01*
X133203390Y-118309523D02*
X133251009Y-118261904D01*
X133251009Y-118261904D02*
X133346247Y-118214285D01*
X133346247Y-118214285D02*
X133584342Y-118214285D01*
X133584342Y-118214285D02*
X133679580Y-118261904D01*
X133679580Y-118261904D02*
X133727200Y-118309523D01*
X133727200Y-118309523D02*
X133774819Y-118404761D01*
X133774819Y-118404761D02*
X133774819Y-118690475D01*
X133774819Y-118690475D02*
X133727200Y-118785713D01*
X133727200Y-118785713D02*
X133679580Y-118833332D01*
X139679580Y-119166666D02*
X139727200Y-119214285D01*
X139727200Y-119214285D02*
X139774819Y-119357142D01*
X139774819Y-119357142D02*
X139774819Y-119452380D01*
X139774819Y-119452380D02*
X139727200Y-119595237D01*
X139727200Y-119595237D02*
X139631961Y-119690475D01*
X139631961Y-119690475D02*
X139536723Y-119738094D01*
X139536723Y-119738094D02*
X139346247Y-119785713D01*
X139346247Y-119785713D02*
X139203390Y-119785713D01*
X139203390Y-119785713D02*
X139012914Y-119738094D01*
X139012914Y-119738094D02*
X138917676Y-119690475D01*
X138917676Y-119690475D02*
X138822438Y-119595237D01*
X138822438Y-119595237D02*
X138774819Y-119452380D01*
X138774819Y-119452380D02*
X138774819Y-119357142D01*
X138774819Y-119357142D02*
X138822438Y-119214285D01*
X138822438Y-119214285D02*
X138870057Y-119166666D01*
X138870057Y-118785713D02*
X138822438Y-118738094D01*
X138822438Y-118738094D02*
X138774819Y-118642856D01*
X138774819Y-118642856D02*
X138774819Y-118404761D01*
X138774819Y-118404761D02*
X138822438Y-118309523D01*
X138822438Y-118309523D02*
X138870057Y-118261904D01*
X138870057Y-118261904D02*
X138965295Y-118214285D01*
X138965295Y-118214285D02*
X139060533Y-118214285D01*
X139060533Y-118214285D02*
X139203390Y-118261904D01*
X139203390Y-118261904D02*
X139774819Y-118833332D01*
X139774819Y-118833332D02*
X139774819Y-118214285D01*
X174666666Y-116074819D02*
X174666666Y-116789104D01*
X174666666Y-116789104D02*
X174619047Y-116931961D01*
X174619047Y-116931961D02*
X174523809Y-117027200D01*
X174523809Y-117027200D02*
X174380952Y-117074819D01*
X174380952Y-117074819D02*
X174285714Y-117074819D01*
X175095238Y-116170057D02*
X175142857Y-116122438D01*
X175142857Y-116122438D02*
X175238095Y-116074819D01*
X175238095Y-116074819D02*
X175476190Y-116074819D01*
X175476190Y-116074819D02*
X175571428Y-116122438D01*
X175571428Y-116122438D02*
X175619047Y-116170057D01*
X175619047Y-116170057D02*
X175666666Y-116265295D01*
X175666666Y-116265295D02*
X175666666Y-116360533D01*
X175666666Y-116360533D02*
X175619047Y-116503390D01*
X175619047Y-116503390D02*
X175047619Y-117074819D01*
X175047619Y-117074819D02*
X175666666Y-117074819D01*
X168738095Y-110806819D02*
X169309523Y-110806819D01*
X169023809Y-111806819D02*
X169023809Y-110806819D01*
X169642857Y-111806819D02*
X169642857Y-110806819D01*
X169642857Y-110806819D02*
X170023809Y-110806819D01*
X170023809Y-110806819D02*
X170119047Y-110854438D01*
X170119047Y-110854438D02*
X170166666Y-110902057D01*
X170166666Y-110902057D02*
X170214285Y-110997295D01*
X170214285Y-110997295D02*
X170214285Y-111140152D01*
X170214285Y-111140152D02*
X170166666Y-111235390D01*
X170166666Y-111235390D02*
X170119047Y-111283009D01*
X170119047Y-111283009D02*
X170023809Y-111330628D01*
X170023809Y-111330628D02*
X169642857Y-111330628D01*
X171166666Y-111806819D02*
X170595238Y-111806819D01*
X170880952Y-111806819D02*
X170880952Y-110806819D01*
X170880952Y-110806819D02*
X170785714Y-110949676D01*
X170785714Y-110949676D02*
X170690476Y-111044914D01*
X170690476Y-111044914D02*
X170595238Y-111092533D01*
X168738095Y-113806819D02*
X169309523Y-113806819D01*
X169023809Y-114806819D02*
X169023809Y-113806819D01*
X169642857Y-114806819D02*
X169642857Y-113806819D01*
X169642857Y-113806819D02*
X170023809Y-113806819D01*
X170023809Y-113806819D02*
X170119047Y-113854438D01*
X170119047Y-113854438D02*
X170166666Y-113902057D01*
X170166666Y-113902057D02*
X170214285Y-113997295D01*
X170214285Y-113997295D02*
X170214285Y-114140152D01*
X170214285Y-114140152D02*
X170166666Y-114235390D01*
X170166666Y-114235390D02*
X170119047Y-114283009D01*
X170119047Y-114283009D02*
X170023809Y-114330628D01*
X170023809Y-114330628D02*
X169642857Y-114330628D01*
X170595238Y-113902057D02*
X170642857Y-113854438D01*
X170642857Y-113854438D02*
X170738095Y-113806819D01*
X170738095Y-113806819D02*
X170976190Y-113806819D01*
X170976190Y-113806819D02*
X171071428Y-113854438D01*
X171071428Y-113854438D02*
X171119047Y-113902057D01*
X171119047Y-113902057D02*
X171166666Y-113997295D01*
X171166666Y-113997295D02*
X171166666Y-114092533D01*
X171166666Y-114092533D02*
X171119047Y-114235390D01*
X171119047Y-114235390D02*
X170547619Y-114806819D01*
X170547619Y-114806819D02*
X171166666Y-114806819D01*
X168738095Y-116806819D02*
X169309523Y-116806819D01*
X169023809Y-117806819D02*
X169023809Y-116806819D01*
X169642857Y-117806819D02*
X169642857Y-116806819D01*
X169642857Y-116806819D02*
X170023809Y-116806819D01*
X170023809Y-116806819D02*
X170119047Y-116854438D01*
X170119047Y-116854438D02*
X170166666Y-116902057D01*
X170166666Y-116902057D02*
X170214285Y-116997295D01*
X170214285Y-116997295D02*
X170214285Y-117140152D01*
X170214285Y-117140152D02*
X170166666Y-117235390D01*
X170166666Y-117235390D02*
X170119047Y-117283009D01*
X170119047Y-117283009D02*
X170023809Y-117330628D01*
X170023809Y-117330628D02*
X169642857Y-117330628D01*
X170547619Y-116806819D02*
X171166666Y-116806819D01*
X171166666Y-116806819D02*
X170833333Y-117187771D01*
X170833333Y-117187771D02*
X170976190Y-117187771D01*
X170976190Y-117187771D02*
X171071428Y-117235390D01*
X171071428Y-117235390D02*
X171119047Y-117283009D01*
X171119047Y-117283009D02*
X171166666Y-117378247D01*
X171166666Y-117378247D02*
X171166666Y-117616342D01*
X171166666Y-117616342D02*
X171119047Y-117711580D01*
X171119047Y-117711580D02*
X171071428Y-117759200D01*
X171071428Y-117759200D02*
X170976190Y-117806819D01*
X170976190Y-117806819D02*
X170690476Y-117806819D01*
X170690476Y-117806819D02*
X170595238Y-117759200D01*
X170595238Y-117759200D02*
X170547619Y-117711580D01*
X128738095Y-94806819D02*
X129309523Y-94806819D01*
X129023809Y-95806819D02*
X129023809Y-94806819D01*
X129642857Y-95806819D02*
X129642857Y-94806819D01*
X129642857Y-94806819D02*
X130023809Y-94806819D01*
X130023809Y-94806819D02*
X130119047Y-94854438D01*
X130119047Y-94854438D02*
X130166666Y-94902057D01*
X130166666Y-94902057D02*
X130214285Y-94997295D01*
X130214285Y-94997295D02*
X130214285Y-95140152D01*
X130214285Y-95140152D02*
X130166666Y-95235390D01*
X130166666Y-95235390D02*
X130119047Y-95283009D01*
X130119047Y-95283009D02*
X130023809Y-95330628D01*
X130023809Y-95330628D02*
X129642857Y-95330628D01*
X131071428Y-95140152D02*
X131071428Y-95806819D01*
X130833333Y-94759200D02*
X130595238Y-95473485D01*
X130595238Y-95473485D02*
X131214285Y-95473485D01*
X149238095Y-70954819D02*
X149238095Y-71764342D01*
X149238095Y-71764342D02*
X149285714Y-71859580D01*
X149285714Y-71859580D02*
X149333333Y-71907200D01*
X149333333Y-71907200D02*
X149428571Y-71954819D01*
X149428571Y-71954819D02*
X149619047Y-71954819D01*
X149619047Y-71954819D02*
X149714285Y-71907200D01*
X149714285Y-71907200D02*
X149761904Y-71859580D01*
X149761904Y-71859580D02*
X149809523Y-71764342D01*
X149809523Y-71764342D02*
X149809523Y-70954819D01*
X150809523Y-71954819D02*
X150238095Y-71954819D01*
X150523809Y-71954819D02*
X150523809Y-70954819D01*
X150523809Y-70954819D02*
X150428571Y-71097676D01*
X150428571Y-71097676D02*
X150333333Y-71192914D01*
X150333333Y-71192914D02*
X150238095Y-71240533D01*
X138304819Y-82366666D02*
X137828628Y-82699999D01*
X138304819Y-82938094D02*
X137304819Y-82938094D01*
X137304819Y-82938094D02*
X137304819Y-82557142D01*
X137304819Y-82557142D02*
X137352438Y-82461904D01*
X137352438Y-82461904D02*
X137400057Y-82414285D01*
X137400057Y-82414285D02*
X137495295Y-82366666D01*
X137495295Y-82366666D02*
X137638152Y-82366666D01*
X137638152Y-82366666D02*
X137733390Y-82414285D01*
X137733390Y-82414285D02*
X137781009Y-82461904D01*
X137781009Y-82461904D02*
X137828628Y-82557142D01*
X137828628Y-82557142D02*
X137828628Y-82938094D01*
X138304819Y-81414285D02*
X138304819Y-81985713D01*
X138304819Y-81699999D02*
X137304819Y-81699999D01*
X137304819Y-81699999D02*
X137447676Y-81795237D01*
X137447676Y-81795237D02*
X137542914Y-81890475D01*
X137542914Y-81890475D02*
X137590533Y-81985713D01*
X138179580Y-85966666D02*
X138227200Y-86014285D01*
X138227200Y-86014285D02*
X138274819Y-86157142D01*
X138274819Y-86157142D02*
X138274819Y-86252380D01*
X138274819Y-86252380D02*
X138227200Y-86395237D01*
X138227200Y-86395237D02*
X138131961Y-86490475D01*
X138131961Y-86490475D02*
X138036723Y-86538094D01*
X138036723Y-86538094D02*
X137846247Y-86585713D01*
X137846247Y-86585713D02*
X137703390Y-86585713D01*
X137703390Y-86585713D02*
X137512914Y-86538094D01*
X137512914Y-86538094D02*
X137417676Y-86490475D01*
X137417676Y-86490475D02*
X137322438Y-86395237D01*
X137322438Y-86395237D02*
X137274819Y-86252380D01*
X137274819Y-86252380D02*
X137274819Y-86157142D01*
X137274819Y-86157142D02*
X137322438Y-86014285D01*
X137322438Y-86014285D02*
X137370057Y-85966666D01*
X137274819Y-85109523D02*
X137274819Y-85299999D01*
X137274819Y-85299999D02*
X137322438Y-85395237D01*
X137322438Y-85395237D02*
X137370057Y-85442856D01*
X137370057Y-85442856D02*
X137512914Y-85538094D01*
X137512914Y-85538094D02*
X137703390Y-85585713D01*
X137703390Y-85585713D02*
X138084342Y-85585713D01*
X138084342Y-85585713D02*
X138179580Y-85538094D01*
X138179580Y-85538094D02*
X138227200Y-85490475D01*
X138227200Y-85490475D02*
X138274819Y-85395237D01*
X138274819Y-85395237D02*
X138274819Y-85204761D01*
X138274819Y-85204761D02*
X138227200Y-85109523D01*
X138227200Y-85109523D02*
X138179580Y-85061904D01*
X138179580Y-85061904D02*
X138084342Y-85014285D01*
X138084342Y-85014285D02*
X137846247Y-85014285D01*
X137846247Y-85014285D02*
X137751009Y-85061904D01*
X137751009Y-85061904D02*
X137703390Y-85109523D01*
X137703390Y-85109523D02*
X137655771Y-85204761D01*
X137655771Y-85204761D02*
X137655771Y-85395237D01*
X137655771Y-85395237D02*
X137703390Y-85490475D01*
X137703390Y-85490475D02*
X137751009Y-85538094D01*
X137751009Y-85538094D02*
X137846247Y-85585713D01*
X134666667Y-87657200D02*
X134809524Y-87704819D01*
X134809524Y-87704819D02*
X135047619Y-87704819D01*
X135047619Y-87704819D02*
X135142857Y-87657200D01*
X135142857Y-87657200D02*
X135190476Y-87609580D01*
X135190476Y-87609580D02*
X135238095Y-87514342D01*
X135238095Y-87514342D02*
X135238095Y-87419104D01*
X135238095Y-87419104D02*
X135190476Y-87323866D01*
X135190476Y-87323866D02*
X135142857Y-87276247D01*
X135142857Y-87276247D02*
X135047619Y-87228628D01*
X135047619Y-87228628D02*
X134857143Y-87181009D01*
X134857143Y-87181009D02*
X134761905Y-87133390D01*
X134761905Y-87133390D02*
X134714286Y-87085771D01*
X134714286Y-87085771D02*
X134666667Y-86990533D01*
X134666667Y-86990533D02*
X134666667Y-86895295D01*
X134666667Y-86895295D02*
X134714286Y-86800057D01*
X134714286Y-86800057D02*
X134761905Y-86752438D01*
X134761905Y-86752438D02*
X134857143Y-86704819D01*
X134857143Y-86704819D02*
X135095238Y-86704819D01*
X135095238Y-86704819D02*
X135238095Y-86752438D01*
X135571429Y-86704819D02*
X135809524Y-87704819D01*
X135809524Y-87704819D02*
X136000000Y-86990533D01*
X136000000Y-86990533D02*
X136190476Y-87704819D01*
X136190476Y-87704819D02*
X136428572Y-86704819D01*
X137333333Y-87704819D02*
X136761905Y-87704819D01*
X137047619Y-87704819D02*
X137047619Y-86704819D01*
X137047619Y-86704819D02*
X136952381Y-86847676D01*
X136952381Y-86847676D02*
X136857143Y-86942914D01*
X136857143Y-86942914D02*
X136761905Y-86990533D01*
X134804819Y-84166666D02*
X134328628Y-84499999D01*
X134804819Y-84738094D02*
X133804819Y-84738094D01*
X133804819Y-84738094D02*
X133804819Y-84357142D01*
X133804819Y-84357142D02*
X133852438Y-84261904D01*
X133852438Y-84261904D02*
X133900057Y-84214285D01*
X133900057Y-84214285D02*
X133995295Y-84166666D01*
X133995295Y-84166666D02*
X134138152Y-84166666D01*
X134138152Y-84166666D02*
X134233390Y-84214285D01*
X134233390Y-84214285D02*
X134281009Y-84261904D01*
X134281009Y-84261904D02*
X134328628Y-84357142D01*
X134328628Y-84357142D02*
X134328628Y-84738094D01*
X134138152Y-83309523D02*
X134804819Y-83309523D01*
X133757200Y-83547618D02*
X134471485Y-83785713D01*
X134471485Y-83785713D02*
X134471485Y-83166666D01*
X159304819Y-82366666D02*
X158828628Y-82699999D01*
X159304819Y-82938094D02*
X158304819Y-82938094D01*
X158304819Y-82938094D02*
X158304819Y-82557142D01*
X158304819Y-82557142D02*
X158352438Y-82461904D01*
X158352438Y-82461904D02*
X158400057Y-82414285D01*
X158400057Y-82414285D02*
X158495295Y-82366666D01*
X158495295Y-82366666D02*
X158638152Y-82366666D01*
X158638152Y-82366666D02*
X158733390Y-82414285D01*
X158733390Y-82414285D02*
X158781009Y-82461904D01*
X158781009Y-82461904D02*
X158828628Y-82557142D01*
X158828628Y-82557142D02*
X158828628Y-82938094D01*
X158304819Y-82033332D02*
X158304819Y-81414285D01*
X158304819Y-81414285D02*
X158685771Y-81747618D01*
X158685771Y-81747618D02*
X158685771Y-81604761D01*
X158685771Y-81604761D02*
X158733390Y-81509523D01*
X158733390Y-81509523D02*
X158781009Y-81461904D01*
X158781009Y-81461904D02*
X158876247Y-81414285D01*
X158876247Y-81414285D02*
X159114342Y-81414285D01*
X159114342Y-81414285D02*
X159209580Y-81461904D01*
X159209580Y-81461904D02*
X159257200Y-81509523D01*
X159257200Y-81509523D02*
X159304819Y-81604761D01*
X159304819Y-81604761D02*
X159304819Y-81890475D01*
X159304819Y-81890475D02*
X159257200Y-81985713D01*
X159257200Y-81985713D02*
X159209580Y-82033332D01*
X159304819Y-85966666D02*
X158828628Y-86299999D01*
X159304819Y-86538094D02*
X158304819Y-86538094D01*
X158304819Y-86538094D02*
X158304819Y-86157142D01*
X158304819Y-86157142D02*
X158352438Y-86061904D01*
X158352438Y-86061904D02*
X158400057Y-86014285D01*
X158400057Y-86014285D02*
X158495295Y-85966666D01*
X158495295Y-85966666D02*
X158638152Y-85966666D01*
X158638152Y-85966666D02*
X158733390Y-86014285D01*
X158733390Y-86014285D02*
X158781009Y-86061904D01*
X158781009Y-86061904D02*
X158828628Y-86157142D01*
X158828628Y-86157142D02*
X158828628Y-86538094D01*
X158400057Y-85585713D02*
X158352438Y-85538094D01*
X158352438Y-85538094D02*
X158304819Y-85442856D01*
X158304819Y-85442856D02*
X158304819Y-85204761D01*
X158304819Y-85204761D02*
X158352438Y-85109523D01*
X158352438Y-85109523D02*
X158400057Y-85061904D01*
X158400057Y-85061904D02*
X158495295Y-85014285D01*
X158495295Y-85014285D02*
X158590533Y-85014285D01*
X158590533Y-85014285D02*
X158733390Y-85061904D01*
X158733390Y-85061904D02*
X159304819Y-85633332D01*
X159304819Y-85633332D02*
X159304819Y-85014285D01*
X134666667Y-95657200D02*
X134809524Y-95704819D01*
X134809524Y-95704819D02*
X135047619Y-95704819D01*
X135047619Y-95704819D02*
X135142857Y-95657200D01*
X135142857Y-95657200D02*
X135190476Y-95609580D01*
X135190476Y-95609580D02*
X135238095Y-95514342D01*
X135238095Y-95514342D02*
X135238095Y-95419104D01*
X135238095Y-95419104D02*
X135190476Y-95323866D01*
X135190476Y-95323866D02*
X135142857Y-95276247D01*
X135142857Y-95276247D02*
X135047619Y-95228628D01*
X135047619Y-95228628D02*
X134857143Y-95181009D01*
X134857143Y-95181009D02*
X134761905Y-95133390D01*
X134761905Y-95133390D02*
X134714286Y-95085771D01*
X134714286Y-95085771D02*
X134666667Y-94990533D01*
X134666667Y-94990533D02*
X134666667Y-94895295D01*
X134666667Y-94895295D02*
X134714286Y-94800057D01*
X134714286Y-94800057D02*
X134761905Y-94752438D01*
X134761905Y-94752438D02*
X134857143Y-94704819D01*
X134857143Y-94704819D02*
X135095238Y-94704819D01*
X135095238Y-94704819D02*
X135238095Y-94752438D01*
X135571429Y-94704819D02*
X135809524Y-95704819D01*
X135809524Y-95704819D02*
X136000000Y-94990533D01*
X136000000Y-94990533D02*
X136190476Y-95704819D01*
X136190476Y-95704819D02*
X136428572Y-94704819D01*
X136761905Y-94800057D02*
X136809524Y-94752438D01*
X136809524Y-94752438D02*
X136904762Y-94704819D01*
X136904762Y-94704819D02*
X137142857Y-94704819D01*
X137142857Y-94704819D02*
X137238095Y-94752438D01*
X137238095Y-94752438D02*
X137285714Y-94800057D01*
X137285714Y-94800057D02*
X137333333Y-94895295D01*
X137333333Y-94895295D02*
X137333333Y-94990533D01*
X137333333Y-94990533D02*
X137285714Y-95133390D01*
X137285714Y-95133390D02*
X136714286Y-95704819D01*
X136714286Y-95704819D02*
X137333333Y-95704819D01*
X162666667Y-87657200D02*
X162809524Y-87704819D01*
X162809524Y-87704819D02*
X163047619Y-87704819D01*
X163047619Y-87704819D02*
X163142857Y-87657200D01*
X163142857Y-87657200D02*
X163190476Y-87609580D01*
X163190476Y-87609580D02*
X163238095Y-87514342D01*
X163238095Y-87514342D02*
X163238095Y-87419104D01*
X163238095Y-87419104D02*
X163190476Y-87323866D01*
X163190476Y-87323866D02*
X163142857Y-87276247D01*
X163142857Y-87276247D02*
X163047619Y-87228628D01*
X163047619Y-87228628D02*
X162857143Y-87181009D01*
X162857143Y-87181009D02*
X162761905Y-87133390D01*
X162761905Y-87133390D02*
X162714286Y-87085771D01*
X162714286Y-87085771D02*
X162666667Y-86990533D01*
X162666667Y-86990533D02*
X162666667Y-86895295D01*
X162666667Y-86895295D02*
X162714286Y-86800057D01*
X162714286Y-86800057D02*
X162761905Y-86752438D01*
X162761905Y-86752438D02*
X162857143Y-86704819D01*
X162857143Y-86704819D02*
X163095238Y-86704819D01*
X163095238Y-86704819D02*
X163238095Y-86752438D01*
X163571429Y-86704819D02*
X163809524Y-87704819D01*
X163809524Y-87704819D02*
X164000000Y-86990533D01*
X164000000Y-86990533D02*
X164190476Y-87704819D01*
X164190476Y-87704819D02*
X164428572Y-86704819D01*
X164714286Y-86704819D02*
X165333333Y-86704819D01*
X165333333Y-86704819D02*
X165000000Y-87085771D01*
X165000000Y-87085771D02*
X165142857Y-87085771D01*
X165142857Y-87085771D02*
X165238095Y-87133390D01*
X165238095Y-87133390D02*
X165285714Y-87181009D01*
X165285714Y-87181009D02*
X165333333Y-87276247D01*
X165333333Y-87276247D02*
X165333333Y-87514342D01*
X165333333Y-87514342D02*
X165285714Y-87609580D01*
X165285714Y-87609580D02*
X165238095Y-87657200D01*
X165238095Y-87657200D02*
X165142857Y-87704819D01*
X165142857Y-87704819D02*
X164857143Y-87704819D01*
X164857143Y-87704819D02*
X164761905Y-87657200D01*
X164761905Y-87657200D02*
X164714286Y-87609580D01*
X138179580Y-75166666D02*
X138227200Y-75214285D01*
X138227200Y-75214285D02*
X138274819Y-75357142D01*
X138274819Y-75357142D02*
X138274819Y-75452380D01*
X138274819Y-75452380D02*
X138227200Y-75595237D01*
X138227200Y-75595237D02*
X138131961Y-75690475D01*
X138131961Y-75690475D02*
X138036723Y-75738094D01*
X138036723Y-75738094D02*
X137846247Y-75785713D01*
X137846247Y-75785713D02*
X137703390Y-75785713D01*
X137703390Y-75785713D02*
X137512914Y-75738094D01*
X137512914Y-75738094D02*
X137417676Y-75690475D01*
X137417676Y-75690475D02*
X137322438Y-75595237D01*
X137322438Y-75595237D02*
X137274819Y-75452380D01*
X137274819Y-75452380D02*
X137274819Y-75357142D01*
X137274819Y-75357142D02*
X137322438Y-75214285D01*
X137322438Y-75214285D02*
X137370057Y-75166666D01*
X137274819Y-74261904D02*
X137274819Y-74738094D01*
X137274819Y-74738094D02*
X137751009Y-74785713D01*
X137751009Y-74785713D02*
X137703390Y-74738094D01*
X137703390Y-74738094D02*
X137655771Y-74642856D01*
X137655771Y-74642856D02*
X137655771Y-74404761D01*
X137655771Y-74404761D02*
X137703390Y-74309523D01*
X137703390Y-74309523D02*
X137751009Y-74261904D01*
X137751009Y-74261904D02*
X137846247Y-74214285D01*
X137846247Y-74214285D02*
X138084342Y-74214285D01*
X138084342Y-74214285D02*
X138179580Y-74261904D01*
X138179580Y-74261904D02*
X138227200Y-74309523D01*
X138227200Y-74309523D02*
X138274819Y-74404761D01*
X138274819Y-74404761D02*
X138274819Y-74642856D01*
X138274819Y-74642856D02*
X138227200Y-74738094D01*
X138227200Y-74738094D02*
X138179580Y-74785713D01*
X138179580Y-78766666D02*
X138227200Y-78814285D01*
X138227200Y-78814285D02*
X138274819Y-78957142D01*
X138274819Y-78957142D02*
X138274819Y-79052380D01*
X138274819Y-79052380D02*
X138227200Y-79195237D01*
X138227200Y-79195237D02*
X138131961Y-79290475D01*
X138131961Y-79290475D02*
X138036723Y-79338094D01*
X138036723Y-79338094D02*
X137846247Y-79385713D01*
X137846247Y-79385713D02*
X137703390Y-79385713D01*
X137703390Y-79385713D02*
X137512914Y-79338094D01*
X137512914Y-79338094D02*
X137417676Y-79290475D01*
X137417676Y-79290475D02*
X137322438Y-79195237D01*
X137322438Y-79195237D02*
X137274819Y-79052380D01*
X137274819Y-79052380D02*
X137274819Y-78957142D01*
X137274819Y-78957142D02*
X137322438Y-78814285D01*
X137322438Y-78814285D02*
X137370057Y-78766666D01*
X137608152Y-77909523D02*
X138274819Y-77909523D01*
X137227200Y-78147618D02*
X137941485Y-78385713D01*
X137941485Y-78385713D02*
X137941485Y-77766666D01*
X132904761Y-74400057D02*
X132809523Y-74352438D01*
X132809523Y-74352438D02*
X132714285Y-74257200D01*
X132714285Y-74257200D02*
X132571428Y-74114342D01*
X132571428Y-74114342D02*
X132476190Y-74066723D01*
X132476190Y-74066723D02*
X132380952Y-74066723D01*
X132428571Y-74304819D02*
X132333333Y-74257200D01*
X132333333Y-74257200D02*
X132238095Y-74161961D01*
X132238095Y-74161961D02*
X132190476Y-73971485D01*
X132190476Y-73971485D02*
X132190476Y-73638152D01*
X132190476Y-73638152D02*
X132238095Y-73447676D01*
X132238095Y-73447676D02*
X132333333Y-73352438D01*
X132333333Y-73352438D02*
X132428571Y-73304819D01*
X132428571Y-73304819D02*
X132619047Y-73304819D01*
X132619047Y-73304819D02*
X132714285Y-73352438D01*
X132714285Y-73352438D02*
X132809523Y-73447676D01*
X132809523Y-73447676D02*
X132857142Y-73638152D01*
X132857142Y-73638152D02*
X132857142Y-73971485D01*
X132857142Y-73971485D02*
X132809523Y-74161961D01*
X132809523Y-74161961D02*
X132714285Y-74257200D01*
X132714285Y-74257200D02*
X132619047Y-74304819D01*
X132619047Y-74304819D02*
X132428571Y-74304819D01*
X133809523Y-74304819D02*
X133238095Y-74304819D01*
X133523809Y-74304819D02*
X133523809Y-73304819D01*
X133523809Y-73304819D02*
X133428571Y-73447676D01*
X133428571Y-73447676D02*
X133333333Y-73542914D01*
X133333333Y-73542914D02*
X133238095Y-73590533D01*
X132833333Y-78304819D02*
X132500000Y-77828628D01*
X132261905Y-78304819D02*
X132261905Y-77304819D01*
X132261905Y-77304819D02*
X132642857Y-77304819D01*
X132642857Y-77304819D02*
X132738095Y-77352438D01*
X132738095Y-77352438D02*
X132785714Y-77400057D01*
X132785714Y-77400057D02*
X132833333Y-77495295D01*
X132833333Y-77495295D02*
X132833333Y-77638152D01*
X132833333Y-77638152D02*
X132785714Y-77733390D01*
X132785714Y-77733390D02*
X132738095Y-77781009D01*
X132738095Y-77781009D02*
X132642857Y-77828628D01*
X132642857Y-77828628D02*
X132261905Y-77828628D01*
X133404762Y-77733390D02*
X133309524Y-77685771D01*
X133309524Y-77685771D02*
X133261905Y-77638152D01*
X133261905Y-77638152D02*
X133214286Y-77542914D01*
X133214286Y-77542914D02*
X133214286Y-77495295D01*
X133214286Y-77495295D02*
X133261905Y-77400057D01*
X133261905Y-77400057D02*
X133309524Y-77352438D01*
X133309524Y-77352438D02*
X133404762Y-77304819D01*
X133404762Y-77304819D02*
X133595238Y-77304819D01*
X133595238Y-77304819D02*
X133690476Y-77352438D01*
X133690476Y-77352438D02*
X133738095Y-77400057D01*
X133738095Y-77400057D02*
X133785714Y-77495295D01*
X133785714Y-77495295D02*
X133785714Y-77542914D01*
X133785714Y-77542914D02*
X133738095Y-77638152D01*
X133738095Y-77638152D02*
X133690476Y-77685771D01*
X133690476Y-77685771D02*
X133595238Y-77733390D01*
X133595238Y-77733390D02*
X133404762Y-77733390D01*
X133404762Y-77733390D02*
X133309524Y-77781009D01*
X133309524Y-77781009D02*
X133261905Y-77828628D01*
X133261905Y-77828628D02*
X133214286Y-77923866D01*
X133214286Y-77923866D02*
X133214286Y-78114342D01*
X133214286Y-78114342D02*
X133261905Y-78209580D01*
X133261905Y-78209580D02*
X133309524Y-78257200D01*
X133309524Y-78257200D02*
X133404762Y-78304819D01*
X133404762Y-78304819D02*
X133595238Y-78304819D01*
X133595238Y-78304819D02*
X133690476Y-78257200D01*
X133690476Y-78257200D02*
X133738095Y-78209580D01*
X133738095Y-78209580D02*
X133785714Y-78114342D01*
X133785714Y-78114342D02*
X133785714Y-77923866D01*
X133785714Y-77923866D02*
X133738095Y-77828628D01*
X133738095Y-77828628D02*
X133690476Y-77781009D01*
X133690476Y-77781009D02*
X133595238Y-77733390D01*
X158738095Y-135354819D02*
X158738095Y-136164342D01*
X158738095Y-136164342D02*
X158785714Y-136259580D01*
X158785714Y-136259580D02*
X158833333Y-136307200D01*
X158833333Y-136307200D02*
X158928571Y-136354819D01*
X158928571Y-136354819D02*
X159119047Y-136354819D01*
X159119047Y-136354819D02*
X159214285Y-136307200D01*
X159214285Y-136307200D02*
X159261904Y-136259580D01*
X159261904Y-136259580D02*
X159309523Y-136164342D01*
X159309523Y-136164342D02*
X159309523Y-135354819D01*
X159690476Y-135354819D02*
X160309523Y-135354819D01*
X160309523Y-135354819D02*
X159976190Y-135735771D01*
X159976190Y-135735771D02*
X160119047Y-135735771D01*
X160119047Y-135735771D02*
X160214285Y-135783390D01*
X160214285Y-135783390D02*
X160261904Y-135831009D01*
X160261904Y-135831009D02*
X160309523Y-135926247D01*
X160309523Y-135926247D02*
X160309523Y-136164342D01*
X160309523Y-136164342D02*
X160261904Y-136259580D01*
X160261904Y-136259580D02*
X160214285Y-136307200D01*
X160214285Y-136307200D02*
X160119047Y-136354819D01*
X160119047Y-136354819D02*
X159833333Y-136354819D01*
X159833333Y-136354819D02*
X159738095Y-136307200D01*
X159738095Y-136307200D02*
X159690476Y-136259580D01*
X162679580Y-135166666D02*
X162727200Y-135214285D01*
X162727200Y-135214285D02*
X162774819Y-135357142D01*
X162774819Y-135357142D02*
X162774819Y-135452380D01*
X162774819Y-135452380D02*
X162727200Y-135595237D01*
X162727200Y-135595237D02*
X162631961Y-135690475D01*
X162631961Y-135690475D02*
X162536723Y-135738094D01*
X162536723Y-135738094D02*
X162346247Y-135785713D01*
X162346247Y-135785713D02*
X162203390Y-135785713D01*
X162203390Y-135785713D02*
X162012914Y-135738094D01*
X162012914Y-135738094D02*
X161917676Y-135690475D01*
X161917676Y-135690475D02*
X161822438Y-135595237D01*
X161822438Y-135595237D02*
X161774819Y-135452380D01*
X161774819Y-135452380D02*
X161774819Y-135357142D01*
X161774819Y-135357142D02*
X161822438Y-135214285D01*
X161822438Y-135214285D02*
X161870057Y-135166666D01*
X162203390Y-134595237D02*
X162155771Y-134690475D01*
X162155771Y-134690475D02*
X162108152Y-134738094D01*
X162108152Y-134738094D02*
X162012914Y-134785713D01*
X162012914Y-134785713D02*
X161965295Y-134785713D01*
X161965295Y-134785713D02*
X161870057Y-134738094D01*
X161870057Y-134738094D02*
X161822438Y-134690475D01*
X161822438Y-134690475D02*
X161774819Y-134595237D01*
X161774819Y-134595237D02*
X161774819Y-134404761D01*
X161774819Y-134404761D02*
X161822438Y-134309523D01*
X161822438Y-134309523D02*
X161870057Y-134261904D01*
X161870057Y-134261904D02*
X161965295Y-134214285D01*
X161965295Y-134214285D02*
X162012914Y-134214285D01*
X162012914Y-134214285D02*
X162108152Y-134261904D01*
X162108152Y-134261904D02*
X162155771Y-134309523D01*
X162155771Y-134309523D02*
X162203390Y-134404761D01*
X162203390Y-134404761D02*
X162203390Y-134595237D01*
X162203390Y-134595237D02*
X162251009Y-134690475D01*
X162251009Y-134690475D02*
X162298628Y-134738094D01*
X162298628Y-134738094D02*
X162393866Y-134785713D01*
X162393866Y-134785713D02*
X162584342Y-134785713D01*
X162584342Y-134785713D02*
X162679580Y-134738094D01*
X162679580Y-134738094D02*
X162727200Y-134690475D01*
X162727200Y-134690475D02*
X162774819Y-134595237D01*
X162774819Y-134595237D02*
X162774819Y-134404761D01*
X162774819Y-134404761D02*
X162727200Y-134309523D01*
X162727200Y-134309523D02*
X162679580Y-134261904D01*
X162679580Y-134261904D02*
X162584342Y-134214285D01*
X162584342Y-134214285D02*
X162393866Y-134214285D01*
X162393866Y-134214285D02*
X162298628Y-134261904D01*
X162298628Y-134261904D02*
X162251009Y-134309523D01*
X162251009Y-134309523D02*
X162203390Y-134404761D01*
X152833333Y-137304819D02*
X152500000Y-136828628D01*
X152261905Y-137304819D02*
X152261905Y-136304819D01*
X152261905Y-136304819D02*
X152642857Y-136304819D01*
X152642857Y-136304819D02*
X152738095Y-136352438D01*
X152738095Y-136352438D02*
X152785714Y-136400057D01*
X152785714Y-136400057D02*
X152833333Y-136495295D01*
X152833333Y-136495295D02*
X152833333Y-136638152D01*
X152833333Y-136638152D02*
X152785714Y-136733390D01*
X152785714Y-136733390D02*
X152738095Y-136781009D01*
X152738095Y-136781009D02*
X152642857Y-136828628D01*
X152642857Y-136828628D02*
X152261905Y-136828628D01*
X153166667Y-136304819D02*
X153833333Y-136304819D01*
X153833333Y-136304819D02*
X153404762Y-137304819D01*
X153566847Y-141047685D02*
X153090657Y-141047685D01*
X153090657Y-141047685D02*
X153090657Y-140047685D01*
X153900181Y-140523875D02*
X154233514Y-140523875D01*
X154376371Y-141047685D02*
X153900181Y-141047685D01*
X153900181Y-141047685D02*
X153900181Y-140047685D01*
X153900181Y-140047685D02*
X154376371Y-140047685D01*
X154804943Y-141047685D02*
X154804943Y-140047685D01*
X154804943Y-140047685D02*
X155043038Y-140047685D01*
X155043038Y-140047685D02*
X155185895Y-140095304D01*
X155185895Y-140095304D02*
X155281133Y-140190542D01*
X155281133Y-140190542D02*
X155328752Y-140285780D01*
X155328752Y-140285780D02*
X155376371Y-140476256D01*
X155376371Y-140476256D02*
X155376371Y-140619113D01*
X155376371Y-140619113D02*
X155328752Y-140809589D01*
X155328752Y-140809589D02*
X155281133Y-140904827D01*
X155281133Y-140904827D02*
X155185895Y-141000066D01*
X155185895Y-141000066D02*
X155043038Y-141047685D01*
X155043038Y-141047685D02*
X154804943Y-141047685D01*
X156328752Y-141047685D02*
X155757324Y-141047685D01*
X156043038Y-141047685D02*
X156043038Y-140047685D01*
X156043038Y-140047685D02*
X155947800Y-140190542D01*
X155947800Y-140190542D02*
X155852562Y-140285780D01*
X155852562Y-140285780D02*
X155757324Y-140333399D01*
X162619317Y-138622072D02*
X162143127Y-138622072D01*
X162143127Y-138622072D02*
X162143127Y-137622072D01*
X162952651Y-138098262D02*
X163285984Y-138098262D01*
X163428841Y-138622072D02*
X162952651Y-138622072D01*
X162952651Y-138622072D02*
X162952651Y-137622072D01*
X162952651Y-137622072D02*
X163428841Y-137622072D01*
X163857413Y-138622072D02*
X163857413Y-137622072D01*
X163857413Y-137622072D02*
X164095508Y-137622072D01*
X164095508Y-137622072D02*
X164238365Y-137669691D01*
X164238365Y-137669691D02*
X164333603Y-137764929D01*
X164333603Y-137764929D02*
X164381222Y-137860167D01*
X164381222Y-137860167D02*
X164428841Y-138050643D01*
X164428841Y-138050643D02*
X164428841Y-138193500D01*
X164428841Y-138193500D02*
X164381222Y-138383976D01*
X164381222Y-138383976D02*
X164333603Y-138479214D01*
X164333603Y-138479214D02*
X164238365Y-138574453D01*
X164238365Y-138574453D02*
X164095508Y-138622072D01*
X164095508Y-138622072D02*
X163857413Y-138622072D01*
X164809794Y-137717310D02*
X164857413Y-137669691D01*
X164857413Y-137669691D02*
X164952651Y-137622072D01*
X164952651Y-137622072D02*
X165190746Y-137622072D01*
X165190746Y-137622072D02*
X165285984Y-137669691D01*
X165285984Y-137669691D02*
X165333603Y-137717310D01*
X165333603Y-137717310D02*
X165381222Y-137812548D01*
X165381222Y-137812548D02*
X165381222Y-137907786D01*
X165381222Y-137907786D02*
X165333603Y-138050643D01*
X165333603Y-138050643D02*
X164762175Y-138622072D01*
X164762175Y-138622072D02*
X165381222Y-138622072D01*
X170735453Y-133936177D02*
X170259263Y-133936177D01*
X170259263Y-133936177D02*
X170259263Y-132936177D01*
X171068787Y-133412367D02*
X171402120Y-133412367D01*
X171544977Y-133936177D02*
X171068787Y-133936177D01*
X171068787Y-133936177D02*
X171068787Y-132936177D01*
X171068787Y-132936177D02*
X171544977Y-132936177D01*
X171973549Y-133936177D02*
X171973549Y-132936177D01*
X171973549Y-132936177D02*
X172211644Y-132936177D01*
X172211644Y-132936177D02*
X172354501Y-132983796D01*
X172354501Y-132983796D02*
X172449739Y-133079034D01*
X172449739Y-133079034D02*
X172497358Y-133174272D01*
X172497358Y-133174272D02*
X172544977Y-133364748D01*
X172544977Y-133364748D02*
X172544977Y-133507605D01*
X172544977Y-133507605D02*
X172497358Y-133698081D01*
X172497358Y-133698081D02*
X172449739Y-133793319D01*
X172449739Y-133793319D02*
X172354501Y-133888558D01*
X172354501Y-133888558D02*
X172211644Y-133936177D01*
X172211644Y-133936177D02*
X171973549Y-133936177D01*
X172878311Y-132936177D02*
X173497358Y-132936177D01*
X173497358Y-132936177D02*
X173164025Y-133317129D01*
X173164025Y-133317129D02*
X173306882Y-133317129D01*
X173306882Y-133317129D02*
X173402120Y-133364748D01*
X173402120Y-133364748D02*
X173449739Y-133412367D01*
X173449739Y-133412367D02*
X173497358Y-133507605D01*
X173497358Y-133507605D02*
X173497358Y-133745700D01*
X173497358Y-133745700D02*
X173449739Y-133840938D01*
X173449739Y-133840938D02*
X173402120Y-133888558D01*
X173402120Y-133888558D02*
X173306882Y-133936177D01*
X173306882Y-133936177D02*
X173021168Y-133936177D01*
X173021168Y-133936177D02*
X172925930Y-133888558D01*
X172925930Y-133888558D02*
X172878311Y-133840938D01*
X177362310Y-127309320D02*
X176886120Y-127309320D01*
X176886120Y-127309320D02*
X176886120Y-126309320D01*
X177695644Y-126785510D02*
X178028977Y-126785510D01*
X178171834Y-127309320D02*
X177695644Y-127309320D01*
X177695644Y-127309320D02*
X177695644Y-126309320D01*
X177695644Y-126309320D02*
X178171834Y-126309320D01*
X178600406Y-127309320D02*
X178600406Y-126309320D01*
X178600406Y-126309320D02*
X178838501Y-126309320D01*
X178838501Y-126309320D02*
X178981358Y-126356939D01*
X178981358Y-126356939D02*
X179076596Y-126452177D01*
X179076596Y-126452177D02*
X179124215Y-126547415D01*
X179124215Y-126547415D02*
X179171834Y-126737891D01*
X179171834Y-126737891D02*
X179171834Y-126880748D01*
X179171834Y-126880748D02*
X179124215Y-127071224D01*
X179124215Y-127071224D02*
X179076596Y-127166462D01*
X179076596Y-127166462D02*
X178981358Y-127261701D01*
X178981358Y-127261701D02*
X178838501Y-127309320D01*
X178838501Y-127309320D02*
X178600406Y-127309320D01*
X180028977Y-126642653D02*
X180028977Y-127309320D01*
X179790882Y-126261701D02*
X179552787Y-126975986D01*
X179552787Y-126975986D02*
X180171834Y-126975986D01*
X182048205Y-119193184D02*
X181572015Y-119193184D01*
X181572015Y-119193184D02*
X181572015Y-118193184D01*
X182381539Y-118669374D02*
X182714872Y-118669374D01*
X182857729Y-119193184D02*
X182381539Y-119193184D01*
X182381539Y-119193184D02*
X182381539Y-118193184D01*
X182381539Y-118193184D02*
X182857729Y-118193184D01*
X183286301Y-119193184D02*
X183286301Y-118193184D01*
X183286301Y-118193184D02*
X183524396Y-118193184D01*
X183524396Y-118193184D02*
X183667253Y-118240803D01*
X183667253Y-118240803D02*
X183762491Y-118336041D01*
X183762491Y-118336041D02*
X183810110Y-118431279D01*
X183810110Y-118431279D02*
X183857729Y-118621755D01*
X183857729Y-118621755D02*
X183857729Y-118764612D01*
X183857729Y-118764612D02*
X183810110Y-118955088D01*
X183810110Y-118955088D02*
X183762491Y-119050326D01*
X183762491Y-119050326D02*
X183667253Y-119145565D01*
X183667253Y-119145565D02*
X183524396Y-119193184D01*
X183524396Y-119193184D02*
X183286301Y-119193184D01*
X184762491Y-118193184D02*
X184286301Y-118193184D01*
X184286301Y-118193184D02*
X184238682Y-118669374D01*
X184238682Y-118669374D02*
X184286301Y-118621755D01*
X184286301Y-118621755D02*
X184381539Y-118574136D01*
X184381539Y-118574136D02*
X184619634Y-118574136D01*
X184619634Y-118574136D02*
X184714872Y-118621755D01*
X184714872Y-118621755D02*
X184762491Y-118669374D01*
X184762491Y-118669374D02*
X184810110Y-118764612D01*
X184810110Y-118764612D02*
X184810110Y-119002707D01*
X184810110Y-119002707D02*
X184762491Y-119097945D01*
X184762491Y-119097945D02*
X184714872Y-119145565D01*
X184714872Y-119145565D02*
X184619634Y-119193184D01*
X184619634Y-119193184D02*
X184381539Y-119193184D01*
X184381539Y-119193184D02*
X184286301Y-119145565D01*
X184286301Y-119145565D02*
X184238682Y-119097945D01*
X184473818Y-110140714D02*
X183997628Y-110140714D01*
X183997628Y-110140714D02*
X183997628Y-109140714D01*
X184807152Y-109616904D02*
X185140485Y-109616904D01*
X185283342Y-110140714D02*
X184807152Y-110140714D01*
X184807152Y-110140714D02*
X184807152Y-109140714D01*
X184807152Y-109140714D02*
X185283342Y-109140714D01*
X185711914Y-110140714D02*
X185711914Y-109140714D01*
X185711914Y-109140714D02*
X185950009Y-109140714D01*
X185950009Y-109140714D02*
X186092866Y-109188333D01*
X186092866Y-109188333D02*
X186188104Y-109283571D01*
X186188104Y-109283571D02*
X186235723Y-109378809D01*
X186235723Y-109378809D02*
X186283342Y-109569285D01*
X186283342Y-109569285D02*
X186283342Y-109712142D01*
X186283342Y-109712142D02*
X186235723Y-109902618D01*
X186235723Y-109902618D02*
X186188104Y-109997856D01*
X186188104Y-109997856D02*
X186092866Y-110093095D01*
X186092866Y-110093095D02*
X185950009Y-110140714D01*
X185950009Y-110140714D02*
X185711914Y-110140714D01*
X187140485Y-109140714D02*
X186950009Y-109140714D01*
X186950009Y-109140714D02*
X186854771Y-109188333D01*
X186854771Y-109188333D02*
X186807152Y-109235952D01*
X186807152Y-109235952D02*
X186711914Y-109378809D01*
X186711914Y-109378809D02*
X186664295Y-109569285D01*
X186664295Y-109569285D02*
X186664295Y-109950237D01*
X186664295Y-109950237D02*
X186711914Y-110045475D01*
X186711914Y-110045475D02*
X186759533Y-110093095D01*
X186759533Y-110093095D02*
X186854771Y-110140714D01*
X186854771Y-110140714D02*
X187045247Y-110140714D01*
X187045247Y-110140714D02*
X187140485Y-110093095D01*
X187140485Y-110093095D02*
X187188104Y-110045475D01*
X187188104Y-110045475D02*
X187235723Y-109950237D01*
X187235723Y-109950237D02*
X187235723Y-109712142D01*
X187235723Y-109712142D02*
X187188104Y-109616904D01*
X187188104Y-109616904D02*
X187140485Y-109569285D01*
X187140485Y-109569285D02*
X187045247Y-109521666D01*
X187045247Y-109521666D02*
X186854771Y-109521666D01*
X186854771Y-109521666D02*
X186759533Y-109569285D01*
X186759533Y-109569285D02*
X186711914Y-109616904D01*
X186711914Y-109616904D02*
X186664295Y-109712142D01*
X184473818Y-100768924D02*
X183997628Y-100768924D01*
X183997628Y-100768924D02*
X183997628Y-99768924D01*
X184807152Y-100245114D02*
X185140485Y-100245114D01*
X185283342Y-100768924D02*
X184807152Y-100768924D01*
X184807152Y-100768924D02*
X184807152Y-99768924D01*
X184807152Y-99768924D02*
X185283342Y-99768924D01*
X185711914Y-100768924D02*
X185711914Y-99768924D01*
X185711914Y-99768924D02*
X185950009Y-99768924D01*
X185950009Y-99768924D02*
X186092866Y-99816543D01*
X186092866Y-99816543D02*
X186188104Y-99911781D01*
X186188104Y-99911781D02*
X186235723Y-100007019D01*
X186235723Y-100007019D02*
X186283342Y-100197495D01*
X186283342Y-100197495D02*
X186283342Y-100340352D01*
X186283342Y-100340352D02*
X186235723Y-100530828D01*
X186235723Y-100530828D02*
X186188104Y-100626066D01*
X186188104Y-100626066D02*
X186092866Y-100721305D01*
X186092866Y-100721305D02*
X185950009Y-100768924D01*
X185950009Y-100768924D02*
X185711914Y-100768924D01*
X186616676Y-99768924D02*
X187283342Y-99768924D01*
X187283342Y-99768924D02*
X186854771Y-100768924D01*
X182048205Y-91716454D02*
X181572015Y-91716454D01*
X181572015Y-91716454D02*
X181572015Y-90716454D01*
X182381539Y-91192644D02*
X182714872Y-91192644D01*
X182857729Y-91716454D02*
X182381539Y-91716454D01*
X182381539Y-91716454D02*
X182381539Y-90716454D01*
X182381539Y-90716454D02*
X182857729Y-90716454D01*
X183286301Y-91716454D02*
X183286301Y-90716454D01*
X183286301Y-90716454D02*
X183524396Y-90716454D01*
X183524396Y-90716454D02*
X183667253Y-90764073D01*
X183667253Y-90764073D02*
X183762491Y-90859311D01*
X183762491Y-90859311D02*
X183810110Y-90954549D01*
X183810110Y-90954549D02*
X183857729Y-91145025D01*
X183857729Y-91145025D02*
X183857729Y-91287882D01*
X183857729Y-91287882D02*
X183810110Y-91478358D01*
X183810110Y-91478358D02*
X183762491Y-91573596D01*
X183762491Y-91573596D02*
X183667253Y-91668835D01*
X183667253Y-91668835D02*
X183524396Y-91716454D01*
X183524396Y-91716454D02*
X183286301Y-91716454D01*
X184429158Y-91145025D02*
X184333920Y-91097406D01*
X184333920Y-91097406D02*
X184286301Y-91049787D01*
X184286301Y-91049787D02*
X184238682Y-90954549D01*
X184238682Y-90954549D02*
X184238682Y-90906930D01*
X184238682Y-90906930D02*
X184286301Y-90811692D01*
X184286301Y-90811692D02*
X184333920Y-90764073D01*
X184333920Y-90764073D02*
X184429158Y-90716454D01*
X184429158Y-90716454D02*
X184619634Y-90716454D01*
X184619634Y-90716454D02*
X184714872Y-90764073D01*
X184714872Y-90764073D02*
X184762491Y-90811692D01*
X184762491Y-90811692D02*
X184810110Y-90906930D01*
X184810110Y-90906930D02*
X184810110Y-90954549D01*
X184810110Y-90954549D02*
X184762491Y-91049787D01*
X184762491Y-91049787D02*
X184714872Y-91097406D01*
X184714872Y-91097406D02*
X184619634Y-91145025D01*
X184619634Y-91145025D02*
X184429158Y-91145025D01*
X184429158Y-91145025D02*
X184333920Y-91192644D01*
X184333920Y-91192644D02*
X184286301Y-91240263D01*
X184286301Y-91240263D02*
X184238682Y-91335501D01*
X184238682Y-91335501D02*
X184238682Y-91525977D01*
X184238682Y-91525977D02*
X184286301Y-91621215D01*
X184286301Y-91621215D02*
X184333920Y-91668835D01*
X184333920Y-91668835D02*
X184429158Y-91716454D01*
X184429158Y-91716454D02*
X184619634Y-91716454D01*
X184619634Y-91716454D02*
X184714872Y-91668835D01*
X184714872Y-91668835D02*
X184762491Y-91621215D01*
X184762491Y-91621215D02*
X184810110Y-91525977D01*
X184810110Y-91525977D02*
X184810110Y-91335501D01*
X184810110Y-91335501D02*
X184762491Y-91240263D01*
X184762491Y-91240263D02*
X184714872Y-91192644D01*
X184714872Y-91192644D02*
X184619634Y-91145025D01*
X177362310Y-83600318D02*
X176886120Y-83600318D01*
X176886120Y-83600318D02*
X176886120Y-82600318D01*
X177695644Y-83076508D02*
X178028977Y-83076508D01*
X178171834Y-83600318D02*
X177695644Y-83600318D01*
X177695644Y-83600318D02*
X177695644Y-82600318D01*
X177695644Y-82600318D02*
X178171834Y-82600318D01*
X178600406Y-83600318D02*
X178600406Y-82600318D01*
X178600406Y-82600318D02*
X178838501Y-82600318D01*
X178838501Y-82600318D02*
X178981358Y-82647937D01*
X178981358Y-82647937D02*
X179076596Y-82743175D01*
X179076596Y-82743175D02*
X179124215Y-82838413D01*
X179124215Y-82838413D02*
X179171834Y-83028889D01*
X179171834Y-83028889D02*
X179171834Y-83171746D01*
X179171834Y-83171746D02*
X179124215Y-83362222D01*
X179124215Y-83362222D02*
X179076596Y-83457460D01*
X179076596Y-83457460D02*
X178981358Y-83552699D01*
X178981358Y-83552699D02*
X178838501Y-83600318D01*
X178838501Y-83600318D02*
X178600406Y-83600318D01*
X179648025Y-83600318D02*
X179838501Y-83600318D01*
X179838501Y-83600318D02*
X179933739Y-83552699D01*
X179933739Y-83552699D02*
X179981358Y-83505079D01*
X179981358Y-83505079D02*
X180076596Y-83362222D01*
X180076596Y-83362222D02*
X180124215Y-83171746D01*
X180124215Y-83171746D02*
X180124215Y-82790794D01*
X180124215Y-82790794D02*
X180076596Y-82695556D01*
X180076596Y-82695556D02*
X180028977Y-82647937D01*
X180028977Y-82647937D02*
X179933739Y-82600318D01*
X179933739Y-82600318D02*
X179743263Y-82600318D01*
X179743263Y-82600318D02*
X179648025Y-82647937D01*
X179648025Y-82647937D02*
X179600406Y-82695556D01*
X179600406Y-82695556D02*
X179552787Y-82790794D01*
X179552787Y-82790794D02*
X179552787Y-83028889D01*
X179552787Y-83028889D02*
X179600406Y-83124127D01*
X179600406Y-83124127D02*
X179648025Y-83171746D01*
X179648025Y-83171746D02*
X179743263Y-83219365D01*
X179743263Y-83219365D02*
X179933739Y-83219365D01*
X179933739Y-83219365D02*
X180028977Y-83171746D01*
X180028977Y-83171746D02*
X180076596Y-83124127D01*
X180076596Y-83124127D02*
X180124215Y-83028889D01*
X170259262Y-76973461D02*
X169783072Y-76973461D01*
X169783072Y-76973461D02*
X169783072Y-75973461D01*
X170592596Y-76449651D02*
X170925929Y-76449651D01*
X171068786Y-76973461D02*
X170592596Y-76973461D01*
X170592596Y-76973461D02*
X170592596Y-75973461D01*
X170592596Y-75973461D02*
X171068786Y-75973461D01*
X171497358Y-76973461D02*
X171497358Y-75973461D01*
X171497358Y-75973461D02*
X171735453Y-75973461D01*
X171735453Y-75973461D02*
X171878310Y-76021080D01*
X171878310Y-76021080D02*
X171973548Y-76116318D01*
X171973548Y-76116318D02*
X172021167Y-76211556D01*
X172021167Y-76211556D02*
X172068786Y-76402032D01*
X172068786Y-76402032D02*
X172068786Y-76544889D01*
X172068786Y-76544889D02*
X172021167Y-76735365D01*
X172021167Y-76735365D02*
X171973548Y-76830603D01*
X171973548Y-76830603D02*
X171878310Y-76925842D01*
X171878310Y-76925842D02*
X171735453Y-76973461D01*
X171735453Y-76973461D02*
X171497358Y-76973461D01*
X173021167Y-76973461D02*
X172449739Y-76973461D01*
X172735453Y-76973461D02*
X172735453Y-75973461D01*
X172735453Y-75973461D02*
X172640215Y-76116318D01*
X172640215Y-76116318D02*
X172544977Y-76211556D01*
X172544977Y-76211556D02*
X172449739Y-76259175D01*
X173640215Y-75973461D02*
X173735453Y-75973461D01*
X173735453Y-75973461D02*
X173830691Y-76021080D01*
X173830691Y-76021080D02*
X173878310Y-76068699D01*
X173878310Y-76068699D02*
X173925929Y-76163937D01*
X173925929Y-76163937D02*
X173973548Y-76354413D01*
X173973548Y-76354413D02*
X173973548Y-76592508D01*
X173973548Y-76592508D02*
X173925929Y-76782984D01*
X173925929Y-76782984D02*
X173878310Y-76878222D01*
X173878310Y-76878222D02*
X173830691Y-76925842D01*
X173830691Y-76925842D02*
X173735453Y-76973461D01*
X173735453Y-76973461D02*
X173640215Y-76973461D01*
X173640215Y-76973461D02*
X173544977Y-76925842D01*
X173544977Y-76925842D02*
X173497358Y-76878222D01*
X173497358Y-76878222D02*
X173449739Y-76782984D01*
X173449739Y-76782984D02*
X173402120Y-76592508D01*
X173402120Y-76592508D02*
X173402120Y-76354413D01*
X173402120Y-76354413D02*
X173449739Y-76163937D01*
X173449739Y-76163937D02*
X173497358Y-76068699D01*
X173497358Y-76068699D02*
X173544977Y-76021080D01*
X173544977Y-76021080D02*
X173640215Y-75973461D01*
X162143126Y-72287566D02*
X161666936Y-72287566D01*
X161666936Y-72287566D02*
X161666936Y-71287566D01*
X162476460Y-71763756D02*
X162809793Y-71763756D01*
X162952650Y-72287566D02*
X162476460Y-72287566D01*
X162476460Y-72287566D02*
X162476460Y-71287566D01*
X162476460Y-71287566D02*
X162952650Y-71287566D01*
X163381222Y-72287566D02*
X163381222Y-71287566D01*
X163381222Y-71287566D02*
X163619317Y-71287566D01*
X163619317Y-71287566D02*
X163762174Y-71335185D01*
X163762174Y-71335185D02*
X163857412Y-71430423D01*
X163857412Y-71430423D02*
X163905031Y-71525661D01*
X163905031Y-71525661D02*
X163952650Y-71716137D01*
X163952650Y-71716137D02*
X163952650Y-71858994D01*
X163952650Y-71858994D02*
X163905031Y-72049470D01*
X163905031Y-72049470D02*
X163857412Y-72144708D01*
X163857412Y-72144708D02*
X163762174Y-72239947D01*
X163762174Y-72239947D02*
X163619317Y-72287566D01*
X163619317Y-72287566D02*
X163381222Y-72287566D01*
X164905031Y-72287566D02*
X164333603Y-72287566D01*
X164619317Y-72287566D02*
X164619317Y-71287566D01*
X164619317Y-71287566D02*
X164524079Y-71430423D01*
X164524079Y-71430423D02*
X164428841Y-71525661D01*
X164428841Y-71525661D02*
X164333603Y-71573280D01*
X165857412Y-72287566D02*
X165285984Y-72287566D01*
X165571698Y-72287566D02*
X165571698Y-71287566D01*
X165571698Y-71287566D02*
X165476460Y-71430423D01*
X165476460Y-71430423D02*
X165381222Y-71525661D01*
X165381222Y-71525661D02*
X165285984Y-71573280D01*
X153090656Y-69861953D02*
X152614466Y-69861953D01*
X152614466Y-69861953D02*
X152614466Y-68861953D01*
X153423990Y-69338143D02*
X153757323Y-69338143D01*
X153900180Y-69861953D02*
X153423990Y-69861953D01*
X153423990Y-69861953D02*
X153423990Y-68861953D01*
X153423990Y-68861953D02*
X153900180Y-68861953D01*
X154328752Y-69861953D02*
X154328752Y-68861953D01*
X154328752Y-68861953D02*
X154566847Y-68861953D01*
X154566847Y-68861953D02*
X154709704Y-68909572D01*
X154709704Y-68909572D02*
X154804942Y-69004810D01*
X154804942Y-69004810D02*
X154852561Y-69100048D01*
X154852561Y-69100048D02*
X154900180Y-69290524D01*
X154900180Y-69290524D02*
X154900180Y-69433381D01*
X154900180Y-69433381D02*
X154852561Y-69623857D01*
X154852561Y-69623857D02*
X154804942Y-69719095D01*
X154804942Y-69719095D02*
X154709704Y-69814334D01*
X154709704Y-69814334D02*
X154566847Y-69861953D01*
X154566847Y-69861953D02*
X154328752Y-69861953D01*
X155852561Y-69861953D02*
X155281133Y-69861953D01*
X155566847Y-69861953D02*
X155566847Y-68861953D01*
X155566847Y-68861953D02*
X155471609Y-69004810D01*
X155471609Y-69004810D02*
X155376371Y-69100048D01*
X155376371Y-69100048D02*
X155281133Y-69147667D01*
X156233514Y-68957191D02*
X156281133Y-68909572D01*
X156281133Y-68909572D02*
X156376371Y-68861953D01*
X156376371Y-68861953D02*
X156614466Y-68861953D01*
X156614466Y-68861953D02*
X156709704Y-68909572D01*
X156709704Y-68909572D02*
X156757323Y-68957191D01*
X156757323Y-68957191D02*
X156804942Y-69052429D01*
X156804942Y-69052429D02*
X156804942Y-69147667D01*
X156804942Y-69147667D02*
X156757323Y-69290524D01*
X156757323Y-69290524D02*
X156185895Y-69861953D01*
X156185895Y-69861953D02*
X156804942Y-69861953D01*
X143718866Y-69861953D02*
X143242676Y-69861953D01*
X143242676Y-69861953D02*
X143242676Y-68861953D01*
X144052200Y-69338143D02*
X144385533Y-69338143D01*
X144528390Y-69861953D02*
X144052200Y-69861953D01*
X144052200Y-69861953D02*
X144052200Y-68861953D01*
X144052200Y-68861953D02*
X144528390Y-68861953D01*
X144956962Y-69861953D02*
X144956962Y-68861953D01*
X144956962Y-68861953D02*
X145195057Y-68861953D01*
X145195057Y-68861953D02*
X145337914Y-68909572D01*
X145337914Y-68909572D02*
X145433152Y-69004810D01*
X145433152Y-69004810D02*
X145480771Y-69100048D01*
X145480771Y-69100048D02*
X145528390Y-69290524D01*
X145528390Y-69290524D02*
X145528390Y-69433381D01*
X145528390Y-69433381D02*
X145480771Y-69623857D01*
X145480771Y-69623857D02*
X145433152Y-69719095D01*
X145433152Y-69719095D02*
X145337914Y-69814334D01*
X145337914Y-69814334D02*
X145195057Y-69861953D01*
X145195057Y-69861953D02*
X144956962Y-69861953D01*
X146480771Y-69861953D02*
X145909343Y-69861953D01*
X146195057Y-69861953D02*
X146195057Y-68861953D01*
X146195057Y-68861953D02*
X146099819Y-69004810D01*
X146099819Y-69004810D02*
X146004581Y-69100048D01*
X146004581Y-69100048D02*
X145909343Y-69147667D01*
X146814105Y-68861953D02*
X147433152Y-68861953D01*
X147433152Y-68861953D02*
X147099819Y-69242905D01*
X147099819Y-69242905D02*
X147242676Y-69242905D01*
X147242676Y-69242905D02*
X147337914Y-69290524D01*
X147337914Y-69290524D02*
X147385533Y-69338143D01*
X147385533Y-69338143D02*
X147433152Y-69433381D01*
X147433152Y-69433381D02*
X147433152Y-69671476D01*
X147433152Y-69671476D02*
X147385533Y-69766714D01*
X147385533Y-69766714D02*
X147337914Y-69814334D01*
X147337914Y-69814334D02*
X147242676Y-69861953D01*
X147242676Y-69861953D02*
X146956962Y-69861953D01*
X146956962Y-69861953D02*
X146861724Y-69814334D01*
X146861724Y-69814334D02*
X146814105Y-69766714D01*
X134666396Y-72287566D02*
X134190206Y-72287566D01*
X134190206Y-72287566D02*
X134190206Y-71287566D01*
X134999730Y-71763756D02*
X135333063Y-71763756D01*
X135475920Y-72287566D02*
X134999730Y-72287566D01*
X134999730Y-72287566D02*
X134999730Y-71287566D01*
X134999730Y-71287566D02*
X135475920Y-71287566D01*
X135904492Y-72287566D02*
X135904492Y-71287566D01*
X135904492Y-71287566D02*
X136142587Y-71287566D01*
X136142587Y-71287566D02*
X136285444Y-71335185D01*
X136285444Y-71335185D02*
X136380682Y-71430423D01*
X136380682Y-71430423D02*
X136428301Y-71525661D01*
X136428301Y-71525661D02*
X136475920Y-71716137D01*
X136475920Y-71716137D02*
X136475920Y-71858994D01*
X136475920Y-71858994D02*
X136428301Y-72049470D01*
X136428301Y-72049470D02*
X136380682Y-72144708D01*
X136380682Y-72144708D02*
X136285444Y-72239947D01*
X136285444Y-72239947D02*
X136142587Y-72287566D01*
X136142587Y-72287566D02*
X135904492Y-72287566D01*
X137428301Y-72287566D02*
X136856873Y-72287566D01*
X137142587Y-72287566D02*
X137142587Y-71287566D01*
X137142587Y-71287566D02*
X137047349Y-71430423D01*
X137047349Y-71430423D02*
X136952111Y-71525661D01*
X136952111Y-71525661D02*
X136856873Y-71573280D01*
X138285444Y-71620899D02*
X138285444Y-72287566D01*
X138047349Y-71239947D02*
X137809254Y-71954232D01*
X137809254Y-71954232D02*
X138428301Y-71954232D01*
X126550260Y-76973461D02*
X126074070Y-76973461D01*
X126074070Y-76973461D02*
X126074070Y-75973461D01*
X126883594Y-76449651D02*
X127216927Y-76449651D01*
X127359784Y-76973461D02*
X126883594Y-76973461D01*
X126883594Y-76973461D02*
X126883594Y-75973461D01*
X126883594Y-75973461D02*
X127359784Y-75973461D01*
X127788356Y-76973461D02*
X127788356Y-75973461D01*
X127788356Y-75973461D02*
X128026451Y-75973461D01*
X128026451Y-75973461D02*
X128169308Y-76021080D01*
X128169308Y-76021080D02*
X128264546Y-76116318D01*
X128264546Y-76116318D02*
X128312165Y-76211556D01*
X128312165Y-76211556D02*
X128359784Y-76402032D01*
X128359784Y-76402032D02*
X128359784Y-76544889D01*
X128359784Y-76544889D02*
X128312165Y-76735365D01*
X128312165Y-76735365D02*
X128264546Y-76830603D01*
X128264546Y-76830603D02*
X128169308Y-76925842D01*
X128169308Y-76925842D02*
X128026451Y-76973461D01*
X128026451Y-76973461D02*
X127788356Y-76973461D01*
X129312165Y-76973461D02*
X128740737Y-76973461D01*
X129026451Y-76973461D02*
X129026451Y-75973461D01*
X129026451Y-75973461D02*
X128931213Y-76116318D01*
X128931213Y-76116318D02*
X128835975Y-76211556D01*
X128835975Y-76211556D02*
X128740737Y-76259175D01*
X130216927Y-75973461D02*
X129740737Y-75973461D01*
X129740737Y-75973461D02*
X129693118Y-76449651D01*
X129693118Y-76449651D02*
X129740737Y-76402032D01*
X129740737Y-76402032D02*
X129835975Y-76354413D01*
X129835975Y-76354413D02*
X130074070Y-76354413D01*
X130074070Y-76354413D02*
X130169308Y-76402032D01*
X130169308Y-76402032D02*
X130216927Y-76449651D01*
X130216927Y-76449651D02*
X130264546Y-76544889D01*
X130264546Y-76544889D02*
X130264546Y-76782984D01*
X130264546Y-76782984D02*
X130216927Y-76878222D01*
X130216927Y-76878222D02*
X130169308Y-76925842D01*
X130169308Y-76925842D02*
X130074070Y-76973461D01*
X130074070Y-76973461D02*
X129835975Y-76973461D01*
X129835975Y-76973461D02*
X129740737Y-76925842D01*
X129740737Y-76925842D02*
X129693118Y-76878222D01*
X119923403Y-83600318D02*
X119447213Y-83600318D01*
X119447213Y-83600318D02*
X119447213Y-82600318D01*
X120256737Y-83076508D02*
X120590070Y-83076508D01*
X120732927Y-83600318D02*
X120256737Y-83600318D01*
X120256737Y-83600318D02*
X120256737Y-82600318D01*
X120256737Y-82600318D02*
X120732927Y-82600318D01*
X121161499Y-83600318D02*
X121161499Y-82600318D01*
X121161499Y-82600318D02*
X121399594Y-82600318D01*
X121399594Y-82600318D02*
X121542451Y-82647937D01*
X121542451Y-82647937D02*
X121637689Y-82743175D01*
X121637689Y-82743175D02*
X121685308Y-82838413D01*
X121685308Y-82838413D02*
X121732927Y-83028889D01*
X121732927Y-83028889D02*
X121732927Y-83171746D01*
X121732927Y-83171746D02*
X121685308Y-83362222D01*
X121685308Y-83362222D02*
X121637689Y-83457460D01*
X121637689Y-83457460D02*
X121542451Y-83552699D01*
X121542451Y-83552699D02*
X121399594Y-83600318D01*
X121399594Y-83600318D02*
X121161499Y-83600318D01*
X122685308Y-83600318D02*
X122113880Y-83600318D01*
X122399594Y-83600318D02*
X122399594Y-82600318D01*
X122399594Y-82600318D02*
X122304356Y-82743175D01*
X122304356Y-82743175D02*
X122209118Y-82838413D01*
X122209118Y-82838413D02*
X122113880Y-82886032D01*
X123542451Y-82600318D02*
X123351975Y-82600318D01*
X123351975Y-82600318D02*
X123256737Y-82647937D01*
X123256737Y-82647937D02*
X123209118Y-82695556D01*
X123209118Y-82695556D02*
X123113880Y-82838413D01*
X123113880Y-82838413D02*
X123066261Y-83028889D01*
X123066261Y-83028889D02*
X123066261Y-83409841D01*
X123066261Y-83409841D02*
X123113880Y-83505079D01*
X123113880Y-83505079D02*
X123161499Y-83552699D01*
X123161499Y-83552699D02*
X123256737Y-83600318D01*
X123256737Y-83600318D02*
X123447213Y-83600318D01*
X123447213Y-83600318D02*
X123542451Y-83552699D01*
X123542451Y-83552699D02*
X123590070Y-83505079D01*
X123590070Y-83505079D02*
X123637689Y-83409841D01*
X123637689Y-83409841D02*
X123637689Y-83171746D01*
X123637689Y-83171746D02*
X123590070Y-83076508D01*
X123590070Y-83076508D02*
X123542451Y-83028889D01*
X123542451Y-83028889D02*
X123447213Y-82981270D01*
X123447213Y-82981270D02*
X123256737Y-82981270D01*
X123256737Y-82981270D02*
X123161499Y-83028889D01*
X123161499Y-83028889D02*
X123113880Y-83076508D01*
X123113880Y-83076508D02*
X123066261Y-83171746D01*
X115237508Y-91716454D02*
X114761318Y-91716454D01*
X114761318Y-91716454D02*
X114761318Y-90716454D01*
X115570842Y-91192644D02*
X115904175Y-91192644D01*
X116047032Y-91716454D02*
X115570842Y-91716454D01*
X115570842Y-91716454D02*
X115570842Y-90716454D01*
X115570842Y-90716454D02*
X116047032Y-90716454D01*
X116475604Y-91716454D02*
X116475604Y-90716454D01*
X116475604Y-90716454D02*
X116713699Y-90716454D01*
X116713699Y-90716454D02*
X116856556Y-90764073D01*
X116856556Y-90764073D02*
X116951794Y-90859311D01*
X116951794Y-90859311D02*
X116999413Y-90954549D01*
X116999413Y-90954549D02*
X117047032Y-91145025D01*
X117047032Y-91145025D02*
X117047032Y-91287882D01*
X117047032Y-91287882D02*
X116999413Y-91478358D01*
X116999413Y-91478358D02*
X116951794Y-91573596D01*
X116951794Y-91573596D02*
X116856556Y-91668835D01*
X116856556Y-91668835D02*
X116713699Y-91716454D01*
X116713699Y-91716454D02*
X116475604Y-91716454D01*
X117999413Y-91716454D02*
X117427985Y-91716454D01*
X117713699Y-91716454D02*
X117713699Y-90716454D01*
X117713699Y-90716454D02*
X117618461Y-90859311D01*
X117618461Y-90859311D02*
X117523223Y-90954549D01*
X117523223Y-90954549D02*
X117427985Y-91002168D01*
X118332747Y-90716454D02*
X118999413Y-90716454D01*
X118999413Y-90716454D02*
X118570842Y-91716454D01*
X112811895Y-100768924D02*
X112335705Y-100768924D01*
X112335705Y-100768924D02*
X112335705Y-99768924D01*
X113145229Y-100245114D02*
X113478562Y-100245114D01*
X113621419Y-100768924D02*
X113145229Y-100768924D01*
X113145229Y-100768924D02*
X113145229Y-99768924D01*
X113145229Y-99768924D02*
X113621419Y-99768924D01*
X114049991Y-100768924D02*
X114049991Y-99768924D01*
X114049991Y-99768924D02*
X114288086Y-99768924D01*
X114288086Y-99768924D02*
X114430943Y-99816543D01*
X114430943Y-99816543D02*
X114526181Y-99911781D01*
X114526181Y-99911781D02*
X114573800Y-100007019D01*
X114573800Y-100007019D02*
X114621419Y-100197495D01*
X114621419Y-100197495D02*
X114621419Y-100340352D01*
X114621419Y-100340352D02*
X114573800Y-100530828D01*
X114573800Y-100530828D02*
X114526181Y-100626066D01*
X114526181Y-100626066D02*
X114430943Y-100721305D01*
X114430943Y-100721305D02*
X114288086Y-100768924D01*
X114288086Y-100768924D02*
X114049991Y-100768924D01*
X115573800Y-100768924D02*
X115002372Y-100768924D01*
X115288086Y-100768924D02*
X115288086Y-99768924D01*
X115288086Y-99768924D02*
X115192848Y-99911781D01*
X115192848Y-99911781D02*
X115097610Y-100007019D01*
X115097610Y-100007019D02*
X115002372Y-100054638D01*
X116145229Y-100197495D02*
X116049991Y-100149876D01*
X116049991Y-100149876D02*
X116002372Y-100102257D01*
X116002372Y-100102257D02*
X115954753Y-100007019D01*
X115954753Y-100007019D02*
X115954753Y-99959400D01*
X115954753Y-99959400D02*
X116002372Y-99864162D01*
X116002372Y-99864162D02*
X116049991Y-99816543D01*
X116049991Y-99816543D02*
X116145229Y-99768924D01*
X116145229Y-99768924D02*
X116335705Y-99768924D01*
X116335705Y-99768924D02*
X116430943Y-99816543D01*
X116430943Y-99816543D02*
X116478562Y-99864162D01*
X116478562Y-99864162D02*
X116526181Y-99959400D01*
X116526181Y-99959400D02*
X116526181Y-100007019D01*
X116526181Y-100007019D02*
X116478562Y-100102257D01*
X116478562Y-100102257D02*
X116430943Y-100149876D01*
X116430943Y-100149876D02*
X116335705Y-100197495D01*
X116335705Y-100197495D02*
X116145229Y-100197495D01*
X116145229Y-100197495D02*
X116049991Y-100245114D01*
X116049991Y-100245114D02*
X116002372Y-100292733D01*
X116002372Y-100292733D02*
X115954753Y-100387971D01*
X115954753Y-100387971D02*
X115954753Y-100578447D01*
X115954753Y-100578447D02*
X116002372Y-100673685D01*
X116002372Y-100673685D02*
X116049991Y-100721305D01*
X116049991Y-100721305D02*
X116145229Y-100768924D01*
X116145229Y-100768924D02*
X116335705Y-100768924D01*
X116335705Y-100768924D02*
X116430943Y-100721305D01*
X116430943Y-100721305D02*
X116478562Y-100673685D01*
X116478562Y-100673685D02*
X116526181Y-100578447D01*
X116526181Y-100578447D02*
X116526181Y-100387971D01*
X116526181Y-100387971D02*
X116478562Y-100292733D01*
X116478562Y-100292733D02*
X116430943Y-100245114D01*
X116430943Y-100245114D02*
X116335705Y-100197495D01*
X112811895Y-110140714D02*
X112335705Y-110140714D01*
X112335705Y-110140714D02*
X112335705Y-109140714D01*
X113145229Y-109616904D02*
X113478562Y-109616904D01*
X113621419Y-110140714D02*
X113145229Y-110140714D01*
X113145229Y-110140714D02*
X113145229Y-109140714D01*
X113145229Y-109140714D02*
X113621419Y-109140714D01*
X114049991Y-110140714D02*
X114049991Y-109140714D01*
X114049991Y-109140714D02*
X114288086Y-109140714D01*
X114288086Y-109140714D02*
X114430943Y-109188333D01*
X114430943Y-109188333D02*
X114526181Y-109283571D01*
X114526181Y-109283571D02*
X114573800Y-109378809D01*
X114573800Y-109378809D02*
X114621419Y-109569285D01*
X114621419Y-109569285D02*
X114621419Y-109712142D01*
X114621419Y-109712142D02*
X114573800Y-109902618D01*
X114573800Y-109902618D02*
X114526181Y-109997856D01*
X114526181Y-109997856D02*
X114430943Y-110093095D01*
X114430943Y-110093095D02*
X114288086Y-110140714D01*
X114288086Y-110140714D02*
X114049991Y-110140714D01*
X115573800Y-110140714D02*
X115002372Y-110140714D01*
X115288086Y-110140714D02*
X115288086Y-109140714D01*
X115288086Y-109140714D02*
X115192848Y-109283571D01*
X115192848Y-109283571D02*
X115097610Y-109378809D01*
X115097610Y-109378809D02*
X115002372Y-109426428D01*
X116049991Y-110140714D02*
X116240467Y-110140714D01*
X116240467Y-110140714D02*
X116335705Y-110093095D01*
X116335705Y-110093095D02*
X116383324Y-110045475D01*
X116383324Y-110045475D02*
X116478562Y-109902618D01*
X116478562Y-109902618D02*
X116526181Y-109712142D01*
X116526181Y-109712142D02*
X116526181Y-109331190D01*
X116526181Y-109331190D02*
X116478562Y-109235952D01*
X116478562Y-109235952D02*
X116430943Y-109188333D01*
X116430943Y-109188333D02*
X116335705Y-109140714D01*
X116335705Y-109140714D02*
X116145229Y-109140714D01*
X116145229Y-109140714D02*
X116049991Y-109188333D01*
X116049991Y-109188333D02*
X116002372Y-109235952D01*
X116002372Y-109235952D02*
X115954753Y-109331190D01*
X115954753Y-109331190D02*
X115954753Y-109569285D01*
X115954753Y-109569285D02*
X116002372Y-109664523D01*
X116002372Y-109664523D02*
X116049991Y-109712142D01*
X116049991Y-109712142D02*
X116145229Y-109759761D01*
X116145229Y-109759761D02*
X116335705Y-109759761D01*
X116335705Y-109759761D02*
X116430943Y-109712142D01*
X116430943Y-109712142D02*
X116478562Y-109664523D01*
X116478562Y-109664523D02*
X116526181Y-109569285D01*
X115237508Y-119193184D02*
X114761318Y-119193184D01*
X114761318Y-119193184D02*
X114761318Y-118193184D01*
X115570842Y-118669374D02*
X115904175Y-118669374D01*
X116047032Y-119193184D02*
X115570842Y-119193184D01*
X115570842Y-119193184D02*
X115570842Y-118193184D01*
X115570842Y-118193184D02*
X116047032Y-118193184D01*
X116475604Y-119193184D02*
X116475604Y-118193184D01*
X116475604Y-118193184D02*
X116713699Y-118193184D01*
X116713699Y-118193184D02*
X116856556Y-118240803D01*
X116856556Y-118240803D02*
X116951794Y-118336041D01*
X116951794Y-118336041D02*
X116999413Y-118431279D01*
X116999413Y-118431279D02*
X117047032Y-118621755D01*
X117047032Y-118621755D02*
X117047032Y-118764612D01*
X117047032Y-118764612D02*
X116999413Y-118955088D01*
X116999413Y-118955088D02*
X116951794Y-119050326D01*
X116951794Y-119050326D02*
X116856556Y-119145565D01*
X116856556Y-119145565D02*
X116713699Y-119193184D01*
X116713699Y-119193184D02*
X116475604Y-119193184D01*
X117427985Y-118288422D02*
X117475604Y-118240803D01*
X117475604Y-118240803D02*
X117570842Y-118193184D01*
X117570842Y-118193184D02*
X117808937Y-118193184D01*
X117808937Y-118193184D02*
X117904175Y-118240803D01*
X117904175Y-118240803D02*
X117951794Y-118288422D01*
X117951794Y-118288422D02*
X117999413Y-118383660D01*
X117999413Y-118383660D02*
X117999413Y-118478898D01*
X117999413Y-118478898D02*
X117951794Y-118621755D01*
X117951794Y-118621755D02*
X117380366Y-119193184D01*
X117380366Y-119193184D02*
X117999413Y-119193184D01*
X118618461Y-118193184D02*
X118713699Y-118193184D01*
X118713699Y-118193184D02*
X118808937Y-118240803D01*
X118808937Y-118240803D02*
X118856556Y-118288422D01*
X118856556Y-118288422D02*
X118904175Y-118383660D01*
X118904175Y-118383660D02*
X118951794Y-118574136D01*
X118951794Y-118574136D02*
X118951794Y-118812231D01*
X118951794Y-118812231D02*
X118904175Y-119002707D01*
X118904175Y-119002707D02*
X118856556Y-119097945D01*
X118856556Y-119097945D02*
X118808937Y-119145565D01*
X118808937Y-119145565D02*
X118713699Y-119193184D01*
X118713699Y-119193184D02*
X118618461Y-119193184D01*
X118618461Y-119193184D02*
X118523223Y-119145565D01*
X118523223Y-119145565D02*
X118475604Y-119097945D01*
X118475604Y-119097945D02*
X118427985Y-119002707D01*
X118427985Y-119002707D02*
X118380366Y-118812231D01*
X118380366Y-118812231D02*
X118380366Y-118574136D01*
X118380366Y-118574136D02*
X118427985Y-118383660D01*
X118427985Y-118383660D02*
X118475604Y-118288422D01*
X118475604Y-118288422D02*
X118523223Y-118240803D01*
X118523223Y-118240803D02*
X118618461Y-118193184D01*
X119923403Y-127309320D02*
X119447213Y-127309320D01*
X119447213Y-127309320D02*
X119447213Y-126309320D01*
X120256737Y-126785510D02*
X120590070Y-126785510D01*
X120732927Y-127309320D02*
X120256737Y-127309320D01*
X120256737Y-127309320D02*
X120256737Y-126309320D01*
X120256737Y-126309320D02*
X120732927Y-126309320D01*
X121161499Y-127309320D02*
X121161499Y-126309320D01*
X121161499Y-126309320D02*
X121399594Y-126309320D01*
X121399594Y-126309320D02*
X121542451Y-126356939D01*
X121542451Y-126356939D02*
X121637689Y-126452177D01*
X121637689Y-126452177D02*
X121685308Y-126547415D01*
X121685308Y-126547415D02*
X121732927Y-126737891D01*
X121732927Y-126737891D02*
X121732927Y-126880748D01*
X121732927Y-126880748D02*
X121685308Y-127071224D01*
X121685308Y-127071224D02*
X121637689Y-127166462D01*
X121637689Y-127166462D02*
X121542451Y-127261701D01*
X121542451Y-127261701D02*
X121399594Y-127309320D01*
X121399594Y-127309320D02*
X121161499Y-127309320D01*
X122113880Y-126404558D02*
X122161499Y-126356939D01*
X122161499Y-126356939D02*
X122256737Y-126309320D01*
X122256737Y-126309320D02*
X122494832Y-126309320D01*
X122494832Y-126309320D02*
X122590070Y-126356939D01*
X122590070Y-126356939D02*
X122637689Y-126404558D01*
X122637689Y-126404558D02*
X122685308Y-126499796D01*
X122685308Y-126499796D02*
X122685308Y-126595034D01*
X122685308Y-126595034D02*
X122637689Y-126737891D01*
X122637689Y-126737891D02*
X122066261Y-127309320D01*
X122066261Y-127309320D02*
X122685308Y-127309320D01*
X123637689Y-127309320D02*
X123066261Y-127309320D01*
X123351975Y-127309320D02*
X123351975Y-126309320D01*
X123351975Y-126309320D02*
X123256737Y-126452177D01*
X123256737Y-126452177D02*
X123161499Y-126547415D01*
X123161499Y-126547415D02*
X123066261Y-126595034D01*
X126550260Y-133936177D02*
X126074070Y-133936177D01*
X126074070Y-133936177D02*
X126074070Y-132936177D01*
X126883594Y-133412367D02*
X127216927Y-133412367D01*
X127359784Y-133936177D02*
X126883594Y-133936177D01*
X126883594Y-133936177D02*
X126883594Y-132936177D01*
X126883594Y-132936177D02*
X127359784Y-132936177D01*
X127788356Y-133936177D02*
X127788356Y-132936177D01*
X127788356Y-132936177D02*
X128026451Y-132936177D01*
X128026451Y-132936177D02*
X128169308Y-132983796D01*
X128169308Y-132983796D02*
X128264546Y-133079034D01*
X128264546Y-133079034D02*
X128312165Y-133174272D01*
X128312165Y-133174272D02*
X128359784Y-133364748D01*
X128359784Y-133364748D02*
X128359784Y-133507605D01*
X128359784Y-133507605D02*
X128312165Y-133698081D01*
X128312165Y-133698081D02*
X128264546Y-133793319D01*
X128264546Y-133793319D02*
X128169308Y-133888558D01*
X128169308Y-133888558D02*
X128026451Y-133936177D01*
X128026451Y-133936177D02*
X127788356Y-133936177D01*
X128740737Y-133031415D02*
X128788356Y-132983796D01*
X128788356Y-132983796D02*
X128883594Y-132936177D01*
X128883594Y-132936177D02*
X129121689Y-132936177D01*
X129121689Y-132936177D02*
X129216927Y-132983796D01*
X129216927Y-132983796D02*
X129264546Y-133031415D01*
X129264546Y-133031415D02*
X129312165Y-133126653D01*
X129312165Y-133126653D02*
X129312165Y-133221891D01*
X129312165Y-133221891D02*
X129264546Y-133364748D01*
X129264546Y-133364748D02*
X128693118Y-133936177D01*
X128693118Y-133936177D02*
X129312165Y-133936177D01*
X129693118Y-133031415D02*
X129740737Y-132983796D01*
X129740737Y-132983796D02*
X129835975Y-132936177D01*
X129835975Y-132936177D02*
X130074070Y-132936177D01*
X130074070Y-132936177D02*
X130169308Y-132983796D01*
X130169308Y-132983796D02*
X130216927Y-133031415D01*
X130216927Y-133031415D02*
X130264546Y-133126653D01*
X130264546Y-133126653D02*
X130264546Y-133221891D01*
X130264546Y-133221891D02*
X130216927Y-133364748D01*
X130216927Y-133364748D02*
X129645499Y-133936177D01*
X129645499Y-133936177D02*
X130264546Y-133936177D01*
X134666396Y-138622072D02*
X134190206Y-138622072D01*
X134190206Y-138622072D02*
X134190206Y-137622072D01*
X134999730Y-138098262D02*
X135333063Y-138098262D01*
X135475920Y-138622072D02*
X134999730Y-138622072D01*
X134999730Y-138622072D02*
X134999730Y-137622072D01*
X134999730Y-137622072D02*
X135475920Y-137622072D01*
X135904492Y-138622072D02*
X135904492Y-137622072D01*
X135904492Y-137622072D02*
X136142587Y-137622072D01*
X136142587Y-137622072D02*
X136285444Y-137669691D01*
X136285444Y-137669691D02*
X136380682Y-137764929D01*
X136380682Y-137764929D02*
X136428301Y-137860167D01*
X136428301Y-137860167D02*
X136475920Y-138050643D01*
X136475920Y-138050643D02*
X136475920Y-138193500D01*
X136475920Y-138193500D02*
X136428301Y-138383976D01*
X136428301Y-138383976D02*
X136380682Y-138479214D01*
X136380682Y-138479214D02*
X136285444Y-138574453D01*
X136285444Y-138574453D02*
X136142587Y-138622072D01*
X136142587Y-138622072D02*
X135904492Y-138622072D01*
X136856873Y-137717310D02*
X136904492Y-137669691D01*
X136904492Y-137669691D02*
X136999730Y-137622072D01*
X136999730Y-137622072D02*
X137237825Y-137622072D01*
X137237825Y-137622072D02*
X137333063Y-137669691D01*
X137333063Y-137669691D02*
X137380682Y-137717310D01*
X137380682Y-137717310D02*
X137428301Y-137812548D01*
X137428301Y-137812548D02*
X137428301Y-137907786D01*
X137428301Y-137907786D02*
X137380682Y-138050643D01*
X137380682Y-138050643D02*
X136809254Y-138622072D01*
X136809254Y-138622072D02*
X137428301Y-138622072D01*
X137761635Y-137622072D02*
X138380682Y-137622072D01*
X138380682Y-137622072D02*
X138047349Y-138003024D01*
X138047349Y-138003024D02*
X138190206Y-138003024D01*
X138190206Y-138003024D02*
X138285444Y-138050643D01*
X138285444Y-138050643D02*
X138333063Y-138098262D01*
X138333063Y-138098262D02*
X138380682Y-138193500D01*
X138380682Y-138193500D02*
X138380682Y-138431595D01*
X138380682Y-138431595D02*
X138333063Y-138526833D01*
X138333063Y-138526833D02*
X138285444Y-138574453D01*
X138285444Y-138574453D02*
X138190206Y-138622072D01*
X138190206Y-138622072D02*
X137904492Y-138622072D01*
X137904492Y-138622072D02*
X137809254Y-138574453D01*
X137809254Y-138574453D02*
X137761635Y-138526833D01*
X143718866Y-141047685D02*
X143242676Y-141047685D01*
X143242676Y-141047685D02*
X143242676Y-140047685D01*
X144052200Y-140523875D02*
X144385533Y-140523875D01*
X144528390Y-141047685D02*
X144052200Y-141047685D01*
X144052200Y-141047685D02*
X144052200Y-140047685D01*
X144052200Y-140047685D02*
X144528390Y-140047685D01*
X144956962Y-141047685D02*
X144956962Y-140047685D01*
X144956962Y-140047685D02*
X145195057Y-140047685D01*
X145195057Y-140047685D02*
X145337914Y-140095304D01*
X145337914Y-140095304D02*
X145433152Y-140190542D01*
X145433152Y-140190542D02*
X145480771Y-140285780D01*
X145480771Y-140285780D02*
X145528390Y-140476256D01*
X145528390Y-140476256D02*
X145528390Y-140619113D01*
X145528390Y-140619113D02*
X145480771Y-140809589D01*
X145480771Y-140809589D02*
X145433152Y-140904827D01*
X145433152Y-140904827D02*
X145337914Y-141000066D01*
X145337914Y-141000066D02*
X145195057Y-141047685D01*
X145195057Y-141047685D02*
X144956962Y-141047685D01*
X145909343Y-140142923D02*
X145956962Y-140095304D01*
X145956962Y-140095304D02*
X146052200Y-140047685D01*
X146052200Y-140047685D02*
X146290295Y-140047685D01*
X146290295Y-140047685D02*
X146385533Y-140095304D01*
X146385533Y-140095304D02*
X146433152Y-140142923D01*
X146433152Y-140142923D02*
X146480771Y-140238161D01*
X146480771Y-140238161D02*
X146480771Y-140333399D01*
X146480771Y-140333399D02*
X146433152Y-140476256D01*
X146433152Y-140476256D02*
X145861724Y-141047685D01*
X145861724Y-141047685D02*
X146480771Y-141047685D01*
X147337914Y-140381018D02*
X147337914Y-141047685D01*
X147099819Y-140000066D02*
X146861724Y-140714351D01*
X146861724Y-140714351D02*
X147480771Y-140714351D01*
X156403854Y-144768505D02*
X156356235Y-144816125D01*
X156356235Y-144816125D02*
X156213378Y-144863744D01*
X156213378Y-144863744D02*
X156118140Y-144863744D01*
X156118140Y-144863744D02*
X155975283Y-144816125D01*
X155975283Y-144816125D02*
X155880045Y-144720886D01*
X155880045Y-144720886D02*
X155832426Y-144625648D01*
X155832426Y-144625648D02*
X155784807Y-144435172D01*
X155784807Y-144435172D02*
X155784807Y-144292315D01*
X155784807Y-144292315D02*
X155832426Y-144101839D01*
X155832426Y-144101839D02*
X155880045Y-144006601D01*
X155880045Y-144006601D02*
X155975283Y-143911363D01*
X155975283Y-143911363D02*
X156118140Y-143863744D01*
X156118140Y-143863744D02*
X156213378Y-143863744D01*
X156213378Y-143863744D02*
X156356235Y-143911363D01*
X156356235Y-143911363D02*
X156403854Y-143958982D01*
X157356235Y-144863744D02*
X156784807Y-144863744D01*
X157070521Y-144863744D02*
X157070521Y-143863744D01*
X157070521Y-143863744D02*
X156975283Y-144006601D01*
X156975283Y-144006601D02*
X156880045Y-144101839D01*
X156880045Y-144101839D02*
X156784807Y-144149458D01*
X157975283Y-143863744D02*
X158070521Y-143863744D01*
X158070521Y-143863744D02*
X158165759Y-143911363D01*
X158165759Y-143911363D02*
X158213378Y-143958982D01*
X158213378Y-143958982D02*
X158260997Y-144054220D01*
X158260997Y-144054220D02*
X158308616Y-144244696D01*
X158308616Y-144244696D02*
X158308616Y-144482791D01*
X158308616Y-144482791D02*
X158260997Y-144673267D01*
X158260997Y-144673267D02*
X158213378Y-144768505D01*
X158213378Y-144768505D02*
X158165759Y-144816125D01*
X158165759Y-144816125D02*
X158070521Y-144863744D01*
X158070521Y-144863744D02*
X157975283Y-144863744D01*
X157975283Y-144863744D02*
X157880045Y-144816125D01*
X157880045Y-144816125D02*
X157832426Y-144768505D01*
X157832426Y-144768505D02*
X157784807Y-144673267D01*
X157784807Y-144673267D02*
X157737188Y-144482791D01*
X157737188Y-144482791D02*
X157737188Y-144244696D01*
X157737188Y-144244696D02*
X157784807Y-144054220D01*
X157784807Y-144054220D02*
X157832426Y-143958982D01*
X157832426Y-143958982D02*
X157880045Y-143911363D01*
X157880045Y-143911363D02*
X157975283Y-143863744D01*
X166363474Y-141601865D02*
X166315855Y-141649485D01*
X166315855Y-141649485D02*
X166172998Y-141697104D01*
X166172998Y-141697104D02*
X166077760Y-141697104D01*
X166077760Y-141697104D02*
X165934903Y-141649485D01*
X165934903Y-141649485D02*
X165839665Y-141554246D01*
X165839665Y-141554246D02*
X165792046Y-141459008D01*
X165792046Y-141459008D02*
X165744427Y-141268532D01*
X165744427Y-141268532D02*
X165744427Y-141125675D01*
X165744427Y-141125675D02*
X165792046Y-140935199D01*
X165792046Y-140935199D02*
X165839665Y-140839961D01*
X165839665Y-140839961D02*
X165934903Y-140744723D01*
X165934903Y-140744723D02*
X166077760Y-140697104D01*
X166077760Y-140697104D02*
X166172998Y-140697104D01*
X166172998Y-140697104D02*
X166315855Y-140744723D01*
X166315855Y-140744723D02*
X166363474Y-140792342D01*
X167315855Y-141697104D02*
X166744427Y-141697104D01*
X167030141Y-141697104D02*
X167030141Y-140697104D01*
X167030141Y-140697104D02*
X166934903Y-140839961D01*
X166934903Y-140839961D02*
X166839665Y-140935199D01*
X166839665Y-140935199D02*
X166744427Y-140982818D01*
X168268236Y-141697104D02*
X167696808Y-141697104D01*
X167982522Y-141697104D02*
X167982522Y-140697104D01*
X167982522Y-140697104D02*
X167887284Y-140839961D01*
X167887284Y-140839961D02*
X167792046Y-140935199D01*
X167792046Y-140935199D02*
X167696808Y-140982818D01*
X175164234Y-135965404D02*
X175116615Y-136013024D01*
X175116615Y-136013024D02*
X174973758Y-136060643D01*
X174973758Y-136060643D02*
X174878520Y-136060643D01*
X174878520Y-136060643D02*
X174735663Y-136013024D01*
X174735663Y-136013024D02*
X174640425Y-135917785D01*
X174640425Y-135917785D02*
X174592806Y-135822547D01*
X174592806Y-135822547D02*
X174545187Y-135632071D01*
X174545187Y-135632071D02*
X174545187Y-135489214D01*
X174545187Y-135489214D02*
X174592806Y-135298738D01*
X174592806Y-135298738D02*
X174640425Y-135203500D01*
X174640425Y-135203500D02*
X174735663Y-135108262D01*
X174735663Y-135108262D02*
X174878520Y-135060643D01*
X174878520Y-135060643D02*
X174973758Y-135060643D01*
X174973758Y-135060643D02*
X175116615Y-135108262D01*
X175116615Y-135108262D02*
X175164234Y-135155881D01*
X176116615Y-136060643D02*
X175545187Y-136060643D01*
X175830901Y-136060643D02*
X175830901Y-135060643D01*
X175830901Y-135060643D02*
X175735663Y-135203500D01*
X175735663Y-135203500D02*
X175640425Y-135298738D01*
X175640425Y-135298738D02*
X175545187Y-135346357D01*
X176497568Y-135155881D02*
X176545187Y-135108262D01*
X176545187Y-135108262D02*
X176640425Y-135060643D01*
X176640425Y-135060643D02*
X176878520Y-135060643D01*
X176878520Y-135060643D02*
X176973758Y-135108262D01*
X176973758Y-135108262D02*
X177021377Y-135155881D01*
X177021377Y-135155881D02*
X177068996Y-135251119D01*
X177068996Y-135251119D02*
X177068996Y-135346357D01*
X177068996Y-135346357D02*
X177021377Y-135489214D01*
X177021377Y-135489214D02*
X176449949Y-136060643D01*
X176449949Y-136060643D02*
X177068996Y-136060643D01*
X182206298Y-128243176D02*
X182158679Y-128290796D01*
X182158679Y-128290796D02*
X182015822Y-128338415D01*
X182015822Y-128338415D02*
X181920584Y-128338415D01*
X181920584Y-128338415D02*
X181777727Y-128290796D01*
X181777727Y-128290796D02*
X181682489Y-128195557D01*
X181682489Y-128195557D02*
X181634870Y-128100319D01*
X181634870Y-128100319D02*
X181587251Y-127909843D01*
X181587251Y-127909843D02*
X181587251Y-127766986D01*
X181587251Y-127766986D02*
X181634870Y-127576510D01*
X181634870Y-127576510D02*
X181682489Y-127481272D01*
X181682489Y-127481272D02*
X181777727Y-127386034D01*
X181777727Y-127386034D02*
X181920584Y-127338415D01*
X181920584Y-127338415D02*
X182015822Y-127338415D01*
X182015822Y-127338415D02*
X182158679Y-127386034D01*
X182158679Y-127386034D02*
X182206298Y-127433653D01*
X183158679Y-128338415D02*
X182587251Y-128338415D01*
X182872965Y-128338415D02*
X182872965Y-127338415D01*
X182872965Y-127338415D02*
X182777727Y-127481272D01*
X182777727Y-127481272D02*
X182682489Y-127576510D01*
X182682489Y-127576510D02*
X182587251Y-127624129D01*
X183492013Y-127338415D02*
X184111060Y-127338415D01*
X184111060Y-127338415D02*
X183777727Y-127719367D01*
X183777727Y-127719367D02*
X183920584Y-127719367D01*
X183920584Y-127719367D02*
X184015822Y-127766986D01*
X184015822Y-127766986D02*
X184063441Y-127814605D01*
X184063441Y-127814605D02*
X184111060Y-127909843D01*
X184111060Y-127909843D02*
X184111060Y-128147938D01*
X184111060Y-128147938D02*
X184063441Y-128243176D01*
X184063441Y-128243176D02*
X184015822Y-128290796D01*
X184015822Y-128290796D02*
X183920584Y-128338415D01*
X183920584Y-128338415D02*
X183634870Y-128338415D01*
X183634870Y-128338415D02*
X183539632Y-128290796D01*
X183539632Y-128290796D02*
X183492013Y-128243176D01*
X187009677Y-118961413D02*
X186962058Y-119009033D01*
X186962058Y-119009033D02*
X186819201Y-119056652D01*
X186819201Y-119056652D02*
X186723963Y-119056652D01*
X186723963Y-119056652D02*
X186581106Y-119009033D01*
X186581106Y-119009033D02*
X186485868Y-118913794D01*
X186485868Y-118913794D02*
X186438249Y-118818556D01*
X186438249Y-118818556D02*
X186390630Y-118628080D01*
X186390630Y-118628080D02*
X186390630Y-118485223D01*
X186390630Y-118485223D02*
X186438249Y-118294747D01*
X186438249Y-118294747D02*
X186485868Y-118199509D01*
X186485868Y-118199509D02*
X186581106Y-118104271D01*
X186581106Y-118104271D02*
X186723963Y-118056652D01*
X186723963Y-118056652D02*
X186819201Y-118056652D01*
X186819201Y-118056652D02*
X186962058Y-118104271D01*
X186962058Y-118104271D02*
X187009677Y-118151890D01*
X187962058Y-119056652D02*
X187390630Y-119056652D01*
X187676344Y-119056652D02*
X187676344Y-118056652D01*
X187676344Y-118056652D02*
X187581106Y-118199509D01*
X187581106Y-118199509D02*
X187485868Y-118294747D01*
X187485868Y-118294747D02*
X187390630Y-118342366D01*
X188819201Y-118389985D02*
X188819201Y-119056652D01*
X188581106Y-118009033D02*
X188343011Y-118723318D01*
X188343011Y-118723318D02*
X188962058Y-118723318D01*
X189247070Y-108752810D02*
X189199451Y-108800430D01*
X189199451Y-108800430D02*
X189056594Y-108848049D01*
X189056594Y-108848049D02*
X188961356Y-108848049D01*
X188961356Y-108848049D02*
X188818499Y-108800430D01*
X188818499Y-108800430D02*
X188723261Y-108705191D01*
X188723261Y-108705191D02*
X188675642Y-108609953D01*
X188675642Y-108609953D02*
X188628023Y-108419477D01*
X188628023Y-108419477D02*
X188628023Y-108276620D01*
X188628023Y-108276620D02*
X188675642Y-108086144D01*
X188675642Y-108086144D02*
X188723261Y-107990906D01*
X188723261Y-107990906D02*
X188818499Y-107895668D01*
X188818499Y-107895668D02*
X188961356Y-107848049D01*
X188961356Y-107848049D02*
X189056594Y-107848049D01*
X189056594Y-107848049D02*
X189199451Y-107895668D01*
X189199451Y-107895668D02*
X189247070Y-107943287D01*
X190199451Y-108848049D02*
X189628023Y-108848049D01*
X189913737Y-108848049D02*
X189913737Y-107848049D01*
X189913737Y-107848049D02*
X189818499Y-107990906D01*
X189818499Y-107990906D02*
X189723261Y-108086144D01*
X189723261Y-108086144D02*
X189628023Y-108133763D01*
X191104213Y-107848049D02*
X190628023Y-107848049D01*
X190628023Y-107848049D02*
X190580404Y-108324239D01*
X190580404Y-108324239D02*
X190628023Y-108276620D01*
X190628023Y-108276620D02*
X190723261Y-108229001D01*
X190723261Y-108229001D02*
X190961356Y-108229001D01*
X190961356Y-108229001D02*
X191056594Y-108276620D01*
X191056594Y-108276620D02*
X191104213Y-108324239D01*
X191104213Y-108324239D02*
X191151832Y-108419477D01*
X191151832Y-108419477D02*
X191151832Y-108657572D01*
X191151832Y-108657572D02*
X191104213Y-108752810D01*
X191104213Y-108752810D02*
X191056594Y-108800430D01*
X191056594Y-108800430D02*
X190961356Y-108848049D01*
X190961356Y-108848049D02*
X190723261Y-108848049D01*
X190723261Y-108848049D02*
X190628023Y-108800430D01*
X190628023Y-108800430D02*
X190580404Y-108752810D01*
X188766067Y-98312868D02*
X188718448Y-98360488D01*
X188718448Y-98360488D02*
X188575591Y-98408107D01*
X188575591Y-98408107D02*
X188480353Y-98408107D01*
X188480353Y-98408107D02*
X188337496Y-98360488D01*
X188337496Y-98360488D02*
X188242258Y-98265249D01*
X188242258Y-98265249D02*
X188194639Y-98170011D01*
X188194639Y-98170011D02*
X188147020Y-97979535D01*
X188147020Y-97979535D02*
X188147020Y-97836678D01*
X188147020Y-97836678D02*
X188194639Y-97646202D01*
X188194639Y-97646202D02*
X188242258Y-97550964D01*
X188242258Y-97550964D02*
X188337496Y-97455726D01*
X188337496Y-97455726D02*
X188480353Y-97408107D01*
X188480353Y-97408107D02*
X188575591Y-97408107D01*
X188575591Y-97408107D02*
X188718448Y-97455726D01*
X188718448Y-97455726D02*
X188766067Y-97503345D01*
X189718448Y-98408107D02*
X189147020Y-98408107D01*
X189432734Y-98408107D02*
X189432734Y-97408107D01*
X189432734Y-97408107D02*
X189337496Y-97550964D01*
X189337496Y-97550964D02*
X189242258Y-97646202D01*
X189242258Y-97646202D02*
X189147020Y-97693821D01*
X190575591Y-97408107D02*
X190385115Y-97408107D01*
X190385115Y-97408107D02*
X190289877Y-97455726D01*
X190289877Y-97455726D02*
X190242258Y-97503345D01*
X190242258Y-97503345D02*
X190147020Y-97646202D01*
X190147020Y-97646202D02*
X190099401Y-97836678D01*
X190099401Y-97836678D02*
X190099401Y-98217630D01*
X190099401Y-98217630D02*
X190147020Y-98312868D01*
X190147020Y-98312868D02*
X190194639Y-98360488D01*
X190194639Y-98360488D02*
X190289877Y-98408107D01*
X190289877Y-98408107D02*
X190480353Y-98408107D01*
X190480353Y-98408107D02*
X190575591Y-98360488D01*
X190575591Y-98360488D02*
X190623210Y-98312868D01*
X190623210Y-98312868D02*
X190670829Y-98217630D01*
X190670829Y-98217630D02*
X190670829Y-97979535D01*
X190670829Y-97979535D02*
X190623210Y-97884297D01*
X190623210Y-97884297D02*
X190575591Y-97836678D01*
X190575591Y-97836678D02*
X190480353Y-97789059D01*
X190480353Y-97789059D02*
X190289877Y-97789059D01*
X190289877Y-97789059D02*
X190194639Y-97836678D01*
X190194639Y-97836678D02*
X190147020Y-97884297D01*
X190147020Y-97884297D02*
X190099401Y-97979535D01*
X185599427Y-88353248D02*
X185551808Y-88400868D01*
X185551808Y-88400868D02*
X185408951Y-88448487D01*
X185408951Y-88448487D02*
X185313713Y-88448487D01*
X185313713Y-88448487D02*
X185170856Y-88400868D01*
X185170856Y-88400868D02*
X185075618Y-88305629D01*
X185075618Y-88305629D02*
X185027999Y-88210391D01*
X185027999Y-88210391D02*
X184980380Y-88019915D01*
X184980380Y-88019915D02*
X184980380Y-87877058D01*
X184980380Y-87877058D02*
X185027999Y-87686582D01*
X185027999Y-87686582D02*
X185075618Y-87591344D01*
X185075618Y-87591344D02*
X185170856Y-87496106D01*
X185170856Y-87496106D02*
X185313713Y-87448487D01*
X185313713Y-87448487D02*
X185408951Y-87448487D01*
X185408951Y-87448487D02*
X185551808Y-87496106D01*
X185551808Y-87496106D02*
X185599427Y-87543725D01*
X186551808Y-88448487D02*
X185980380Y-88448487D01*
X186266094Y-88448487D02*
X186266094Y-87448487D01*
X186266094Y-87448487D02*
X186170856Y-87591344D01*
X186170856Y-87591344D02*
X186075618Y-87686582D01*
X186075618Y-87686582D02*
X185980380Y-87734201D01*
X186885142Y-87448487D02*
X187551808Y-87448487D01*
X187551808Y-87448487D02*
X187123237Y-88448487D01*
X179962966Y-79552488D02*
X179915347Y-79600108D01*
X179915347Y-79600108D02*
X179772490Y-79647727D01*
X179772490Y-79647727D02*
X179677252Y-79647727D01*
X179677252Y-79647727D02*
X179534395Y-79600108D01*
X179534395Y-79600108D02*
X179439157Y-79504869D01*
X179439157Y-79504869D02*
X179391538Y-79409631D01*
X179391538Y-79409631D02*
X179343919Y-79219155D01*
X179343919Y-79219155D02*
X179343919Y-79076298D01*
X179343919Y-79076298D02*
X179391538Y-78885822D01*
X179391538Y-78885822D02*
X179439157Y-78790584D01*
X179439157Y-78790584D02*
X179534395Y-78695346D01*
X179534395Y-78695346D02*
X179677252Y-78647727D01*
X179677252Y-78647727D02*
X179772490Y-78647727D01*
X179772490Y-78647727D02*
X179915347Y-78695346D01*
X179915347Y-78695346D02*
X179962966Y-78742965D01*
X180915347Y-79647727D02*
X180343919Y-79647727D01*
X180629633Y-79647727D02*
X180629633Y-78647727D01*
X180629633Y-78647727D02*
X180534395Y-78790584D01*
X180534395Y-78790584D02*
X180439157Y-78885822D01*
X180439157Y-78885822D02*
X180343919Y-78933441D01*
X181486776Y-79076298D02*
X181391538Y-79028679D01*
X181391538Y-79028679D02*
X181343919Y-78981060D01*
X181343919Y-78981060D02*
X181296300Y-78885822D01*
X181296300Y-78885822D02*
X181296300Y-78838203D01*
X181296300Y-78838203D02*
X181343919Y-78742965D01*
X181343919Y-78742965D02*
X181391538Y-78695346D01*
X181391538Y-78695346D02*
X181486776Y-78647727D01*
X181486776Y-78647727D02*
X181677252Y-78647727D01*
X181677252Y-78647727D02*
X181772490Y-78695346D01*
X181772490Y-78695346D02*
X181820109Y-78742965D01*
X181820109Y-78742965D02*
X181867728Y-78838203D01*
X181867728Y-78838203D02*
X181867728Y-78885822D01*
X181867728Y-78885822D02*
X181820109Y-78981060D01*
X181820109Y-78981060D02*
X181772490Y-79028679D01*
X181772490Y-79028679D02*
X181677252Y-79076298D01*
X181677252Y-79076298D02*
X181486776Y-79076298D01*
X181486776Y-79076298D02*
X181391538Y-79123917D01*
X181391538Y-79123917D02*
X181343919Y-79171536D01*
X181343919Y-79171536D02*
X181296300Y-79266774D01*
X181296300Y-79266774D02*
X181296300Y-79457250D01*
X181296300Y-79457250D02*
X181343919Y-79552488D01*
X181343919Y-79552488D02*
X181391538Y-79600108D01*
X181391538Y-79600108D02*
X181486776Y-79647727D01*
X181486776Y-79647727D02*
X181677252Y-79647727D01*
X181677252Y-79647727D02*
X181772490Y-79600108D01*
X181772490Y-79600108D02*
X181820109Y-79552488D01*
X181820109Y-79552488D02*
X181867728Y-79457250D01*
X181867728Y-79457250D02*
X181867728Y-79266774D01*
X181867728Y-79266774D02*
X181820109Y-79171536D01*
X181820109Y-79171536D02*
X181772490Y-79123917D01*
X181772490Y-79123917D02*
X181677252Y-79076298D01*
X172240738Y-72510424D02*
X172193119Y-72558044D01*
X172193119Y-72558044D02*
X172050262Y-72605663D01*
X172050262Y-72605663D02*
X171955024Y-72605663D01*
X171955024Y-72605663D02*
X171812167Y-72558044D01*
X171812167Y-72558044D02*
X171716929Y-72462805D01*
X171716929Y-72462805D02*
X171669310Y-72367567D01*
X171669310Y-72367567D02*
X171621691Y-72177091D01*
X171621691Y-72177091D02*
X171621691Y-72034234D01*
X171621691Y-72034234D02*
X171669310Y-71843758D01*
X171669310Y-71843758D02*
X171716929Y-71748520D01*
X171716929Y-71748520D02*
X171812167Y-71653282D01*
X171812167Y-71653282D02*
X171955024Y-71605663D01*
X171955024Y-71605663D02*
X172050262Y-71605663D01*
X172050262Y-71605663D02*
X172193119Y-71653282D01*
X172193119Y-71653282D02*
X172240738Y-71700901D01*
X173193119Y-72605663D02*
X172621691Y-72605663D01*
X172907405Y-72605663D02*
X172907405Y-71605663D01*
X172907405Y-71605663D02*
X172812167Y-71748520D01*
X172812167Y-71748520D02*
X172716929Y-71843758D01*
X172716929Y-71843758D02*
X172621691Y-71891377D01*
X173669310Y-72605663D02*
X173859786Y-72605663D01*
X173859786Y-72605663D02*
X173955024Y-72558044D01*
X173955024Y-72558044D02*
X174002643Y-72510424D01*
X174002643Y-72510424D02*
X174097881Y-72367567D01*
X174097881Y-72367567D02*
X174145500Y-72177091D01*
X174145500Y-72177091D02*
X174145500Y-71796139D01*
X174145500Y-71796139D02*
X174097881Y-71700901D01*
X174097881Y-71700901D02*
X174050262Y-71653282D01*
X174050262Y-71653282D02*
X173955024Y-71605663D01*
X173955024Y-71605663D02*
X173764548Y-71605663D01*
X173764548Y-71605663D02*
X173669310Y-71653282D01*
X173669310Y-71653282D02*
X173621691Y-71700901D01*
X173621691Y-71700901D02*
X173574072Y-71796139D01*
X173574072Y-71796139D02*
X173574072Y-72034234D01*
X173574072Y-72034234D02*
X173621691Y-72129472D01*
X173621691Y-72129472D02*
X173669310Y-72177091D01*
X173669310Y-72177091D02*
X173764548Y-72224710D01*
X173764548Y-72224710D02*
X173955024Y-72224710D01*
X173955024Y-72224710D02*
X174050262Y-72177091D01*
X174050262Y-72177091D02*
X174097881Y-72129472D01*
X174097881Y-72129472D02*
X174145500Y-72034234D01*
X162958975Y-67707045D02*
X162911356Y-67754665D01*
X162911356Y-67754665D02*
X162768499Y-67802284D01*
X162768499Y-67802284D02*
X162673261Y-67802284D01*
X162673261Y-67802284D02*
X162530404Y-67754665D01*
X162530404Y-67754665D02*
X162435166Y-67659426D01*
X162435166Y-67659426D02*
X162387547Y-67564188D01*
X162387547Y-67564188D02*
X162339928Y-67373712D01*
X162339928Y-67373712D02*
X162339928Y-67230855D01*
X162339928Y-67230855D02*
X162387547Y-67040379D01*
X162387547Y-67040379D02*
X162435166Y-66945141D01*
X162435166Y-66945141D02*
X162530404Y-66849903D01*
X162530404Y-66849903D02*
X162673261Y-66802284D01*
X162673261Y-66802284D02*
X162768499Y-66802284D01*
X162768499Y-66802284D02*
X162911356Y-66849903D01*
X162911356Y-66849903D02*
X162958975Y-66897522D01*
X163339928Y-66897522D02*
X163387547Y-66849903D01*
X163387547Y-66849903D02*
X163482785Y-66802284D01*
X163482785Y-66802284D02*
X163720880Y-66802284D01*
X163720880Y-66802284D02*
X163816118Y-66849903D01*
X163816118Y-66849903D02*
X163863737Y-66897522D01*
X163863737Y-66897522D02*
X163911356Y-66992760D01*
X163911356Y-66992760D02*
X163911356Y-67087998D01*
X163911356Y-67087998D02*
X163863737Y-67230855D01*
X163863737Y-67230855D02*
X163292309Y-67802284D01*
X163292309Y-67802284D02*
X163911356Y-67802284D01*
X164530404Y-66802284D02*
X164625642Y-66802284D01*
X164625642Y-66802284D02*
X164720880Y-66849903D01*
X164720880Y-66849903D02*
X164768499Y-66897522D01*
X164768499Y-66897522D02*
X164816118Y-66992760D01*
X164816118Y-66992760D02*
X164863737Y-67183236D01*
X164863737Y-67183236D02*
X164863737Y-67421331D01*
X164863737Y-67421331D02*
X164816118Y-67611807D01*
X164816118Y-67611807D02*
X164768499Y-67707045D01*
X164768499Y-67707045D02*
X164720880Y-67754665D01*
X164720880Y-67754665D02*
X164625642Y-67802284D01*
X164625642Y-67802284D02*
X164530404Y-67802284D01*
X164530404Y-67802284D02*
X164435166Y-67754665D01*
X164435166Y-67754665D02*
X164387547Y-67707045D01*
X164387547Y-67707045D02*
X164339928Y-67611807D01*
X164339928Y-67611807D02*
X164292309Y-67421331D01*
X164292309Y-67421331D02*
X164292309Y-67183236D01*
X164292309Y-67183236D02*
X164339928Y-66992760D01*
X164339928Y-66992760D02*
X164387547Y-66897522D01*
X164387547Y-66897522D02*
X164435166Y-66849903D01*
X164435166Y-66849903D02*
X164530404Y-66802284D01*
X152750372Y-65469652D02*
X152702753Y-65517272D01*
X152702753Y-65517272D02*
X152559896Y-65564891D01*
X152559896Y-65564891D02*
X152464658Y-65564891D01*
X152464658Y-65564891D02*
X152321801Y-65517272D01*
X152321801Y-65517272D02*
X152226563Y-65422033D01*
X152226563Y-65422033D02*
X152178944Y-65326795D01*
X152178944Y-65326795D02*
X152131325Y-65136319D01*
X152131325Y-65136319D02*
X152131325Y-64993462D01*
X152131325Y-64993462D02*
X152178944Y-64802986D01*
X152178944Y-64802986D02*
X152226563Y-64707748D01*
X152226563Y-64707748D02*
X152321801Y-64612510D01*
X152321801Y-64612510D02*
X152464658Y-64564891D01*
X152464658Y-64564891D02*
X152559896Y-64564891D01*
X152559896Y-64564891D02*
X152702753Y-64612510D01*
X152702753Y-64612510D02*
X152750372Y-64660129D01*
X153131325Y-64660129D02*
X153178944Y-64612510D01*
X153178944Y-64612510D02*
X153274182Y-64564891D01*
X153274182Y-64564891D02*
X153512277Y-64564891D01*
X153512277Y-64564891D02*
X153607515Y-64612510D01*
X153607515Y-64612510D02*
X153655134Y-64660129D01*
X153655134Y-64660129D02*
X153702753Y-64755367D01*
X153702753Y-64755367D02*
X153702753Y-64850605D01*
X153702753Y-64850605D02*
X153655134Y-64993462D01*
X153655134Y-64993462D02*
X153083706Y-65564891D01*
X153083706Y-65564891D02*
X153702753Y-65564891D01*
X154655134Y-65564891D02*
X154083706Y-65564891D01*
X154369420Y-65564891D02*
X154369420Y-64564891D01*
X154369420Y-64564891D02*
X154274182Y-64707748D01*
X154274182Y-64707748D02*
X154178944Y-64802986D01*
X154178944Y-64802986D02*
X154083706Y-64850605D01*
X149260772Y-65325708D02*
X149213153Y-65373328D01*
X149213153Y-65373328D02*
X149070296Y-65420947D01*
X149070296Y-65420947D02*
X148975058Y-65420947D01*
X148975058Y-65420947D02*
X148832201Y-65373328D01*
X148832201Y-65373328D02*
X148736963Y-65278089D01*
X148736963Y-65278089D02*
X148689344Y-65182851D01*
X148689344Y-65182851D02*
X148641725Y-64992375D01*
X148641725Y-64992375D02*
X148641725Y-64849518D01*
X148641725Y-64849518D02*
X148689344Y-64659042D01*
X148689344Y-64659042D02*
X148736963Y-64563804D01*
X148736963Y-64563804D02*
X148832201Y-64468566D01*
X148832201Y-64468566D02*
X148975058Y-64420947D01*
X148975058Y-64420947D02*
X149070296Y-64420947D01*
X149070296Y-64420947D02*
X149213153Y-64468566D01*
X149213153Y-64468566D02*
X149260772Y-64516185D01*
X149641725Y-64516185D02*
X149689344Y-64468566D01*
X149689344Y-64468566D02*
X149784582Y-64420947D01*
X149784582Y-64420947D02*
X150022677Y-64420947D01*
X150022677Y-64420947D02*
X150117915Y-64468566D01*
X150117915Y-64468566D02*
X150165534Y-64516185D01*
X150165534Y-64516185D02*
X150213153Y-64611423D01*
X150213153Y-64611423D02*
X150213153Y-64706661D01*
X150213153Y-64706661D02*
X150165534Y-64849518D01*
X150165534Y-64849518D02*
X149594106Y-65420947D01*
X149594106Y-65420947D02*
X150213153Y-65420947D01*
X150594106Y-64516185D02*
X150641725Y-64468566D01*
X150641725Y-64468566D02*
X150736963Y-64420947D01*
X150736963Y-64420947D02*
X150975058Y-64420947D01*
X150975058Y-64420947D02*
X151070296Y-64468566D01*
X151070296Y-64468566D02*
X151117915Y-64516185D01*
X151117915Y-64516185D02*
X151165534Y-64611423D01*
X151165534Y-64611423D02*
X151165534Y-64706661D01*
X151165534Y-64706661D02*
X151117915Y-64849518D01*
X151117915Y-64849518D02*
X150546487Y-65420947D01*
X150546487Y-65420947D02*
X151165534Y-65420947D01*
X138902575Y-66714715D02*
X138854956Y-66762335D01*
X138854956Y-66762335D02*
X138712099Y-66809954D01*
X138712099Y-66809954D02*
X138616861Y-66809954D01*
X138616861Y-66809954D02*
X138474004Y-66762335D01*
X138474004Y-66762335D02*
X138378766Y-66667096D01*
X138378766Y-66667096D02*
X138331147Y-66571858D01*
X138331147Y-66571858D02*
X138283528Y-66381382D01*
X138283528Y-66381382D02*
X138283528Y-66238525D01*
X138283528Y-66238525D02*
X138331147Y-66048049D01*
X138331147Y-66048049D02*
X138378766Y-65952811D01*
X138378766Y-65952811D02*
X138474004Y-65857573D01*
X138474004Y-65857573D02*
X138616861Y-65809954D01*
X138616861Y-65809954D02*
X138712099Y-65809954D01*
X138712099Y-65809954D02*
X138854956Y-65857573D01*
X138854956Y-65857573D02*
X138902575Y-65905192D01*
X139283528Y-65905192D02*
X139331147Y-65857573D01*
X139331147Y-65857573D02*
X139426385Y-65809954D01*
X139426385Y-65809954D02*
X139664480Y-65809954D01*
X139664480Y-65809954D02*
X139759718Y-65857573D01*
X139759718Y-65857573D02*
X139807337Y-65905192D01*
X139807337Y-65905192D02*
X139854956Y-66000430D01*
X139854956Y-66000430D02*
X139854956Y-66095668D01*
X139854956Y-66095668D02*
X139807337Y-66238525D01*
X139807337Y-66238525D02*
X139235909Y-66809954D01*
X139235909Y-66809954D02*
X139854956Y-66809954D01*
X140188290Y-65809954D02*
X140807337Y-65809954D01*
X140807337Y-65809954D02*
X140474004Y-66190906D01*
X140474004Y-66190906D02*
X140616861Y-66190906D01*
X140616861Y-66190906D02*
X140712099Y-66238525D01*
X140712099Y-66238525D02*
X140759718Y-66286144D01*
X140759718Y-66286144D02*
X140807337Y-66381382D01*
X140807337Y-66381382D02*
X140807337Y-66619477D01*
X140807337Y-66619477D02*
X140759718Y-66714715D01*
X140759718Y-66714715D02*
X140712099Y-66762335D01*
X140712099Y-66762335D02*
X140616861Y-66809954D01*
X140616861Y-66809954D02*
X140331147Y-66809954D01*
X140331147Y-66809954D02*
X140235909Y-66762335D01*
X140235909Y-66762335D02*
X140188290Y-66714715D01*
X129256738Y-70737336D02*
X129209119Y-70784956D01*
X129209119Y-70784956D02*
X129066262Y-70832575D01*
X129066262Y-70832575D02*
X128971024Y-70832575D01*
X128971024Y-70832575D02*
X128828167Y-70784956D01*
X128828167Y-70784956D02*
X128732929Y-70689717D01*
X128732929Y-70689717D02*
X128685310Y-70594479D01*
X128685310Y-70594479D02*
X128637691Y-70404003D01*
X128637691Y-70404003D02*
X128637691Y-70261146D01*
X128637691Y-70261146D02*
X128685310Y-70070670D01*
X128685310Y-70070670D02*
X128732929Y-69975432D01*
X128732929Y-69975432D02*
X128828167Y-69880194D01*
X128828167Y-69880194D02*
X128971024Y-69832575D01*
X128971024Y-69832575D02*
X129066262Y-69832575D01*
X129066262Y-69832575D02*
X129209119Y-69880194D01*
X129209119Y-69880194D02*
X129256738Y-69927813D01*
X129637691Y-69927813D02*
X129685310Y-69880194D01*
X129685310Y-69880194D02*
X129780548Y-69832575D01*
X129780548Y-69832575D02*
X130018643Y-69832575D01*
X130018643Y-69832575D02*
X130113881Y-69880194D01*
X130113881Y-69880194D02*
X130161500Y-69927813D01*
X130161500Y-69927813D02*
X130209119Y-70023051D01*
X130209119Y-70023051D02*
X130209119Y-70118289D01*
X130209119Y-70118289D02*
X130161500Y-70261146D01*
X130161500Y-70261146D02*
X129590072Y-70832575D01*
X129590072Y-70832575D02*
X130209119Y-70832575D01*
X131066262Y-70165908D02*
X131066262Y-70832575D01*
X130828167Y-69784956D02*
X130590072Y-70499241D01*
X130590072Y-70499241D02*
X131209119Y-70499241D01*
X120980766Y-77119472D02*
X120933147Y-77167092D01*
X120933147Y-77167092D02*
X120790290Y-77214711D01*
X120790290Y-77214711D02*
X120695052Y-77214711D01*
X120695052Y-77214711D02*
X120552195Y-77167092D01*
X120552195Y-77167092D02*
X120456957Y-77071853D01*
X120456957Y-77071853D02*
X120409338Y-76976615D01*
X120409338Y-76976615D02*
X120361719Y-76786139D01*
X120361719Y-76786139D02*
X120361719Y-76643282D01*
X120361719Y-76643282D02*
X120409338Y-76452806D01*
X120409338Y-76452806D02*
X120456957Y-76357568D01*
X120456957Y-76357568D02*
X120552195Y-76262330D01*
X120552195Y-76262330D02*
X120695052Y-76214711D01*
X120695052Y-76214711D02*
X120790290Y-76214711D01*
X120790290Y-76214711D02*
X120933147Y-76262330D01*
X120933147Y-76262330D02*
X120980766Y-76309949D01*
X121361719Y-76309949D02*
X121409338Y-76262330D01*
X121409338Y-76262330D02*
X121504576Y-76214711D01*
X121504576Y-76214711D02*
X121742671Y-76214711D01*
X121742671Y-76214711D02*
X121837909Y-76262330D01*
X121837909Y-76262330D02*
X121885528Y-76309949D01*
X121885528Y-76309949D02*
X121933147Y-76405187D01*
X121933147Y-76405187D02*
X121933147Y-76500425D01*
X121933147Y-76500425D02*
X121885528Y-76643282D01*
X121885528Y-76643282D02*
X121314100Y-77214711D01*
X121314100Y-77214711D02*
X121933147Y-77214711D01*
X122837909Y-76214711D02*
X122361719Y-76214711D01*
X122361719Y-76214711D02*
X122314100Y-76690901D01*
X122314100Y-76690901D02*
X122361719Y-76643282D01*
X122361719Y-76643282D02*
X122456957Y-76595663D01*
X122456957Y-76595663D02*
X122695052Y-76595663D01*
X122695052Y-76595663D02*
X122790290Y-76643282D01*
X122790290Y-76643282D02*
X122837909Y-76690901D01*
X122837909Y-76690901D02*
X122885528Y-76786139D01*
X122885528Y-76786139D02*
X122885528Y-77024234D01*
X122885528Y-77024234D02*
X122837909Y-77119472D01*
X122837909Y-77119472D02*
X122790290Y-77167092D01*
X122790290Y-77167092D02*
X122695052Y-77214711D01*
X122695052Y-77214711D02*
X122456957Y-77214711D01*
X122456957Y-77214711D02*
X122361719Y-77167092D01*
X122361719Y-77167092D02*
X122314100Y-77119472D01*
X114638627Y-85426112D02*
X114591008Y-85473732D01*
X114591008Y-85473732D02*
X114448151Y-85521351D01*
X114448151Y-85521351D02*
X114352913Y-85521351D01*
X114352913Y-85521351D02*
X114210056Y-85473732D01*
X114210056Y-85473732D02*
X114114818Y-85378493D01*
X114114818Y-85378493D02*
X114067199Y-85283255D01*
X114067199Y-85283255D02*
X114019580Y-85092779D01*
X114019580Y-85092779D02*
X114019580Y-84949922D01*
X114019580Y-84949922D02*
X114067199Y-84759446D01*
X114067199Y-84759446D02*
X114114818Y-84664208D01*
X114114818Y-84664208D02*
X114210056Y-84568970D01*
X114210056Y-84568970D02*
X114352913Y-84521351D01*
X114352913Y-84521351D02*
X114448151Y-84521351D01*
X114448151Y-84521351D02*
X114591008Y-84568970D01*
X114591008Y-84568970D02*
X114638627Y-84616589D01*
X115019580Y-84616589D02*
X115067199Y-84568970D01*
X115067199Y-84568970D02*
X115162437Y-84521351D01*
X115162437Y-84521351D02*
X115400532Y-84521351D01*
X115400532Y-84521351D02*
X115495770Y-84568970D01*
X115495770Y-84568970D02*
X115543389Y-84616589D01*
X115543389Y-84616589D02*
X115591008Y-84711827D01*
X115591008Y-84711827D02*
X115591008Y-84807065D01*
X115591008Y-84807065D02*
X115543389Y-84949922D01*
X115543389Y-84949922D02*
X114971961Y-85521351D01*
X114971961Y-85521351D02*
X115591008Y-85521351D01*
X116448151Y-84521351D02*
X116257675Y-84521351D01*
X116257675Y-84521351D02*
X116162437Y-84568970D01*
X116162437Y-84568970D02*
X116114818Y-84616589D01*
X116114818Y-84616589D02*
X116019580Y-84759446D01*
X116019580Y-84759446D02*
X115971961Y-84949922D01*
X115971961Y-84949922D02*
X115971961Y-85330874D01*
X115971961Y-85330874D02*
X116019580Y-85426112D01*
X116019580Y-85426112D02*
X116067199Y-85473732D01*
X116067199Y-85473732D02*
X116162437Y-85521351D01*
X116162437Y-85521351D02*
X116352913Y-85521351D01*
X116352913Y-85521351D02*
X116448151Y-85473732D01*
X116448151Y-85473732D02*
X116495770Y-85426112D01*
X116495770Y-85426112D02*
X116543389Y-85330874D01*
X116543389Y-85330874D02*
X116543389Y-85092779D01*
X116543389Y-85092779D02*
X116495770Y-84997541D01*
X116495770Y-84997541D02*
X116448151Y-84949922D01*
X116448151Y-84949922D02*
X116352913Y-84902303D01*
X116352913Y-84902303D02*
X116162437Y-84902303D01*
X116162437Y-84902303D02*
X116067199Y-84949922D01*
X116067199Y-84949922D02*
X116019580Y-84997541D01*
X116019580Y-84997541D02*
X115971961Y-85092779D01*
X110662467Y-95091092D02*
X110614848Y-95138712D01*
X110614848Y-95138712D02*
X110471991Y-95186331D01*
X110471991Y-95186331D02*
X110376753Y-95186331D01*
X110376753Y-95186331D02*
X110233896Y-95138712D01*
X110233896Y-95138712D02*
X110138658Y-95043473D01*
X110138658Y-95043473D02*
X110091039Y-94948235D01*
X110091039Y-94948235D02*
X110043420Y-94757759D01*
X110043420Y-94757759D02*
X110043420Y-94614902D01*
X110043420Y-94614902D02*
X110091039Y-94424426D01*
X110091039Y-94424426D02*
X110138658Y-94329188D01*
X110138658Y-94329188D02*
X110233896Y-94233950D01*
X110233896Y-94233950D02*
X110376753Y-94186331D01*
X110376753Y-94186331D02*
X110471991Y-94186331D01*
X110471991Y-94186331D02*
X110614848Y-94233950D01*
X110614848Y-94233950D02*
X110662467Y-94281569D01*
X111043420Y-94281569D02*
X111091039Y-94233950D01*
X111091039Y-94233950D02*
X111186277Y-94186331D01*
X111186277Y-94186331D02*
X111424372Y-94186331D01*
X111424372Y-94186331D02*
X111519610Y-94233950D01*
X111519610Y-94233950D02*
X111567229Y-94281569D01*
X111567229Y-94281569D02*
X111614848Y-94376807D01*
X111614848Y-94376807D02*
X111614848Y-94472045D01*
X111614848Y-94472045D02*
X111567229Y-94614902D01*
X111567229Y-94614902D02*
X110995801Y-95186331D01*
X110995801Y-95186331D02*
X111614848Y-95186331D01*
X111948182Y-94186331D02*
X112614848Y-94186331D01*
X112614848Y-94186331D02*
X112186277Y-95186331D01*
X109323270Y-105455950D02*
X109275651Y-105503570D01*
X109275651Y-105503570D02*
X109132794Y-105551189D01*
X109132794Y-105551189D02*
X109037556Y-105551189D01*
X109037556Y-105551189D02*
X108894699Y-105503570D01*
X108894699Y-105503570D02*
X108799461Y-105408331D01*
X108799461Y-105408331D02*
X108751842Y-105313093D01*
X108751842Y-105313093D02*
X108704223Y-105122617D01*
X108704223Y-105122617D02*
X108704223Y-104979760D01*
X108704223Y-104979760D02*
X108751842Y-104789284D01*
X108751842Y-104789284D02*
X108799461Y-104694046D01*
X108799461Y-104694046D02*
X108894699Y-104598808D01*
X108894699Y-104598808D02*
X109037556Y-104551189D01*
X109037556Y-104551189D02*
X109132794Y-104551189D01*
X109132794Y-104551189D02*
X109275651Y-104598808D01*
X109275651Y-104598808D02*
X109323270Y-104646427D01*
X109704223Y-104646427D02*
X109751842Y-104598808D01*
X109751842Y-104598808D02*
X109847080Y-104551189D01*
X109847080Y-104551189D02*
X110085175Y-104551189D01*
X110085175Y-104551189D02*
X110180413Y-104598808D01*
X110180413Y-104598808D02*
X110228032Y-104646427D01*
X110228032Y-104646427D02*
X110275651Y-104741665D01*
X110275651Y-104741665D02*
X110275651Y-104836903D01*
X110275651Y-104836903D02*
X110228032Y-104979760D01*
X110228032Y-104979760D02*
X109656604Y-105551189D01*
X109656604Y-105551189D02*
X110275651Y-105551189D01*
X110847080Y-104979760D02*
X110751842Y-104932141D01*
X110751842Y-104932141D02*
X110704223Y-104884522D01*
X110704223Y-104884522D02*
X110656604Y-104789284D01*
X110656604Y-104789284D02*
X110656604Y-104741665D01*
X110656604Y-104741665D02*
X110704223Y-104646427D01*
X110704223Y-104646427D02*
X110751842Y-104598808D01*
X110751842Y-104598808D02*
X110847080Y-104551189D01*
X110847080Y-104551189D02*
X111037556Y-104551189D01*
X111037556Y-104551189D02*
X111132794Y-104598808D01*
X111132794Y-104598808D02*
X111180413Y-104646427D01*
X111180413Y-104646427D02*
X111228032Y-104741665D01*
X111228032Y-104741665D02*
X111228032Y-104789284D01*
X111228032Y-104789284D02*
X111180413Y-104884522D01*
X111180413Y-104884522D02*
X111132794Y-104932141D01*
X111132794Y-104932141D02*
X111037556Y-104979760D01*
X111037556Y-104979760D02*
X110847080Y-104979760D01*
X110847080Y-104979760D02*
X110751842Y-105027379D01*
X110751842Y-105027379D02*
X110704223Y-105074998D01*
X110704223Y-105074998D02*
X110656604Y-105170236D01*
X110656604Y-105170236D02*
X110656604Y-105360712D01*
X110656604Y-105360712D02*
X110704223Y-105455950D01*
X110704223Y-105455950D02*
X110751842Y-105503570D01*
X110751842Y-105503570D02*
X110847080Y-105551189D01*
X110847080Y-105551189D02*
X111037556Y-105551189D01*
X111037556Y-105551189D02*
X111132794Y-105503570D01*
X111132794Y-105503570D02*
X111180413Y-105455950D01*
X111180413Y-105455950D02*
X111228032Y-105360712D01*
X111228032Y-105360712D02*
X111228032Y-105170236D01*
X111228032Y-105170236D02*
X111180413Y-105074998D01*
X111180413Y-105074998D02*
X111132794Y-105027379D01*
X111132794Y-105027379D02*
X111037556Y-104979760D01*
X110712277Y-115814147D02*
X110664658Y-115861767D01*
X110664658Y-115861767D02*
X110521801Y-115909386D01*
X110521801Y-115909386D02*
X110426563Y-115909386D01*
X110426563Y-115909386D02*
X110283706Y-115861767D01*
X110283706Y-115861767D02*
X110188468Y-115766528D01*
X110188468Y-115766528D02*
X110140849Y-115671290D01*
X110140849Y-115671290D02*
X110093230Y-115480814D01*
X110093230Y-115480814D02*
X110093230Y-115337957D01*
X110093230Y-115337957D02*
X110140849Y-115147481D01*
X110140849Y-115147481D02*
X110188468Y-115052243D01*
X110188468Y-115052243D02*
X110283706Y-114957005D01*
X110283706Y-114957005D02*
X110426563Y-114909386D01*
X110426563Y-114909386D02*
X110521801Y-114909386D01*
X110521801Y-114909386D02*
X110664658Y-114957005D01*
X110664658Y-114957005D02*
X110712277Y-115004624D01*
X111093230Y-115004624D02*
X111140849Y-114957005D01*
X111140849Y-114957005D02*
X111236087Y-114909386D01*
X111236087Y-114909386D02*
X111474182Y-114909386D01*
X111474182Y-114909386D02*
X111569420Y-114957005D01*
X111569420Y-114957005D02*
X111617039Y-115004624D01*
X111617039Y-115004624D02*
X111664658Y-115099862D01*
X111664658Y-115099862D02*
X111664658Y-115195100D01*
X111664658Y-115195100D02*
X111617039Y-115337957D01*
X111617039Y-115337957D02*
X111045611Y-115909386D01*
X111045611Y-115909386D02*
X111664658Y-115909386D01*
X112140849Y-115909386D02*
X112331325Y-115909386D01*
X112331325Y-115909386D02*
X112426563Y-115861767D01*
X112426563Y-115861767D02*
X112474182Y-115814147D01*
X112474182Y-115814147D02*
X112569420Y-115671290D01*
X112569420Y-115671290D02*
X112617039Y-115480814D01*
X112617039Y-115480814D02*
X112617039Y-115099862D01*
X112617039Y-115099862D02*
X112569420Y-115004624D01*
X112569420Y-115004624D02*
X112521801Y-114957005D01*
X112521801Y-114957005D02*
X112426563Y-114909386D01*
X112426563Y-114909386D02*
X112236087Y-114909386D01*
X112236087Y-114909386D02*
X112140849Y-114957005D01*
X112140849Y-114957005D02*
X112093230Y-115004624D01*
X112093230Y-115004624D02*
X112045611Y-115099862D01*
X112045611Y-115099862D02*
X112045611Y-115337957D01*
X112045611Y-115337957D02*
X112093230Y-115433195D01*
X112093230Y-115433195D02*
X112140849Y-115480814D01*
X112140849Y-115480814D02*
X112236087Y-115528433D01*
X112236087Y-115528433D02*
X112426563Y-115528433D01*
X112426563Y-115528433D02*
X112521801Y-115480814D01*
X112521801Y-115480814D02*
X112569420Y-115433195D01*
X112569420Y-115433195D02*
X112617039Y-115337957D01*
X114734898Y-125459984D02*
X114687279Y-125507604D01*
X114687279Y-125507604D02*
X114544422Y-125555223D01*
X114544422Y-125555223D02*
X114449184Y-125555223D01*
X114449184Y-125555223D02*
X114306327Y-125507604D01*
X114306327Y-125507604D02*
X114211089Y-125412365D01*
X114211089Y-125412365D02*
X114163470Y-125317127D01*
X114163470Y-125317127D02*
X114115851Y-125126651D01*
X114115851Y-125126651D02*
X114115851Y-124983794D01*
X114115851Y-124983794D02*
X114163470Y-124793318D01*
X114163470Y-124793318D02*
X114211089Y-124698080D01*
X114211089Y-124698080D02*
X114306327Y-124602842D01*
X114306327Y-124602842D02*
X114449184Y-124555223D01*
X114449184Y-124555223D02*
X114544422Y-124555223D01*
X114544422Y-124555223D02*
X114687279Y-124602842D01*
X114687279Y-124602842D02*
X114734898Y-124650461D01*
X115068232Y-124555223D02*
X115687279Y-124555223D01*
X115687279Y-124555223D02*
X115353946Y-124936175D01*
X115353946Y-124936175D02*
X115496803Y-124936175D01*
X115496803Y-124936175D02*
X115592041Y-124983794D01*
X115592041Y-124983794D02*
X115639660Y-125031413D01*
X115639660Y-125031413D02*
X115687279Y-125126651D01*
X115687279Y-125126651D02*
X115687279Y-125364746D01*
X115687279Y-125364746D02*
X115639660Y-125459984D01*
X115639660Y-125459984D02*
X115592041Y-125507604D01*
X115592041Y-125507604D02*
X115496803Y-125555223D01*
X115496803Y-125555223D02*
X115211089Y-125555223D01*
X115211089Y-125555223D02*
X115115851Y-125507604D01*
X115115851Y-125507604D02*
X115068232Y-125459984D01*
X116306327Y-124555223D02*
X116401565Y-124555223D01*
X116401565Y-124555223D02*
X116496803Y-124602842D01*
X116496803Y-124602842D02*
X116544422Y-124650461D01*
X116544422Y-124650461D02*
X116592041Y-124745699D01*
X116592041Y-124745699D02*
X116639660Y-124936175D01*
X116639660Y-124936175D02*
X116639660Y-125174270D01*
X116639660Y-125174270D02*
X116592041Y-125364746D01*
X116592041Y-125364746D02*
X116544422Y-125459984D01*
X116544422Y-125459984D02*
X116496803Y-125507604D01*
X116496803Y-125507604D02*
X116401565Y-125555223D01*
X116401565Y-125555223D02*
X116306327Y-125555223D01*
X116306327Y-125555223D02*
X116211089Y-125507604D01*
X116211089Y-125507604D02*
X116163470Y-125459984D01*
X116163470Y-125459984D02*
X116115851Y-125364746D01*
X116115851Y-125364746D02*
X116068232Y-125174270D01*
X116068232Y-125174270D02*
X116068232Y-124936175D01*
X116068232Y-124936175D02*
X116115851Y-124745699D01*
X116115851Y-124745699D02*
X116163470Y-124650461D01*
X116163470Y-124650461D02*
X116211089Y-124602842D01*
X116211089Y-124602842D02*
X116306327Y-124555223D01*
X121117034Y-133735956D02*
X121069415Y-133783576D01*
X121069415Y-133783576D02*
X120926558Y-133831195D01*
X120926558Y-133831195D02*
X120831320Y-133831195D01*
X120831320Y-133831195D02*
X120688463Y-133783576D01*
X120688463Y-133783576D02*
X120593225Y-133688337D01*
X120593225Y-133688337D02*
X120545606Y-133593099D01*
X120545606Y-133593099D02*
X120497987Y-133402623D01*
X120497987Y-133402623D02*
X120497987Y-133259766D01*
X120497987Y-133259766D02*
X120545606Y-133069290D01*
X120545606Y-133069290D02*
X120593225Y-132974052D01*
X120593225Y-132974052D02*
X120688463Y-132878814D01*
X120688463Y-132878814D02*
X120831320Y-132831195D01*
X120831320Y-132831195D02*
X120926558Y-132831195D01*
X120926558Y-132831195D02*
X121069415Y-132878814D01*
X121069415Y-132878814D02*
X121117034Y-132926433D01*
X121450368Y-132831195D02*
X122069415Y-132831195D01*
X122069415Y-132831195D02*
X121736082Y-133212147D01*
X121736082Y-133212147D02*
X121878939Y-133212147D01*
X121878939Y-133212147D02*
X121974177Y-133259766D01*
X121974177Y-133259766D02*
X122021796Y-133307385D01*
X122021796Y-133307385D02*
X122069415Y-133402623D01*
X122069415Y-133402623D02*
X122069415Y-133640718D01*
X122069415Y-133640718D02*
X122021796Y-133735956D01*
X122021796Y-133735956D02*
X121974177Y-133783576D01*
X121974177Y-133783576D02*
X121878939Y-133831195D01*
X121878939Y-133831195D02*
X121593225Y-133831195D01*
X121593225Y-133831195D02*
X121497987Y-133783576D01*
X121497987Y-133783576D02*
X121450368Y-133735956D01*
X123021796Y-133831195D02*
X122450368Y-133831195D01*
X122736082Y-133831195D02*
X122736082Y-132831195D01*
X122736082Y-132831195D02*
X122640844Y-132974052D01*
X122640844Y-132974052D02*
X122545606Y-133069290D01*
X122545606Y-133069290D02*
X122450368Y-133116909D01*
X129423674Y-140078095D02*
X129376055Y-140125715D01*
X129376055Y-140125715D02*
X129233198Y-140173334D01*
X129233198Y-140173334D02*
X129137960Y-140173334D01*
X129137960Y-140173334D02*
X128995103Y-140125715D01*
X128995103Y-140125715D02*
X128899865Y-140030476D01*
X128899865Y-140030476D02*
X128852246Y-139935238D01*
X128852246Y-139935238D02*
X128804627Y-139744762D01*
X128804627Y-139744762D02*
X128804627Y-139601905D01*
X128804627Y-139601905D02*
X128852246Y-139411429D01*
X128852246Y-139411429D02*
X128899865Y-139316191D01*
X128899865Y-139316191D02*
X128995103Y-139220953D01*
X128995103Y-139220953D02*
X129137960Y-139173334D01*
X129137960Y-139173334D02*
X129233198Y-139173334D01*
X129233198Y-139173334D02*
X129376055Y-139220953D01*
X129376055Y-139220953D02*
X129423674Y-139268572D01*
X129757008Y-139173334D02*
X130376055Y-139173334D01*
X130376055Y-139173334D02*
X130042722Y-139554286D01*
X130042722Y-139554286D02*
X130185579Y-139554286D01*
X130185579Y-139554286D02*
X130280817Y-139601905D01*
X130280817Y-139601905D02*
X130328436Y-139649524D01*
X130328436Y-139649524D02*
X130376055Y-139744762D01*
X130376055Y-139744762D02*
X130376055Y-139982857D01*
X130376055Y-139982857D02*
X130328436Y-140078095D01*
X130328436Y-140078095D02*
X130280817Y-140125715D01*
X130280817Y-140125715D02*
X130185579Y-140173334D01*
X130185579Y-140173334D02*
X129899865Y-140173334D01*
X129899865Y-140173334D02*
X129804627Y-140125715D01*
X129804627Y-140125715D02*
X129757008Y-140078095D01*
X130757008Y-139268572D02*
X130804627Y-139220953D01*
X130804627Y-139220953D02*
X130899865Y-139173334D01*
X130899865Y-139173334D02*
X131137960Y-139173334D01*
X131137960Y-139173334D02*
X131233198Y-139220953D01*
X131233198Y-139220953D02*
X131280817Y-139268572D01*
X131280817Y-139268572D02*
X131328436Y-139363810D01*
X131328436Y-139363810D02*
X131328436Y-139459048D01*
X131328436Y-139459048D02*
X131280817Y-139601905D01*
X131280817Y-139601905D02*
X130709389Y-140173334D01*
X130709389Y-140173334D02*
X131328436Y-140173334D01*
X139088654Y-144054255D02*
X139041035Y-144101875D01*
X139041035Y-144101875D02*
X138898178Y-144149494D01*
X138898178Y-144149494D02*
X138802940Y-144149494D01*
X138802940Y-144149494D02*
X138660083Y-144101875D01*
X138660083Y-144101875D02*
X138564845Y-144006636D01*
X138564845Y-144006636D02*
X138517226Y-143911398D01*
X138517226Y-143911398D02*
X138469607Y-143720922D01*
X138469607Y-143720922D02*
X138469607Y-143578065D01*
X138469607Y-143578065D02*
X138517226Y-143387589D01*
X138517226Y-143387589D02*
X138564845Y-143292351D01*
X138564845Y-143292351D02*
X138660083Y-143197113D01*
X138660083Y-143197113D02*
X138802940Y-143149494D01*
X138802940Y-143149494D02*
X138898178Y-143149494D01*
X138898178Y-143149494D02*
X139041035Y-143197113D01*
X139041035Y-143197113D02*
X139088654Y-143244732D01*
X139421988Y-143149494D02*
X140041035Y-143149494D01*
X140041035Y-143149494D02*
X139707702Y-143530446D01*
X139707702Y-143530446D02*
X139850559Y-143530446D01*
X139850559Y-143530446D02*
X139945797Y-143578065D01*
X139945797Y-143578065D02*
X139993416Y-143625684D01*
X139993416Y-143625684D02*
X140041035Y-143720922D01*
X140041035Y-143720922D02*
X140041035Y-143959017D01*
X140041035Y-143959017D02*
X139993416Y-144054255D01*
X139993416Y-144054255D02*
X139945797Y-144101875D01*
X139945797Y-144101875D02*
X139850559Y-144149494D01*
X139850559Y-144149494D02*
X139564845Y-144149494D01*
X139564845Y-144149494D02*
X139469607Y-144101875D01*
X139469607Y-144101875D02*
X139421988Y-144054255D01*
X140374369Y-143149494D02*
X140993416Y-143149494D01*
X140993416Y-143149494D02*
X140660083Y-143530446D01*
X140660083Y-143530446D02*
X140802940Y-143530446D01*
X140802940Y-143530446D02*
X140898178Y-143578065D01*
X140898178Y-143578065D02*
X140945797Y-143625684D01*
X140945797Y-143625684D02*
X140993416Y-143720922D01*
X140993416Y-143720922D02*
X140993416Y-143959017D01*
X140993416Y-143959017D02*
X140945797Y-144054255D01*
X140945797Y-144054255D02*
X140898178Y-144101875D01*
X140898178Y-144101875D02*
X140802940Y-144149494D01*
X140802940Y-144149494D02*
X140517226Y-144149494D01*
X140517226Y-144149494D02*
X140421988Y-144101875D01*
X140421988Y-144101875D02*
X140374369Y-144054255D01*
X170451295Y-81941619D02*
X170451295Y-80941619D01*
X170451295Y-81417809D02*
X171022723Y-81417809D01*
X171022723Y-81941619D02*
X171022723Y-80941619D01*
X172022723Y-81941619D02*
X171451295Y-81941619D01*
X171737009Y-81941619D02*
X171737009Y-80941619D01*
X171737009Y-80941619D02*
X171641771Y-81084476D01*
X171641771Y-81084476D02*
X171546533Y-81179714D01*
X171546533Y-81179714D02*
X171451295Y-81227333D01*
X128024895Y-81941619D02*
X128024895Y-80941619D01*
X128024895Y-81417809D02*
X128596323Y-81417809D01*
X128596323Y-81941619D02*
X128596323Y-80941619D01*
X129024895Y-81036857D02*
X129072514Y-80989238D01*
X129072514Y-80989238D02*
X129167752Y-80941619D01*
X129167752Y-80941619D02*
X129405847Y-80941619D01*
X129405847Y-80941619D02*
X129501085Y-80989238D01*
X129501085Y-80989238D02*
X129548704Y-81036857D01*
X129548704Y-81036857D02*
X129596323Y-81132095D01*
X129596323Y-81132095D02*
X129596323Y-81227333D01*
X129596323Y-81227333D02*
X129548704Y-81370190D01*
X129548704Y-81370190D02*
X128977276Y-81941619D01*
X128977276Y-81941619D02*
X129596323Y-81941619D01*
X128024895Y-124368019D02*
X128024895Y-123368019D01*
X128024895Y-123844209D02*
X128596323Y-123844209D01*
X128596323Y-124368019D02*
X128596323Y-123368019D01*
X128977276Y-123368019D02*
X129596323Y-123368019D01*
X129596323Y-123368019D02*
X129262990Y-123748971D01*
X129262990Y-123748971D02*
X129405847Y-123748971D01*
X129405847Y-123748971D02*
X129501085Y-123796590D01*
X129501085Y-123796590D02*
X129548704Y-123844209D01*
X129548704Y-123844209D02*
X129596323Y-123939447D01*
X129596323Y-123939447D02*
X129596323Y-124177542D01*
X129596323Y-124177542D02*
X129548704Y-124272780D01*
X129548704Y-124272780D02*
X129501085Y-124320400D01*
X129501085Y-124320400D02*
X129405847Y-124368019D01*
X129405847Y-124368019D02*
X129120133Y-124368019D01*
X129120133Y-124368019D02*
X129024895Y-124320400D01*
X129024895Y-124320400D02*
X128977276Y-124272780D01*
X170451295Y-124368019D02*
X170451295Y-123368019D01*
X170451295Y-123844209D02*
X171022723Y-123844209D01*
X171022723Y-124368019D02*
X171022723Y-123368019D01*
X171927485Y-123701352D02*
X171927485Y-124368019D01*
X171689390Y-123320400D02*
X171451295Y-124034685D01*
X171451295Y-124034685D02*
X172070342Y-124034685D01*
D12*
X145300000Y-149700000D02*
X145300000Y-151700000D01*
X145300000Y-153600000D02*
X145300000Y-155500000D01*
X145300000Y-155500000D02*
X154700000Y-155500000D01*
X154700000Y-149700000D02*
X154700000Y-151700000D01*
X154700000Y-153600000D02*
X154700000Y-155500000D01*
X163772936Y-124265000D02*
X164227064Y-124265000D01*
X163772936Y-125735000D02*
X164227064Y-125735000D01*
X163772936Y-127765000D02*
X164227064Y-127765000D01*
X163772936Y-129235000D02*
X164227064Y-129235000D01*
X149200000Y-130550000D02*
X148100000Y-130550000D01*
X152562500Y-131152500D02*
X153350000Y-131152500D01*
X152956250Y-130758750D02*
X152956250Y-131546250D01*
X153590000Y-130654437D02*
X153590000Y-131940000D01*
X153590000Y-130654437D02*
X154654437Y-129590000D01*
X153590000Y-135345563D02*
X153590000Y-134060000D01*
X153590000Y-135345563D02*
X154654437Y-136410000D01*
X154654437Y-129590000D02*
X160410000Y-129590000D01*
X154654437Y-136410000D02*
X160410000Y-136410000D01*
X160410000Y-129590000D02*
X160410000Y-131940000D01*
X160410000Y-136410000D02*
X160410000Y-134060000D01*
X136150000Y-121590000D02*
X139910000Y-121590000D01*
X136150000Y-128410000D02*
X139910000Y-128410000D01*
X139910000Y-121590000D02*
X139910000Y-122850000D01*
X139910000Y-128410000D02*
X139910000Y-127150000D01*
X134870000Y-121690000D02*
X134630000Y-121360000D01*
X135110000Y-121360000D01*
X134870000Y-121690000D01*
G36*
X134870000Y-121690000D02*
G01*
X134630000Y-121360000D01*
X135110000Y-121360000D01*
X134870000Y-121690000D01*
G37*
X131265000Y-119261252D02*
X131265000Y-118738748D01*
X132735000Y-119261252D02*
X132735000Y-118738748D01*
X134265000Y-119261252D02*
X134265000Y-118738748D01*
X135735000Y-119261252D02*
X135735000Y-118738748D01*
X140265000Y-119261252D02*
X140265000Y-118738748D01*
X141735000Y-119261252D02*
X141735000Y-118738748D01*
X173620000Y-117620000D02*
X175000000Y-117620000D01*
X173620000Y-119000000D02*
X173620000Y-117620000D01*
X173620000Y-120270000D02*
X173620000Y-122920000D01*
X173620000Y-120270000D02*
X176380000Y-120270000D01*
X173620000Y-122920000D02*
X176380000Y-122920000D01*
X176380000Y-120270000D02*
X176380000Y-122920000D01*
X170950000Y-113000000D02*
G75*
G02*
X169050000Y-113000000I-950000J0D01*
G01*
X169050000Y-113000000D02*
G75*
G02*
X170950000Y-113000000I950000J0D01*
G01*
X170950000Y-116000000D02*
G75*
G02*
X169050000Y-116000000I-950000J0D01*
G01*
X169050000Y-116000000D02*
G75*
G02*
X170950000Y-116000000I950000J0D01*
G01*
X170950000Y-119000000D02*
G75*
G02*
X169050000Y-119000000I-950000J0D01*
G01*
X169050000Y-119000000D02*
G75*
G02*
X170950000Y-119000000I950000J0D01*
G01*
X130950000Y-97000000D02*
G75*
G02*
X129050000Y-97000000I-950000J0D01*
G01*
X129050000Y-97000000D02*
G75*
G02*
X130950000Y-97000000I950000J0D01*
G01*
X143200000Y-72500000D02*
X156800000Y-72500000D01*
X143200000Y-72500000D02*
X143200000Y-78100000D01*
X156800000Y-72500000D02*
X156800000Y-78100000D01*
X143200000Y-89500000D02*
X143200000Y-88700000D01*
X143200000Y-89500000D02*
X144000000Y-89500000D01*
X156800000Y-89500000D02*
X156800000Y-88700000D01*
X156800000Y-89500000D02*
X156000000Y-89500000D01*
X142800000Y-79700000D02*
X143200000Y-79700000D01*
X138765000Y-82427064D02*
X138765000Y-81972936D01*
X140235000Y-82427064D02*
X140235000Y-81972936D01*
X138765000Y-86061252D02*
X138765000Y-85538748D01*
X140235000Y-86061252D02*
X140235000Y-85538748D01*
X133250000Y-90000000D02*
X133250000Y-92000000D01*
X134300000Y-88700000D02*
X134750000Y-88250000D01*
X134300000Y-93300000D02*
X134750000Y-93750000D01*
X134750000Y-88250000D02*
X137250000Y-88250000D01*
X134750000Y-93750000D02*
X137250000Y-93750000D01*
X137700000Y-88700000D02*
X137250000Y-88250000D01*
X137700000Y-93300000D02*
X137250000Y-93750000D01*
X138750000Y-90000000D02*
X138750000Y-92000000D01*
X135265000Y-84227064D02*
X135265000Y-83772936D01*
X136735000Y-84227064D02*
X136735000Y-83772936D01*
X159765000Y-82427064D02*
X159765000Y-81972936D01*
X161235000Y-82427064D02*
X161235000Y-81972936D01*
X159765000Y-86027064D02*
X159765000Y-85572936D01*
X161235000Y-86027064D02*
X161235000Y-85572936D01*
X133250000Y-98000000D02*
X133250000Y-100000000D01*
X134300000Y-96700000D02*
X134750000Y-96250000D01*
X134300000Y-101300000D02*
X134750000Y-101750000D01*
X134750000Y-96250000D02*
X137250000Y-96250000D01*
X134750000Y-101750000D02*
X137250000Y-101750000D01*
X137700000Y-96700000D02*
X137250000Y-96250000D01*
X137700000Y-101300000D02*
X137250000Y-101750000D01*
X138750000Y-98000000D02*
X138750000Y-100000000D01*
X161250000Y-90000000D02*
X161250000Y-92000000D01*
X162300000Y-88700000D02*
X162750000Y-88250000D01*
X162300000Y-93300000D02*
X162750000Y-93750000D01*
X162750000Y-88250000D02*
X165250000Y-88250000D01*
X162750000Y-93750000D02*
X165250000Y-93750000D01*
X165700000Y-88700000D02*
X165250000Y-88250000D01*
X165700000Y-93300000D02*
X165250000Y-93750000D01*
X166750000Y-90000000D02*
X166750000Y-92000000D01*
X138765000Y-75261252D02*
X138765000Y-74738748D01*
X140235000Y-75261252D02*
X140235000Y-74738748D01*
X138765000Y-78861252D02*
X138765000Y-78338748D01*
X140235000Y-78861252D02*
X140235000Y-78338748D01*
X132772936Y-78765000D02*
X133227064Y-78765000D01*
X132772936Y-80235000D02*
X133227064Y-80235000D01*
X158700000Y-137050000D02*
X157600000Y-137050000D01*
X163265000Y-135261252D02*
X163265000Y-134738748D01*
X164735000Y-135261252D02*
X164735000Y-134738748D01*
X152772936Y-137765000D02*
X153227064Y-137765000D01*
X152772936Y-139235000D02*
X153227064Y-139235000D01*
X156486325Y-142776544D02*
X156629904Y-143867134D01*
X156629904Y-143867134D02*
X155539315Y-144010712D01*
X153290096Y-141482666D02*
X153433675Y-142573256D01*
X153290096Y-141482666D02*
X154380685Y-141339088D01*
X166042624Y-139810539D02*
X166463576Y-140826806D01*
X166463576Y-140826806D02*
X165447309Y-141247758D01*
X162620424Y-139387994D02*
X163041376Y-140404261D01*
X162620424Y-139387994D02*
X163636691Y-138967042D01*
X174505558Y-134472264D02*
X175175196Y-135344953D01*
X175175196Y-135344953D02*
X174302507Y-136014590D01*
X171090604Y-134949847D02*
X171760242Y-135822536D01*
X171090604Y-134949847D02*
X171963293Y-134280210D01*
X181298548Y-127125498D02*
X182171237Y-127795136D01*
X182171237Y-127795136D02*
X181501599Y-128667825D01*
X178123563Y-128470664D02*
X178996252Y-129140302D01*
X178123563Y-128470664D02*
X178793201Y-127597975D01*
X185958589Y-118270986D02*
X186974856Y-118691938D01*
X186974856Y-118691938D02*
X186553905Y-119708205D01*
X183239944Y-120392062D02*
X184256211Y-120813014D01*
X183239944Y-120392062D02*
X183660895Y-119375795D01*
X188168123Y-108511991D02*
X189258712Y-108655569D01*
X189258712Y-108655569D02*
X189115133Y-109746159D01*
X186091088Y-111264431D02*
X187181677Y-111408009D01*
X186091088Y-111264431D02*
X186234667Y-110173841D01*
X187776544Y-98513675D02*
X188867134Y-98370096D01*
X188867134Y-98370096D02*
X189010712Y-99460685D01*
X186482666Y-101709904D02*
X187573256Y-101566325D01*
X186482666Y-101709904D02*
X186339088Y-100619315D01*
X184810539Y-88957376D02*
X185826806Y-88536424D01*
X185826806Y-88536424D02*
X186247758Y-89552691D01*
X184387994Y-92379576D02*
X185404261Y-91958624D01*
X184387994Y-92379576D02*
X183967042Y-91363309D01*
X179472264Y-80494442D02*
X180344953Y-79824804D01*
X180344953Y-79824804D02*
X181014590Y-80697493D01*
X179949847Y-83909396D02*
X180822536Y-83239758D01*
X179949847Y-83909396D02*
X179280210Y-83036707D01*
X172125498Y-73701452D02*
X172795136Y-72828763D01*
X172795136Y-72828763D02*
X173667825Y-73498401D01*
X173470664Y-76876437D02*
X174140302Y-76003748D01*
X173470664Y-76876437D02*
X172597975Y-76206799D01*
X163270986Y-69041411D02*
X163691938Y-68025144D01*
X163691938Y-68025144D02*
X164708205Y-68446095D01*
X165392062Y-71760056D02*
X165813014Y-70743789D01*
X165392062Y-71760056D02*
X164375795Y-71339105D01*
X153511991Y-66831877D02*
X153655569Y-65741288D01*
X153655569Y-65741288D02*
X154746159Y-65884867D01*
X156264431Y-68908912D02*
X156408009Y-67818323D01*
X156264431Y-68908912D02*
X155173841Y-68765333D01*
X143513675Y-67223456D02*
X143370096Y-66132866D01*
X143370096Y-66132866D02*
X144460685Y-65989288D01*
X146709904Y-68517334D02*
X146566325Y-67426744D01*
X146709904Y-68517334D02*
X145619315Y-68660912D01*
X133957376Y-70189461D02*
X133536424Y-69173194D01*
X133536424Y-69173194D02*
X134552691Y-68752242D01*
X137379576Y-70612006D02*
X136958624Y-69595739D01*
X137379576Y-70612006D02*
X136363309Y-71032958D01*
X125494442Y-75527736D02*
X124824804Y-74655047D01*
X124824804Y-74655047D02*
X125697493Y-73985410D01*
X128909396Y-75050153D02*
X128239758Y-74177464D01*
X128909396Y-75050153D02*
X128036707Y-75719790D01*
X118701452Y-82874502D02*
X117828763Y-82204864D01*
X117828763Y-82204864D02*
X118498401Y-81332175D01*
X121876437Y-81529336D02*
X121003748Y-80859698D01*
X121876437Y-81529336D02*
X121206799Y-82402025D01*
X114041411Y-91729014D02*
X113025144Y-91308062D01*
X113025144Y-91308062D02*
X113446095Y-90291795D01*
X116760056Y-89607938D02*
X115743789Y-89186986D01*
X116760056Y-89607938D02*
X116339105Y-90624205D01*
X111831877Y-101488009D02*
X110741288Y-101344431D01*
X110741288Y-101344431D02*
X110884867Y-100253841D01*
X113908912Y-98735569D02*
X112818323Y-98591991D01*
X113908912Y-98735569D02*
X113765333Y-99826159D01*
X112223456Y-111486325D02*
X111132866Y-111629904D01*
X111132866Y-111629904D02*
X110989288Y-110539315D01*
X113517334Y-108290096D02*
X112426744Y-108433675D01*
X113517334Y-108290096D02*
X113660912Y-109380685D01*
X115189461Y-121042624D02*
X114173194Y-121463576D01*
X114173194Y-121463576D02*
X113752242Y-120447309D01*
X115612006Y-117620424D02*
X114595739Y-118041376D01*
X115612006Y-117620424D02*
X116032958Y-118636691D01*
X120527736Y-129505558D02*
X119655047Y-130175196D01*
X119655047Y-130175196D02*
X118985410Y-129302507D01*
X120050153Y-126090604D02*
X119177464Y-126760242D01*
X120050153Y-126090604D02*
X120719790Y-126963293D01*
X127874502Y-136298548D02*
X127204864Y-137171237D01*
X127204864Y-137171237D02*
X126332175Y-136501599D01*
X126529336Y-133123563D02*
X125859698Y-133996252D01*
X126529336Y-133123563D02*
X127402025Y-133793201D01*
X136729014Y-140958589D02*
X136308062Y-141974856D01*
X136308062Y-141974856D02*
X135291795Y-141553905D01*
X134607938Y-138239944D02*
X134186986Y-139256211D01*
X134607938Y-138239944D02*
X135624205Y-138660895D01*
X146488009Y-143168123D02*
X146344431Y-144258712D01*
X146344431Y-144258712D02*
X145253841Y-144115133D01*
X143735569Y-141091088D02*
X143591991Y-142181677D01*
X143735569Y-141091088D02*
X144826159Y-141234667D01*
%LPC*%
D13*
X147110000Y-149000000D03*
X152890000Y-149000000D03*
D14*
X146750000Y-147555000D03*
X147550000Y-147555000D03*
D15*
X148750000Y-147555000D03*
X149750000Y-147555000D03*
X150250000Y-147555000D03*
X151250000Y-147555000D03*
D14*
X152450000Y-147555000D03*
X153250000Y-147555000D03*
X153250000Y-147555000D03*
X152450000Y-147555000D03*
D15*
X151750000Y-147555000D03*
X150750000Y-147555000D03*
X149250000Y-147555000D03*
X148250000Y-147555000D03*
D14*
X147550000Y-147555000D03*
X146750000Y-147555000D03*
D16*
X145680000Y-148470000D03*
D17*
X145680000Y-152650000D03*
D16*
X154320000Y-148470000D03*
D17*
X154320000Y-152650000D03*
D18*
X140600000Y-135000000D03*
X143400000Y-135000000D03*
D19*
X163087500Y-125000000D03*
X164912500Y-125000000D03*
X163087500Y-128500000D03*
X164912500Y-128500000D03*
D20*
X148862500Y-131050000D03*
X148862500Y-132000000D03*
X148862500Y-132950000D03*
X151137500Y-132950000D03*
X151137500Y-132000000D03*
X151137500Y-131050000D03*
D21*
X154200000Y-133000000D03*
X159800000Y-133000000D03*
D22*
X134850000Y-122700000D03*
X134850000Y-125000000D03*
D23*
X141150000Y-125000000D03*
D22*
X134850000Y-127300000D03*
D24*
X132000000Y-119950000D03*
X132000000Y-118050000D03*
X135000000Y-119950000D03*
X135000000Y-118050000D03*
X141000000Y-119950000D03*
X141000000Y-118050000D03*
D25*
X175000000Y-119000000D03*
D26*
X175000000Y-121540000D03*
D27*
X170000000Y-113000000D03*
X170000000Y-116000000D03*
X170000000Y-119000000D03*
X130000000Y-97000000D03*
D28*
X144100000Y-79700000D03*
X144100000Y-80500000D03*
X144100000Y-81300000D03*
X144100000Y-82100000D03*
X144100000Y-82900000D03*
X144100000Y-83700000D03*
X144100000Y-84500000D03*
X144100000Y-85300000D03*
X144100000Y-86100000D03*
X144100000Y-86900000D03*
X144100000Y-87700000D03*
D29*
X145200000Y-88600000D03*
X146000000Y-88600000D03*
X146800000Y-88600000D03*
X147600000Y-88600000D03*
X148400000Y-88600000D03*
X149200000Y-88600000D03*
X150000000Y-88600000D03*
X150800000Y-88600000D03*
X151600000Y-88600000D03*
X152400000Y-88600000D03*
X153200000Y-88600000D03*
X154000000Y-88600000D03*
X154800000Y-88600000D03*
D28*
X155900000Y-87700000D03*
X155900000Y-86900000D03*
X155900000Y-86100000D03*
X155900000Y-85300000D03*
X155900000Y-84500000D03*
X155900000Y-83700000D03*
X155900000Y-82900000D03*
X155900000Y-82100000D03*
X155900000Y-81300000D03*
X155900000Y-80500000D03*
X155900000Y-79700000D03*
D29*
X154800000Y-78800000D03*
X154000000Y-78800000D03*
X153200000Y-78800000D03*
X152400000Y-78800000D03*
X151600000Y-78800000D03*
X150800000Y-78800000D03*
X150000000Y-78800000D03*
X149200000Y-78800000D03*
X148400000Y-78800000D03*
X147600000Y-78800000D03*
X146800000Y-78800000D03*
X146000000Y-78800000D03*
X145200000Y-78800000D03*
D30*
X148025000Y-81725000D03*
X150000000Y-81725000D03*
X151975000Y-81725000D03*
X148025000Y-83700000D03*
X150000000Y-83700000D03*
X151975000Y-83700000D03*
X148025000Y-85675000D03*
X150000000Y-85675000D03*
X151975000Y-85675000D03*
D31*
X155950000Y-78750000D03*
X155950000Y-88650000D03*
X144050000Y-88650000D03*
X144050000Y-78750000D03*
D32*
X139500000Y-83112500D03*
X139500000Y-81287500D03*
D24*
X139500000Y-86750000D03*
X139500000Y-84850000D03*
D33*
X132850000Y-89100000D03*
X139150000Y-89100000D03*
X132850000Y-92900000D03*
X139150000Y-92900000D03*
D32*
X136000000Y-84912500D03*
X136000000Y-83087500D03*
X160500000Y-83112500D03*
X160500000Y-81287500D03*
X160500000Y-86712500D03*
X160500000Y-84887500D03*
D33*
X132850000Y-97100000D03*
X139150000Y-97100000D03*
X132850000Y-100900000D03*
X139150000Y-100900000D03*
X160850000Y-89100000D03*
X167150000Y-89100000D03*
X160850000Y-92900000D03*
X167150000Y-92900000D03*
D24*
X139500000Y-75950000D03*
X139500000Y-74050000D03*
X139500000Y-79550000D03*
X139500000Y-77650000D03*
D34*
X132050000Y-75600000D03*
X133950000Y-75600000D03*
D19*
X132087500Y-79500000D03*
X133912500Y-79500000D03*
D20*
X158362500Y-137550000D03*
X158362500Y-138500000D03*
X158362500Y-139450000D03*
X160637500Y-139450000D03*
X160637500Y-137550000D03*
D24*
X164000000Y-135950000D03*
X164000000Y-134050000D03*
D19*
X152087500Y-138500000D03*
X153912500Y-138500000D03*
D35*
X155938961Y-143100763D03*
X155795383Y-142010174D03*
X153981039Y-142249037D03*
X154124617Y-143339626D03*
D36*
X165597826Y-140265378D03*
X165176874Y-139249111D03*
X163486174Y-139949422D03*
X163907126Y-140965689D03*
D37*
X174193637Y-135026728D03*
X173524000Y-134154039D03*
X172072163Y-135268072D03*
X172741800Y-136140761D03*
D38*
X181140761Y-127741800D03*
X180268072Y-127072163D03*
X179154039Y-128524000D03*
X180026728Y-129193637D03*
D39*
X185965689Y-118907126D03*
X184949422Y-118486174D03*
X184249111Y-120176874D03*
X185265378Y-120597826D03*
D40*
X188339626Y-109124617D03*
X187249037Y-108981039D03*
X187010174Y-110795383D03*
X188100763Y-110938961D03*
D41*
X188100763Y-99061039D03*
X187010174Y-99204617D03*
X187249037Y-101018961D03*
X188339626Y-100875383D03*
D42*
X185265378Y-89402174D03*
X184249111Y-89823126D03*
X184949422Y-91513826D03*
X185965689Y-91092874D03*
D43*
X180026728Y-80806363D03*
X179154039Y-81476000D03*
X180268072Y-82927837D03*
X181140761Y-82258200D03*
D44*
X172741800Y-73859239D03*
X172072163Y-74731928D03*
X173524000Y-75845961D03*
X174193637Y-74973272D03*
D45*
X163907126Y-69034311D03*
X163486174Y-70050578D03*
X165176874Y-70750889D03*
X165597826Y-69734622D03*
D46*
X154124617Y-66660374D03*
X153981039Y-67750963D03*
X155795383Y-67989826D03*
X155938961Y-66899237D03*
D47*
X144061039Y-66899237D03*
X144204617Y-67989826D03*
X146018961Y-67750963D03*
X145875383Y-66660374D03*
D48*
X134402174Y-69734622D03*
X134823126Y-70750889D03*
X136513826Y-70050578D03*
X136092874Y-69034311D03*
D49*
X125806363Y-74973272D03*
X126476000Y-75845961D03*
X127927837Y-74731928D03*
X127258200Y-73859239D03*
D50*
X118859239Y-82258200D03*
X119731928Y-82927837D03*
X120845961Y-81476000D03*
X119973272Y-80806363D03*
D51*
X114034311Y-91092874D03*
X115050578Y-91513826D03*
X115750889Y-89823126D03*
X114734622Y-89402174D03*
D52*
X111660374Y-100875383D03*
X112750963Y-101018961D03*
X112989826Y-99204617D03*
X111899237Y-99061039D03*
D53*
X111899237Y-110938961D03*
X112989826Y-110795383D03*
X112750963Y-108981039D03*
X111660374Y-109124617D03*
D54*
X114734622Y-120597826D03*
X115750889Y-120176874D03*
X115050578Y-118486174D03*
X114034311Y-118907126D03*
D55*
X119973272Y-129193637D03*
X120845961Y-128524000D03*
X119731928Y-127072163D03*
X118859239Y-127741800D03*
D56*
X127258200Y-136140761D03*
X127927837Y-135268072D03*
X126476000Y-134154039D03*
X125806363Y-135026728D03*
D57*
X136092874Y-140965689D03*
X136513826Y-139949422D03*
X134823126Y-139249111D03*
X134402174Y-140265378D03*
D58*
X145875383Y-143339626D03*
X146018961Y-142249037D03*
X144204617Y-142010174D03*
X144061039Y-143100763D03*
D59*
X158825341Y-144808429D03*
X158489859Y-143295171D03*
D60*
X168827755Y-141167833D03*
X168112045Y-139792967D03*
D61*
X177547182Y-135062490D03*
X176500018Y-133919710D03*
D62*
X184389328Y-126908407D03*
X183082072Y-126075593D03*
D63*
X188887831Y-117261247D03*
X187409569Y-116795153D03*
D64*
X190736162Y-106778605D03*
X189187638Y-106710995D03*
D65*
X189808429Y-96174659D03*
X188295171Y-96510141D03*
D66*
X186167833Y-86172245D03*
X184792967Y-86887955D03*
D67*
X180062490Y-77452818D03*
X178919710Y-78499982D03*
D68*
X171908407Y-70610672D03*
X171075593Y-71917928D03*
D69*
X162261247Y-66112169D03*
X161795153Y-67590431D03*
D70*
X151778605Y-64263838D03*
X151710995Y-65812362D03*
D71*
X148221395Y-64263838D03*
X148289005Y-65812362D03*
D72*
X137738753Y-66112169D03*
X138204847Y-67590431D03*
D73*
X128091593Y-70610672D03*
X128924407Y-71917928D03*
D74*
X119937510Y-77452818D03*
X121080290Y-78499982D03*
D75*
X113832167Y-86172245D03*
X115207033Y-86887955D03*
D76*
X110191571Y-96174659D03*
X111704829Y-96510141D03*
D77*
X109263838Y-106778605D03*
X110812362Y-106710995D03*
D78*
X111112169Y-117261247D03*
X112590431Y-116795153D03*
D79*
X115610672Y-126908407D03*
X116917928Y-126075593D03*
D80*
X122452818Y-135062490D03*
X123499982Y-133919710D03*
D81*
X131172245Y-141167833D03*
X131887955Y-139792967D03*
D82*
X141174659Y-144808429D03*
X141510141Y-143295171D03*
D83*
X171213200Y-83786800D03*
X128786800Y-83786800D03*
X128786800Y-126213200D03*
X171213200Y-126213200D03*
%LPD*%
M02*
