G04 #@! TF.GenerationSoftware,KiCad,Pcbnew,10.0.3*
G04 #@! TF.CreationDate,2026-09-08T17:46:18+02:00*
G04 #@! TF.ProjectId,Halo,48616c6f-2e6b-4696-9361-645f70636258,rev?*
G04 #@! TF.SameCoordinates,Original*
G04 #@! TF.FileFunction,Legend,Bot*
G04 #@! TF.FilePolarity,Positive*
%FSLAX46Y46*%
G04 Gerber Fmt 4.6, Leading zero omitted, Abs format (unit mm)*
G04 Created by KiCad (PCBNEW 10.0.3) date 2026-09-08 17:46:18*
%MOMM*%
%LPD*%
G01*
G04 APERTURE LIST*
%ADD10C,0.800000*%
%ADD11C,0.650000*%
%ADD12O,1.000000X2.100000*%
%ADD13O,1.000000X1.600000*%
%ADD14R,1.700000X1.700000*%
%ADD15C,1.700000*%
%ADD16C,2.200000*%
G04 APERTURE END LIST*
D10*
X159857142Y-107734114D02*
X159857142Y-101734114D01*
X159857142Y-104591257D02*
X156428571Y-104591257D01*
X156428571Y-107734114D02*
X156428571Y-101734114D01*
X153857142Y-106019828D02*
X151000000Y-106019828D01*
X154428571Y-107734114D02*
X152428571Y-101734114D01*
X152428571Y-101734114D02*
X150428571Y-107734114D01*
X145571428Y-107734114D02*
X148428571Y-107734114D01*
X148428571Y-107734114D02*
X148428571Y-101734114D01*
X142428571Y-101734114D02*
X141285714Y-101734114D01*
X141285714Y-101734114D02*
X140714285Y-102019828D01*
X140714285Y-102019828D02*
X140142857Y-102591257D01*
X140142857Y-102591257D02*
X139857142Y-103734114D01*
X139857142Y-103734114D02*
X139857142Y-105734114D01*
X139857142Y-105734114D02*
X140142857Y-106876971D01*
X140142857Y-106876971D02*
X140714285Y-107448400D01*
X140714285Y-107448400D02*
X141285714Y-107734114D01*
X141285714Y-107734114D02*
X142428571Y-107734114D01*
X142428571Y-107734114D02*
X143000000Y-107448400D01*
X143000000Y-107448400D02*
X143571428Y-106876971D01*
X143571428Y-106876971D02*
X143857142Y-105734114D01*
X143857142Y-105734114D02*
X143857142Y-103734114D01*
X143857142Y-103734114D02*
X143571428Y-102591257D01*
X143571428Y-102591257D02*
X143000000Y-102019828D01*
X143000000Y-102019828D02*
X142428571Y-101734114D01*
%LPC*%
D11*
X147110000Y-149000000D03*
X152890000Y-149000000D03*
D12*
X145680000Y-148470000D03*
D13*
X145680000Y-152650000D03*
D12*
X154320000Y-148470000D03*
D13*
X154320000Y-152650000D03*
D14*
X175000000Y-119000000D03*
D15*
X175000000Y-121540000D03*
D16*
X171213200Y-83786800D03*
X128786800Y-83786800D03*
X128786800Y-126213200D03*
X171213200Y-126213200D03*
%LPD*%
M02*
