G04 #@! TF.GenerationSoftware,KiCad,Pcbnew,10.0.3*
G04 #@! TF.CreationDate,2026-09-08T17:46:18+02:00*
G04 #@! TF.ProjectId,Halo,48616c6f-2e6b-4696-9361-645f70636258,rev?*
G04 #@! TF.SameCoordinates,Original*
G04 #@! TF.FileFunction,Soldermask,Top*
G04 #@! TF.FilePolarity,Negative*
%FSLAX46Y46*%
G04 Gerber Fmt 4.6, Leading zero omitted, Abs format (unit mm)*
G04 Created by KiCad (PCBNEW 10.0.3) date 2026-09-08 17:46:18*
%MOMM*%
%LPD*%
G01*
G04 APERTURE LIST*
G04 Aperture macros list*
%AMRoundRect*
0 Rectangle with rounded corners*
0 $1 Rounding radius*
0 $2 $3 $4 $5 $6 $7 $8 $9 X,Y pos of 4 corners*
0 Add a 4 corners polygon primitive as box body*
4,1,4,$2,$3,$4,$5,$6,$7,$8,$9,$2,$3,0*
0 Add four circle primitives for the rounded corners*
1,1,$1+$1,$2,$3*
1,1,$1+$1,$4,$5*
1,1,$1+$1,$6,$7*
1,1,$1+$1,$8,$9*
0 Add four rect primitives between the rounded corners*
20,1,$1+$1,$2,$3,$4,$5,0*
20,1,$1+$1,$4,$5,$6,$7,0*
20,1,$1+$1,$6,$7,$8,$9,0*
20,1,$1+$1,$8,$9,$2,$3,0*%
G04 Aperture macros list end*
%ADD10C,0.650000*%
%ADD11RoundRect,0.150000X-0.150000X-0.575000X0.150000X-0.575000X0.150000X0.575000X-0.150000X0.575000X0*%
%ADD12RoundRect,0.075000X-0.075000X-0.650000X0.075000X-0.650000X0.075000X0.650000X-0.075000X0.650000X0*%
%ADD13O,1.000000X2.100000*%
%ADD14O,1.000000X1.600000*%
%ADD15RoundRect,0.312500X-0.312500X-0.562500X0.312500X-0.562500X0.312500X0.562500X-0.312500X0.562500X0*%
%ADD16RoundRect,0.250000X-0.262500X-0.450000X0.262500X-0.450000X0.262500X0.450000X-0.262500X0.450000X0*%
%ADD17RoundRect,0.150000X-0.512500X-0.150000X0.512500X-0.150000X0.512500X0.150000X-0.512500X0.150000X0*%
%ADD18RoundRect,0.250000X-1.500000X-0.550000X1.500000X-0.550000X1.500000X0.550000X-1.500000X0.550000X0*%
%ADD19RoundRect,0.375000X-0.625000X-0.375000X0.625000X-0.375000X0.625000X0.375000X-0.625000X0.375000X0*%
%ADD20RoundRect,0.500000X-0.500000X-1.400000X0.500000X-1.400000X0.500000X1.400000X-0.500000X1.400000X0*%
%ADD21RoundRect,0.250000X0.475000X-0.250000X0.475000X0.250000X-0.475000X0.250000X-0.475000X-0.250000X0*%
%ADD22R,1.700000X1.700000*%
%ADD23C,1.700000*%
%ADD24C,1.500000*%
%ADD25R,0.800000X0.400000*%
%ADD26R,0.400000X0.800000*%
%ADD27R,1.450000X1.450000*%
%ADD28R,0.700000X0.700000*%
%ADD29RoundRect,0.250000X0.450000X-0.262500X0.450000X0.262500X-0.450000X0.262500X-0.450000X-0.262500X0*%
%ADD30R,1.700000X1.000000*%
%ADD31RoundRect,0.250000X-0.250000X-0.475000X0.250000X-0.475000X0.250000X0.475000X-0.250000X0.475000X0*%
%ADD32RoundRect,0.175000X-0.150661X-0.196345X0.196345X-0.150661X0.150661X0.196345X-0.196345X0.150661X0*%
%ADD33RoundRect,0.175000X-0.094709X-0.228649X0.228649X-0.094709X0.094709X0.228649X-0.228649X0.094709X0*%
%ADD34RoundRect,0.175000X-0.032304X-0.245370X0.245370X-0.032304X0.032304X0.245370X-0.245370X0.032304X0*%
%ADD35RoundRect,0.175000X0.032304X-0.245370X0.245370X0.032304X-0.032304X0.245370X-0.245370X-0.032304X0*%
%ADD36RoundRect,0.175000X0.094709X-0.228649X0.228649X0.094709X-0.094709X0.228649X-0.228649X-0.094709X0*%
%ADD37RoundRect,0.175000X0.150661X-0.196345X0.196345X0.150661X-0.150661X0.196345X-0.196345X-0.150661X0*%
%ADD38RoundRect,0.175000X0.196345X-0.150661X0.150661X0.196345X-0.196345X0.150661X-0.150661X-0.196345X0*%
%ADD39RoundRect,0.175000X0.228649X-0.094709X0.094709X0.228649X-0.228649X0.094709X-0.094709X-0.228649X0*%
%ADD40RoundRect,0.175000X0.245370X-0.032304X0.032304X0.245370X-0.245370X0.032304X-0.032304X-0.245370X0*%
%ADD41RoundRect,0.175000X0.245370X0.032304X-0.032304X0.245370X-0.245370X-0.032304X0.032304X-0.245370X0*%
%ADD42RoundRect,0.175000X0.228649X0.094709X-0.094709X0.228649X-0.228649X-0.094709X0.094709X-0.228649X0*%
%ADD43RoundRect,0.175000X0.196345X0.150661X-0.150661X0.196345X-0.196345X-0.150661X0.150661X-0.196345X0*%
%ADD44RoundRect,0.175000X0.150661X0.196345X-0.196345X0.150661X-0.150661X-0.196345X0.196345X-0.150661X0*%
%ADD45RoundRect,0.175000X0.094709X0.228649X-0.228649X0.094709X-0.094709X-0.228649X0.228649X-0.094709X0*%
%ADD46RoundRect,0.175000X0.032304X0.245370X-0.245370X0.032304X-0.032304X-0.245370X0.245370X-0.032304X0*%
%ADD47RoundRect,0.175000X-0.032304X0.245370X-0.245370X-0.032304X0.032304X-0.245370X0.245370X0.032304X0*%
%ADD48RoundRect,0.175000X-0.094709X0.228649X-0.228649X-0.094709X0.094709X-0.228649X0.228649X0.094709X0*%
%ADD49RoundRect,0.175000X-0.150661X0.196345X-0.196345X-0.150661X0.150661X-0.196345X0.196345X0.150661X0*%
%ADD50RoundRect,0.175000X-0.196345X0.150661X-0.150661X-0.196345X0.196345X-0.150661X0.150661X0.196345X0*%
%ADD51RoundRect,0.175000X-0.228649X0.094709X-0.094709X-0.228649X0.228649X-0.094709X0.094709X0.228649X0*%
%ADD52RoundRect,0.175000X-0.245370X0.032304X-0.032304X-0.245370X0.245370X-0.032304X0.032304X0.245370X0*%
%ADD53RoundRect,0.175000X-0.245370X-0.032304X0.032304X-0.245370X0.245370X0.032304X-0.032304X0.245370X0*%
%ADD54RoundRect,0.175000X-0.228649X-0.094709X0.094709X-0.228649X0.228649X0.094709X-0.094709X0.228649X0*%
%ADD55RoundRect,0.175000X-0.196345X-0.150661X0.150661X-0.196345X0.196345X0.150661X-0.150661X0.196345X0*%
%ADD56RoundRect,0.225000X0.292773X-0.165557X0.195375X0.273777X-0.292773X0.165557X-0.195375X-0.273777X0*%
%ADD57RoundRect,0.225000X0.325646X-0.084140X0.117859X0.315015X-0.325646X0.084140X-0.117859X-0.315015X0*%
%ADD58RoundRect,0.225000X0.336327X0.003010X0.032312X0.334785X-0.336327X-0.003010X-0.032312X-0.334785X0*%
%ADD59RoundRect,0.225000X0.324088X0.089955X-0.055438X0.331740X-0.324088X-0.089955X0.055438X-0.331740X0*%
%ADD60RoundRect,0.225000X0.289763X0.170770X-0.139410X0.306088X-0.289763X-0.170770X0.139410X-0.306088X0*%
%ADD61RoundRect,0.225000X0.235691X0.239948X-0.213881X0.259576X-0.235691X-0.239948X0.213881X-0.259576X0*%
%ADD62RoundRect,0.225000X0.165557X0.292773X-0.273777X0.195375X-0.165557X-0.292773X0.273777X-0.195375X0*%
%ADD63RoundRect,0.225000X0.084140X0.325646X-0.315015X0.117859X-0.084140X-0.325646X0.315015X-0.117859X0*%
%ADD64RoundRect,0.225000X-0.003010X0.336327X-0.334785X0.032312X0.003010X-0.336327X0.334785X-0.032312X0*%
%ADD65RoundRect,0.225000X-0.089955X0.324088X-0.331740X-0.055438X0.089955X-0.324088X0.331740X0.055438X0*%
%ADD66RoundRect,0.225000X-0.170770X0.289763X-0.306088X-0.139410X0.170770X-0.289763X0.306088X0.139410X0*%
%ADD67RoundRect,0.225000X-0.239948X0.235691X-0.259576X-0.213881X0.239948X-0.235691X0.259576X0.213881X0*%
%ADD68RoundRect,0.225000X-0.259576X0.213881X-0.239948X-0.235691X0.259576X-0.213881X0.239948X0.235691X0*%
%ADD69RoundRect,0.225000X-0.306088X0.139410X-0.170770X-0.289763X0.306088X-0.139410X0.170770X0.289763X0*%
%ADD70RoundRect,0.225000X-0.331740X0.055438X-0.089955X-0.324088X0.331740X-0.055438X0.089955X0.324088X0*%
%ADD71RoundRect,0.225000X-0.334785X-0.032312X-0.003010X-0.336327X0.334785X0.032312X0.003010X0.336327X0*%
%ADD72RoundRect,0.225000X-0.315015X-0.117859X0.084140X-0.325646X0.315015X0.117859X-0.084140X0.325646X0*%
%ADD73RoundRect,0.225000X-0.273777X-0.195375X0.165557X-0.292773X0.273777X0.195375X-0.165557X0.292773X0*%
%ADD74RoundRect,0.225000X-0.213881X-0.259576X0.235691X-0.239948X0.213881X0.259576X-0.235691X0.239948X0*%
%ADD75RoundRect,0.225000X-0.139410X-0.306088X0.289763X-0.170770X0.139410X0.306088X-0.289763X0.170770X0*%
%ADD76RoundRect,0.225000X-0.055438X-0.331740X0.324088X-0.089955X0.055438X0.331740X-0.324088X0.089955X0*%
%ADD77RoundRect,0.225000X0.032312X-0.334785X0.336327X-0.003010X-0.032312X0.334785X-0.336327X0.003010X0*%
%ADD78RoundRect,0.225000X0.117859X-0.315015X0.325646X0.084140X-0.117859X0.315015X-0.325646X-0.084140X0*%
%ADD79RoundRect,0.225000X0.195375X-0.273777X0.292773X0.165557X-0.195375X0.273777X-0.292773X-0.165557X0*%
%ADD80C,2.200000*%
G04 APERTURE END LIST*
D10*
X147110000Y-149000000D03*
X152890000Y-149000000D03*
D11*
X146750000Y-147555000D03*
X147550000Y-147555000D03*
D12*
X148750000Y-147555000D03*
X149750000Y-147555000D03*
X150250000Y-147555000D03*
X151250000Y-147555000D03*
D11*
X152450000Y-147555000D03*
X153250000Y-147555000D03*
X153250000Y-147555000D03*
X152450000Y-147555000D03*
D12*
X151750000Y-147555000D03*
X150750000Y-147555000D03*
X149250000Y-147555000D03*
X148250000Y-147555000D03*
D11*
X147550000Y-147555000D03*
X146750000Y-147555000D03*
D13*
X145680000Y-148470000D03*
D14*
X145680000Y-152650000D03*
D13*
X154320000Y-148470000D03*
D14*
X154320000Y-152650000D03*
D15*
X140600000Y-135000000D03*
X143400000Y-135000000D03*
D16*
X163087500Y-125000000D03*
X164912500Y-125000000D03*
X163087500Y-128500000D03*
X164912500Y-128500000D03*
D17*
X148862500Y-131050000D03*
X148862500Y-132000000D03*
X148862500Y-132950000D03*
X151137500Y-132950000D03*
X151137500Y-132000000D03*
X151137500Y-131050000D03*
D18*
X154200000Y-133000000D03*
X159800000Y-133000000D03*
D19*
X134850000Y-122700000D03*
X134850000Y-125000000D03*
D20*
X141150000Y-125000000D03*
D19*
X134850000Y-127300000D03*
D21*
X132000000Y-119950000D03*
X132000000Y-118050000D03*
X135000000Y-119950000D03*
X135000000Y-118050000D03*
X141000000Y-119950000D03*
X141000000Y-118050000D03*
D22*
X175000000Y-119000000D03*
D23*
X175000000Y-121540000D03*
D24*
X170000000Y-113000000D03*
X170000000Y-116000000D03*
X170000000Y-119000000D03*
X130000000Y-97000000D03*
D25*
X144100000Y-79700000D03*
X144100000Y-80500000D03*
X144100000Y-81300000D03*
X144100000Y-82100000D03*
X144100000Y-82900000D03*
X144100000Y-83700000D03*
X144100000Y-84500000D03*
X144100000Y-85300000D03*
X144100000Y-86100000D03*
X144100000Y-86900000D03*
X144100000Y-87700000D03*
D26*
X145200000Y-88600000D03*
X146000000Y-88600000D03*
X146800000Y-88600000D03*
X147600000Y-88600000D03*
X148400000Y-88600000D03*
X149200000Y-88600000D03*
X150000000Y-88600000D03*
X150800000Y-88600000D03*
X151600000Y-88600000D03*
X152400000Y-88600000D03*
X153200000Y-88600000D03*
X154000000Y-88600000D03*
X154800000Y-88600000D03*
D25*
X155900000Y-87700000D03*
X155900000Y-86900000D03*
X155900000Y-86100000D03*
X155900000Y-85300000D03*
X155900000Y-84500000D03*
X155900000Y-83700000D03*
X155900000Y-82900000D03*
X155900000Y-82100000D03*
X155900000Y-81300000D03*
X155900000Y-80500000D03*
X155900000Y-79700000D03*
D26*
X154800000Y-78800000D03*
X154000000Y-78800000D03*
X153200000Y-78800000D03*
X152400000Y-78800000D03*
X151600000Y-78800000D03*
X150800000Y-78800000D03*
X150000000Y-78800000D03*
X149200000Y-78800000D03*
X148400000Y-78800000D03*
X147600000Y-78800000D03*
X146800000Y-78800000D03*
X146000000Y-78800000D03*
X145200000Y-78800000D03*
D27*
X148025000Y-81725000D03*
X150000000Y-81725000D03*
X151975000Y-81725000D03*
X148025000Y-83700000D03*
X150000000Y-83700000D03*
X151975000Y-83700000D03*
X148025000Y-85675000D03*
X150000000Y-85675000D03*
X151975000Y-85675000D03*
D28*
X155950000Y-78750000D03*
X155950000Y-88650000D03*
X144050000Y-88650000D03*
X144050000Y-78750000D03*
D29*
X139500000Y-83112500D03*
X139500000Y-81287500D03*
D21*
X139500000Y-86750000D03*
X139500000Y-84850000D03*
D30*
X132850000Y-89100000D03*
X139150000Y-89100000D03*
X132850000Y-92900000D03*
X139150000Y-92900000D03*
D29*
X136000000Y-84912500D03*
X136000000Y-83087500D03*
X160500000Y-83112500D03*
X160500000Y-81287500D03*
X160500000Y-86712500D03*
X160500000Y-84887500D03*
D30*
X132850000Y-97100000D03*
X139150000Y-97100000D03*
X132850000Y-100900000D03*
X139150000Y-100900000D03*
X160850000Y-89100000D03*
X167150000Y-89100000D03*
X160850000Y-92900000D03*
X167150000Y-92900000D03*
D21*
X139500000Y-75950000D03*
X139500000Y-74050000D03*
X139500000Y-79550000D03*
X139500000Y-77650000D03*
D31*
X132050000Y-75600000D03*
X133950000Y-75600000D03*
D16*
X132087500Y-79500000D03*
X133912500Y-79500000D03*
D17*
X158362500Y-137550000D03*
X158362500Y-138500000D03*
X158362500Y-139450000D03*
X160637500Y-139450000D03*
X160637500Y-137550000D03*
D21*
X164000000Y-135950000D03*
X164000000Y-134050000D03*
D16*
X152087500Y-138500000D03*
X153912500Y-138500000D03*
D32*
X155938961Y-143100763D03*
X155795383Y-142010174D03*
X153981039Y-142249037D03*
X154124617Y-143339626D03*
D33*
X165597826Y-140265378D03*
X165176874Y-139249111D03*
X163486174Y-139949422D03*
X163907126Y-140965689D03*
D34*
X174193637Y-135026728D03*
X173524000Y-134154039D03*
X172072163Y-135268072D03*
X172741800Y-136140761D03*
D35*
X181140761Y-127741800D03*
X180268072Y-127072163D03*
X179154039Y-128524000D03*
X180026728Y-129193637D03*
D36*
X185965689Y-118907126D03*
X184949422Y-118486174D03*
X184249111Y-120176874D03*
X185265378Y-120597826D03*
D37*
X188339626Y-109124617D03*
X187249037Y-108981039D03*
X187010174Y-110795383D03*
X188100763Y-110938961D03*
D38*
X188100763Y-99061039D03*
X187010174Y-99204617D03*
X187249037Y-101018961D03*
X188339626Y-100875383D03*
D39*
X185265378Y-89402174D03*
X184249111Y-89823126D03*
X184949422Y-91513826D03*
X185965689Y-91092874D03*
D40*
X180026728Y-80806363D03*
X179154039Y-81476000D03*
X180268072Y-82927837D03*
X181140761Y-82258200D03*
D41*
X172741800Y-73859239D03*
X172072163Y-74731928D03*
X173524000Y-75845961D03*
X174193637Y-74973272D03*
D42*
X163907126Y-69034311D03*
X163486174Y-70050578D03*
X165176874Y-70750889D03*
X165597826Y-69734622D03*
D43*
X154124617Y-66660374D03*
X153981039Y-67750963D03*
X155795383Y-67989826D03*
X155938961Y-66899237D03*
D44*
X144061039Y-66899237D03*
X144204617Y-67989826D03*
X146018961Y-67750963D03*
X145875383Y-66660374D03*
D45*
X134402174Y-69734622D03*
X134823126Y-70750889D03*
X136513826Y-70050578D03*
X136092874Y-69034311D03*
D46*
X125806363Y-74973272D03*
X126476000Y-75845961D03*
X127927837Y-74731928D03*
X127258200Y-73859239D03*
D47*
X118859239Y-82258200D03*
X119731928Y-82927837D03*
X120845961Y-81476000D03*
X119973272Y-80806363D03*
D48*
X114034311Y-91092874D03*
X115050578Y-91513826D03*
X115750889Y-89823126D03*
X114734622Y-89402174D03*
D49*
X111660374Y-100875383D03*
X112750963Y-101018961D03*
X112989826Y-99204617D03*
X111899237Y-99061039D03*
D50*
X111899237Y-110938961D03*
X112989826Y-110795383D03*
X112750963Y-108981039D03*
X111660374Y-109124617D03*
D51*
X114734622Y-120597826D03*
X115750889Y-120176874D03*
X115050578Y-118486174D03*
X114034311Y-118907126D03*
D52*
X119973272Y-129193637D03*
X120845961Y-128524000D03*
X119731928Y-127072163D03*
X118859239Y-127741800D03*
D53*
X127258200Y-136140761D03*
X127927837Y-135268072D03*
X126476000Y-134154039D03*
X125806363Y-135026728D03*
D54*
X136092874Y-140965689D03*
X136513826Y-139949422D03*
X134823126Y-139249111D03*
X134402174Y-140265378D03*
D55*
X145875383Y-143339626D03*
X146018961Y-142249037D03*
X144204617Y-142010174D03*
X144061039Y-143100763D03*
D56*
X158825341Y-144808429D03*
X158489859Y-143295171D03*
D57*
X168827755Y-141167833D03*
X168112045Y-139792967D03*
D58*
X177547182Y-135062490D03*
X176500018Y-133919710D03*
D59*
X184389328Y-126908407D03*
X183082072Y-126075593D03*
D60*
X188887831Y-117261247D03*
X187409569Y-116795153D03*
D61*
X190736162Y-106778605D03*
X189187638Y-106710995D03*
D62*
X189808429Y-96174659D03*
X188295171Y-96510141D03*
D63*
X186167833Y-86172245D03*
X184792967Y-86887955D03*
D64*
X180062490Y-77452818D03*
X178919710Y-78499982D03*
D65*
X171908407Y-70610672D03*
X171075593Y-71917928D03*
D66*
X162261247Y-66112169D03*
X161795153Y-67590431D03*
D67*
X151778605Y-64263838D03*
X151710995Y-65812362D03*
D68*
X148221395Y-64263838D03*
X148289005Y-65812362D03*
D69*
X137738753Y-66112169D03*
X138204847Y-67590431D03*
D70*
X128091593Y-70610672D03*
X128924407Y-71917928D03*
D71*
X119937510Y-77452818D03*
X121080290Y-78499982D03*
D72*
X113832167Y-86172245D03*
X115207033Y-86887955D03*
D73*
X110191571Y-96174659D03*
X111704829Y-96510141D03*
D74*
X109263838Y-106778605D03*
X110812362Y-106710995D03*
D75*
X111112169Y-117261247D03*
X112590431Y-116795153D03*
D76*
X115610672Y-126908407D03*
X116917928Y-126075593D03*
D77*
X122452818Y-135062490D03*
X123499982Y-133919710D03*
D78*
X131172245Y-141167833D03*
X131887955Y-139792967D03*
D79*
X141174659Y-144808429D03*
X141510141Y-143295171D03*
D80*
X171213200Y-83786800D03*
X128786800Y-83786800D03*
X128786800Y-126213200D03*
X171213200Y-126213200D03*
M02*
