<svg xmlns="http://www.w3.org/2000/svg" width="1500" height="1000" viewBox="0 0 1500 1000" font-family="Helvetica, Arial, sans-serif">
<style>
.w{stroke:#222;stroke-width:1.6;fill:none}
.ref{font-size:12px;font-weight:bold;fill:#1a1a1a}
.val{font-size:11px;fill:#333}
.pin{font-size:10px;fill:#555}
.net{font-size:11px;font-weight:bold;fill:#0b5}
.title{font-size:15px;font-weight:bold;fill:#111}
.note{font-size:11px;fill:#666}
</style>
<rect width="1500" height="1000" fill="#fafafa"/>
<text x="30" y="34" style="font-size:20px;font-weight:bold">Halo v1 : schéma de principe (support téléphone à anneau lumineux, dérivé AdhanBox V3)</text>
<text x="30" y="54" class="note">Les labels verts sont des noms de nets : deux broches portant le même label sont reliées. Détail broche par broche dans SCHEMA.md.</text>
<text x="30" y="95" class="title">1. Entrée USB-C, protection, 5V et 3V3</text>
<rect x="90" y="120" width="130" height="190" rx="4" fill="#ffffff" stroke="#222" stroke-width="1.6"/>
<text x="155.0" y="110" text-anchor="middle" class="ref">J1</text>
<text x="155.0" y="220.0" text-anchor="middle" class="val">USB-C 16P</text>
<line x1="220" y1="140" x2="280" y2="140" class="w"/>
<text x="214" y="144" text-anchor="end" class="pin">VBUS A4 A9 B4 B9</text>
<text x="286" y="144" class="net">VBUS</text>
<line x1="220" y1="170" x2="280" y2="170" class="w"/>
<text x="214" y="174" text-anchor="end" class="pin">CC1 A5</text>
<text x="286" y="174" class="net">CC1</text>
<line x1="220" y1="195" x2="280" y2="195" class="w"/>
<text x="214" y="199" text-anchor="end" class="pin">CC2 B5</text>
<text x="286" y="199" class="net">CC2</text>
<line x1="220" y1="225" x2="280" y2="225" class="w"/>
<text x="214" y="229" text-anchor="end" class="pin">D+ A6 B6</text>
<text x="286" y="229" class="net">USB_DP</text>
<line x1="220" y1="250" x2="280" y2="250" class="w"/>
<text x="214" y="254" text-anchor="end" class="pin">D- A7 B7</text>
<text x="286" y="254" class="net">USB_DM</text>
<line x1="220" y1="285" x2="280" y2="285" class="w"/>
<text x="214" y="289" text-anchor="end" class="pin">GND + SHIELD</text>
<text x="286" y="289" class="net">GND</text>
<rect x="392" y="232" width="16" height="36" fill="#fff" stroke="#222" stroke-width="1.4"/>
<line x1="400" y1="210" x2="400" y2="232" class="w"/>
<line x1="400" y1="268" x2="400" y2="290" class="w"/>
<text x="416" y="248" class="ref">R5</text><text x="416" y="262" class="val">5.1k</text>
<text x="400" y="204" text-anchor="middle" class="net">CC1</text>
<text x="400" y="304" text-anchor="middle" class="net">GND</text>
<rect x="472" y="232" width="16" height="36" fill="#fff" stroke="#222" stroke-width="1.4"/>
<line x1="480" y1="210" x2="480" y2="232" class="w"/>
<line x1="480" y1="268" x2="480" y2="290" class="w"/>
<text x="496" y="248" class="ref">R6</text><text x="496" y="262" class="val">5.1k</text>
<text x="480" y="204" text-anchor="middle" class="net">CC2</text>
<text x="480" y="304" text-anchor="middle" class="net">GND</text>
<rect x="380" y="128" width="40" height="18" fill="#fff" stroke="#222" stroke-width="1.4"/><line x1="380" y1="137" x2="420" y2="137" class="w"/>
<line x1="340" y1="137" x2="380" y2="137" class="w"/><line x1="420" y1="137" x2="460" y2="137" class="w"/>
<text x="400" y="122" text-anchor="middle" class="ref">F1 1.1A</text><text x="466" y="141" class="net">5V</text>
<rect x="640" y="120" width="170" height="90" rx="4" fill="#ffffff" stroke="#222" stroke-width="1.6"/>
<text x="725.0" y="110" text-anchor="middle" class="ref">D1</text>
<text x="725.0" y="170.0" text-anchor="middle" class="val">USBLC6-2SC6</text>
<line x1="600" y1="140" x2="640" y2="140" class="w"/>
<text x="646" y="144" class="pin">1 I/O1</text>
<text x="594" y="144" text-anchor="end" class="net">USB_DP</text>
<line x1="600" y1="165" x2="640" y2="165" class="w"/>
<text x="646" y="169" class="pin">3 I/O2</text>
<text x="594" y="169" text-anchor="end" class="net">USB_DM</text>
<line x1="600" y1="190" x2="640" y2="190" class="w"/>
<text x="646" y="194" class="pin">2 GND</text>
<text x="594" y="194" text-anchor="end" class="net">GND</text>
<line x1="810" y1="140" x2="850" y2="140" class="w"/>
<text x="804" y="144" text-anchor="end" class="pin">6 I/O1</text>
<text x="856" y="144" class="net">USB_DP</text>
<line x1="810" y1="165" x2="850" y2="165" class="w"/>
<text x="804" y="169" text-anchor="end" class="pin">4 I/O2</text>
<text x="856" y="169" class="net">USB_DM</text>
<line x1="810" y1="190" x2="850" y2="190" class="w"/>
<text x="804" y="194" text-anchor="end" class="pin">5 VBUS</text>
<text x="856" y="194" class="net">5V</text>
<line x1="888" y1="246" x2="912" y2="246" class="w"/><path d="M888,254 Q900,262 912,254" fill="none" class="w"/><text x="880" y="242" class="pin">+</text>
<line x1="900" y1="224" x2="900" y2="246" class="w"/>
<line x1="900" y1="254" x2="900" y2="276" class="w"/>
<text x="916" y="248" class="ref">C7</text><text x="916" y="262" class="val">100uF</text>
<text x="900" y="218" text-anchor="middle" class="net">5V</text>
<text x="900" y="290" text-anchor="middle" class="net">GND</text>
<text x="640" y="320" class="note">C7 au plus près de J1 : réservoir du rail LED</text>
<rect x="1010" y="120" width="130" height="90" rx="4" fill="#ffffff" stroke="#222" stroke-width="1.6"/>
<text x="1075.0" y="110" text-anchor="middle" class="ref">U2</text>
<text x="1075.0" y="170.0" text-anchor="middle" class="val">AMS1117-3.3</text>
<line x1="970" y1="145" x2="1010" y2="145" class="w"/>
<text x="1016" y="149" class="pin">3 VIN</text>
<text x="964" y="149" text-anchor="end" class="net">5V</text>
<line x1="1140" y1="145" x2="1180" y2="145" class="w"/>
<text x="1134" y="149" text-anchor="end" class="pin">2 VOUT</text>
<text x="1186" y="149" class="net">3V3</text>
<line x1="970" y1="190" x2="1010" y2="190" class="w"/>
<text x="1016" y="194" class="pin">1 GND</text>
<text x="964" y="194" text-anchor="end" class="net">GND</text>
<line x1="1248" y1="174" x2="1272" y2="174" class="w"/><line x1="1248" y1="182" x2="1272" y2="182" class="w"/>
<line x1="1260" y1="152" x2="1260" y2="174" class="w"/>
<line x1="1260" y1="182" x2="1260" y2="204" class="w"/>
<text x="1276" y="176" class="ref">C1</text><text x="1276" y="190" class="val">10uF</text>
<text x="1260" y="146" text-anchor="middle" class="net">5V</text>
<text x="1260" y="218" text-anchor="middle" class="net">GND</text>
<line x1="1308" y1="174" x2="1332" y2="174" class="w"/><line x1="1308" y1="182" x2="1332" y2="182" class="w"/>
<line x1="1320" y1="152" x2="1320" y2="174" class="w"/>
<line x1="1320" y1="182" x2="1320" y2="204" class="w"/>
<text x="1336" y="176" class="ref">C3</text><text x="1336" y="190" class="val">100nF</text>
<text x="1320" y="146" text-anchor="middle" class="net">5V</text>
<text x="1320" y="218" text-anchor="middle" class="net">GND</text>
<line x1="1388" y1="174" x2="1412" y2="174" class="w"/><line x1="1388" y1="182" x2="1412" y2="182" class="w"/>
<line x1="1400" y1="152" x2="1400" y2="174" class="w"/>
<line x1="1400" y1="182" x2="1400" y2="204" class="w"/>
<text x="1416" y="176" class="ref">C2</text><text x="1416" y="190" class="val">10uF</text>
<text x="1400" y="146" text-anchor="middle" class="net">3V3</text>
<text x="1400" y="218" text-anchor="middle" class="net">GND</text>
<text x="1010" y="282" class="note">C1/C3 en entrée, C2 en sortie (obligatoire pour l'AMS1117)</text>
<text x="30" y="340" class="title">2. Module ESP32-C3-MINI-1, strapping, boutons, capteur</text>
<rect x="330" y="370" width="200" height="300" rx="4" fill="#ffffff" stroke="#222" stroke-width="1.6"/>
<text x="430.0" y="360" text-anchor="middle" class="ref">U1</text>
<text x="430.0" y="525.0" text-anchor="middle" class="val">ESP32-C3-MINI-1-N4</text>
<line x1="290" y1="395" x2="330" y2="395" class="w"/>
<text x="336" y="399" class="pin">3  3V3</text>
<text x="284" y="399" text-anchor="end" class="net">3V3</text>
<line x1="290" y1="425" x2="330" y2="425" class="w"/>
<text x="336" y="429" class="pin">8  EN</text>
<text x="284" y="429" text-anchor="end" class="net">EN</text>
<line x1="290" y1="455" x2="330" y2="455" class="w"/>
<text x="336" y="459" class="pin">5  IO2</text>
<text x="284" y="459" text-anchor="end" class="net">STRAP_IO2</text>
<line x1="290" y1="485" x2="330" y2="485" class="w"/>
<text x="336" y="489" class="pin">12 IO8</text>
<text x="284" y="489" text-anchor="end" class="net">STRAP_IO8</text>
<line x1="290" y1="515" x2="330" y2="515" class="w"/>
<text x="336" y="519" class="pin">23 IO9</text>
<text x="284" y="519" text-anchor="end" class="net">BOOT</text>
<line x1="290" y1="545" x2="330" y2="545" class="w"/>
<text x="336" y="549" class="pin">6  IO3</text>
<text x="284" y="549" text-anchor="end" class="net">BTN_USER</text>
<line x1="290" y1="575" x2="330" y2="575" class="w"/>
<text x="336" y="579" class="pin">7  IO4</text>
<text x="284" y="579" text-anchor="end" class="net">ALS</text>
<line x1="290" y1="640" x2="330" y2="640" class="w"/>
<text x="336" y="644" class="pin">GND (1,2,14,36-53)</text>
<text x="284" y="644" text-anchor="end" class="net">GND</text>
<line x1="530" y1="395" x2="570" y2="395" class="w"/>
<text x="524" y="399" text-anchor="end" class="pin">IO10 16</text>
<text x="576" y="399" class="net">LED_DATA_3V3</text>
<line x1="530" y1="425" x2="570" y2="425" class="w"/>
<text x="524" y="429" text-anchor="end" class="pin">IO18 21</text>
<text x="576" y="429" class="net">USB_DM</text>
<line x1="530" y1="455" x2="570" y2="455" class="w"/>
<text x="524" y="459" text-anchor="end" class="pin">IO19 22</text>
<text x="576" y="459" class="net">USB_DP</text>
<line x1="530" y1="500" x2="570" y2="500" class="w"/>
<text x="524" y="504" text-anchor="end" class="pin">IO0, IO1, IO5-7</text>
<text x="576" y="504" class="net">NC</text>
<line x1="530" y1="530" x2="570" y2="530" class="w"/>
<text x="524" y="534" text-anchor="end" class="pin">IO20/IO21 UART0</text>
<text x="576" y="534" class="net">NC (TP option)</text>
<text x="430" y="688" text-anchor="middle" class="note">antenne au bord de carte, keep-out 15 mm</text>
<rect x="712" y="402" width="16" height="36" fill="#fff" stroke="#222" stroke-width="1.4"/>
<line x1="720" y1="380" x2="720" y2="402" class="w"/>
<line x1="720" y1="438" x2="720" y2="460" class="w"/>
<text x="736" y="418" class="ref">R1</text><text x="736" y="432" class="val">10k</text>
<text x="720" y="374" text-anchor="middle" class="net">3V3</text>
<text x="720" y="474" text-anchor="middle" class="net">EN</text>
<line x1="778" y1="416" x2="802" y2="416" class="w"/><line x1="778" y1="424" x2="802" y2="424" class="w"/>
<line x1="790" y1="394" x2="790" y2="416" class="w"/>
<line x1="790" y1="424" x2="790" y2="446" class="w"/>
<text x="806" y="418" class="ref">C6</text><text x="806" y="432" class="val">1uF</text>
<text x="790" y="388" text-anchor="middle" class="net">EN</text>
<text x="790" y="460" text-anchor="middle" class="net">GND</text>
<circle cx="860" cy="406" r="2.5" fill="#222"/><circle cx="860" cy="434" r="2.5" fill="#222"/><line x1="860" y1="434" x2="874" y2="408" class="w"/>
<line x1="860" y1="384" x2="860" y2="406" class="w"/>
<line x1="860" y1="434" x2="860" y2="456" class="w"/>
<text x="876" y="418" class="ref">SW1</text><text x="876" y="432" class="val">RESET</text>
<text x="860" y="378" text-anchor="middle" class="net">EN</text>
<text x="860" y="470" text-anchor="middle" class="net">GND</text>
<rect x="952" y="402" width="16" height="36" fill="#fff" stroke="#222" stroke-width="1.4"/>
<line x1="960" y1="380" x2="960" y2="402" class="w"/>
<line x1="960" y1="438" x2="960" y2="460" class="w"/>
<text x="976" y="418" class="ref">R4</text><text x="976" y="432" class="val">10k</text>
<text x="960" y="374" text-anchor="middle" class="net">3V3</text>
<text x="960" y="474" text-anchor="middle" class="net">STRAP_IO2</text>
<rect x="1042" y="402" width="16" height="36" fill="#fff" stroke="#222" stroke-width="1.4"/>
<line x1="1050" y1="380" x2="1050" y2="402" class="w"/>
<line x1="1050" y1="438" x2="1050" y2="460" class="w"/>
<text x="1066" y="418" class="ref">R3</text><text x="1066" y="432" class="val">10k</text>
<text x="1050" y="374" text-anchor="middle" class="net">3V3</text>
<text x="1050" y="474" text-anchor="middle" class="net">STRAP_IO8</text>
<rect x="1152" y="402" width="16" height="36" fill="#fff" stroke="#222" stroke-width="1.4"/>
<line x1="1160" y1="380" x2="1160" y2="402" class="w"/>
<line x1="1160" y1="438" x2="1160" y2="460" class="w"/>
<text x="1176" y="418" class="ref">R2</text><text x="1176" y="432" class="val">10k</text>
<text x="1160" y="374" text-anchor="middle" class="net">3V3</text>
<text x="1160" y="474" text-anchor="middle" class="net">BOOT</text>
<circle cx="1230" cy="406" r="2.5" fill="#222"/><circle cx="1230" cy="434" r="2.5" fill="#222"/><line x1="1230" y1="434" x2="1244" y2="408" class="w"/>
<line x1="1230" y1="384" x2="1230" y2="406" class="w"/>
<line x1="1230" y1="434" x2="1230" y2="456" class="w"/>
<text x="1246" y="418" class="ref">SW2</text><text x="1246" y="432" class="val">BOOT</text>
<text x="1230" y="378" text-anchor="middle" class="net">BOOT</text>
<text x="1230" y="470" text-anchor="middle" class="net">GND</text>
<circle cx="1330" cy="406" r="2.5" fill="#222"/><circle cx="1330" cy="434" r="2.5" fill="#222"/><line x1="1330" y1="434" x2="1344" y2="408" class="w"/>
<line x1="1330" y1="384" x2="1330" y2="406" class="w"/>
<line x1="1330" y1="434" x2="1330" y2="456" class="w"/>
<text x="1346" y="418" class="ref">SW3</text><text x="1346" y="432" class="val">USER</text>
<text x="1330" y="378" text-anchor="middle" class="net">BTN_USER</text>
<text x="1330" y="470" text-anchor="middle" class="net">GND</text>
<line x1="708" y1="556" x2="732" y2="556" class="w"/><line x1="708" y1="564" x2="732" y2="564" class="w"/>
<line x1="720" y1="534" x2="720" y2="556" class="w"/>
<line x1="720" y1="564" x2="720" y2="586" class="w"/>
<text x="736" y="558" class="ref">C5</text><text x="736" y="572" class="val">10uF</text>
<text x="720" y="528" text-anchor="middle" class="net">3V3</text>
<text x="720" y="600" text-anchor="middle" class="net">GND</text>
<line x1="778" y1="556" x2="802" y2="556" class="w"/><line x1="778" y1="564" x2="802" y2="564" class="w"/>
<line x1="790" y1="534" x2="790" y2="556" class="w"/>
<line x1="790" y1="564" x2="790" y2="586" class="w"/>
<text x="806" y="558" class="ref">C4</text><text x="806" y="572" class="val">100nF</text>
<text x="790" y="528" text-anchor="middle" class="net">3V3</text>
<text x="790" y="600" text-anchor="middle" class="net">GND</text>
<text x="700" y="630" class="note">C5/C4 à 2 mm de la broche 3V3 du module</text>
<rect x="960" y="530" width="60" height="60" rx="30" fill="#fff" stroke="#222" stroke-width="1.4"/>
<text x="990" y="565" text-anchor="middle" class="val">Q1</text><text x="990" y="520" text-anchor="middle" class="ref">ALS-PT19 (option)</text>
<line x1="990" y1="500" x2="990" y2="530" class="w"/><text x="990" y="494" text-anchor="middle" class="net">3V3</text>
<line x1="990" y1="590" x2="990" y2="620" class="w"/><text x="1000" y="640" class="net">ALS</text>
<rect x="1072" y="582" width="16" height="36" fill="#fff" stroke="#222" stroke-width="1.4"/>
<line x1="1080" y1="560" x2="1080" y2="582" class="w"/>
<line x1="1080" y1="618" x2="1080" y2="640" class="w"/>
<text x="1096" y="598" class="ref">R8</text><text x="1096" y="612" class="val">10k</text>
<text x="1080" y="554" text-anchor="middle" class="net">ALS</text>
<text x="1080" y="654" text-anchor="middle" class="net">GND</text>
<text x="1150" y="600" class="note">Q1 absent = ALS à 0 V = "nuit" ; prévoir le réglage dans l'app</text>
<text x="30" y="730" class="title">3. Translateur de niveau et anneau de 24 LEDs (face arrière)</text>
<rect x="180" y="770" width="150" height="100" rx="4" fill="#ffffff" stroke="#222" stroke-width="1.6"/>
<text x="255.0" y="760" text-anchor="middle" class="ref">U3</text>
<text x="255.0" y="825.0" text-anchor="middle" class="val">74AHCT1G125</text>
<line x1="140" y1="790" x2="180" y2="790" class="w"/>
<text x="186" y="794" class="pin">2 A</text>
<text x="134" y="794" text-anchor="end" class="net">LED_DATA_3V3</text>
<line x1="140" y1="820" x2="180" y2="820" class="w"/>
<text x="186" y="824" class="pin">1 OE</text>
<text x="134" y="824" text-anchor="end" class="net">GND</text>
<line x1="140" y1="850" x2="180" y2="850" class="w"/>
<text x="186" y="854" class="pin">3 GND</text>
<text x="134" y="854" text-anchor="end" class="net">GND</text>
<line x1="330" y1="790" x2="370" y2="790" class="w"/>
<text x="324" y="794" text-anchor="end" class="pin">4 Y</text>
<text x="376" y="794" class="net">LED_DATA_5V</text>
<line x1="330" y1="830" x2="370" y2="830" class="w"/>
<text x="324" y="834" text-anchor="end" class="pin">5 VCC</text>
<text x="376" y="834" class="net">5V</text>
<line x1="468" y1="816" x2="492" y2="816" class="w"/><line x1="468" y1="824" x2="492" y2="824" class="w"/>
<line x1="480" y1="794" x2="480" y2="816" class="w"/>
<line x1="480" y1="824" x2="480" y2="846" class="w"/>
<text x="496" y="818" class="ref">C8</text><text x="496" y="832" class="val">100nF</text>
<text x="480" y="788" text-anchor="middle" class="net">5V</text>
<text x="480" y="860" text-anchor="middle" class="net">GND</text>
<rect x="620" y="781" width="40" height="18" fill="#fff" stroke="#222" stroke-width="1.4"/>
<line x1="585" y1="790" x2="620" y2="790" class="w"/><line x1="660" y1="790" x2="690" y2="790" class="w"/>
<text x="640" y="775" text-anchor="middle" class="ref">R7 330R</text>
<text x="581" y="794" text-anchor="end" class="net">LED_DATA_5V</text>
<rect x="690" y="765" width="90" height="60" rx="4" fill="#ffffff" stroke="#222" stroke-width="1.6"/>
<text x="735.0" y="755" text-anchor="middle" class="ref">LED1</text>
<text x="735.0" y="800.0" text-anchor="middle" class="val"></text>
<text x="694" y="780" class="pin">DIN</text><text x="735" y="815" text-anchor="middle" class="val">WS2812B</text>
<text x="776" y="780" text-anchor="end" class="pin">DOUT</text>
<line x1="735" y1="765" x2="735" y2="745" class="w"/><text x="735" y="738" text-anchor="middle" class="net">5V</text>
<line x1="735" y1="825" x2="735" y2="845" class="w"/><text x="735" y="860" text-anchor="middle" class="net">GND</text>
<text x="748" y="876" class="note">C10 100nF</text>
<rect x="830" y="765" width="90" height="60" rx="4" fill="#ffffff" stroke="#222" stroke-width="1.6"/>
<text x="875.0" y="755" text-anchor="middle" class="ref">LED2</text>
<text x="875.0" y="800.0" text-anchor="middle" class="val"></text>
<text x="834" y="780" class="pin">DIN</text><text x="875" y="815" text-anchor="middle" class="val">WS2812B</text>
<text x="916" y="780" text-anchor="end" class="pin">DOUT</text>
<line x1="780" y1="790" x2="830" y2="790" class="w"/>
<line x1="875" y1="765" x2="875" y2="745" class="w"/><text x="875" y="738" text-anchor="middle" class="net">5V</text>
<line x1="875" y1="825" x2="875" y2="845" class="w"/><text x="875" y="860" text-anchor="middle" class="net">GND</text>
<text x="888" y="876" class="note">C11 100nF</text>
<rect x="970" y="765" width="90" height="60" rx="4" fill="#ffffff" stroke="#222" stroke-width="1.6"/>
<text x="1015.0" y="755" text-anchor="middle" class="ref">LED3</text>
<text x="1015.0" y="800.0" text-anchor="middle" class="val"></text>
<text x="974" y="780" class="pin">DIN</text><text x="1015" y="815" text-anchor="middle" class="val">WS2812B</text>
<text x="1056" y="780" text-anchor="end" class="pin">DOUT</text>
<line x1="920" y1="790" x2="970" y2="790" class="w"/>
<line x1="1015" y1="765" x2="1015" y2="745" class="w"/><text x="1015" y="738" text-anchor="middle" class="net">5V</text>
<line x1="1015" y1="825" x2="1015" y2="845" class="w"/><text x="1015" y="860" text-anchor="middle" class="net">GND</text>
<text x="1028" y="876" class="note">C12 100nF</text>
<line x1="1060" y1="790" x2="1100" y2="790" class="w"/>
<text x="1110" y="795" class="title">…</text>
<rect x="1150" y="765" width="90" height="60" rx="4" fill="#ffffff" stroke="#222" stroke-width="1.6"/>
<text x="1195.0" y="755" text-anchor="middle" class="ref">LED24</text>
<text x="1195.0" y="800.0" text-anchor="middle" class="val"></text>
<text x="1154" y="780" class="pin">DIN</text><text x="1195" y="815" text-anchor="middle" class="val">WS2812B</text>
<line x1="1125" y1="790" x2="1150" y2="790" class="w"/>
<text x="1236" y="780" text-anchor="end" class="pin">DOUT</text><text x="1244" y="794" class="net">NC</text>
<line x1="1195" y1="765" x2="1195" y2="745" class="w"/><text x="1195" y="738" text-anchor="middle" class="net">5V</text>
<line x1="1195" y1="825" x2="1195" y2="845" class="w"/><text x="1195" y="860" text-anchor="middle" class="net">GND</text>
<text x="1208" y="876" class="note">C33 100nF</text>
<text x="180" y="910" class="note">24 LEDs en série sur un cercle r = 38 mm, pas 15°, une capa 100nF par LED entre VDD et GND. Coordonnées de placement dans SCHEMA.md §6.2.</text>
<text x="180" y="930" class="note">Le 74AHCT1G125 remonte la data de 3,3 V à 5 V : le WS2812B-2020 exige un niveau haut ≥ 0,7 × VDD = 3,5 V.</text>
<text x="30" y="975" class="title">Pads DNP : J2 = 5V / GND (alim alternative) ; TP1 5V, TP2 3V3, TP3 GND, TP4 EN</text>
</svg>